<svg enable-background="new 0 0 606 252" viewBox="0 0 606 252" xmlns="http://www.w3.org/2000/svg"><path d="m89.6 93.7c30.4 0 52 4.5 67.5 10.4v-25c-13.1-4.2-33.8-8.6-66.9-8.6-42.1-0-62.2 8.5-72.2 18.5-9.2 9.2-14 21.6-14 37.5s4.8 28.3 14 37.5c10.1 10.3 29.8 18.5 70.9 18.5 32.9 0 53.2-4.6 65.7-17.1 6.9-6.9 10.4-16.5 10.4-33.2v-13.9h-91.7v20.9h64.3c.1 2.4.1 7.9-3.6 11.6-6.7 6.7-23.2 8.9-45.1 8.9-26.8 0-40.8-4.9-47.4-11.5-4.8-4.9-7.3-11.9-7.3-21.7 0-9.5 2.7-17 7.9-22.2 5.8-5.8 20-10.6 47.5-10.6z"/><path d="m602 74.5h-34.1l-54.7 81.9-54.5-81.9h-35.7l71.4 104h36.2z"/><path d="m414 2.5h-29.6l-193.4 247h30.1z" fill="#c60000"/><path d="m370.1 89.3c-9.7-9.8-28.4-18.8-69.6-18.8-39.6 0-59.8 8.8-69.7 18.8-9 9.1-13.9 20.4-13.9 37.2s4.9 28 13.9 37.1c9.7 9.8 29.3 18.9 69.7 18.9s59.8-8.9 69.6-18.8c9-9.1 13.9-20.4 13.9-37.2 0-17-4.9-28.1-13.9-37.2zm-69.5 69.2c-26.3 0-40-5.5-45.8-11.3-4.5-4.6-7.8-10.5-7.8-21.7s2.8-17.2 7.6-22.1c6-6 19.6-10.9 46-10.9s39.5 5 45.7 11.2c4.8 4.9 7.8 10.6 7.8 21.8s-2.8 17.2-7.6 22.1c-6.3 6.2-19.6 10.9-45.9 10.9z"/></svg>