<svg clip-rule="evenodd" fill-rule="evenodd" stroke-linejoin="round" stroke-miterlimit="2" viewBox="0 0 1024 1024" xmlns="http://www.w3.org/2000/svg"><g transform="matrix(1.31487 0 0 1.31487 294.844 -75.966)"><path d="m512.349 163.773c-10.613 12.412-55.999-8.968-86.011-34.623-30.013-25.655-33.277-45.861-22.665-58.28 10.612-12.41 51.792 5.37 81.805 31.026 30.012 25.655 37.49 49.459 26.877 61.877z" fill="#d0ba7f" fill-rule="nonzero"/><path d="m-151.091 758.565c-1.794-7.005-.552-12.99 3.588-17.833l550.575-669.13c-9.875 12.472-6.165 32.39 23.266 57.548 30.012 25.655 75.398 47.035 86.01 34.623l-553.592 658.513h.006c-9.683 11.322-42.077 3.643-70.47-17.264v-.007a142.501 142.501 0 0 1 -8.064-6.388c-.213-.181-.412-.357-.618-.539-3.583-3.087-6.855-6.084-9.815-8.997-2.953-2.906-5.6-5.722-7.936-8.454h-.007c-2.884-3.371-5.303-6.6-7.27-9.692-2.82-4.421-4.702-8.551-5.678-12.374l.006-.006zm554.163-686.965c.194-.246.395-.49.6-.73z" fill="#786c4a"/><path d="m-151.096 758.571 518.487-619.738-512.81 632.112c-2.82-4.421-4.701-8.552-5.677-12.374zm12.954 22.065 494.786-591.561-486.849 600.016c-2.953-2.907-5.601-5.723-7.937-8.455zm17.751 17.452 482.095-576.467-473.413 583.394a142.183 142.183 0 0 1 -8.063-6.389c-.213-.181-.412-.356-.619-.538z" fill="#d0ba7f"/><path d="m56.376 316.857c0 .01-.002.019-.003.027-24.965 11.732-61.035 35.513-73.247 42.613-.008.005-.019-.01-.027-.006-3.62 2.141-14.26 8.635-21.69 12.856l-.019.028c-5.936 3.37-15.254 8.243-18.312 9.89-.01.005-.023-.011-.033-.007-2.544 1.228-10.017 4.999-15.23 7.377-30.814 14.064-29.736-12.817-25.12-24.61 1.16-2.948 2.406-5.641 3.632-8.677l.035-.027c2.822-6.982 5.508-15.8 6.605-33.745l-.033-.004c.335-5.447.522-11.732.522-19.062 0-1.166.014-2.318.04-3.457.751-30.466 12.343-94.769 57.462-117.798.261-.134.51-.254.764-.381l39.23-23.632c5.025-3.029 10.586 1.715 9.46 6.7l40.39-9.99c5.762-1.427 9.695 4.911 6.961 9.353l23.994-5.936c5.193-1.286 8.898 3.746 7.578 8 14.928.241 31.444-.77 51.096-5.079 16.181-3.544 33.388-3.993 51.036-1.728l30.232-3.632c6.54-.79 9.675 7.638 4.455 11.364 22.406 7.042 44.906 17.956 66.366 32.04 3.78 2.48 7.893 4.329 12.101 5.964a5.35 5.35 0 0 1 1.153.616l46.828 32.456c4.382 3.035 3.082 9.113-.952 10.955 10.955 11.739 21.14 24.362 30.312 37.723l39.297 46.124c4.945 5.803.979 15.076-5.22 12.221l-3.45-1.588-.047-.006c11.531 28.63 18.238 59.203 18.46 90.694.227 32.416-4.818 63.62-14.312 92.812l-1.521 30.52c-.322 6.392-8.677 8.148-11.706 2.942-32.382 69.106-90.962 123.492-162.95 150.367l-48.865 22.58c-5.286 2.445-10.251-2.78-8.71-7.578a294.88 294.88 0 0 1 -44.879 3.417c-26.888 0-43.076-1.273-63.451-7.906-1.153.529-2.52.643-3.947.12l-28.619-10.447 57.954-68.937c.483.03.967.06 1.453.088.402 3.095.436 3.082.034-.007 7.377.429 15.002.663 22.901.663 5.347 0 10.533-.234 15.565-.677a163.8 163.8 0 0 0 14.647-1.956c10.298-1.856 19.88-4.67 28.797-8.302 1.32-.536 2.627-1.085 3.913-1.655.999-.442 1.99-.897 2.975-1.36.57-.268 1.126-.556 1.689-.83a132.274 132.274 0 0 0 8.094-4.302 134.596 134.596 0 0 0 8.87-5.581 139.398 139.398 0 0 0 13.582-10.6 137.539 137.539 0 0 0 5.025-4.65 149.506 149.506 0 0 0 4.798-4.871 159.932 159.932 0 0 0 8.925-10.352c.348-.442.69-.891 1.031-1.334a171.683 171.683 0 0 0 8.228-11.558c10.634-16.315 18.748-34.466 24.718-53.16a265.055 265.055 0 0 0 3.946-13.567c6.834-26.024 9.769-52.49 9.769-76.048 0-45.937-19.424-103.379-88.805-125.818-13.655-4.415-29.247-7.47-47.01-8.817a273.029 273.029 0 0 0 -12.167-.644h-.114c-1.454-.047-2.915-.08-4.389-.107-.884-.02-1.789-.027-2.686-.027-.59 0-1.18-.013-1.776-.013-1.052 0-2.07.047-3.116.06-12.79.201-24.724 1.608-36.034 3.98-1.413.295-2.82.603-4.214.932-4.181.978-8.282 2.09-12.308 3.316a206.103 206.103 0 0 0 -11.88 4.027 209.218 209.218 0 0 0 -7.906 3.129l-1.649.704c-.75.314-1.5.636-2.244.964-.704.309-1.407.617-2.104.932-.563.248-1.119.502-1.675.757-.784.362-1.568.717-2.345 1.085l-.158.074zm-111.913 312.107-16.413-14.79c-3.223-2.9-2.46-7.323.22-9.581a313.887 313.887 0 0 1 -6.096-9.628 2.736 2.736 0 0 1 -.804-.724l-17.508-23.444c-1.649-2.205.301-4.77 2.787-4.865a259.13 259.13 0 0 1 -3.913-8.864 2.706 2.706 0 0 1 -.63-.764l-13.467-24.516c-1.407-2.566 1.487-4.938 4.127-4.02-2.961-11.76-4.027-21.75-3.17-29.006.657-5.56 8.302-6.532 10.313-1.306 2.224 5.802 5.031 12.677 8.623 20.235 2.311-.402 4.844.415 6.392 2.887l20.047 32.088c1.447-1.112 3.384-1.206 4.63.543l20.288 28.429c.262.375.436.784.536 1.206 2.52-.683 5.622.013 7.639 2.64l5.877 7.655z" fill="#f6e174"/><path d="m210.15 277.118c-41.15-7.295-83.545-2.174-121.344 15.849-14.236 6.788-18.516 10.59-32.131 20.225-1.712 1.21-3.282 3.307-3.686 5.28 42.264-20.411 89.085-26.176 135.198-17.526 37.717 7.074 72.328 26.073 92.384 59.656 19.602 32.822 20.676 71.936 16.063 108.82-3.5 27.996-10.998 54.025-22.003 79.988-14.283 33.695-41.004 64.1-74.35 79.766-11.442 5.377-23.366 8.594-35.685 11.317-17.084 3.776-35.877 2.972-53.113 1.97.402 3.089 11.182 12.891 18.037 13.025 19.239.365 39.159.47 57.874-4.783 27.47-7.712 49.77-26.706 70.263-45.683 35.698-33.058 66.726-69.107 78.301-117.827 20.79-87.5-32.725-193.57-125.814-210.07l.007-.007z" fill="#deb175" fill-rule="nonzero"/><path d="m410.177 559.139.036.012-.007.007zm0 0c-1.062-.362-24.952-8.729-32.132-31.532-19.23 6.365-37.367-4.999-37.367-4.999s23.618 7.719 39.35-2.713c1.454 2.331 2.801 2.03 3.531 3.162a9.2 9.2 0 0 0 .697-.067c2.199 20.75 24.982 35.548 25.921 36.149zm-310.596-393.124.002-.034.006.006zm0 0c-.045.868-1.092 17.71-14.511 26.338 4.308 7.109 1.306 15.383 1.306 15.383s.905-8.67-3.383-14.164c-.094.054-.181.107-.275.154-2.117-1.715-.322-2.104-1.434-4.656 12.777-5.152 18.06-22.267 18.297-23.055zm-78.594-2.518.002-.016h.006zm0 0c-.04.471-1.154 11.472-16.863 16.199-2.124-1.005-.322-1.233-1.434-2.72 12.778-3.013 18.066-13.03 18.297-13.479zm46.688 0 .001-.016h.007zm0 0c-.039.446-1.048 10.346-14.512 15.402 4.308 4.154 1.307 8.991 1.307 8.991s.904-5.072-3.384-8.281c-.094.027-.181.06-.275.087-2.124-1.005-.321-1.226-1.433-2.72 12.784-3.02 18.065-13.03 18.297-13.479zm-166.185 365.724-.007.007c5.44 1.287 11.658 4.007 16.791 9.682-.53 2.526-1.602.804-3.243 2.506-9.361-11.431-25.153-13.052-26.56-13.173.724 0 5.065-.469 10.653.496 2.406-8.389 11.377-11.149 11.377-11.149s-7.799 4.703-9.011 11.631zm19.062 36.678c6.037-10.265 16.663-14.821 16.663-14.821s-15.236 11.538-15.544 26.05c-2.861-.14-2.58 1.729-5.005.315a28.816 28.816 0 0 1 2.847-9.628c-5.393-3.129-12.764-1.97-12.764-1.97s7.089-2.995 13.803.054zm22.318 32.469-.006-.007c6.499-12.603 21.159-15.772 21.159-15.772s-15.578 7.652-18.359 20.536c-2.526-.616-2.593 1.099-4.516-.583.154-.489.322-.965.496-1.434-7.611-.04-14.767 5.247-14.767 5.247s6.419-7.759 15.993-7.987zm284.801 94.715h.007c2.479 3.296-.301 3.196.382 7.35-21.113 2.895-35.357 27.042-35.357 27.042s6.854-23.015 27.739-32.02c-11.109-17.066-4.583-37.602-4.583-37.602s-1.434 22.486 10.546 35.545c.415-.107.838-.215 1.266-.315zm193.832-350.584v.006s-25.24 7.733-44.771-7.33c-11.21 16.476-32.061 18.795-32.061 18.795s23.304-8.61 29.16-26.56c3.062 1.092 3.718-.617 5.487.697.034-.034.061-.054.094-.081 14.091 15.974 42.091 14.473 42.091 14.473zm-181.041-178.415.007.007s-28.309 38.707-73.462 40.483c-3.39 21.347-21.333 34.5-21.333 34.5s13.521-16.249 14.814-34.507a83.87 83.87 0 0 1 -6.124-.469c-2.365-7.625 2.633-5.641 4.08-13.655 40.363 8.422 82.018-26.359 82.018-26.359zm122.474 82.996v.007s-26.184 22.258-57.287 14.312c-1.722 21.233-18.091 35.679-18.091 35.679s16.677-24.161 10.138-45.488c4.248-1.18 2.928-3.773 7.156-2.875.201.958.361 1.903.495 2.841 25.053 11.679 57.589-4.476 57.589-4.476z" fill="#d0ba7f"/><path d="m116.414 298.612c-.402.054-.804.107-1.213.168-3.906.55-7.738 1.212-11.497 1.983a187.588 187.588 0 0 0 -16.174 4.074 190.43 190.43 0 0 0 -6.54 2.077 192.234 192.234 0 0 0 -5.113 1.795 226.77 226.77 0 0 0 -5.293 2.004c-7.745 34.198 9.287 23.578-22.975 71.559-7.055 10.486-13.045 33.863-2.58 40.952 10.352 7.022 20.182 2.934 27.277-7.37 23.565-34.212 50.654-47.58 66.587-118.897-1.554.027-3.095.067-4.623.128-.127 0-.248.013-.375.013-6.01.248-11.826.764-17.48 1.514z" fill="#f4e79f" fill-rule="nonzero"/><path d="m61.78 366.821s-10.587 8.623-25.213 59.076c0 0-1.334-56.53 25.213-59.076zm13.005 5.279s-12.63 19.136-20.918 62.695c0 0-9.119-53.267 20.918-62.695zm22.057-.268s-17.514 14.178-25.943 60.785c0 0-10.379-57.079 25.943-60.785z" fill="#d0ba7f"/><path d="m154.076 297.145c-1.025-.04-2.063-.08-3.102-.114h-.114c-1.454-.047-2.915-.08-4.389-.107-.884-.014-1.789-.02-2.686-.027-8.108 30.995-8.805 52.972-32.148 87.693-7.056 10.493-12.67 32.717-2.211 39.813 10.352 7.022 26.077-8.128 33.173-18.433 17.568-25.514 39.511-49.756 60.563-101.562-11.926-3.297-25.22-5.608-40.027-6.734a256.021 256.021 0 0 0 -9.065-.53h.006z" fill="#f4e79f" fill-rule="nonzero"/><path d="m119.911 379.879s-16.248 8.751-21.876 51.244c0 0-8.751-48.121 21.876-51.244zm14.881 3.766s-18.955 11.303-20.898 56.001c0 0-16.389-48.503 20.898-56.001zm13.254 4.168s-14.299 7.698-19.25 45.099c0 0-7.699-42.352 19.25-45.099z" fill="#d0ba7f"/><path d="m210.077 624.037a137.458 137.458 0 0 0 8.871-5.581 138.008 138.008 0 0 0 10.325-7.806 143.131 143.131 0 0 0 3.257-2.794 143.759 143.759 0 0 0 5.025-4.65 149.506 149.506 0 0 0 4.797-4.871 158.157 158.157 0 0 0 8.925-10.352c-30.989 2.191-53.495 13.722-115.251-6.848-11.994-3.993-36.624-9.092-42.333 1.702-3.933 7.444 8.577 24.476 20.403 28.563 20.67 7.143 49.856 8.979 87.887 16.932a132.274 132.274 0 0 0 8.094-4.302z" fill="#f4e79f" fill-rule="nonzero"/><path d="m75.428 577.825s6.734 16.101 46.212 25.327c0 0-46.105 3.786-46.212-25.327zm11.525-12.657s4.194 16.945 41.796 32.095c0 0-46.138-3.31-41.796-32.095zm5.547-16.69s2.801 17.226 39.049 35.384c0 0-45.715-7.049-39.049-35.384z" fill="#d0ba7f"/><path d="m285.24 521.932c-15.64 5.788-30.751 13.173-46.807 17.843-20.841 6.061-42.293 8.22-63.948 6.526a40.46 40.46 0 0 0 -4.683-.1l-2.613.113c-.95.04-1.915.139-2.861.221a82.937 82.937 0 0 0 -7.773 1.16s-1.1.22-1.648.341c0 0-2.194.498-3.276.804-2.578.728-5.105 1.537-7.565 2.607-2.626 1.159-4.951 2.512-6.774 4.08-.807.807-1.63 1.522-2.312 2.452 0 0-.403.58-.582.885l-.007.013a9.175 9.175 0 0 0 -1.26 3.9c0 2.51.826 4.953 1.34 7.41.065.311.227.596.385.872l-.385-.872c4.106 9.305 15.703 15.83 25.69 16.583 0 0 3.308.284 4.964.416 2.884.23 5.77.446 8.657.636 9.395.62 18.782.855 28.194.992h2.962c15.81 0 31.618-.948 47.37-2.225a175.883 175.883 0 0 0 8.229-11.558c10.64-16.315 18.747-34.466 24.717-53.16h-.007l-.006.06z" fill="#f4e79f" fill-rule="nonzero"/><path d="m160.072 574.267s-13.206.128-25.594-4.06c-11.451-3.866-22.212-11.417-21.2-26.165 0 0 3.028 9.012 19.859 18.801 6.62 3.853 15.378 7.826 26.935 11.424zm-15.993-22.807c6.673 4.408 15.31 9.045 26.479 13.548 0 0-18.928-1.354-33.26-9.468-9.822-5.554-17.487-14.285-15.43-27.92 0 0 2.713 10.955 22.211 23.84zm20.262-4.912-.007.007c4.053 2.593 8.71 5.246 14.057 7.926 0 0-11.069-1.708-21.843-6.774-11.732-5.521-23.102-15.015-19.431-30.633 0 0 2.198 13.481 27.224 29.474z" fill="#d0ba7f"/><path d="m-56.922 382.265c-.01.005-.023-.011-.033-.007-2.544 1.228-10.017 4.999-15.23 7.377-30.814 14.064-29.736-12.817-25.12-24.61 1.16-2.948 2.406-5.641 3.632-8.677l.035-.027c2.822-6.983 5.509-15.801 6.605-33.749 2.533.268 14.004.724 20.53-11.672 7.364-13.99 14.359-45.287 39.39-61.481.423-.275.858-.543 1.287-.804.134-.08.262-.154.396-.235.301-.174.61-.355.918-.529.053-.027.1-.06.154-.087 6.492-3.612 11.23-9.635 13.427-16.73 2.345-7.579 7.585-16.336 18.935-22.849 24.75-14.197 46.01-3.59 48.764 13.837 2.098 13.286-4.013 44.201-5.574 61.937.348.89.683 1.762.991 2.626.007.007.014.02.014.034.295.824.576 1.635.837 2.439.027.073.047.147.074.22.255.785.49 1.562.717 2.319.013.067.033.127.054.194a82.164 82.164 0 0 1 1.199 4.59c0 .02.013.047.013.067.161.717.315 1.42.45 2.117l.04.215c.133.676.254 1.346.361 2.003.007.06.02.12.027.181.221 1.353.389 2.66.51 3.92a89.835 89.835 0 0 1 .154 1.903c0 .08.013.16.013.24.033.564.06 1.12.08 1.67v.2a51.879 51.879 0 0 1 0 3.23v.187c-.02.49-.047.958-.074 1.427-.006.087-.02.175-.02.255-.033.462-.073.911-.114 1.347l.027.006-.02.201c-.047.456-.094.905-.154 1.334-24.965 11.732-61.035 35.513-73.247 42.613-.008.005-.019-.01-.027-.006-3.62 2.141-14.26 8.635-21.69 12.856l-.019.028c-5.936 3.37-15.254 8.243-18.312 9.89z" fill="#f4e79f"/><g fill-rule="nonzero"><path d="m-72.888 347.243c-7.76-.168-15.592 4.877-20.785 9.105-1.226 3.036-2.472 5.73-3.631 8.677-4.617 11.793-5.695 38.674 25.12 24.61a387.144 387.144 0 0 0 15.229-7.377c3.109-4.911 6.258-11.832 8.04-17.387 2.6-8.094-10.693-17.34-23.987-17.628z" fill="#deb175"/><path d="m-12.687 327.886c-.087-1.287-1.882-1.515-2.291-.288-4.958 14.9-17.762 35.632-23.652 44.77 7.444-4.227 14.667-8.549 21.729-12.877 4.71-10.808 4.737-23.954 4.214-31.599z" fill="#da8561"/><path d="m15.803 252.005c4.462 9.863 11.478 25.387-6.372 33.461-14.191 6.42-24.878-7.444-29.334-17.306-4.462-9.863-.08-21.468 9.783-25.93 9.862-4.463 21.467-.08 25.93 9.782z" fill="#303518"/><path d="m7.106 246.699c2.01 4.449 5.18 11.457-2.874 15.102-6.406 2.894-11.223-3.364-13.24-7.813s-.034-9.688 4.415-11.705c4.45-2.01 9.689-.033 11.706 4.416z" fill="#fff"/><path d="m53.787 269.935c.127.201.254.416.395.603 0 0 1.044 1.067 1.72 1.329 1.258.486 2.87.114 3.823-.823 1.17-1.15 1.43-3.238 1.894-4.76 1.091-3.576 2.416-7.075 3.478-10.66 3.93-13.283 3.584-27.818-4.51-39.62-3.198-4.663-5.199-7.748-9.463-11.43-15.521-13.4-36.68-5.196-51.293 5.422-4.852 3.526-7.044 6.458-9.07 11.62-1.933 4.922 1.064 8.666 6.277 7.388 12.302-3.015 20.987-21.308 35.753-15.908a21.522 21.522 0 0 1 6.71 3.996c7.81 6.83 13.209 16.507 13.84 26.921.51 8.375-4.524 18.204.466 25.915z" fill="#deb175"/></g></g></svg>