<?xml version="1.0" encoding="UTF-8"?><svg id="_圖層_1" xmlns="http://www.w3.org/2000/svg" viewBox="0 0 1200 1200"><defs><style>.cls-1{fill:none;}.cls-2{fill:#f6e174;}.cls-3{fill:#fff;}.cls-4{fill:#f4e79f;}.cls-5{fill:#303518;}.cls-6{fill:#d0ba7f;}.cls-7{fill:#deb175;}.cls-8{fill:#da8561;}</style></defs><path class="cls-7" d="m235.55,426.33c-11.58-.25-23.27,7.28-31.02,13.59-1.83,4.53-3.69,8.55-5.42,12.95-6.89,17.6-8.5,57.72,37.49,36.73,7.78-3.55,15.34-7.24,22.73-11.01,4.64-7.33,9.34-17.66,12-25.95,3.88-12.08-15.96-25.88-35.8-26.31Z"/><path class="cls-8" d="m325.4,397.44c-.13-1.92-2.81-2.26-3.42-.43-7.4,22.24-26.51,53.18-35.3,66.82,11.11-6.31,21.89-12.76,32.43-19.22,7.03-16.13,7.07-35.75,6.29-47.16Z"/><path class="cls-1" d="m422.21,335.84c.44,1.23.86,2.44,1.25,3.64-.39-1.2-.81-2.41-1.25-3.64Z"/><path class="cls-1" d="m423.58,339.81c.38,1.17.74,2.32,1.07,3.46-.34-1.13-.69-2.29-1.07-3.46Z"/><path class="cls-1" d="m426.55,350.5c.24,1.07.47,2.13.67,3.16-.2-1.04-.43-2.09-.67-3.16Z"/><path class="cls-1" d="m427.28,353.99c.2,1.01.38,2.01.54,2.99-.16-.98-.34-1.98-.54-2.99Z"/><path class="cls-1" d="m424.73,343.55c.69,2.36,1.28,4.64,1.79,6.85-.51-2.21-1.1-4.49-1.79-6.85Z"/><path class="cls-1" d="m420.71,331.87c.52,1.32,1.01,2.63,1.48,3.92-.46-1.29-.96-2.59-1.48-3.92Z"/><path class="cls-1" d="m303.83,280.32c.64-.41,1.28-.81,1.92-1.2-.64.39-1.29.79-1.92,1.2Z"/><path class="cls-1" d="m306.35,278.78c.46-.27.91-.54,1.37-.79-.46.26-.92.53-1.37.79Z"/><path class="cls-1" d="m428.87,366.31c.05.85.09,1.68.12,2.49-.03-.82-.07-1.65-.12-2.49Z"/><path class="cls-1" d="m428.42,381.01c.09-.64.16-1.31.23-1.99-.07.68-.14,1.34-.23,1.99Z"/><path class="cls-1" d="m428.99,373.92c.05-1.54.05-3.15,0-4.82.05,1.68.04,3.28,0,4.82Z"/><path class="cls-1" d="m427.86,357.26c.32,2.02.57,3.97.76,5.85-.18-1.88-.43-3.83-.76-5.85Z"/><path class="cls-1" d="m428.64,363.3c.09.9.16,1.78.21,2.65-.06-.87-.13-1.75-.21-2.65Z"/><path class="cls-1" d="m428.85,376.72c-.05.68-.1,1.35-.17,2.01.06-.65.12-1.32.17-2.01Z"/><path class="cls-1" d="m428.98,374.21c-.03.73-.06,1.44-.11,2.13.04-.7.08-1.4.11-2.13Z"/><path class="cls-4" d="m428.69,378.72c.06-.65.12-1.32.17-2.01,0-.12.02-.25.03-.38.04-.7.08-1.4.11-2.13,0-.09,0-.19,0-.28.05-1.54.05-3.15,0-4.82,0-.1,0-.2,0-.3-.03-.82-.07-1.65-.12-2.49,0-.12-.02-.24-.02-.36-.06-.87-.13-1.75-.21-2.65,0-.06-.01-.13-.02-.19-.18-1.88-.43-3.83-.76-5.85-.01-.09-.03-.18-.04-.27-.16-.98-.34-1.98-.54-2.99-.02-.11-.04-.21-.06-.32-.2-1.04-.43-2.09-.67-3.16,0-.03-.02-.07-.02-.1-.51-2.21-1.1-4.49-1.79-6.85-.03-.1-.06-.19-.08-.29-.34-1.13-.69-2.29-1.07-3.46-.04-.11-.07-.22-.11-.33-.39-1.2-.81-2.41-1.25-3.64,0-.02-.01-.04-.02-.05-.46-1.29-.96-2.59-1.48-3.92,0,0,0,0,0,0,2.33-26.47,11.45-72.61,8.32-92.44-4.11-26.01-35.84-41.84-72.78-20.65-16.94,9.72-24.76,22.79-28.26,34.1-3.28,10.59-10.35,19.58-20.04,24.97-.08.04-.15.09-.23.13-.46.26-.92.53-1.37.79-.2.12-.39.23-.59.35-.64.39-1.29.79-1.92,1.2-37.36,24.17-47.8,70.88-58.79,91.76-9.74,18.5-26.86,17.82-30.64,17.42-1.64,26.83-5.66,39.99-9.88,50.42,7.74-6.32,19.44-13.84,31.02-13.59,19.84.43,39.68,14.23,35.8,26.31-2.67,8.29-7.37,18.62-12,25.95,9.37-4.79,18.47-9.73,27.33-14.76,8.79-13.64,27.9-44.59,35.31-66.83.61-1.82,3.29-1.47,3.42.44.78,11.41.74,31.04-6.29,47.17,37.44-22.96,72.06-46.09,109.32-63.6.09-.64.16-1.31.23-1.99.01-.1.02-.2.03-.3Z"/><path class="cls-5" d="m367.92,284.19c6.66,14.72,17.13,37.89-9.51,49.94-21.18,9.58-37.13-11.11-43.78-25.83-6.66-14.72-.12-32.04,14.6-38.7,14.72-6.66,32.04-.12,38.7,14.6Z"/><path class="cls-1" d="m444.84,274c-.05.42-.11.83-.17,1.24.06-.41.12-.82.17-1.24Z"/><path class="cls-1" d="m445.34,266.08c0,.44-.02.87-.03,1.3.01-.43.03-.86.03-1.3Z"/><path class="cls-1" d="m444.06,279.04c-.08.4-.16.8-.24,1.2.08-.4.17-.8.24-1.2Z"/><path class="cls-1" d="m445.1,271.41c-.04.42-.08.83-.13,1.24.04-.41.09-.82.13-1.24Z"/><path class="cls-1" d="m443.57,281.48c-.09.4-.18.79-.27,1.19.09-.4.18-.79.27-1.19Z"/><path class="cls-1" d="m445.27,268.77c-.02.42-.05.83-.08,1.25.03-.42.06-.83.08-1.25Z"/><path class="cls-1" d="m444.49,276.55c-.06.41-.14.81-.21,1.22.07-.41.14-.81.21-1.22Z"/><path class="cls-1" d="m441.14,290.72c-.11.37-.23.73-.34,1.1.11-.37.23-.73.34-1.1Z"/><path class="cls-1" d="m440.46,292.9c-.12.38-.24.75-.37,1.13.12-.38.24-.75.37-1.13Z"/><path class="cls-1" d="m442.43,286.21c-.1.38-.21.74-.31,1.12.1-.37.21-.74.31-1.12Z"/><path class="cls-1" d="m439.78,295.01c-.13.39-.25.76-.38,1.14.13-.38.25-.76.38-1.14Z"/><path class="cls-1" d="m441.8,288.49c-.1.36-.21.72-.32,1.08.11-.36.21-.71.32-1.08Z"/><path class="cls-1" d="m443.02,283.87c-.1.39-.2.78-.3,1.17.1-.39.2-.77.3-1.17Z"/><path class="cls-1" d="m438.31,236.8c.22.44.41.87.62,1.3-.21-.43-.4-.86-.62-1.3Z"/><path class="cls-1" d="m445.3,263.35c.02.45.01.89.02,1.33,0-.44,0-.88-.02-1.33Z"/><path class="cls-1" d="m439.79,239.91c.19.42.35.84.53,1.27-.18-.42-.34-.84-.53-1.27Z"/><path class="cls-1" d="m436.63,233.65c.2.36.37.71.57,1.06-.19-.35-.37-.7-.57-1.06Z"/><path class="cls-1" d="m441.07,242.98c.18.45.32.9.49,1.35-.16-.45-.31-.9-.49-1.35Z"/><path class="cls-1" d="m444.4,254.88c.08.45.13.89.2,1.33-.07-.44-.12-.88-.2-1.33Z"/><path class="cls-1" d="m442.16,246.02c.16.48.29.95.43,1.42-.15-.47-.28-.94-.43-1.42Z"/><path class="cls-1" d="m445.14,260.57c.04.46.05.91.08,1.36-.03-.45-.04-.9-.08-1.36Z"/><path class="cls-1" d="m443.07,249.01c.13.47.23.92.35,1.39-.12-.46-.22-.92-.35-1.39Z"/><path class="cls-1" d="m443.82,251.97c.1.46.18.91.27,1.36-.09-.45-.17-.9-.27-1.36Z"/><path class="cls-1" d="m444.84,257.75c.06.45.09.89.14,1.33-.05-.44-.08-.88-.14-1.33Z"/><path class="cls-1" d="m439.09,297.08c-.16.48-.32.95-.48,1.41.16-.47.32-.94.48-1.41Z"/><path class="cls-1" d="m425.21,311.87s.01.02.02.03c2.73,3.84,8.75,2.53,9.85-2.06.07-.31.16-.62.24-.94-.07.29-.15.58-.22.86-1.12,4.64-7.12,5.98-9.89,2.1Z"/><path class="cls-1" d="m438.3,299.41c-.18.54-.36,1.07-.54,1.59.18-.52.36-1.06.54-1.59Z"/><path class="cls-1" d="m436.85,303.77c-.1.32-.21.63-.31.94.1-.31.2-.63.31-.94Z"/><path class="cls-1" d="m436.3,305.5c-.1.33-.21.66-.3.98.1-.32.2-.65.3-.98Z"/><path class="cls-1" d="m424.61,310.95c-.1-.17-.22-.32-.32-.49.1.17.21.32.32.49Z"/><path class="cls-1" d="m437.48,301.87c-.11.34-.23.69-.34,1.02.11-.34.23-.68.34-1.02Z"/><path class="cls-1" d="m435.79,307.21c-.09.32-.19.65-.28.97.09-.32.18-.64.28-.97Z"/><path class="cls-2" d="m975.04,421.2l5.15,2.37c9.25,4.26,15.17-9.58,7.79-18.24l-58.65-68.84c-13.69-19.94-28.89-38.78-45.24-56.3,6.02-2.75,7.96-11.82,1.42-16.35l-69.89-48.44c-.56-.39-1.14-.7-1.72-.92-6.28-2.44-12.42-5.2-18.06-8.9-32.03-21.02-65.61-37.31-99.05-47.82,7.79-5.56,3.11-18.14-6.65-16.96l-45.12,5.42c-26.34-3.38-52.02-2.71-76.17,2.58-29.33,6.43-53.98,7.94-76.26,7.58,1.97-6.35-3.56-13.86-11.31-11.94l-35.81,8.86c4.08-6.63-1.79-16.09-10.39-13.96l-60.28,14.91c1.68-7.44-6.62-14.52-14.12-10l-58.55,35.27c-.38.19-.75.37-1.14.57-67.34,34.37-84.64,130.34-85.76,175.81-.04,1.7-.06,3.42-.06,5.16,0,10.94-.28,20.32-.78,28.45,3.78.4,20.9,1.07,30.64-17.43,10.99-20.88,21.43-67.58,58.79-91.76.64-.41,1.28-.81,1.92-1.2.2-.12.39-.23.59-.35.46-.27.91-.54,1.37-.79.08-.04.15-.09.23-.13,9.69-5.4,16.76-14.38,20.04-24.97.6-1.92,1.33-3.9,2.2-5.89-.68-1.24-.85-2.69-.5-4.08.68-2.71.14-17.11,33.69-32.71,31.59-14.69,53.78-7.76,71.36,20.28.67,1.07,1.3,2.13,1.9,3.19.2.36.37.71.57,1.06.38.7.77,1.4,1.12,2.09.22.44.41.87.62,1.3.29.61.59,1.21.86,1.81.19.42.35.84.53,1.27.25.6.52,1.21.75,1.81.18.45.32.9.49,1.35.2.56.42,1.12.6,1.68.16.48.29.95.43,1.42.16.53.34,1.05.48,1.57.13.47.23.92.35,1.39.13.52.28,1.05.4,1.57.1.46.18.91.27,1.36.1.52.22,1.04.31,1.55.08.45.13.89.2,1.33.08.51.17,1.03.23,1.54.06.45.09.89.14,1.33.05.5.12,1,.16,1.49.04.46.05.91.08,1.36.03.47.07.95.08,1.42.02.45.01.89.02,1.33,0,.47.02.94.02,1.4,0,.44-.02.87-.03,1.3-.01.46-.02.93-.04,1.39-.02.42-.05.83-.08,1.25-.03.47-.05.93-.09,1.4-.04.42-.08.83-.13,1.24-.05.45-.09.9-.14,1.35-.05.42-.11.83-.17,1.24-.06.43-.11.87-.18,1.3-.06.41-.14.81-.21,1.22-.07.43-.14.86-.22,1.28-.08.4-.16.8-.24,1.2-.08.41-.16.83-.25,1.24-.09.4-.18.79-.27,1.19-.09.4-.18.81-.28,1.2-.1.39-.2.78-.3,1.17-.1.39-.2.78-.3,1.17-.1.38-.21.74-.31,1.12-.11.39-.21.78-.32,1.17-.1.36-.21.72-.32,1.08-.11.38-.23.77-.34,1.15-.11.37-.23.73-.34,1.1-.11.36-.22.72-.33,1.07-.12.38-.24.75-.37,1.13-.11.33-.21.66-.32.99-.13.39-.25.76-.38,1.14-.1.31-.2.62-.31.92-.16.48-.32.95-.48,1.41-.1.31-.21.61-.31.92-.18.54-.36,1.07-.54,1.59-.1.29-.19.58-.29.86-.11.34-.23.69-.34,1.02-.1.3-.19.59-.29.88-.1.32-.21.63-.31.94-.08.27-.16.52-.24.79-.1.33-.21.66-.3.98-.07.25-.14.49-.21.73-.09.32-.19.65-.28.97-.07.25-.13.49-.19.73-.08.31-.17.63-.24.94-1.1,4.59-7.11,5.9-9.85,2.06,0-.01-.01-.02-.02-.03,0,0,0-.01-.01-.02-.2-.29-.39-.6-.59-.9-.11-.17-.22-.32-.32-.49-.29-.49-.57-1.01-.84-1.54-1.14,8.41-2.16,16.3-2.74,22.95.52,1.32,1.01,2.63,1.48,3.92,0,.02.01.04.02.05.44,1.23.86,2.44,1.25,3.64.04.11.07.22.11.33.38,1.17.74,2.32,1.07,3.46.03.1.06.19.08.29.69,2.36,1.29,4.64,1.79,6.85,0,.03.02.07.02.1.24,1.07.47,2.13.67,3.16.02.11.04.21.06.32.2,1.01.38,2.01.54,2.99.02.09.03.18.04.27.32,2.02.57,3.97.76,5.85,0,.06.01.13.02.19.09.9.16,1.78.21,2.65,0,.12.02.24.02.36.05.85.09,1.68.12,2.49,0,.1,0,.2,0,.3.05,1.68.04,3.28,0,4.82,0,.09,0,.19,0,.28-.02.45-.04.87-.07,1.31,19.99-16.49,102.76-76.23,229.06-53.84,166.94,29.59,283.78,277.61,105.68,455.7-100.74,100.74-131.73,110.79-226.01,109-10.23-.19-26.32-14.82-26.92-19.44-85.14-4.94-147.64-28.22-193.7-58.61l-20.3-26.44c-3.01-3.92-7.64-4.96-11.4-3.94-.15-.63-.41-1.24-.8-1.8l-30.28-42.43c-1.86-2.61-4.75-2.47-6.91-.81l-29.92-47.89c-2.31-3.69-6.09-4.91-9.54-4.31-5.36-11.28-9.55-21.54-12.87-30.2-3-7.8-14.41-6.35-15.39,1.95-1.28,10.83.31,25.74,4.73,43.29-3.94-1.37-8.26,2.17-6.16,6l20.1,36.59c.25.45.57.83.94,1.14,1.82,4.35,3.77,8.76,5.84,13.23-3.71.14-6.62,3.97-4.16,7.26l26.13,34.99c.34.46.75.81,1.2,1.08,2.91,4.78,5.94,9.58,9.1,14.37-4,3.37-5.14,9.97-.33,14.3l34.49,31.08c29.1,33.98,65,65.46,107.59,88.84-1.24,4.36.52,9.57,5.81,11.5l79.88,29.16c2.13.78,4.17.61,5.89-.18,30.41,9.9,54.57,11.8,94.7,11.8,22.78,0,45.15-1.74,66.98-5.1-2.3,7.16,5.11,14.96,13,11.31l72.93-33.7c107.44-40.11,194.87-121.28,243.2-224.42,4.52,7.77,16.99,5.15,17.47-4.39l2.27-45.55c14.17-43.57,21.7-90.14,21.36-138.52-.33-47-10.34-92.63-27.55-135.36Z"/><path class="cls-7" d="m424.61,310.95c.19.3.38.62.59.9,0,0,0,.01.01.02,2.77,3.88,8.77,2.55,9.89-2.1.07-.28.15-.58.22-.86.06-.25.12-.49.19-.73.09-.32.18-.64.28-.97.07-.24.14-.48.21-.73.1-.32.2-.65.3-.98.08-.26.16-.52.24-.79.1-.31.2-.63.31-.94.1-.29.19-.58.29-.88.11-.34.23-.68.34-1.02.1-.29.19-.57.29-.86.18-.52.36-1.06.54-1.59.1-.3.21-.61.31-.92.16-.47.32-.94.48-1.41.1-.3.2-.61.31-.92.13-.38.25-.76.38-1.14.11-.33.21-.66.32-.99.12-.38.24-.75.37-1.13.11-.35.22-.71.33-1.07.11-.37.23-.73.34-1.1.12-.38.23-.77.34-1.15.11-.36.21-.71.32-1.08.11-.38.22-.78.32-1.17.1-.37.21-.74.31-1.12.1-.39.2-.78.3-1.17.1-.39.2-.77.3-1.17.1-.4.18-.8.28-1.2.09-.4.18-.79.27-1.19.09-.41.17-.83.25-1.24.08-.4.17-.8.24-1.2.08-.42.15-.85.22-1.28.07-.41.14-.81.21-1.22.07-.43.12-.87.18-1.3.06-.41.12-.82.17-1.24.05-.45.09-.9.14-1.35.04-.41.09-.82.13-1.24.04-.46.06-.93.09-1.4.03-.42.06-.83.08-1.25.02-.46.02-.93.04-1.39.01-.43.03-.86.03-1.3,0-.46-.01-.93-.02-1.4,0-.44,0-.88-.02-1.33-.02-.47-.06-.95-.08-1.42-.03-.45-.04-.9-.08-1.36-.04-.49-.1-1-.16-1.49-.05-.44-.08-.88-.14-1.33-.07-.51-.15-1.03-.23-1.54-.07-.44-.12-.88-.2-1.33-.09-.51-.21-1.03-.31-1.55-.09-.45-.17-.9-.27-1.36-.12-.52-.26-1.05-.4-1.57-.12-.46-.22-.92-.35-1.39-.15-.52-.32-1.05-.48-1.57-.15-.47-.28-.94-.43-1.42-.18-.56-.4-1.12-.6-1.68-.16-.45-.31-.9-.49-1.35-.23-.6-.5-1.2-.75-1.81-.18-.42-.34-.84-.53-1.27-.27-.6-.57-1.21-.86-1.81-.21-.43-.4-.86-.62-1.3-.35-.69-.74-1.39-1.12-2.09-.19-.35-.37-.7-.57-1.06-.6-1.06-1.23-2.12-1.9-3.19-17.58-28.03-39.77-34.97-71.36-20.28-33.54,15.6-33.01,30.01-33.69,32.71-.35,1.4-.17,2.84.5,4.08,1.77,3.25,7.01,5.06,15.4.71,15.91-8.24,39.47-44.77,68.21-3.59,15.01,21.51,9.43,35.93,7.69,53.06-.48,4.7.42,8.59,1.97,11.76.26.53.54,1.05.84,1.54.1.17.21.32.32.49Z"/><path class="cls-3" d="m354.94,276.27c3,6.64,7.73,17.1-4.29,22.54-9.56,4.32-16.75-5.02-19.76-11.66s-.05-14.46,6.59-17.47c6.64-3,14.46-.05,17.47,6.59Z"/><path class="cls-6" d="m177.89,696.47c-.1,0-.17-.01-.17-.01.02.01.08.01.17.01Z"/><path class="cls-6" d="m197.31,697.93c1.81-10.34,13.45-17.36,13.45-17.36,0,0-13.39,4.12-16.98,16.64-8.34-1.44-14.82-.74-15.9-.74,2.1.18,25.67,2.6,39.64,19.66,2.45-2.54,4.05.03,4.84-3.74-7.66-8.47-16.94-12.53-25.06-14.45Z"/><path class="cls-6" d="m225.76,752.67c-10.02-4.55-20.6-.08-20.6-.08,0,0,11-1.73,19.05,2.94-2.09,4.21-3.64,8.99-4.25,14.37,3.62,2.11,3.2-.68,7.47-.47.46-21.66,23.2-38.88,23.2-38.88,0,0-15.86,6.8-24.87,22.12Z"/><path class="cls-6" d="m259.07,801.13c-14.29.34-23.87,11.92-23.87,11.92,0,0,10.68-7.89,22.04-7.83-.26.7-.51,1.41-.74,2.14,2.87,2.51,2.97-.05,6.74.87,4.15-19.23,27.4-30.65,27.4-30.65,0,0-21.88,4.73-31.58,23.54Z"/><path class="cls-6" d="m476.05,874.71s-29.03,14.95-35.1,45.14c-34.26-3.68-60.14,22.02-60.14,22.02,0,0,35.94-21.45,65.65-10.14.88-2.53,2.04-3.59,3-4.45.02,0,.04,0,.07,0,0-.02,0-.04,0-.06,1.27-1.13,2.18-1.95,1.69-5.39-.52-.15-1.04-.28-1.55-.41,2.27-25.59,26.38-46.7,26.38-46.7Z"/><path class="cls-6" d="m684.13,942.49c-.64.15-1.27.31-1.89.47-17.88-19.49-15.74-53.05-15.74-53.05,0,0-9.74,30.65,6.84,56.12-31.17,13.44-41.4,47.79-41.4,47.79,0,0,21.26-36.04,52.77-40.36-1.02-6.2,3.13-6.05-.57-10.97Z"/><path class="cls-6" d="m956.56,742.61s-35.38-22.36-38.73-53.98c-.37.05-.72.08-1.04.1-1.09-1.69-3.1-1.24-5.27-4.72-23.48,15.57-58.73,4.05-58.73,4.05,0,0,27.07,16.96,55.77,7.46,10.96,34.81,48.01,47.08,48.01,47.08Z"/><path class="cls-6" d="m973.42,419.25s-41.79,2.24-62.82-21.6c-.05.04-.09.07-.14.12-2.64-1.96-3.62.59-8.19-1.04-8.74,26.79-43.52,39.64-43.52,39.64,0,0,31.12-3.46,47.85-28.05,29.15,22.48,66.82,10.94,66.82,10.94Z"/><path class="cls-6" d="m703.22,152.97s-62.17,51.91-122.41,39.34c-2.16,11.96-9.62,9-6.09,20.38,3.09.35,6.14.58,9.14.7-1.93,27.25-22.11,51.5-22.11,51.5,0,0,26.78-19.63,31.84-51.49,67.39-2.65,109.64-60.42,109.64-60.42Z"/><path class="cls-6" d="m886.01,276.84s-48.56,24.11-85.95,6.68c-.2-1.4-.44-2.81-.74-4.24-6.31-1.34-4.34,2.53-10.68,4.29,9.76,31.83-15.13,67.89-15.13,67.89,0,0,24.43-21.56,27-53.25,46.42,11.86,85.5-21.36,85.5-21.36Z"/><path class="cls-6" d="m492.97,155.81s-7.8,26.58-27.32,34.45c1.66,3.81-1.02,4.39,2.14,6.95.14-.07.27-.15.41-.23,6.4,8.2,5.05,21.14,5.05,21.14,0,0,4.48-12.35-1.95-22.96,20.56-13.22,21.66-39.36,21.66-39.36Z"/><path class="cls-6" d="m375.66,152.07s-1.21,16.99-25.17,24.2c-3.17-1.5-.48-1.84-2.14-4.06,19.51-4.6,27.32-20.14,27.32-20.14Z"/><path class="cls-6" d="m445.35,152.07s-7.8,15.53-27.32,20.14c1.66,2.23-1.03,2.56,2.14,4.06.14-.04.27-.09.41-.13,6.4,4.79,5.05,12.36,5.05,12.36,0,0,4.48-7.22-1.95-13.42,20.56-7.72,21.66-23.01,21.66-23.01Z"/><path class="cls-4" d="m518.08,353.75c-.6.08-1.2.16-1.81.25-5.83.82-11.55,1.81-17.16,2.96-3.05.63-6.08,1.3-9.07,2.02-5.1,1.22-10.12,2.58-15.07,4.06-3.28.98-6.54,2.01-9.76,3.1-2.56.86-5.1,1.75-7.63,2.68-2.65.97-5.29,1.96-7.9,2.99h0c-11.56,51.04,13.86,35.19-34.29,106.8-10.53,15.65-19.47,50.54-3.85,61.12,15.45,10.48,30.12,4.38,40.71-11,35.17-51.06,75.6-71.01,99.38-177.45-2.32.04-4.62.1-6.9.19-.19,0-.37.02-.56.02-8.97.37-17.65,1.14-26.09,2.26Z"/><path class="cls-6" d="m436.54,455.55s-15.8,12.87-37.63,88.17c0,0-1.99-84.37,37.63-88.17Z"/><path class="cls-6" d="m455.95,463.43s-18.85,28.56-31.22,93.57c0,0-13.61-79.5,31.22-93.57Z"/><path class="cls-6" d="m488.87,463.03s-26.14,21.16-38.72,90.72c0,0-15.49-85.19,38.72-90.72Z"/><path class="cls-4" d="m574.29,351.56c-1.53-.06-3.08-.12-4.63-.17-.06,0-.11,0-.17,0-2.17-.07-4.35-.12-6.55-.16-1.32-.02-2.67-.03-4.01-.04-12.1,46.26-13.14,79.06-47.98,130.88-10.53,15.66-18.91,48.83-3.3,59.42,15.45,10.48,38.92-12.13,49.51-27.51,26.22-38.08,58.97-74.26,90.39-151.58-17.8-4.92-37.64-8.37-59.74-10.05-4.42-.34-8.93-.6-13.53-.79Z"/><path class="cls-6" d="m523.3,475.04s-24.25,13.06-32.65,76.48c0,0-13.06-71.82,32.65-76.48Z"/><path class="cls-6" d="m545.51,480.66s-28.29,16.87-31.19,83.58c0,0-24.46-72.39,31.19-83.58Z"/><path class="cls-6" d="m565.29,486.88s-21.34,11.49-28.73,67.31c0,0-11.49-63.21,28.73-67.31Z"/><path class="cls-4" d="m657.87,839.44c4.55-2.62,8.96-5.41,13.24-8.33,5.35-3.66,10.48-7.55,15.41-11.65,1.64-1.37,3.26-2.75,4.86-4.17,2.56-2.26,5.06-4.57,7.5-6.94,2.44-2.37,4.83-4.79,7.16-7.27,4.66-4.95,9.1-10.11,13.32-15.45-46.25,3.27-79.84,20.48-172.01-10.22-17.9-5.96-54.66-13.57-63.18,2.54-5.87,11.11,12.8,36.53,30.45,42.63,30.85,10.66,74.41,13.4,131.17,25.27,2.86-1.4,5.68-2.85,8.44-4.37,1.22-.67,2.44-1.36,3.64-2.05Z"/><path class="cls-6" d="m456.91,770.47s10.05,24.03,68.97,37.8c0,0-68.81,5.65-68.97-37.8Z"/><path class="cls-6" d="m474.11,751.58s6.26,25.29,62.38,47.9c0,0-68.86-4.94-62.38-47.9Z"/><path class="cls-6" d="m482.39,726.67s4.18,25.71,58.28,52.81c0,0-68.23-10.52-58.28-52.81Z"/><path class="cls-4" d="m605.81,785.59c-.71-.04-1.41-.09-2.11-.14.7.05,1.41.09,2.11.14Z"/><path class="cls-4" d="m609.66,785.82c-.71-.04-1.43-.08-2.14-.13.71.04,1.42.09,2.14.13Z"/><path class="cls-4" d="m613.61,786.04c-.76-.04-1.52-.08-2.27-.12.75.04,1.51.08,2.27.12Z"/><path class="cls-4" d="m617.8,786.25c-.86-.04-1.73-.08-2.59-.12.86.04,1.72.08,2.59.12Z"/><path class="cls-4" d="m602.02,785.34c-.71-.05-1.42-.1-2.12-.15.71.05,1.41.1,2.12.15Z"/><path class="cls-4" d="m594.51,784.79c-.73-.06-1.46-.11-2.18-.17.73.06,1.46.12,2.18.17Z"/><path class="cls-4" d="m598.26,785.07c-.72-.05-1.44-.11-2.16-.16.72.05,1.44.11,2.16.16Z"/><path class="cls-4" d="m635.21,786.83c-.76-.01-1.51-.03-2.26-.05.75.02,1.5.03,2.26.05Z"/><path class="cls-4" d="m643.71,786.94c-.76,0-1.52-.01-2.27-.02.75,0,1.51.01,2.27.02Z"/><path class="cls-4" d="m623.02,786.47c-1.31-.05-2.61-.1-3.9-.16,1.29.06,2.59.11,3.9.16Z"/><path class="cls-4" d="m639.42,786.89c-.76,0-1.51-.02-2.26-.03.75.01,1.5.02,2.26.03Z"/><path class="cls-4" d="m648.1,786.95c-.78,0-1.55,0-2.32,0,.77,0,1.55,0,2.32,0Z"/><path class="cls-4" d="m627.01,786.62c-.92-.03-1.84-.06-2.75-.1.91.03,1.83.07,2.75.1Z"/><path class="cls-4" d="m631.07,786.73c-.78-.02-1.55-.04-2.33-.07.77.02,1.55.05,2.33.07Z"/><path class="cls-4" d="m590.77,784.5c-.78-.06-1.55-.13-2.33-.19.78.06,1.55.13,2.33.19Z"/><path class="cls-4" d="m577.9,783.03c-.54-.12-1.08-.24-1.62-.38.54.14,1.08.26,1.62.38Z"/><path class="cls-4" d="m565.11,778.41c-.21-.11-.43-.22-.64-.33.21.11.42.22.64.33Z"/><path class="cls-4" d="m566.72,779.19c-.25-.12-.5-.23-.74-.35.25.12.49.24.74.35Z"/><path class="cls-4" d="m570.64,780.86c-.51-.19-1.01-.39-1.52-.6.5.21,1.01.41,1.52.6Z"/><path class="cls-4" d="m568.43,779.96c-.3-.13-.59-.25-.89-.39.29.13.59.26.89.39Z"/><path class="cls-4" d="m674.94,719.9c1.6-.31,3.19-.63,4.76-.96-1.57.33-3.15.66-4.76.96Z"/><path class="cls-4" d="m587.06,784.19c-1.09-.09-2.18-.19-3.27-.28,1.09.09,2.18.19,3.27.28Z"/><path class="cls-4" d="m581.26,783.63c-.37-.05-.75-.11-1.13-.17.38.06.75.12,1.13.17Z"/><path class="cls-4" d="m583.36,783.87c-.53-.05-1.06-.11-1.59-.17.53.07,1.06.13,1.59.17Z"/><path class="cls-4" d="m572.3,781.45c-.33-.11-.67-.23-1-.36.33.12.67.24,1,.36Z"/><path class="cls-4" d="m579.55,783.36c-.38-.07-.76-.14-1.14-.22.38.08.76.15,1.14.22Z"/><path class="cls-4" d="m574.01,782c-.34-.1-.68-.21-1.02-.32.34.11.68.22,1.02.32Z"/><path class="cls-4" d="m575.96,782.56c-.44-.12-.88-.24-1.33-.37.44.13.89.25,1.33.37Z"/><path class="cls-4" d="m737.89,699.98c.57-.23,1.15-.47,1.72-.7-.57.23-1.15.47-1.72.7Z"/><path class="cls-4" d="m719.79,783.73c-1.64.13-3.26.26-4.87.39,1.6-.12,3.23-.25,4.87-.39Z"/><polygon class="cls-4" points="770.07 687.05 770.05 687.05 770.07 687.05 770.07 687.05"/><path class="cls-4" d="m712.17,784.32c-1.09.08-2.18.16-3.24.24,1.07-.08,2.16-.16,3.24-.24Z"/><path class="cls-4" d="m705.68,711.98c1.33-.43,2.64-.86,3.95-1.3-1.31.44-2.62.87-3.95,1.3Z"/><path class="cls-4" d="m700.3,785.15c-.97.06-1.93.12-2.89.18.95-.06,1.92-.12,2.89-.18Z"/><path class="cls-4" d="m728.56,703.74c1.11-.44,2.22-.88,3.33-1.32-1.1.44-2.21.88-3.33,1.32Z"/><path class="cls-4" d="m719.8,707.08c1.16-.43,2.32-.86,3.47-1.3-1.15.44-2.3.87-3.47,1.3Z"/><path class="cls-4" d="m715.26,708.73c1.27-.45,2.54-.91,3.8-1.37-1.26.46-2.52.92-3.8,1.37Z"/><path class="cls-4" d="m733.18,701.9c1.01-.41,2.01-.81,3.01-1.22-1,.41-2.01.81-3.01,1.22Z"/><path class="cls-4" d="m694.68,785.49c-.94.06-1.88.11-2.81.16.93-.05,1.87-.11,2.81-.16Z"/><path class="cls-4" d="m723.99,705.51c1.19-.45,2.37-.91,3.54-1.37-1.18.46-2.36.92-3.54,1.37Z"/><path class="cls-4" d="m706.1,784.76c-1.01.07-2.02.14-3.01.21.99-.07,2-.14,3.01-.21Z"/><path class="cls-4" d="m657.28,786.89c-.86.01-1.72.02-2.57.03.85,0,1.71-.02,2.57-.03Z"/><path class="cls-4" d="m650.21,786.95c.79,0,1.6,0,2.4-.01-.8,0-1.61.01-2.4.01Z"/><path class="cls-4" d="m668.72,786.65c-1.31.04-2.61.07-3.9.1,1.29-.03,2.58-.06,3.9-.1Z"/><path class="cls-4" d="m662.3,786.8c-1,.02-2,.04-2.98.06.98-.02,1.98-.04,2.98-.06Z"/><path class="cls-4" d="m678.7,786.3c-.91.04-1.8.07-2.7.1.89-.03,1.79-.07,2.7-.1Z"/><path class="cls-4" d="m683.88,786.07c-.91.04-1.81.08-2.7.12.9-.04,1.79-.08,2.7-.12Z"/><path class="cls-4" d="m673.64,786.49c-.94.03-1.87.06-2.8.09.93-.03,1.86-.06,2.8-.09Z"/><path class="cls-4" d="m689.2,785.8c-.92.05-1.82.09-2.73.14.9-.05,1.81-.09,2.73-.14Z"/><path class="cls-4" d="m710.55,710.37c1.28-.44,2.56-.88,3.82-1.32-1.27.45-2.54.89-3.82,1.32Z"/><path class="cls-4" d="m695.97,714.91c1.42-.4,2.82-.81,4.21-1.22-1.39.42-2.79.82-4.21,1.22Z"/><path class="cls-4" d="m685.91,717.53c1.48-.35,2.94-.72,4.39-1.09-1.45.37-2.91.74-4.39,1.09Z"/><path class="cls-4" d="m680.52,718.76c1.52-.33,3.02-.67,4.51-1.02-1.49.35-2.99.69-4.51,1.02Z"/><path class="cls-4" d="m700.69,713.54c1.41-.42,2.8-.86,4.18-1.3-1.38.44-2.78.87-4.18,1.3Z"/><path class="cls-4" d="m691.09,716.24c1.48-.39,2.95-.78,4.41-1.19-1.45.41-2.92.8-4.41,1.19Z"/><path class="cls-4" d="m580.13,783.46c-.19-.03-.39-.07-.58-.1.19.03.39.07.58.1Z"/><path class="cls-4" d="m592.32,784.62c-.52-.04-1.04-.08-1.56-.12.52.04,1.04.08,1.56.12Z"/><path class="cls-4" d="m685.02,717.74c.3-.07.59-.14.89-.21-.3.07-.59.14-.89.21Z"/><path class="cls-4" d="m659.32,786.86c-.69.01-1.36.02-2.04.03.68,0,1.35-.02,2.04-.03Z"/><path class="cls-4" d="m581.77,783.7c-.17-.02-.34-.05-.51-.07.17.02.34.05.51.07Z"/><path class="cls-4" d="m588.44,784.31c-.46-.04-.92-.08-1.38-.11.46.04.92.08,1.38.11Z"/><path class="cls-4" d="m664.82,786.75c-.85.02-1.68.04-2.52.05.84-.02,1.67-.03,2.52-.05Z"/><path class="cls-4" d="m571.3,781.1c-.22-.08-.44-.16-.66-.24.22.08.44.16.66.24Z"/><path class="cls-4" d="m596.1,784.91c-.53-.04-1.06-.08-1.59-.12.53.04,1.06.08,1.59.12Z"/><path class="cls-4" d="m681.18,786.19c-.83.04-1.66.07-2.48.11.82-.03,1.65-.07,2.48-.11Z"/><path class="cls-4" d="m572.99,781.68c-.23-.07-.46-.15-.68-.23.23.08.46.15.68.23Z"/><path class="cls-4" d="m690.3,716.44c.26-.07.53-.14.79-.21-.26.07-.53.14-.79.21Z"/><path class="cls-4" d="m569.13,780.26c-.24-.1-.47-.2-.7-.3.23.1.47.2.7.3Z"/><path class="cls-4" d="m670.84,786.58c-.71.02-1.42.05-2.12.07.7-.02,1.41-.04,2.12-.07Z"/><path class="cls-4" d="m574.64,782.19c-.21-.06-.42-.13-.63-.19.21.06.42.13.63.19Z"/><path class="cls-4" d="m578.41,783.13c-.17-.04-.34-.07-.52-.11.17.04.34.07.52.11Z"/><path class="cls-4" d="m576.28,782.64c-.1-.03-.21-.06-.31-.08.1.03.21.06.31.08Z"/><path class="cls-4" d="m676.01,786.4c-.79.03-1.59.06-2.37.09.78-.03,1.58-.06,2.37-.09Z"/><path class="cls-4" d="m611.34,785.92c-.56-.03-1.12-.06-1.68-.1.56.03,1.12.07,1.68.1Z"/><path class="cls-4" d="m654.71,786.92c-.71,0-1.4.01-2.1.02.7,0,1.39,0,2.1-.02Z"/><path class="cls-4" d="m632.95,786.78c-.63-.01-1.26-.03-1.88-.04.62.02,1.25.03,1.88.04Z"/><path class="cls-4" d="m628.74,786.67c-.58-.02-1.16-.03-1.73-.05.57.02,1.15.03,1.73.05Z"/><path class="cls-4" d="m637.16,786.86c-.65-.01-1.3-.02-1.95-.03.64.01,1.3.02,1.95.03Z"/><path class="cls-4" d="m624.26,786.52c-.41-.02-.83-.03-1.24-.04.41.02.83.03,1.24.04Z"/><path class="cls-4" d="m650.21,786.95c-.71,0-1.4,0-2.1,0,.7,0,1.4,0,2.1,0Z"/><path class="cls-4" d="m679.7,718.93c.27-.06.55-.11.82-.17-.27.06-.54.12-.82.17Z"/><path class="cls-4" d="m583.36,783.87s0,0,.01,0c.14.01.28.02.42.04-.14-.01-.28-.02-.42-.04,0,0,0,0-.01,0Z"/><path class="cls-4" d="m645.78,786.95c-.69,0-1.38,0-2.07-.01.69,0,1.38,0,2.07.01Z"/><path class="cls-4" d="m641.44,786.92c-.68,0-1.35-.01-2.02-.02.67,0,1.35.02,2.02.02Z"/><path class="cls-4" d="m603.7,785.45c-.56-.04-1.12-.07-1.68-.11.56.04,1.12.08,1.68.11Z"/><path class="cls-4" d="m607.52,785.7c-.57-.03-1.14-.07-1.71-.11.57.04,1.14.07,1.71.11Z"/><path class="cls-4" d="m599.9,785.19c-.54-.04-1.09-.08-1.63-.12.54.04,1.09.08,1.63.12Z"/><path class="cls-4" d="m619.12,786.31c-.44-.02-.88-.04-1.32-.06.44.02.88.04,1.32.06Z"/><path class="cls-4" d="m615.21,786.13c-.53-.03-1.06-.06-1.6-.08.53.03,1.06.06,1.6.08Z"/><path class="cls-4" d="m686.47,785.94c-.87.04-1.73.09-2.59.13.86-.04,1.72-.08,2.59-.13Z"/><path class="cls-4" d="m727.54,704.13c.34-.13.68-.26,1.02-.4-.34.13-.68.27-1.02.4Z"/><path class="cls-4" d="m736.2,700.68c.57-.23,1.13-.46,1.7-.69-.56.23-1.13.46-1.7.69Z"/><path class="cls-4" d="m723.26,705.78c.24-.09.49-.18.73-.28-.24.09-.49.18-.73.28Z"/><path class="cls-4" d="m731.88,702.42c.43-.17.87-.35,1.3-.52-.43.17-.87.35-1.3.52Z"/><path class="cls-4" d="m674.42,719.99c.17-.03.35-.06.53-.1-.17.03-.35.06-.53.1Z"/><path class="cls-4" d="m709.63,710.68c.31-.1.61-.21.92-.31-.3.1-.61.21-.92.31Z"/><path class="cls-4" d="m714.37,709.05c.3-.11.6-.21.89-.32-.3.11-.6.21-.89.32Z"/><path class="cls-4" d="m704.87,712.24c.27-.09.54-.17.81-.26-.27.09-.54.17-.81.26Z"/><path class="cls-4" d="m719.06,707.36c.25-.09.49-.18.73-.27-.25.09-.49.18-.73.27Z"/><path class="cls-4" d="m695.5,715.05c.16-.04.32-.09.48-.14-.16.04-.32.09-.48.14Z"/><path class="cls-4" d="m697.41,785.33c-.92.06-1.83.11-2.73.16.91-.05,1.81-.11,2.73-.16Z"/><path class="cls-4" d="m703.1,784.97c-.94.06-1.87.12-2.8.18.93-.06,1.86-.12,2.8-.18Z"/><path class="cls-4" d="m567.54,779.57c-.27-.12-.55-.25-.82-.38.27.13.55.26.82.38Z"/><path class="cls-4" d="m691.87,785.65c-.9.05-1.78.1-2.67.15.88-.05,1.77-.1,2.67-.15Z"/><path class="cls-4" d="m565.98,778.84c-.29-.14-.58-.28-.87-.43.29.15.58.29.87.43Z"/><path class="cls-4" d="m739.61,699.28c10.37-4.26,20.36-8.5,30.44-12.23-10.08,3.73-20.07,7.97-30.44,12.23Z"/><path class="cls-4" d="m700.18,713.69c.17-.05.34-.1.5-.15-.17.05-.34.1-.5.15Z"/><path class="cls-4" d="m708.92,784.56c-.95.07-1.88.13-2.82.2.94-.07,1.87-.13,2.82-.2Z"/><path class="cls-4" d="m714.92,784.11c-.93.07-1.83.14-2.75.21.92-.07,1.82-.13,2.75-.21Z"/><path class="cls-4" d="m770.05,687.05c-10.08,3.73-20.07,7.97-30.44,12.23-.57.23-1.15.47-1.72.7-.56.23-1.13.46-1.7.69-1,.41-2.01.81-3.01,1.22-.43.17-.87.35-1.3.52-1.1.44-2.21.88-3.33,1.32-.34.13-.68.27-1.02.4-1.18.46-2.36.92-3.54,1.37-.24.09-.49.18-.73.28-1.15.44-2.3.87-3.47,1.3-.25.09-.49.18-.73.27-1.26.46-2.52.92-3.8,1.37-.3.11-.6.21-.89.32-1.27.45-2.54.89-3.82,1.32-.3.1-.61.21-.92.31-1.31.44-2.62.87-3.95,1.3-.27.09-.54.17-.81.26-1.38.44-2.78.87-4.18,1.3-.17.05-.34.1-.5.15-1.39.42-2.79.82-4.21,1.22-.16.04-.32.09-.48.14-1.45.41-2.92.8-4.41,1.19-.26.07-.53.14-.79.21-1.45.37-2.91.74-4.39,1.09-.3.07-.59.14-.89.21-1.49.35-2.99.69-4.51,1.02-.27.06-.54.12-.82.17-1.57.33-3.15.66-4.76.96-.17.03-.35.06-.53.1-1.62.31-3.26.6-4.92.88-.11.02-.22.04-.33.06-1.68.28-3.38.54-5.1.79-.26.04-.51.08-.77.11-1.67.24-3.35.45-5.06.66-.31.04-.62.07-.93.11-1.71.2-3.43.38-5.18.55-.3.03-.6.05-.89.08-1.79.16-3.61.31-5.45.44-.2.01-.41.03-.62.04-1.9.13-3.82.24-5.77.32-.06,0-.12,0-.18,0-1.96.09-3.95.15-5.96.19-.26,0-.52.01-.78.02-1.93.04-3.89.05-5.87.04-.34,0-.68,0-1.02,0-1.97-.01-3.96-.05-5.98-.1-.34,0-.68-.02-1.02-.03-2.06-.06-4.14-.15-6.26-.25-.26-.01-.52-.03-.78-.04-2.23-.12-4.48-.26-6.78-.44,0,0,0,0,0,0-.48-.04-.97-.07-1.48-.09-.07,0-.13,0-.19-.01-.49-.02-1-.04-1.51-.05-.08,0-.17,0-.25,0-.52-.01-1.06-.02-1.6-.02-.07,0-.13,0-.2,0-.57,0-1.16,0-1.76.02,0,0-.01,0-.02,0-1.25.03-2.55.09-3.88.17-.04,0-.08,0-.13,0-.65.04-1.3.09-1.96.14-.04,0-.09,0-.13.01-.67.06-1.36.12-2.05.18,0,0,0,0,0,0h0c-3.75.37-7.68.96-11.6,1.73,0,0-.01,0-.02,0-.81.16-1.63.33-2.44.51,0,0,0,0-.01,0-.8.18-1.6.36-2.4.56-.02,0-.04,0-.05.01-.78.19-1.56.39-2.34.6-.03,0-.06.02-.09.03-.76.21-1.52.42-2.28.64-.04.01-.08.02-.12.03-.75.22-1.49.45-2.22.69-.04.01-.08.03-.12.04-.73.24-1.45.49-2.16.74-.04.01-.07.03-.11.04-.72.26-1.43.53-2.13.81-.02,0-.03.01-.05.02-.71.28-1.41.58-2.1.88,0,0,0,0,0,0h0c-3.92,1.73-7.39,3.75-10.11,6.09,0,0,0,0,0,0-.02.02-.05.04-.07.06-.4.35-.79.71-1.17,1.07-.03.03-.05.05-.08.08-.38.38-.74.76-1.08,1.15-.03.03-.05.06-.08.09-.34.4-.67.8-.97,1.21,0,0-.01.02-.02.03-.31.42-.59.85-.85,1.29,0,0-.01.02-.01.02-.25.42-.46.84-.66,1.27-.03.06-.05.11-.08.17-.19.41-.35.84-.49,1.26-.02.07-.05.14-.07.21-.14.43-.25.86-.35,1.31-.01.06-.02.12-.03.18-.09.47-.16.94-.2,1.42,0,0,0,0,0,0,0,.02,0,.05,0,.07-.29,3.83.47,7.52,2,10.99h0s0,0,0,0c1.84,4.17,4.82,8.01,8.49,11.37.03.03.07.06.1.09.35.32.7.63,1.06.94.02.02.05.04.08.06,1.1.93,2.24,1.82,3.44,2.67.05.04.11.08.16.12.34.24.69.48,1.04.71.13.08.25.17.38.25.34.22.67.44,1.01.65.13.08.27.16.4.24,1.07.66,2.16,1.28,3.28,1.86.21.11.42.22.64.33.29.15.58.29.87.43.25.12.49.24.74.35.27.13.55.26.82.38.29.13.59.26.89.39.23.1.47.2.7.3.5.21,1.01.41,1.52.6.22.08.44.16.66.24.33.12.67.24,1,.36.23.08.46.15.68.23.34.11.68.22,1.02.32.21.06.42.13.63.19.44.13.89.25,1.33.37.1.03.21.06.31.08.54.14,1.08.26,1.62.38.17.04.34.07.52.11.38.08.76.15,1.14.22.19.03.39.07.58.1.38.06.75.12,1.13.17.17.02.34.05.51.07.53.07,1.06.13,1.59.17,0,0,0,0,.01,0,.14.01.28.02.42.04,1.09.09,2.18.19,3.27.28.46.04.92.08,1.38.11.78.06,1.55.13,2.33.19.52.04,1.04.08,1.56.12.73.06,1.46.12,2.18.17.53.04,1.06.08,1.59.12.72.05,1.44.11,2.16.16.54.04,1.09.08,1.63.12.71.05,1.41.1,2.12.15.56.04,1.12.08,1.68.11.7.05,1.41.09,2.11.14.57.04,1.14.07,1.71.11.71.04,1.42.09,2.14.13.56.03,1.12.07,1.68.1.75.04,1.51.08,2.27.12.53.03,1.06.06,1.6.08.86.04,1.72.08,2.59.12.44.02.88.04,1.32.06,1.29.06,2.59.11,3.9.16.41.02.83.03,1.24.04.91.03,1.83.07,2.75.1.57.02,1.15.03,1.73.05.77.02,1.55.05,2.33.07.62.02,1.25.03,1.88.04.75.02,1.5.03,2.26.05.64.01,1.3.02,1.95.03.75.01,1.5.02,2.26.03.67,0,1.35.02,2.02.02.75,0,1.51.01,2.27.02.69,0,1.38,0,2.07.01.77,0,1.55,0,2.32,0,.7,0,1.4,0,2.1,0,.79,0,1.6,0,2.4-.01.7,0,1.39,0,2.1-.02.85,0,1.71-.02,2.57-.03.68,0,1.35-.02,2.04-.03.98-.02,1.98-.04,2.98-.06.84-.02,1.67-.03,2.52-.05,1.29-.03,2.58-.06,3.9-.1.7-.02,1.41-.04,2.12-.07.93-.03,1.86-.06,2.8-.09.78-.03,1.58-.06,2.37-.09.89-.03,1.79-.07,2.7-.1.82-.03,1.65-.07,2.48-.11.9-.04,1.79-.08,2.7-.12.86-.04,1.72-.08,2.59-.13.9-.05,1.81-.09,2.73-.14.88-.05,1.77-.1,2.67-.15.93-.05,1.87-.11,2.81-.16.91-.05,1.81-.11,2.73-.16.95-.06,1.92-.12,2.89-.18.93-.06,1.86-.12,2.8-.18.99-.07,2-.14,3.01-.21.94-.07,1.87-.13,2.82-.2,1.07-.08,2.16-.16,3.24-.24.92-.07,1.82-.13,2.75-.21,1.6-.12,3.23-.25,4.87-.39.37-.03.74-.06,1.11-.09,4.32-5.57,8.41-11.33,12.28-17.25,15.88-24.35,27.98-51.44,36.89-79.34,0,0,0,0-.01,0Z"/><path class="cls-6" d="m583.24,765.16c-17.25-5.37-30.32-11.3-40.2-17.05-25.12-14.61-29.64-28.06-29.64-28.06-1.51,22.01,14.55,33.28,31.64,39.05,18.49,6.25,38.2,6.06,38.2,6.06Z"/><path class="cls-6" d="m559.37,731.12c-29.1-19.23-33.15-35.58-33.15-35.58-3.07,20.35,8.37,33.38,23.03,41.67,21.39,12.11,49.64,14.13,49.64,14.13-16.67-6.72-29.56-13.64-39.52-20.22Z"/><path class="cls-6" d="m589.61,723.79c-37.35-23.87-40.63-43.99-40.63-43.99-5.48,23.31,11.49,37.48,29,45.72,16.08,7.56,32.6,10.11,32.6,10.11-7.98-4-14.93-7.96-20.98-11.83Z"/><path class="cls-7" d="m657.98,321.67c-126.31-22.39-209.07,37.35-229.06,53.84-.6.5-1.15.95-1.64,1.37-1.98,1.68-3.34,3.97-3.86,6.51h0c1.76-.85,3.52-1.69,5.29-2.52,1.16-.55,2.33-1.08,3.5-1.62.83-.38,1.66-.76,2.5-1.13,1.04-.47,2.09-.93,3.14-1.39,1.11-.49,2.23-.97,3.35-1.44.82-.35,1.64-.7,2.46-1.05,2-.83,4-1.65,6.02-2.45,1.92-.76,3.85-1.5,5.78-2.22,3.88-1.45,7.79-2.82,11.75-4.12,1.98-.65,3.97-1.28,5.98-1.89,6.01-1.83,12.13-3.49,18.37-4.95,2.08-.49,4.18-.95,6.29-1.39,16.88-3.54,34.69-5.64,53.78-5.94,1.56-.02,3.08-.09,4.65-.09h0c.89,0,1.77.02,2.65.02,1.34,0,2.69.01,4.01.04,2.2.04,4.38.09,6.55.16.06,0,.11,0,.17,0,1.55.05,3.1.1,4.63.17,4.6.19,9.11.46,13.53.79,26.51,2.01,49.78,6.57,70.16,13.16,103.55,33.49,132.54,119.22,132.54,187.78,0,35.16-4.38,74.66-14.58,113.5-1.78,6.78-3.74,13.54-5.89,20.25-8.91,27.9-21.02,54.99-36.89,79.34-3.86,5.93-7.96,11.68-12.28,17.25-.51.66-1.02,1.33-1.54,1.99-4.22,5.34-8.66,10.49-13.32,15.45-2.33,2.48-4.72,4.9-7.16,7.27-2.44,2.37-4.94,4.69-7.5,6.94-1.6,1.41-3.22,2.8-4.86,4.17-4.93,4.1-10.07,7.99-15.41,11.65-4.28,2.93-8.69,5.71-13.24,8.33-1.2.69-2.42,1.38-3.64,2.05-2.76,1.52-5.58,2.97-8.44,4.37-.84.41-1.67.84-2.52,1.24-1.47.69-2.95,1.37-4.44,2.03-1.92.85-3.87,1.67-5.84,2.47-13.31,5.42-27.61,9.62-42.98,12.39-1.77.32-3.55.62-5.34.9-5.38.85-10.89,1.52-16.52,2.02-7.51.66-15.25,1.01-23.23,1.01h0c-11.79,0-23.17-.35-34.18-.99.6,4.61,16.69,19.24,26.92,19.44,94.27,1.79,125.27-8.26,226.01-109,178.09-178.09,61.26-426.11-105.68-455.7Z"/></svg>