<svg clip-rule="evenodd" fill-rule="evenodd" stroke-linejoin="round" stroke-miterlimit="2" viewBox="0 0 1092 320" xmlns="http://www.w3.org/2000/svg"><path d="m721.084 145.942c-5.205 0-10.042-.841-14.513-2.523-4.47-1.682-8.161-4.326-11.072-7.931s-4.717-8.23-5.418-13.875h16.871c.577 2.157 1.604 3.888 3.08 5.192 1.477 1.305 3.279 2.242 5.408 2.812s4.381.854 6.756.854c1.662 0 3.314-.188 4.955-.566s3.014-1.047 4.12-2.009c1.105-.961 1.658-2.3 1.658-4.017 0-1.262-.312-2.292-.937-3.089-.625-.796-1.504-1.459-2.637-1.988s-2.524-.986-4.172-1.37c-1.002-.274-2.052-.522-3.151-.742s-2.174-.46-3.224-.721c-1.051-.26-2.092-.562-3.122-.906-3.062-.741-6.004-1.61-8.826-2.605-2.823-.996-5.308-2.287-7.458-3.873-2.149-1.587-3.852-3.65-5.108-6.191-1.257-2.54-1.886-5.692-1.886-9.455 0-3.695.646-6.826 1.937-9.395 1.291-2.568 3.008-4.655 5.15-6.262 2.142-1.606 4.504-2.835 7.086-3.687 2.582-.851 5.168-1.445 7.756-1.781 2.589-.337 4.962-.505 7.117-.505 4.903 0 9.261.882 13.072 2.647 3.81 1.764 6.907 4.384 9.29 7.858 2.383 3.475 3.787 7.753 4.212 12.834h-16.171c-.233-1.785-.919-3.268-2.059-4.45-1.14-1.181-2.589-2.074-4.347-2.678s-3.749-.906-5.973-.906c-1.373 0-2.695.117-3.966.35-1.27.234-2.383.601-3.338 1.103-.954.501-1.72 1.147-2.297 1.937-.577.789-.865 1.74-.865 2.852 0 1.236.409 2.293 1.226 3.172.817.88 2.012 1.632 3.585 2.257 1.572.625 3.485 1.246 5.737 1.864 1.593.494 3.231.902 4.913 1.225 1.683.323 3.314.718 4.893 1.184 2.828.687 5.471 1.49 7.93 2.41 2.459.921 4.618 2.095 6.479 3.523 1.861 1.429 3.324 3.293 4.388 5.594 1.065 2.3 1.597 5.18 1.597 8.641 0 4.257-.797 7.859-2.39 10.805s-3.756 5.332-6.489 7.158-5.813 3.158-9.24 3.996c-3.426.838-6.946 1.257-10.557 1.257zm70.122 0c-7.182 0-13.108-1.311-17.777-3.935-4.669-2.623-8.123-6.465-10.362-11.525-2.239-5.061-3.358-11.23-3.358-18.509v-39.758h16.707v40.643c0 2.967.443 5.793 1.328 8.478.886 2.685 2.421 4.865 4.604 6.54 2.183 1.676 5.198 2.513 9.043 2.513 3.914 0 6.898-.851 8.952-2.554 2.053-1.702 3.464-3.896 4.233-6.581s1.153-5.484 1.153-8.396v-40.643h16.728v39.758c0 7.21-1.106 13.349-3.317 18.416-2.211 5.068-5.61 8.927-10.197 11.577-4.587 2.651-10.499 3.976-17.737 3.976zm43.693-.824v-72.903h21.588l18.624 33.557 18.477-33.557h20.785v72.903h-16.705v-49.831l-19.551 34.484h-6.674l-19.837-34.484v49.831zm88.065 0v-72.903h21.588l18.624 33.557 18.477-33.557h20.787v72.903h-16.707v-49.831l-19.551 34.484h-6.674l-19.837-34.484v49.831zm88.066 0v-72.903h16.71v72.903zm42.15 0v-57.432h-21.98v-15.471h60.74v15.471h-22.06v57.432zm-365.468 103v-13.699l20.024-16.418c1.359-1.14 2.921-2.42 4.686-3.842 1.764-1.422 3.467-2.97 5.108-4.646 1.642-1.675 3.009-3.409 4.1-5.201 1.092-1.792 1.638-3.629 1.638-5.51 0-2.526-.783-4.617-2.349-6.272s-3.969-2.483-7.209-2.483c-3.227 0-5.665.735-7.313 2.204-1.648 1.47-2.637 3.276-2.968 5.418h-15.759c.303-5.315 1.728-9.686 4.275-13.112 2.548-3.426 5.803-5.991 9.765-7.694 3.961-1.702 8.153-2.554 12.576-2.554 4.641 0 8.888.865 12.741 2.595 3.852 1.73 6.935 4.268 9.249 7.612 2.315 3.344 3.472 7.447 3.472 12.308 0 3.969-.759 7.622-2.277 10.959-1.517 3.338-3.618 6.445-6.303 9.322s-5.738 5.647-9.157 8.312l-9.291 7.313h26.616v15.388zm90.249.824c-5.467 0-10.085-.957-13.854-2.873-3.77-1.916-6.815-4.587-9.136-8.013-2.321-3.427-4-7.375-5.037-11.845-1.037-4.471-1.555-9.233-1.555-14.287 0-5.219.542-10.105 1.627-14.657s2.815-8.542 5.191-11.968c2.376-3.427 5.463-6.115 9.26-8.065 3.798-1.95 8.381-2.925 13.75-2.925 5.481 0 10.112.992 13.896 2.977 3.783 1.984 6.838 4.72 9.166 8.208 2.329 3.488 4.011 7.475 5.047 11.959 1.037 4.484 1.555 9.226 1.555 14.224 0 5.054-.532 9.823-1.596 14.307-1.065 4.484-2.761 8.453-5.088 11.907-2.328 3.454-5.397 6.159-9.208 8.116s-8.484 2.935-14.018 2.935zm0-15.388c3.062 0 5.489-.752 7.282-2.256 1.792-1.504 3.114-3.409 3.965-5.717.851-2.307 1.408-4.707 1.669-7.199s.392-4.727.392-6.705c0-1.908-.117-4.096-.351-6.561-.234-2.466-.763-4.842-1.587-7.128s-2.104-4.185-3.841-5.696c-1.737-1.51-4.137-2.266-7.199-2.266-3.021 0-5.432.742-7.231 2.225-1.799 1.484-3.135 3.368-4.007 5.655-.873 2.286-1.453 4.662-1.741 7.127s-.432 4.68-.432 6.644c0 1.923.117 4.13.35 6.623.233 2.492.759 4.906 1.576 7.24.817 2.335 2.111 4.254 3.883 5.758s4.196 2.256 7.272 2.256zm34.999 14.564v-13.699l20.024-16.418c1.359-1.14 2.921-2.42 4.686-3.842 1.764-1.422 3.467-2.97 5.108-4.646 1.642-1.675 3.009-3.409 4.1-5.201 1.092-1.792 1.638-3.629 1.638-5.51 0-2.526-.783-4.617-2.349-6.272s-3.969-2.483-7.209-2.483c-3.227 0-5.665.735-7.313 2.204-1.648 1.47-2.637 3.276-2.968 5.418h-15.759c.303-5.315 1.728-9.686 4.275-13.112 2.548-3.426 5.803-5.991 9.765-7.694 3.961-1.702 8.153-2.554 12.576-2.554 4.641 0 8.888.865 12.741 2.595 3.852 1.73 6.935 4.268 9.249 7.612 2.315 3.344 3.472 7.447 3.472 12.308 0 3.969-.759 7.622-2.277 10.959-1.517 3.338-3.618 6.445-6.303 9.322s-5.738 5.647-9.157 8.312l-9.291 7.313h26.616v15.388zm93.236 0v-13.039h-36.174v-12.711l33.248-47.153h19.467v44.723h8.137v15.141h-8.137v13.039zm-17.283-28.18h17.283v-25.792zm-799.569 32.862c-18.091 0-33.835-3.797-47.232-11.392s-23.765-18.389-31.104-32.384c-7.339-13.995-11.008-30.549-11.008-49.664 0-14.336 2.091-27.179 6.272-38.528s10.197-21.035 18.048-29.056 17.28-14.123 28.288-18.304 23.253-6.272 36.736-6.272c13.995 0 26.837 2.347 38.528 7.04s21.419 11.947 29.184 21.76 12.672 22.315 14.72 37.504h-45.824c-1.024-5.461-3.029-9.813-6.016-13.056s-6.741-5.632-11.264-7.168-9.685-2.304-15.488-2.304c-8.533 0-15.701 1.451-21.504 4.352s-10.453 6.784-13.952 11.648-6.016 10.24-7.552 16.128-2.304 11.819-2.304 17.792c0 8.021 1.408 15.744 4.224 23.168s7.424 13.44 13.824 18.048 15.061 6.912 25.984 6.912c5.461 0 10.667-.683 15.616-2.048s9.131-3.541 12.544-6.528 5.547-6.869 6.4-11.648h-42.752v-38.912h91.392v6.656c0 20.309-3.072 37.632-9.216 51.968s-15.531 25.301-28.16 32.896-28.757 11.392-48.384 11.392zm430.848-2.048-65.024-181.248h50.432l44.8 142.336 43.008-142.336h50.176l-64.512 181.248z" fill="#786c4a"/><path d="m441.48 53.191c-4.015 4.695-21.184-3.393-32.538-13.098-11.354-9.706-12.589-17.35-8.574-22.047 4.014-4.696 19.593 2.031 30.947 11.737 11.354 9.705 14.182 18.71 10.168 23.408z" fill="#d0ba7f" fill-rule="nonzero"/><path d="m190.498 278.203c-.678-2.65-.208-4.914 1.358-6.747l208.284-253.134c-3.735 4.718-2.332 12.253 8.802 21.771 11.354 9.705 28.523 17.793 32.538 13.098l-209.426 249.118.002-.001c-3.663 4.284-15.918 1.379-26.659-6.53v-.003c-1.033-.762-2.055-1.565-3.05-2.417-.081-.068-.156-.135-.234-.203-1.356-1.168-2.593-2.302-3.713-3.404-1.117-1.1-2.119-2.165-3.003-3.199l-.002.001c-1.091-1.276-2.006-2.497-2.751-3.667-1.066-1.672-1.778-3.235-2.147-4.681zm209.642-259.881c.074-.093.15-.185.228-.276z" fill="#786c4a"/><path d="m190.497 278.205 196.145-234.449-193.998 239.13c-1.066-1.672-1.778-3.235-2.147-4.681zm4.9 8.347 187.18-223.789-184.177 226.988c-1.117-1.1-2.119-2.165-3.003-3.199zm6.716 6.603 182.378-218.08-179.094 220.7c-1.033-.762-2.055-1.565-3.05-2.417-.081-.068-.156-.135-.234-.203z" fill="#d0ba7f"/><path d="m268.984 111.103c0 .004-.001.007-.001.01-9.445 4.438-23.09 13.435-27.71 16.121-.003.002-.007-.004-.01-.002-1.369.81-5.395 3.266-8.206 4.863l-.007.011c-2.245 1.275-5.77 3.118-6.927 3.741-.004.002-.009-.004-.013-.002-.962.464-3.789 1.89-5.761 2.79-11.657 5.321-11.249-4.849-9.503-9.31.439-1.115.91-2.134 1.374-3.282l.013-.011c1.068-2.641 2.084-5.977 2.499-12.766l-.013-.001c.127-2.061.198-4.438.198-7.211 0-.441.005-.877.015-1.308.284-11.526 4.669-35.851 21.738-44.563.099-.051.193-.097.289-.145l14.841-8.94c1.901-1.145 4.005.649 3.579 2.535l15.279-3.779c2.18-.54 3.668 1.858 2.634 3.538l9.077-2.246c1.964-.486 3.366 1.417 2.867 3.027 5.647.091 11.895-.292 19.329-1.921 6.122-1.341 12.631-1.511 19.307-.654l11.437-1.374c2.474-.299 3.66 2.889 1.686 4.299 8.476 2.664 16.987 6.793 25.106 12.121 1.43.938 2.986 1.637 4.578 2.256.147.056.294.134.436.233l17.715 12.278c1.658 1.148 1.166 3.447-.36 4.144 4.144 4.441 7.997 9.217 11.467 14.271l14.867 17.449c1.87 2.195.37 5.703-1.975 4.623l-1.305-.6-.018-.003c4.362 10.831 6.899 22.397 6.983 34.31.086 12.263-1.822 24.068-5.414 35.111l-.576 11.546c-.121 2.418-3.282 3.082-4.428 1.113-12.25 26.143-34.411 46.717-61.644 56.884l-18.486 8.542c-2 .925-3.878-1.052-3.295-2.867-5.534.852-11.204 1.293-16.978 1.293-10.172 0-16.296-.481-24.004-2.991-.436.2-.953.244-1.493.046l-10.827-3.952 21.924-26.08c.183.012.367.023.55.033.152 1.171.165 1.166.013-.002 2.791.162 5.675.251 8.664.251 2.022 0 3.984-.089 5.888-.256 1.427-.127 2.824-.297 4.187-.512.454-.071.905-.147 1.354-.228 3.896-.703 7.52-1.767 10.894-3.141.499-.203.994-.411 1.48-.626.378-.167.753-.34 1.126-.515.215-.101.426-.21.639-.314.724-.355 1.439-.722 2.139-1.108.309-.169.618-.344.922-.519 1.154-.664 2.272-1.369 3.356-2.112 1.354-.927 2.657-1.913 3.906-2.953.416-.347.827-.699 1.232-1.057.649-.57 1.283-1.158 1.901-1.759.619-.6 1.225-1.214 1.815-1.842 1.181-1.258 2.307-2.563 3.377-3.917.131-.167.261-.337.39-.504 1.095-1.412 2.134-2.869 3.113-4.372 4.022-6.172 7.092-13.039 9.35-20.111.545-1.701 1.042-3.414 1.493-5.133 2.586-9.845 3.696-19.857 3.696-28.769 0-17.378-7.348-39.108-33.596-47.597-5.165-1.671-11.064-2.826-17.783-3.336-1.121-.084-2.264-.152-3.43-.2-.388-.018-.78-.031-1.173-.043h-.043c-.55-.018-1.103-.031-1.661-.041-.334-.007-.676-.01-1.016-.01-.223 0-.446-.005-.672-.005-.398 0-.783.018-1.178.023-4.839.076-9.354.608-13.632 1.505-.535.112-1.067.229-1.595.353-1.581.37-3.132.791-4.656 1.255-.509.154-1.014.314-1.516.479-1.003.329-1.994.676-2.978 1.044-.489.182-.978.37-1.465.563-.512.202-1.019.41-1.526.621l-.623.266c-.284.119-.568.241-.85.365-.266.116-.532.233-.796.352-.212.094-.423.19-.633.287-.297.136-.593.271-.887.41-.02.009-.04.019-.06.028zm-42.337 118.071-6.209-5.595c-1.22-1.097-.931-2.77.083-3.625-.801-1.214-1.569-2.43-2.306-3.642-.114-.068-.218-.157-.304-.274l-6.624-8.869c-.623-.834.114-1.804 1.055-1.84-.525-1.133-1.019-2.251-1.481-3.353-.093-.079-.174-.175-.238-.289l-5.095-9.275c-.532-.971.563-1.868 1.562-1.521-1.121-4.448-1.524-8.227-1.199-10.973.248-2.103 3.14-2.471 3.901-.494.841 2.195 1.903 4.796 3.262 7.655.874-.152 1.833.157 2.418 1.092l7.584 12.139c.548-.42 1.28-.456 1.752.206l7.675 10.754c.099.142.164.297.202.457.954-.259 2.127.005 2.89.998l2.223 2.896z" fill="#f6e174"/><path d="m327.157 96.07c-15.567-2.76-31.605-.823-45.904 5.995-5.386 2.568-7.005 4.006-12.156 7.652-.647.458-1.241 1.251-1.394 1.997 15.988-7.722 33.701-9.902 51.145-6.63 14.269 2.676 27.362 9.863 34.95 22.568 7.415 12.417 7.821 27.213 6.076 41.167-1.324 10.591-4.16 20.438-8.324 30.26-5.403 12.746-15.511 24.249-28.126 30.175-4.329 2.034-8.84 3.251-13.5 4.282-6.463 1.428-13.573 1.124-20.093.745.152 1.168 4.23 4.877 6.823 4.927 7.279.138 14.815.178 21.894-1.809 10.392-2.918 18.829-10.103 26.581-17.282 13.505-12.506 25.243-26.144 29.622-44.574 7.865-33.102-12.38-73.229-47.596-79.471z" fill="#deb175" fill-rule="nonzero"/><path d="m402.828 202.759c.009.003.014.005.014.005l-.003.002s-.003-.002-.011-.007zm0 0c-.401-.137-9.439-3.302-12.155-11.929-7.275 2.408-14.136-1.89-14.136-1.89s8.934 2.92 14.886-1.027c.55.882 1.059.768 1.336 1.196.081-.005.17-.012.263-.025.832 7.85 9.451 13.448 9.806 13.675zm-117.499-148.72c0-.009 0-.013 0-.013l.003.002s-.001.004-.003.011zm0 0c-.017.328-.414 6.7-5.49 9.964 1.63 2.689.494 5.819.494 5.819s.343-3.28-1.28-5.358c-.035.02-.068.041-.104.058-.801-.649-.121-.796-.542-1.761 4.833-1.949 6.832-8.424 6.922-8.722zm-29.733-.953c.001-.004.001-.006.001-.006h.002s-.001.002-.003.006zm0 0c-.015.178-.436 4.34-6.379 6.129-.804-.381-.122-.467-.542-1.03 4.834-1.139 6.834-4.929 6.921-5.099zm17.662 0c.001-.004.001-.006.001-.006h.002s-.001.002-.003.006zm0 0c-.014.169-.396 3.914-5.489 5.827 1.63 1.571.494 3.402.494 3.402s.342-1.919-1.28-3.133c-.036.01-.069.022-.104.033-.804-.381-.122-.464-.542-1.03 4.836-1.142 6.834-4.929 6.921-5.099zm-62.868 138.355-.003.003c2.059.486 4.411 1.516 6.352 3.663-.2.955-.605.304-1.226.948-3.541-4.325-9.516-4.938-10.048-4.984.274 0 1.916-.177 4.03.188.91-3.174 4.304-4.218 4.304-4.218s-2.95 1.779-3.409 4.4zm7.211 13.875c2.284-3.883 6.304-5.606 6.304-5.606s-5.764 4.364-5.88 9.855c-1.083-.054-.976.654-1.894.119.155-1.364.548-2.576 1.077-3.643-2.04-1.183-4.828-.745-4.828-.745s2.681-1.133 5.221.02zm8.443 12.284-.002-.003c2.459-4.768 8.005-5.967 8.005-5.967s-5.894 2.895-6.946 7.769c-.955-.233-.98.416-1.708-.22.058-.185.122-.365.188-.543-2.88-.015-5.587 1.985-5.587 1.985s2.428-2.935 6.05-3.021zm107.742 35.831h.002c.938 1.247-.114 1.209.145 2.78-7.987 1.095-13.376 10.23-13.376 10.23s2.593-8.706 10.494-12.113c-4.203-6.456-1.734-14.225-1.734-14.225s-.542 8.507 3.99 13.447c.157-.041.317-.081.479-.119zm73.327-132.628v.003s-9.548 2.925-16.937-2.773c-4.241 6.233-12.129 7.11-12.129 7.11s8.816-3.257 11.031-10.048c1.159.413 1.407-.233 2.076.264.013-.013.023-.02.036-.031 5.33 6.043 15.923 5.475 15.923 5.475zm-68.488-67.494.002.002s-10.709 14.643-27.791 15.315c-1.282 8.076-8.07 13.051-8.07 13.051s5.115-6.146 5.604-13.054c-.76-.03-1.534-.088-2.317-.177-.895-2.884.996-2.134 1.544-5.166 15.269 3.186 31.028-9.971 31.028-9.971zm46.332 31.397v.003s-9.906 8.42-21.672 5.414c-.651 8.033-6.844 13.497-6.844 13.497s6.309-9.14 3.835-17.208c1.607-.446 1.108-1.427 2.707-1.087.076.362.137.72.188 1.075 9.477 4.418 21.786-1.694 21.786-1.694z" fill="#d0ba7f"/><path d="m291.697 104.201c-.153.02-.305.04-.459.063-1.478.208-2.928.459-4.35.751-.773.159-1.541.329-2.299.512-1.293.309-2.565.654-3.82 1.029-.831.248-1.657.509-2.474.785-.648.218-1.292.444-1.934.68-.671.246-1.34.497-2.002.758-2.93 12.937 3.513 8.919-8.692 27.071-2.669 3.966-4.935 12.81-.975 15.492 3.916 2.656 7.634 1.11 10.318-2.788 8.915-12.943 19.163-17.999 25.191-44.979-.588.01-1.171.025-1.749.048-.049 0-.094.005-.142.005-2.274.094-4.474.289-6.613.573z" fill="#f4e79f" fill-rule="nonzero"/><path d="m271.028 130.004s-4.005 3.263-9.538 22.349c0 0-.504-21.385 9.538-22.349zm4.92 1.998s-4.778 7.239-7.913 23.717c0 0-3.45-20.151 7.913-23.717zm8.345-.102s-6.626 5.364-9.815 22.996c0 0-3.926-21.594 9.815-22.996z" fill="#d0ba7f"/><path d="m305.944 103.646c-.388-.015-.78-.031-1.173-.043h-.043c-.55-.018-1.103-.031-1.661-.041-.334-.005-.676-.007-1.016-.01-3.067 11.726-3.331 20.04-12.162 33.175-2.669 3.969-4.793 12.377-.836 15.061 3.916 2.656 9.865-3.075 12.549-6.973 6.646-9.652 14.948-18.823 22.912-38.422-4.512-1.247-9.541-2.121-15.143-2.547-1.12-.086-2.263-.152-3.429-.2z" fill="#f4e79f" fill-rule="nonzero"/><path d="m293.02 134.945s-6.147 3.31-8.276 19.385c0 0-3.311-18.204 8.276-19.385zm5.629 1.424s-7.17 4.276-7.906 21.185c0 0-6.199-18.348 7.906-21.185zm5.014 1.577s-5.409 2.912-7.282 17.061c0 0-2.913-16.022 7.282-17.061z" fill="#d0ba7f"/><path d="m327.13 227.31c1.153-.664 2.271-1.371 3.356-2.111 1.356-.928 2.656-1.914 3.906-2.953.415-.347.826-.697 1.231-1.057.649-.573 1.283-1.158 1.901-1.759.619-.601 1.225-1.214 1.815-1.843 1.182-1.255 2.307-2.563 3.377-3.916-11.724.829-20.238 5.191-43.6-2.591-4.537-1.51-13.855-3.439-16.015.644-1.488 2.816 3.245 9.26 7.719 10.806 7.819 2.702 18.86 3.396 33.248 6.405.725-.355 1.439-.722 2.139-1.108.309-.169.618-.344.923-.519z" fill="#f4e79f" fill-rule="nonzero"/><path d="m276.192 209.828s2.547 6.091 17.482 9.582c0 0-17.442 1.432-17.482-9.582zm4.359-4.788s1.587 6.41 15.812 12.141c0 0-17.454-1.252-15.812-12.141zm2.099-6.314s1.06 6.517 14.772 13.386c0 0-17.294-2.667-14.772-13.386z" fill="#d0ba7f"/><path d="m355.564 188.684c-5.917 2.189-11.633 4.983-17.707 6.749-7.885 2.294-16 3.11-24.192 2.469-.586-.049-1.184-.057-1.772-.038 0 0-.659.029-.988.043-.359.016-.724.053-1.083.084-.95.094-1.946.243-2.94.439 0 0-.416.083-.623.129 0 0-.831.188-1.24.304-.975.276-1.931.581-2.862.986-.993.439-1.873.951-2.562 1.544-.306.305-.617.575-.875.927 0 0-.152.22-.22.335l-.003.005c-.265.446-.433.957-.476 1.475 0 .95.312 1.874.507 2.804.024.117.086.225.145.329-.048-.109-.097-.219-.145-.329 1.553 3.52 5.94 5.988 9.718 6.273 0 0 1.252.107 1.878.157 1.091.087 2.183.169 3.275.241 3.554.235 7.105.324 10.666.375h1.12c5.981 0 11.962-.358 17.921-.841 1.095-1.412 2.132-2.872 3.113-4.373 4.025-6.172 7.092-13.038 9.35-20.11h-.002z" fill="#f4e79f" fill-rule="nonzero"/><path d="m308.213 208.482s-4.996.048-9.683-1.536c-4.332-1.462-8.402-4.319-8.02-9.898 0 0 1.146 3.409 7.513 7.113 2.505 1.457 5.817 2.96 10.19 4.321zm-6.051-8.628c2.525 1.668 5.792 3.422 10.018 5.125 0 0-7.161-.512-12.583-3.581-3.716-2.102-6.615-5.404-5.837-10.563 0 0 1.026 4.145 8.402 9.019zm7.665-1.858-.002.003c1.533.981 3.295 1.984 5.318 2.998 0 0-4.188-.646-8.263-2.562-4.439-2.089-8.74-5.681-7.351-11.589 0 0 .831 5.1 10.298 11.15z" fill="#d0ba7f"/><path d="m226.123 135.847c-.004.002-.009-.004-.013-.002-.962.464-3.789 1.89-5.761 2.79-11.657 5.321-11.249-4.849-9.503-9.31.439-1.115.91-2.134 1.374-3.282.004-.004.009-.007.013-.011 1.068-2.641 2.084-5.977 2.499-12.767.958.102 5.298.274 7.766-4.415 2.786-5.293 5.432-17.133 14.902-23.259.16-.104.325-.205.487-.304.05-.031.099-.059.149-.089.114-.066.231-.134.348-.2.02-.01.038-.023.058-.033 2.456-1.366 4.248-3.645 5.079-6.329.888-2.867 2.87-6.18 7.164-8.644 9.363-5.371 17.406-1.358 18.447 5.234.794 5.027-1.518 16.722-2.109 23.431.132.338.259.667.376.994.002.003.005.008.005.013.111.312.218.618.317.922.01.028.017.056.027.084.097.297.185.591.272.877.005.025.012.048.02.074.175.598.324 1.176.454 1.736 0 .007.005.018.005.025.061.271.119.538.17.801.005.028.01.053.015.081.05.256.096.51.137.758.002.023.007.046.01.069.083.512.147 1.006.192 1.482.003.016.005.033.005.049.021.228.038.451.054.671 0 .031.005.061.005.092.012.212.023.423.03.631v.076c.013.423.013.831 0 1.221v.071c-.007.185-.018.363-.028.54-.002.033-.007.066-.007.097-.013.175-.028.344-.043.509l.01.003-.008.076c-.018.172-.035.342-.058.504-9.445 4.438-23.09 13.435-27.71 16.121-.003.002-.007-.004-.01-.002-1.369.81-5.395 3.266-8.206 4.863-.002.004-.004.007-.007.011-2.245 1.275-5.77 3.118-6.927 3.741z" fill="#f4e79f"/><g fill-rule="nonzero"><path d="m220.083 122.598c-2.935-.063-5.899 1.845-7.863 3.445-.464 1.148-.935 2.167-1.374 3.282-1.746 4.461-2.154 14.631 9.503 9.31 1.972-.9 3.888-1.835 5.761-2.79 1.176-1.858 2.368-4.477 3.042-6.578.984-3.062-4.045-6.56-9.074-6.669z" fill="#deb175"/><path d="m242.857 115.275c-.033-.486-.712-.573-.867-.109-1.875 5.637-6.719 13.48-8.947 16.937 2.816-1.599 5.548-3.234 8.22-4.871 1.782-4.089 1.792-9.062 1.594-11.954z" fill="#da8561"/><path d="m253.635 86.569c1.688 3.731 4.342 9.604-2.411 12.659-5.368 2.428-9.411-2.816-11.097-6.547-1.688-3.732-.03-8.122 3.701-9.81s8.121-.03 9.81 3.701z" fill="#303518"/><path d="m250.345 84.562c.76 1.683 1.959 4.334-1.087 5.713-2.424 1.095-4.246-1.272-5.009-2.955s-.013-3.666 1.67-4.429c1.683-.76 3.666-.012 4.428 1.671z" fill="#fff"/><path d="m268.004 93.352c.049.076.097.157.15.228 0 0 .395.404.65.503.477.184 1.086.043 1.447-.311.443-.435.541-1.225.717-1.801.412-1.353.914-2.676 1.315-4.033 1.487-5.025 1.356-10.523-1.706-14.988-1.21-1.764-1.967-2.931-3.58-4.324-5.872-5.069-13.876-1.966-19.404 2.051-1.836 1.334-2.665 2.443-3.432 4.396-.731 1.862.403 3.278 2.375 2.795 4.654-1.14 7.94-8.061 13.526-6.018.925.338 1.797.863 2.538 1.512 2.955 2.584 4.997 6.244 5.236 10.184.193 3.168-1.712 6.886.176 9.804z" fill="#deb175"/></g></svg>