<svg clip-rule="evenodd" fill-rule="evenodd" stroke-linejoin="round" stroke-miterlimit="2" viewBox="0 0 1024 1024" xmlns="http://www.w3.org/2000/svg"><path d="m0 0h1024v1024h-1024z" fill="none"/><path d="m193.793 697.199c.002 0 .005.001.007.001l-.01.01c.001-.004.002-.007.003-.011zm0 0c-6.347-1.089-11.604-.949-14.233-.819 1.29-.89 3.08-1.22 4.8-.63-4.42-17.55-6.01-32.46-4.73-43.29.98-8.3 12.39-9.75 15.39-1.95 3.32 8.66 7.51 18.92 12.87 30.2.89-.15 1.8-.19 2.7-.09-1.579.54-13.442 4.907-16.797 16.579zm10.717-257.269c4.22-10.43 8.24-23.59 9.88-50.42.5-8.13.78-17.51.78-28.45 0-1.74.02-3.46.06-5.16 1.12-45.47 18.42-141.44 85.76-175.81.39-.2.76-.38 1.14-.57l58.55-35.27c7.18-4.32 15.08 1.97 14.28 9.04-2.29 3.73-10.41 15.09-26.62 18.92 1.66 2.22-1.03 2.56 2.14 4.06 18.86-5.67 23.62-17.4 24.8-22.14l59.8-14.79c8.6-2.13 14.47 7.33 10.39 13.96l35.81-8.86c7.75-1.92 13.28 5.59 11.31 11.94h.2c-1.26 3.87-9.3 26.68-27.14 33.88 1.66 3.81-1.03 4.39 2.14 6.95.14-.07.27-.16.41-.23 6.41 8.2 5.05 21.14 5.05 21.14s4.49-12.36-1.95-22.96c18.78-12.07 21.33-34.92 21.63-38.79 22.19.34 46.74-1.19 75.92-7.58 24.15-5.29 49.83-5.96 76.17-2.58l45.12-5.42c9.76-1.18 14.44 11.4 6.65 16.96.04.01.08.03.12.04-17.27 12.58-67.32 44.7-116.11 34.51-2.16 11.96-9.63 9-6.09 20.38 3.09.36 6.14.58 9.14.7-1.93 27.25-22.11 51.5-22.11 51.5s26.78-19.63 31.84-51.49c54.64-2.15 92.75-40.53 105.21-54.98 32.78 10.53 65.66 26.57 97.05 47.17 5.64 3.7 11.78 6.46 18.06 8.9.58.22 1.16.53 1.72.92l69.89 48.44c6.54 4.53 4.6 13.6-1.42 16.35 16.35 17.52 31.55 36.36 45.24 56.3l58.65 68.84c7.38 8.66 1.46 22.5-7.79 18.24l-5.12-2.356c17.191 42.708 27.19 88.313 27.52 135.286.34 48.38-7.19 94.95-21.36 138.52l-2.27 45.55c-.48 9.54-12.95 12.16-17.47 4.39-48.33 103.14-135.76 184.31-243.2 224.42l-72.93 33.7c-7.18 3.32-13.97-2.85-13.38-9.39.96-1.6 21.95-36.06 52.72-40.28-1.03-6.19 3.12-6.04-.57-10.97-.63.15-1.27.31-1.89.47-17.88-19.49-15.74-53.05-15.74-53.05s-9.74 30.64 6.84 56.12c-29.89 12.89-40.51 44.98-41.34 47.6.06-.6.18-1.21.37-1.81-21.83 3.36-44.2 5.1-66.98 5.1-40.13 0-64.29-1.9-94.7-11.8-1.72.79-3.76.96-5.89.18l-79.88-29.16c-5.29-1.93-7.05-7.14-5.81-11.5-42.59-23.38-78.49-54.86-107.59-88.84l-34.49-31.08c-4.81-4.33-3.67-10.93.33-14.3-3.16-4.79-6.19-9.59-9.1-14.37-.45-.27-.86-.62-1.2-1.08l-26.13-34.99c-2.46-3.29.45-7.12 4.16-7.26-2.07-4.47-4.02-8.88-5.84-13.23-.37-.31-.69-.69-.94-1.14l-20.1-36.59c-1.11-2.02-.42-3.96 1.06-5.14 5.63.71 25.78 4.25 38.27 19.5 2.45-2.54 4.05.03 4.84-3.74-7.66-8.46-16.95-12.53-25.06-14.45 1.71-9.77 12.17-16.57 13.34-17.3 2.58.3 5.07 1.67 6.77 4.39l29.6 47.38c-5.22 2.95-14.93 9.5-21.27 20.27-10.03-4.55-20.6-.08-20.6-.08s11-1.73 19.05 2.94c-2.09 4.21-3.64 8.98-4.25 14.37 3.62 2.12 3.2-.68 7.47-.47.38-17.84 15.85-32.65 21.31-37.33 1.9-.79 4.03-.46 5.51 1.62l30.28 42.43c.39.56.65 1.17.8 1.8 1.46-.4 3.05-.48 4.63-.21-3.76.97-22.2 6.52-30.89 23.37-14.3.34-23.87 11.92-23.87 11.92s10.68-7.9 22.04-7.83c-.26.7-.51 1.41-.74 2.14 2.86 2.51 2.97-.05 6.74.87 3.83-17.71 23.83-28.79 26.97-30.43 2.39.47 4.73 1.78 6.51 4.09l20.3 26.44c46.06 30.39 108.56 53.67 193.7 58.61 11.01.64 22.39.99 34.18.99 7.98 0 15.72-.35 23.23-1.01 5.63-.5 11.14-1.17 16.52-2.02 1.79-.28 3.57-.58 5.34-.9 15.37-2.77 29.67-6.97 42.98-12.39 1.97-.8 3.92-1.62 5.84-2.47 1.49-.66 2.97-1.34 4.44-2.03.85-.4 1.68-.83 2.52-1.24-56.76-11.87-100.32-14.61-131.17-25.27-6.29-2.18-12.71-6.81-18.1-12.37-13.31-2.3-23.58-6.7-30.59-13.13-6.94-6.37-10.48-14.65-10.52-24.61l-.03-7.55 2.91 6.96c.1.22 5.22 11.4 27.25 22.69-1.83-4.04-2.75-7.9-2.4-11.12-1.43-1.34-2.73-2.72-3.89-4.17-5.89-7.36-8.12-16.08-6.63-25.93l1.13-7.46 1.81 7.32c.05.2 2.48 8.78 15.53 20.28 3.49-1.74 7.82-2.68 12.58-3.03-8.11-4.53-14.23-9.8-18.25-15.76-5.27-7.81-6.78-16.68-4.5-26.38l1.73-7.35 1.21 7.45c.06.29 4.05 20.56 42.86 43.73 7.75 1.41 15.09 3.41 20.62 5.25 92.17 30.7 125.76 13.49 172.01 10.22.52-.66 1.03-1.33 1.54-1.99l-1.11.09c-1.64.14-3.27.27-4.87.39-.93.08-1.83.14-2.75.21-1.08.08-2.17.16-3.24.24-.95.07-1.88.13-2.82.2-1.01.07-2.02.14-3.01.21-.94.06-1.87.12-2.8.18-.97.06-1.94.12-2.89.18-.92.05-1.82.11-2.73.16-.94.05-1.88.11-2.81.16-.9.05-1.79.1-2.67.15-.92.05-1.83.09-2.73.14-.87.05-1.73.09-2.59.13-.91.04-1.8.08-2.7.12-.83.04-1.66.08-2.48.11-.91.03-1.8.07-2.7.1-.79.03-1.59.06-2.37.09-.94.03-1.87.06-2.8.09-.71.03-1.42.05-2.12.07-1.32.04-2.61.07-3.9.1-.85.02-1.68.03-2.52.05-1 .02-2 .04-2.98.06-.69.01-1.36.03-2.04.03-.86.01-1.72.03-2.57.03-.71.02-1.4.02-2.1.02-.8.01-1.61.01-2.4.01h-4.42c-.69-.01-1.38-.01-2.07-.01-.76-.01-1.52-.02-2.27-.02-.67 0-1.35-.02-2.02-.02-.76-.01-1.51-.02-2.26-.03-.65-.01-1.31-.02-1.95-.03-.76-.02-1.51-.03-2.26-.05-.63-.01-1.26-.02-1.88-.04-.78-.02-1.56-.05-2.33-.07-.58-.02-1.16-.03-1.73-.05-.92-.03-1.84-.07-2.75-.1-.41-.01-.83-.02-1.24-.04-1.31-.05-2.61-.1-3.9-.16l-1.32-.06c-.87-.04-1.73-.08-2.59-.12-.54-.02-1.07-.05-1.6-.08-.76-.04-1.52-.08-2.27-.12-.56-.03-1.12-.07-1.68-.1-.72-.04-1.43-.09-2.14-.13-.57-.04-1.14-.07-1.71-.11-.7-.05-1.41-.09-2.11-.14-.56-.03-1.12-.07-1.68-.11-.71-.05-1.41-.1-2.12-.15-.54-.04-1.09-.08-1.63-.12-.72-.05-1.44-.11-2.16-.16l-1.59-.12c-.72-.05-1.45-.11-2.18-.17l-1.56-.12c-.78-.06-1.55-.13-2.33-.19-.46-.03-.92-.07-1.38-.11-1.09-.09-2.18-.19-3.27-.28-.14-.02-.28-.03-.42-.04h-.01c-.53-.04-1.06-.1-1.59-.17-.17-.02-.34-.05-.51-.07-.38-.05-.75-.11-1.13-.17-.19-.03-.39-.07-.58-.1-.38-.07-.76-.14-1.14-.22-.18-.04-.35-.07-.52-.11-.54-.12-1.08-.24-1.62-.38-.1-.02-.21-.05-.31-.08-.44-.12-.89-.24-1.33-.37-.21-.06-.42-.13-.63-.19-.34-.1-.68-.21-1.02-.32-.22-.08-.45-.15-.68-.23-.33-.12-.67-.24-1-.36l-.66-.24c-.51-.19-1.02-.39-1.52-.6-.23-.1-.47-.2-.7-.3-.3-.13-.6-.26-.89-.39-.27-.12-.55-.25-.82-.38-.25-.11-.49-.23-.74-.35-.29-.14-.58-.28-.87-.43-.22-.11-.43-.22-.64-.33-1.12-.58-2.21-1.2-3.28-1.86-.13-.08-.27-.16-.4-.24-.34-.21-.67-.43-1.01-.65-.13-.08-.25-.17-.38-.25-.35-.23-.7-.47-1.04-.71-.05-.04-.11-.08-.16-.12-1.2-.85-2.34-1.74-3.44-2.67-.03-.02-.06-.04-.08-.06-.36-.31-.71-.62-1.06-.94-.03-.03-.07-.06-.1-.09-3.11-2.85-5.71-6.04-7.56-9.49-.47-.15-.94-.3-1.41-.46-22.66-7.66-33.95-21.69-32.66-40.58l.51-7.53 2.4 7.16c.04.12 4.7 12.96 28.44 26.92.01-.02.01-.04.01-.06.1-.45.21-.88.35-1.31.02-.07.05-.14.07-.21.14-.42.3-.85.49-1.26.03-.06.05-.11.08-.17.21-.43.42-.85.67-1.27l.01-.02c.26-.44.54-.87.85-1.29.01-.01.02-.03.02-.03.3-.41.63-.81.97-1.21.03-.03.05-.06.08-.09.34-.39.7-.77 1.08-1.15l.08-.08c.03-.02.06-.05.08-.07-18.22-10.46-26.08-24.91-23.36-42.96l1.12-7.46 1.81 7.32c.04.15 4.39 16.09 32.52 34.69.28.19.58.37.86.55l.42-.18c.02-.01.03-.02.05-.02.7-.28 1.41-.55 2.13-.81.04-.01.07-.03.11-.04.71-.25 1.43-.5 2.16-.74.04-.01.08-.03.12-.04.73-.24 1.47-.47 2.22-.69l.12-.03c.76-.22 1.52-.43 2.28-.64.03-.01.06-.03.09-.03.78-.21 1.56-.41 2.34-.6.02-.01.03-.01.05-.01.8-.2 1.6-.38 2.4-.56h.04c-22.87-11.31-32.57-27.38-28.06-46.56l1.73-7.35 1.21 7.45c.03.19 3.76 19.85 39.95 42.97.54.35 1.1.7 1.66 1.05.57-.04 1.13-.09 1.68-.12h.13c1.33-.08 2.63-.14 3.88-.17h.02c.6-.02 1.19-.02 1.76-.02h.2c.54 0 1.08.01 1.6.02h.25c.51.01 1.02.03 1.51.05.06.01.12.01.19.01.51.02 1 .05 1.48.09 2.3.18 4.55.32 6.78.44.26.01.52.03.78.04 2.12.1 4.2.19 6.26.25.34.01.68.03 1.02.03 2.02.05 4.01.09 5.98.1h1.02c1.98.01 3.94 0 5.87-.04.26-.01.52-.02.78-.02 2.01-.04 4-.1 5.96-.19h.18c1.95-.08 3.87-.19 5.77-.32.21-.01.42-.03.62-.04 1.83-.13 3.65-.28 5.44-.44.29-.03.59-.05.89-.08 1.75-.17 3.47-.35 5.18-.55.31-.04.62-.07.93-.11 1.71-.21 3.39-.42 5.06-.66.26-.03.51-.07.77-.11 1.72-.25 3.42-.51 5.1-.79l.33-.06c1.66-.28 3.3-.57 4.92-.88.18-.04.36-.07.53-.1 1.61-.3 3.19-.63 4.76-.96.28-.05.55-.11.82-.17 1.52-.33 3.02-.67 4.51-1.02.3-.07.59-.14.89-.21 1.48-.35 2.94-.72 4.39-1.09.26-.07.53-.14.79-.21 1.49-.39 2.96-.78 4.41-1.19.16-.05.32-.1.48-.14 1.42-.4 2.82-.8 4.21-1.22l.51-.15c1.4-.43 2.8-.86 4.18-1.3.27-.09.54-.17.81-.26 1.33-.43 2.64-.86 3.95-1.3.31-.1.62-.21.92-.31 1.28-.43 2.55-.87 3.82-1.32.29-.11.59-.21.89-.32 1.28-.45 2.54-.91 3.8-1.37.24-.09.49-.18.73-.27 1.17-.43 2.32-.86 3.47-1.3.24-.1.49-.19.73-.28 1.18-.45 2.36-.91 3.54-1.37.34-.13.68-.27 1.02-.4 1.12-.44 2.23-.88 3.33-1.32.43-.17.87-.35 1.3-.52 1-.41 2.01-.81 3.01-1.22.57-.23 1.14-.46 1.7-.69.57-.23 1.15-.47 1.72-.7 5.18-2.13 10.28-4.25 15.33-6.31s10.07-4.06 15.11-5.92h.01c2.15-6.71 4.11-13.47 5.89-20.25 10.2-38.84 14.58-78.34 14.58-113.5 0-68.56-29-154.29-132.55-187.78-3.4-1.09-6.88-2.13-10.43-3.11-31.42 77.32-64.17 113.5-90.39 151.58-3.63 5.27-8.76 11.38-14.57 16.72-1.78 6.81-3.35 14.66-4.54 23.68l-1.25 9.47-1.71-9.4c-.06-.33-1.29-7.2-1.51-16.59-5.3 3.53-10.78 5.94-15.94 6.25-.87 6.15-1.5 12.86-1.82 20.18l-.35 8.02-2.57-7.61c-.14-.4-3.32-9.93-4.76-22.71 0-.07-.02-.15-.02-.23-.15-.1-.31-.18-.47-.29-6.72-4.55-8.99-13.29-8.56-23.02-2.77 9.12-5.21 20.08-6.95 33.25l-1.25 9.47-1.71-9.4c-.08-.43-1.91-10.69-1.74-23.81.24-17.75 3.92-31.5 10.96-40.86 4.44-5.9 10.18-9.94 17.12-12.06 30.37-47.84 31.87-79.73 43.42-123.87-.88 0-1.76-.02-2.65-.02-1.57 0-3.09.07-4.65.09-21.87 97.87-57.81 122.62-90.8 165.66-3.42 10.46-6.61 22.74-9.21 37.1l-1.47 8.14-1.48-8.14c-.14-.77-1.45-8.19-1.94-18.54-5.38 5.52-11.48 8.87-18 9.39-.87 3.98-1.72 8.11-2.54 12.41l-1.55 8.15-1.4-8.18c-.02-.1-.87-5.17-1.44-12.9-3.36-.76-6.79-2.27-10.27-4.63-3.37-2.28-5.59-5.69-6.9-9.8-1.4 4.48-2.82 9.21-4.28 14.23l-2.71 9.35-.23-9.73c0-.21-.45-21.51 3.99-43 5.23-25.34 15.17-40.87 28.93-45.43 27.37-45.41 9.25-38.95 19.35-83.54-2.02.8-4.02 1.62-6.02 2.45l-2.46 1.05c-1.12.47-2.24.95-3.35 1.44-1.05.46-2.1.92-3.14 1.39-.84.37-1.67.75-2.5 1.13-1.17.54-2.34 1.07-3.5 1.62-.36.16-.71.33-1.06.5-36.97 17.46-71.37 40.43-108.55 63.23-10.54 6.46-21.32 12.91-32.43 19.22-8.86 5.03-17.96 9.97-27.33 14.76-7.39 3.77-14.95 7.46-22.73 11.01-9.15 4.17-16.41 5.93-22.12 5.93-23.03 0-20.9-28.56-15.38-42.66 1.73-4.4 3.59-8.42 5.42-12.95 2.05-1.67 2.05-1.67 0 0zm345.03 245.97h-.01c-1.23 15.74 8.53 28.59 29.1 38.26.66.31 1.31.6 1.97.89 7.02 3.12 14.03 5.31 19.53 6.75-3.97-2.21-7.75-4.46-11.32-6.74-.52-.33-1.03-.67-1.54-1-24.76-16.16-34.2-30.5-37.73-38.16zm-48.73-196.95v-.01c-10.79 14.35-10.97 37.72-9.94 51.4 2.99-16.94 7.13-29.76 11.43-39.38 5.57-12.44 11.4-19.56 15.39-23.37-1.71.45-3.34 1.03-4.89 1.72-4.74 2.11-8.75 5.33-11.99 9.64zm-80.106-157.22c.582-6.616 1.595-14.447 2.726-22.79.27.53.55 1.05.84 1.54.1.17.22.32.32.49.2.3.39.61.59.9.01.01.01.02.01.02.01.01.02.02.02.03 2.74 3.84 8.75 2.53 9.85-2.06.07-.31.16-.63.24-.94.06-.24.12-.48.19-.73.09-.32.19-.65.28-.97.07-.24.14-.48.21-.73.09-.32.2-.65.3-.98.08-.27.16-.52.24-.79.1-.31.21-.62.31-.94.1-.29.19-.58.29-.88.11-.33.23-.68.34-1.02.1-.28.19-.57.29-.86.18-.52.36-1.05.54-1.59.1-.31.21-.61.31-.92.16-.46.32-.93.48-1.41.11-.3.21-.61.31-.92.13-.38.25-.75.38-1.14.11-.33.21-.66.32-.99.13-.38.25-.75.37-1.13.11-.35.22-.71.33-1.07.11-.37.23-.73.34-1.1.12-.38.23-.77.34-1.15.11-.36.22-.72.32-1.08.11-.39.21-.78.32-1.17.1-.38.21-.74.31-1.12l.6-2.34c.1-.39.19-.8.28-1.2s.18-.79.27-1.19c.09-.41.17-.83.25-1.24l.24-1.2c.08-.42.15-.85.22-1.28.07-.41.15-.81.21-1.22.07-.43.12-.87.18-1.3.06-.41.12-.82.17-1.24.05-.45.09-.9.14-1.35.05-.41.09-.82.13-1.24.04-.47.06-.93.09-1.4.03-.42.06-.83.08-1.25.02-.46.03-.93.04-1.39l-.03.02c.01-.43.03-.86.03-1.3 0-.46-.02-.93-.02-1.4-.01-.44 0-.88-.02-1.33-.01-.47-.05-.95-.08-1.42-.03-.45-.04-.9-.08-1.36-.04-.49-.11-.99-.16-1.49-.05-.44-.08-.88-.14-1.33-.06-.51-.15-1.03-.23-1.54-.07-.44-.12-.88-.2-1.33-.09-.51-.21-1.03-.31-1.55-.09-.45-.17-.9-.27-1.36-.12-.52-.27-1.05-.4-1.57-.12-.47-.22-.92-.35-1.39-.14-.52-.32-1.04-.48-1.57-.14-.47-.27-.94-.43-1.42-.18-.56-.4-1.12-.6-1.68-.17-.45-.31-.9-.49-1.35-.23-.6-.5-1.21-.75-1.81-.18-.43-.34-.85-.53-1.27-.27-.6-.57-1.2-.86-1.81-.21-.43-.4-.86-.62-1.3-.35-.69-.74-1.39-1.12-2.09-.2-.35-.37-.7-.57-1.06-.6-1.06-1.23-2.12-1.9-3.19-17.58-28.04-39.77-34.97-71.36-20.28-33.55 15.6-33.01 30-33.69 32.71-.27 1.07-.22 2.16.11 3.17 1.1-3.99 2.44-4.57 14.62-11.56 11.98-6.87 23.41-9.85 33.53-9.85 21.08 0 36.48 12.93 39.25 30.5 3.124 19.79 5.839 50.118 3.534 76.55zm418.216 302.08.03-.03c10.66-45.13 8.84-92.68-5.27-137.5-13.39-42.51-37.03-80.82-68.39-110.78-31.69-30.28-69.21-49.97-108.49-56.93-18.16-3.22-36.38-4.85-54.15-4.85-59.07 0-104.99 17.79-134.73 34.16 1.09-.34 2.18-.68 3.26-1.01 6.24-1.9 12.57-3.61 18.82-5.07 2.13-.5 4.3-.98 6.44-1.43 18.11-3.8 36.14-5.79 55.11-6.09.59-.01 1.17-.02 1.75-.04.97-.02 1.96-.05 3.01-.05.58 0 1.16.01 1.73.01l.97.02h1c1.03.01 2.06.01 3.08.03 2.12.03 4.3.08 6.64.16h.14c1.61.05 3.18.1 4.74.17 4.61.2 9.25.47 13.76.81 26.1 1.98 50.25 6.51 71.79 13.48 48.77 15.77 85.44 43.98 108.98 83.84 23.48 39.77 28.41 82.1 28.41 110.61 0 38.51-5.12 78.37-14.81 115.27-1.81 6.89-3.83 13.83-5.99 20.6-9.64 30.18-22.32 57.44-37.7 81.03-3.93 6.04-8.17 12-12.6 17.72-.18.24-.36.47-.54.71-.35.45-.69.9-1.04 1.34-4.37 5.53-8.99 10.88-13.71 15.9-2.41 2.56-4.89 5.08-7.38 7.5-2.52 2.45-5.13 4.86-7.74 7.17-1.65 1.45-3.34 2.9-5.02 4.3-5.13 4.26-10.49 8.31-15.93 12.04-4.44 3.04-9.05 5.94-13.69 8.62-1.23.71-2.5 1.42-3.77 2.12-2.66 1.47-5.51 2.94-8.72 4.52-.29.14-.57.29-.86.43-.59.29-1.17.58-1.76.86-1.52.72-3.07 1.43-4.6 2.11-1.8.79-3.72 1.6-6.04 2.55-14.03 5.71-28.96 10.02-44.37 12.8-1.83.33-3.67.64-5.5.93-5.57.88-11.28 1.58-16.99 2.08-7.78.69-15.8 1.04-23.85 1.04-5.83 0-11.68-.09-17.52-.26 4.87 3.4 8.59 4.68 10.39 4.71 6.24.12 11.74.18 16.83.18 38.31 0 66.38-3.01 96.46-18.4 27.85-14.25 58.03-39.13 107.63-88.73 41.21-41.21 68.19-87.86 80.19-138.65zm-323.98 92.17c1.224 14.295 11.094 24.791 29.38 31.27.41.15.79.3 1.21.44 9.54 3.22 19.48 4.71 26.76 5.39-11.01-3.95-20.82-8.4-29.3-13.27-.23-.13-.47-.26-.7-.39-15.89-9.24-23.69-18.03-27.35-23.44zm42.84 5.88c-18.72-12.53-27.02-23.8-30.55-30.26-.15 14.14 7.48 25.67 22.76 34.31.18.1.36.19.54.29 12.65 7.02 27.73 10.54 37.68 12.23-11.12-4.98-21.06-10.37-29.66-16.05-.26-.18-.51-.35-.77-.52zm-82.58 25.79h-.01c.11 6.62 2.26 12.58 6.41 17.77.77.96 1.6 1.88 2.48 2.76 10.98 11.08 29.7 16.11 41.58 18.29-17.59-8.04-29.4-16.19-37.32-23.28-7.01-6.28-10.96-11.73-13.14-15.54zm-7.23 35.23c6.65 6.11 15.97 9.6 25.2 11.6 7.83 1.69 15.58 2.3 21.56 2.47-10.69-3.02-19.5-6.37-26.75-9.77-16.56-7.76-25-15.8-29.06-20.88 1.12 6.53 4.15 12.08 9.05 16.58zm-45.97-419.14c0-.005 0-.025 0-.03.04-1.421.04-2.89 0-4.37v-.28c-.03-.74-.06-1.51-.11-2.29l-.02-.32c-.06-.86-.12-1.66-.2-2.45l-.02-.04v-.14c-.17-1.77-.41-3.59-.7-5.42l-.02-.15-.02-.11c-.15-.9-.32-1.84-.5-2.79l-.04-.21-.02-.09c-.21-1.03-.41-2-.63-2.96l-.02-.1c-.47-2.09-1.04-4.26-1.68-6.44l-.04-.15-.04-.12c-.32-1.08-.66-2.18-1.02-3.27l-.06-.19-.04-.13c-.4-1.21-.79-2.34-1.2-3.45v-.03c-.46-1.27-.94-2.52-1.42-3.75l-.61-1.54.14-1.65c2.79-31.61-1.94-65.41-3.46-75.01-2.33-14.71-15.32-24.59-32.34-24.59-9.49 0-19.88 3.08-30.05 8.92l-1.78 1.02c-4.76 2.73-8.55 4.9-9.4 5.77-.14.36-.37 1.29-.55 2.06-.32 1.34-.76 3.17-1.49 5.51-1.85 5.97-4.72 11.44-8.43 16.21.95-.57 1.94-1.09 2.97-1.56 14.72-6.65 32.04-.12 38.7 14.6s17.14 37.89-9.51 49.94c-21.17 9.58-37.12-11.11-43.78-25.83-4.21-9.32-3.13-19.67 1.95-27.71-1.65 1.22-3.38 2.35-5.19 3.36l-.22.13c-.42.25-.84.49-1.25.73l-.54.32c-.63.38-1.2.73-1.74 1.08-26.77 17.32-39.12 47.92-48.14 70.26-2.96 7.35-5.52 13.69-8.25 18.88-8.57 16.28-22.16 20.26-30.31 21.1-.93 11.32-2.32 20.1-3.96 27.27 5.64-2.6 11.77-4.38 18.02-4.38h.72c15.56.34 31.59 7.81 38.97 18.17 3.95 5.55 5.14 11.68 3.34 17.28-.77 2.37-1.67 4.86-2.67 7.37 2.1-1.16 4.23-2.34 6.38-3.56 8.46-13.22 26.65-42.88 33.62-63.81 1.2-3.58 4.52-5.98 8.29-5.98 4.68 0 8.44 3.51 8.76 8.16.88 12.94.08 23.57-1.46 32.1 2.6-1.62 5.19-3.24 7.74-4.83 28.12-17.55 54.74-34.17 83.2-47.86.01-.05.01-.1.01-.15l.02-.34c.04-.63.08-1.27.1-1.93zm-21.348 158.921c.926-3.026 1.842-5.933 2.738-8.731 13.61-42.35 24.23-59.68 29.18-66.13-1.72.47-3.35 1.11-4.9 1.91-21.486 11.113-26.074 52.797-27.018 72.951zm-63.172-262.971h.01c-6.64 3.01-9.59 10.83-6.59 17.47 3.01 6.64 10.2 15.98 19.76 11.66 12.02-5.44 7.3-15.9 4.29-22.54s-10.83-9.59-17.47-6.59zm173.89 273.66c.56 4.41 1.31 8.39 2.04 11.64.32-3.82.72-7.45 1.2-10.92 4.89-35.65 17.5-52.96 24.78-60.23-9.95 3.27-17.41 9.13-22.23 17.49-7.36 12.74-7.41 29.2-5.79 42.02zm-61.69 378.07v-.01c2.26-25.59 26.38-46.7 26.38-46.7s-29.03 14.95-35.1 45.14c-34.25-3.68-60.14 22.02-60.14 22.02s35.93-21.44 65.65-10.14c.88-2.53 2.03-3.59 3-4.45h.07v-.06c1.27-1.13 2.19-1.95 1.69-5.39-.52-.15-1.03-.28-1.55-.41zm-25.99-746.33h.01c20.55-7.73 21.66-23.01 21.66-23.01s-7.81 15.54-27.32 20.14c1.66 2.22-1.03 2.56 2.14 4.06.14-.04.27-.09.41-.13 6.41 4.8 5.05 12.36 5.05 12.36s4.49-7.22-1.95-13.42zm1.42 372.44v.01c.18-.89.37-1.74.56-2.61 5.96-27.49 12.89-47.35 17.93-59.64 3.74-9.14 6.92-15.37 8.91-18.95-28.86 12.68-29.25 57-27.62 78.52.07.93.14 1.83.22 2.67zm481.5-139.18v-.01c29.14 22.48 66.82 10.94 66.82 10.94s-41.78 2.24-62.82-21.6c-.05.05-.09.08-.14.12-2.64-1.96-3.62.59-8.19-1.04-8.74 26.79-43.52 39.64-43.52 39.64s31.12-3.46 47.85-28.05zm-423.63 324.45c-.428 6.606 1.222 12.723 4.94 18.23 5.11 7.57 13.49 13.19 22.09 17.29 7.13 3.4 14.42 5.75 20.12 7.28-3.97-2.22-7.62-4.42-10.98-6.59-23.56-15.22-32.69-28.8-36.17-36.21zm53.85-189.88c.57-3.08 1.18-6 1.82-8.77 6.11-26.32 15.43-39.03 21.08-44.65-5.74 1.66-10.47 4.92-14.09 9.74-7.47 9.94-9.13 24.8-9.06 36.53.01 2.56.11 4.97.25 7.15zm251.833-259.341c9.752 31.828-15.133 67.881-15.133 67.881s24.44-21.56 27-53.25c46.42 11.87 85.5-21.36 85.5-21.36s-48.56 24.12-85.95 6.68c-.2-1.4-.44-2.81-.74-4.24-6.309-1.34-4.341 2.539-10.677 4.289zm119.907 411.981-.01.01c10.96 34.81 48.01 47.08 48.01 47.08s-35.38-22.36-38.73-53.98c-.37.05-.71.08-1.04.1-1.08-1.69-3.1-1.24-5.27-4.72-23.48 15.57-58.73 4.05-58.73 4.05s27.07 16.96 55.77 7.46zm-458.11-151.17c1.53-7.31 3.21-14.01 4.98-20.18 10.04-35.05 23-52.35 29.09-58.99-9.36 1.9-16.93 6.64-22.56 14.13-10.85 14.43-12.69 36.49-12.27 52.8.12 4.65.43 8.83.76 12.24z" fill="#82b5d4" fill-opacity=".5" transform="matrix(.704719 0 0 .731676 106.123 93.832)"/></svg>
