<svg clip-rule="evenodd" fill-rule="evenodd" stroke-linejoin="round" stroke-miterlimit="2" viewBox="0 0 1748 400" xmlns="http://www.w3.org/2000/svg"><g transform="matrix(.902778 0 0 .195312 -9722.92 0)"><path d="m10770 0h2880v2048h-2880z" fill="none"/><g fill-rule="nonzero"><path d="m-902.3 284.5c32 0 54.7 2.3 71 5.5v-13.2c-13.8-2.2-35.6-4.5-70.3-4.5-44.3 0-65.5 4.5-76 9.7-9.7 4.9-14.7 11.4-14.7 19.7s5 14.9 14.7 19.7c10.7 5.4 31.3 9.7 74.6 9.7 34.6 0 55.9-2.4 69.1-9 7.2-3.6 11-8.7 11-17.5v-7.3h-96.5v11h67.7c.2 1.3.2 4.2-3.8 6.1-7 3.5-24.4 4.7-47.5 4.7-28.2 0-42.9-2.6-49.8-6-5-2.6-7.7-6.3-7.7-11.4 0-5 2.8-8.9 8.3-11.7 6-3 20.9-5.5 49.9-5.5z" transform="matrix(1.33747 0 0 12.3641 12176.9 -2703.18)"/><path d="m-363.5 274.4h-35.9l-57.5 43-57.4-43h-37.5l75.1 54.7h38.1z" transform="matrix(1.33747 0 0 12.3641 12176.9 -2703.18)"/><path d="m-561.2 236.5h-31.2l-203.4 129.9h31.6z" fill="#c60000" transform="matrix(1.33747 0 0 12.3641 12176.9 -2703.18)"/><path d="m-607.3 282.2c-10.2-5.2-29.9-9.9-73.2-9.9-41.7 0-62.9 4.6-73.3 9.9-9.5 4.8-14.6 10.7-14.6 19.6s5.1 14.7 14.6 19.5c10.2 5.2 30.8 9.9 73.3 9.9s62.9-4.7 73.2-9.9c9.5-4.8 14.6-10.7 14.6-19.6s-5.1-14.8-14.6-19.5zm-73.2 36.4c-27.7 0-42-2.9-48.2-6-4.8-2.4-8.2-5.5-8.2-11.4s2.9-9.1 8-11.6c6.3-3.2 20.6-5.7 48.3-5.7s41.6 2.6 48 5.9c5.1 2.6 8.2 5.6 8.2 11.5s-2.9 9.1-8 11.6c-6.4 3.2-20.4 5.7-48.1 5.7z" transform="matrix(1.33747 0 0 12.3641 12176.9 -2703.18)"/><path d="m.349.012c.18 0 .287-.059.287-.16v-.01c0-.088-.068-.132-.225-.148l-.131-.013c-.051-.005-.071-.015-.071-.035v-.006c0-.022.047-.035.135-.035.107 0 .151.016.151.053v.006h.139v-.006c0-.11-.102-.171-.286-.171-.178 0-.282.059-.282.159v.01c0 .086.066.13.213.145l.129.013c.063.006.083.015.083.035v.005c0 .027-.047.04-.14.04-.113 0-.161-.016-.161-.053v-.005h-.139v.005c0 .109.11.171.298.171z" transform="matrix(203.815 0 0 942.079 11727.7 1292.07)"/><path d="m.493-.501v.301c-.026.049-.08.08-.143.08-.091 0-.139-.047-.139-.134v-.247h-.145v.247c0 .177.092.267.264.266.067-.001.125-.021.169-.06l.004.048h.135v-.501z" transform="matrix(203.815 0 0 942.079 11867.9 1292.07)"/><path d="m.787-.513c-.085 0-.154.031-.204.088-.041-.058-.11-.088-.204-.088-.067 0-.125.021-.17.06l-.004-.048h-.135v.501h.145v-.299c.027-.05.08-.082.144-.082.081 0 .126.048.126.133v.248h.145v-.248c0-.017-.001-.033-.002-.048.026-.052.081-.085.146-.085.081 0 .127.048.127.133v.248h.145v-.248c0-.173-.09-.265-.259-.265z" transform="matrix(203.815 0 0 942.079 12012.8 1292.07)"/><path d="m.787-.513c-.085 0-.154.031-.204.088-.041-.058-.11-.088-.204-.088-.067 0-.125.021-.17.06l-.004-.048h-.135v.501h.145v-.299c.027-.05.08-.082.144-.082.081 0 .126.048.126.133v.248h.145v-.248c0-.017-.001-.033-.002-.048.026-.052.081-.085.146-.085.081 0 .127.048.127.133v.248h.145v-.248c0-.173-.09-.265-.259-.265z" transform="matrix(203.815 0 0 942.079 12238.7 1292.07)"/><path d="m.143-.559c.053 0 .09-.035.09-.085 0-.051-.036-.085-.09-.085s-.09.035-.09.085.037.085.09.085zm-.072.559h.144v-.501h-.144z" transform="matrix(203.815 0 0 942.079 12464.5 1292.07)"/><path d="m.512-.373v-.128h-.208v-.133h-.141v.096c0 .028-.009.037-.037.037h-.134v.128h.167v.2c0 .107.071.173.186.173h.137v-.127h-.118c-.039 0-.06-.02-.06-.056v-.19z" transform="matrix(203.815 0 0 942.079 12522.8 1292.07)"/></g></g></svg>