<svg fill="none" height="889" viewBox="0 0 1440 889" width="1440" xmlns="http://www.w3.org/2000/svg" xmlns:xlink="http://www.w3.org/1999/xlink"><linearGradient id="a" gradientUnits="userSpaceOnUse" x1="1630.72" x2="142.292" y1="-315.688" y2="-315.688"><stop offset=".0501078" stop-color="#4a7fa1" stop-opacity=".71"/><stop offset="1" stop-color="#fff" stop-opacity="0"/></linearGradient><linearGradient id="b" gradientUnits="userSpaceOnUse" x1="1220.22" x2="-168.027" y1="341.861" y2="354.961"><stop offset="0" stop-color="#fff" stop-opacity="0"/><stop offset="1" stop-color="#4a7fa1" stop-opacity=".71"/></linearGradient><linearGradient id="c"><stop offset="0" stop-color="#4a7fa1" stop-opacity=".71"/><stop offset="1" stop-color="#fff" stop-opacity="0"/></linearGradient><linearGradient id="d" gradientUnits="userSpaceOnUse" x1="1351.43" x2="-5.87091" xlink:href="#c" y1="355.252" y2="355.252"/><linearGradient id="e" gradientUnits="userSpaceOnUse" x1="111.637" x2="1358.24" xlink:href="#c" y1="397.826" y2="397.826"/><linearGradient id="f" gradientUnits="userSpaceOnUse" x1="1123.22" x2="350.058" xlink:href="#c" y1="-194.82" y2="-194.82"/><linearGradient id="g" gradientUnits="userSpaceOnUse" x1="339.84" x2="1126.63" xlink:href="#c" y1="450.619" y2="450.619"/><linearGradient id="h" gradientUnits="userSpaceOnUse" x1="833.712" x2="46.9222" xlink:href="#c" y1="244.556" y2="244.556"/><linearGradient id="i" gradientUnits="userSpaceOnUse" x1="523.765" x2="1300.34" xlink:href="#c" y1="-314.032" y2="-314.032"/><linearGradient id="j"><stop offset="0" stop-color="#fff"/><stop offset=".56" stop-color="#87a4b8"/><stop offset="1" stop-color="#547e9a"/></linearGradient><radialGradient id="k" cx="0" cy="0" gradientTransform="matrix(72.03262411 158.44134332 -158.44134332 72.03262411 101.869 709.216)" gradientUnits="userSpaceOnUse" r="1" xlink:href="#j"/><linearGradient id="l"><stop offset="0" stop-color="#e6ecf0"/><stop offset=".56" stop-color="#7f9fb4"/><stop offset="1" stop-color="#547e9a"/></linearGradient><radialGradient id="m" cx="0" cy="0" gradientTransform="matrix(75.68253311 166.46960124 -166.46960124 75.68253311 610.428 369.205)" gradientUnits="userSpaceOnUse" r="1" xlink:href="#l"/><radialGradient id="n" cx="0" cy="0" gradientTransform="matrix(75.68253311 166.46960124 -166.46960124 75.68253311 1015.74 546.323)" gradientUnits="userSpaceOnUse" r="1" xlink:href="#j"/><radialGradient id="o" cx="0" cy="0" gradientTransform="matrix(76.26981294 167.76136879 -167.76136879 76.26981294 327.895 154.721)" gradientUnits="userSpaceOnUse" r="1" xlink:href="#l"/><radialGradient id="p" cx="0" cy="0" gradientTransform="matrix(76.26981294 167.76136879 -167.76136879 76.26981294 1111.28 32.1045)" gradientUnits="userSpaceOnUse" r="1" xlink:href="#j"/><radialGradient id="q" cx="0" cy="0" gradientTransform="matrix(76.26981294 167.76136879 -167.76136879 76.26981294 1342.89 239.872)" gradientUnits="userSpaceOnUse" r="1" xlink:href="#j"/><clipPath id="r"><path d="m0 0h1440v889h-1440z"/></clipPath><g clip-path="url(#r)"><path d="m0 0h1440v889h-1440z" fill="#fff"/><path d="m142.292 2346.11h1302.198v-1964.502l182.08-173.82 3.73-886.562-182.62-174.336-3.19-1207.89h-1302.198" fill="url(#a)"/><path clip-rule="evenodd" d="m1351-1189.38h-1302.1956l-.1426 1019.564-182.0818 182.2023-3.58 893.4197 182.6183 182.744 3.1861 1740.82h1302.1956" fill="url(#b)" fill-rule="evenodd"/><path d="m105.149 2713.9h1090.661v-1759.021l152.5-147.327 3.12-842.3596-152.95-147.7634-2.67-1180.189h-1090.661" fill="url(#d)"/><path d="m1337.57-1410.77h-1070.312v1198.058l-152.5 154.5072-3.121 788.0558 152.953 154.965 2.668 1910.384h1070.312" fill="url(#e)"/><path d="m350.061 2485.7h675.579v-2277.246l94.47-106.702 1.93-544.226-94.74-107.018-1.66-1419.878h-675.579" fill="url(#f)"/><path d="m1127.94-1223.44h-689.69v1290.9762l-96.435 114.1518-1.973 582.225 96.721 114.49 1.687 1995.597h689.69" fill="url(#g)"/><path d="m46.9225 2628.75h689.4395v-1874.942l96.4-108.891 1.973-555.3884-96.686-109.2131-1.687-1449.0055h-689.4395" fill="url(#h)"/><path d="m1300.69-1965.95h-678.297v1291.13l-96.646 114.166-1.977 582.2937 96.931 114.5033 1.692 2434.497h678.297" fill="url(#i)"/><path d="m109.936 755.458c15.989 0 28.951-12.962 28.951-28.951s-12.962-28.951-28.951-28.951c-15.9893 0-28.9511 12.962-28.9511 28.951s12.9618 28.951 28.9511 28.951z" fill="url(#k)"/><path d="m618.904 417.79c16.8 0 30.418-13.618 30.418-30.418 0-16.799-13.618-30.418-30.418-30.418-16.799 0-30.418 13.619-30.418 30.418 0 16.8 13.619 30.418 30.418 30.418z" fill="url(#m)"/><path d="m1024.22 594.909c16.8 0 30.42-13.619 30.42-30.419 0-16.799-13.62-30.418-30.42-30.418s-30.418 13.619-30.418 30.418c0 16.8 13.618 30.419 30.418 30.419z" fill="url(#n)"/><path d="m336.436 203.684c16.93 0 30.654-13.725 30.654-30.654 0-16.93-13.724-30.655-30.654-30.655s-30.654 13.725-30.654 30.655c0 16.929 13.724 30.654 30.654 30.654z" fill="url(#o)"/><path d="m1119.82 81.067c16.93 0 30.65-13.7243 30.65-30.6541s-13.72-30.6541-30.65-30.6541-30.65 13.7243-30.65 30.6541 13.72 30.6541 30.65 30.6541z" fill="url(#p)"/><path d="m1351.43 288.834c16.93 0 30.65-13.724 30.65-30.654s-13.72-30.654-30.65-30.654-30.66 13.724-30.66 30.654 13.73 30.654 30.66 30.654z" fill="url(#q)"/></g></svg>