<svg style="height:100%;width:100%;background:0 0" viewBox="0 0 300 200" xmlns="http://www.w3.org/2000/svg" id="Layer_1" width="200" height="200"><g class="ldl-scale" style="transform-origin:50% 50%;transform:rotate(0deg) scale(.8,.8)"><g class="ldl-ani" style="transform-origin:150px 150px"><style>.st0{fill:#c42026}.st1{fill:#010101}</style><g class="ldl-layer"><g class="ldl-ani" style="transform-origin:150px 150px;transform:matrix(1,0,0,1,0,0);animation:1s linear -1s infinite normal forwards running bounce-c2b4d70e-061d-4774-a04f-a7b2e732e51d"><g class="ldl-layer" id="XMLID_13_"><g class="ldl-ani"><path class="st0" id="XMLID_16_" fill="rgb(196, 32, 38)" d="M274.033 12.618L241.081 12.618 25.967 287.382 59.416 287.382z"/></g></g></g></g><g class="ldl-layer"><g class="ldl-ani" style="transform-origin:150px 150px;transform:matrix(1,0,0,1,0,0);animation:1s linear -.833333s infinite normal forwards running bounce-c2b4d70e-061d-4774-a04f-a7b2e732e51d"><g class="ldl-layer" id="XMLID_6_"><g class="ldl-ani"><path d="M225.248 109.137c-10.821-10.935-31.646-20.875-77.391-20.875-44.107 0-66.57 9.775-77.554 20.875C60.3 119.243 54.89 131.834 54.89 150.556s5.411 31.147 15.412 41.253c10.821 10.935 32.629 21.041 77.555 21.041s66.57-9.94 77.391-20.875c10.003-10.106 15.413-22.697 15.413-41.419 0-18.887-5.411-31.313-15.413-41.419zm-77.392 77.016c-29.308 0-44.452-6.064-50.965-12.619-5.048-5.08-8.63-11.636-8.63-24.09s3.094-19.174 8.466-24.582c6.677-6.719 21.82-12.127 51.128-12.127s43.963 5.572 50.802 12.454c5.374 5.409 8.63 11.8 8.63 24.255 0 12.454-3.094 19.174-8.466 24.582-6.838 6.883-21.655 12.127-50.965 12.127z" class="st1" id="XMLID_28_" fill="rgb(1, 1, 1)"/></g></g></g></g></g></g><style id="bounce-c2b4d70e-061d-4774-a04f-a7b2e732e51d">@keyframes bounce-c2b4d70e-061d-4774-a04f-a7b2e732e51d{0%{animation-timing-function:cubic-bezier(.1361,.2514,.2175,.8786);transform:translate(0,0) scaleY(1)}37%{animation-timing-function:cubic-bezier(.7674,.1844,.8382,.7157);transform:translate(0,-39.96px) scaleY(1)}72%{animation-timing-function:cubic-bezier(.157,.3005,.3078,.9357);transform:translate(0,0) scaleY(1)}87%{animation-timing-function:cubic-bezier(.6498,.2053,.8021,.6653);transform:translate(0,36.315000000000005px) scaleY(.731)}to{transform:translate(0,0) scaleY(1)}}</style></svg>