<svg clip-rule="evenodd" fill-rule="evenodd" stroke-linejoin="round" stroke-miterlimit="2" viewBox="0 0 1795 359" xmlns="http://www.w3.org/2000/svg"><path d="m1460.76 295.79-20.43-51.105h-12.34l-.02 88.717h13.79l.01-50.475 22.28 50.475h9.85l.01-88.721h-13.11z" fill="#231916" fill-rule="nonzero"/><path d="m1752.76 295.713-20.43-51.104h-12.34l-.02 88.716h13.79l.01-50.475 22.28 50.475h9.85l.01-88.72h-13.11z" fill="#231916" fill-rule="nonzero"/><path d="m1695.39 312.368c0 5.646-2.57 8.513-7.58 8.513s-7.59-2.867-7.59-8.513v-45.362c0-5.638 2.58-8.408 7.59-8.408s7.58 2.77 7.58 8.408zm-7.04-68.937c-14.63 0-23.16 8.421-23.16 22.054v44.838c0 15.987 7.99 24.283 22.62 24.283 14.35 0 22.75-8.417 22.75-23.904v-44.854c0-14.117-8.8-22.417-22.21-22.417" fill="#231916" fill-rule="nonzero"/><path d="m1639.06 244.525h15.25v88.729h-15.25z" fill="#020202"/><g fill-rule="nonzero"><path d="m1587.16 258.724h15.3v74.559h14.75v-74.559h15.42v-14.171h-45.47z" fill="#231916"/><path d="m1555.94 299.766 5.12-28.787h.96l4.84 28.787zm-4.09-55.241-15.94 88.737h14.7l3.17-19.225h15.11l3.02 19.225h15.39l-15.94-88.737z" fill="#231916"/><path d="m1513.71 310.924c0 6.029-2.19 9.291-7.83 9.291h-7.55v-62.575h3.43c8.24 0 11.95 3.271 11.95 10.55zm-8.92-66.35h-21.31v88.708h21.99c16.63 0 23.5-7.787 23.5-24.754v-39.575c0-16.458-7.56-24.379-24.18-24.379" fill="#231916"/><path d="m1404.14 312.835c0 5.375-2.98 8.37-7.45 8.37s-7.86-2.995-7.86-8.37v-68.275h-15.03v65.533c0 16.104 8.13 24.467 22.76 24.467 14.35 0 22.61-8.484 22.61-24.088v-65.912h-15.03z" fill="#231916"/><path d="m1351.05 312.3c0 5.646-2.57 8.513-7.59 8.513-5 0-7.58-2.867-7.58-8.513v-45.362c0-5.638 2.58-8.409 7.58-8.409 5.02 0 7.59 2.771 7.59 8.409zm-7.04-68.937c-14.63 0-23.16 8.42-23.16 22.054v44.837c0 15.988 7.99 24.284 22.61 24.284 14.37 0 22.76-8.417 22.76-23.905v-44.854c0-14.116-8.81-22.416-22.21-22.416" fill="#231916"/><path d="m1274.32 333.308h15.16v-38.845h17.13v-14.575h-17.13v-20.005h24.34v-15.32h-39.5z" fill="#231916"/><path d="m163.554 166.473c-2.862 1.662-3.846 5.321-2.192 8.183 1.659 2.867 5.317 3.838 8.18 2.196 2.862-1.662 3.841-5.321 2.191-8.187-1.646-2.863-5.316-3.846-8.179-2.192" fill="#3d505f"/><path d="m100.149 178.89c-25.779-14.88-58.741-6.059-73.629 19.716-14.879 25.779-6.046 58.746 19.734 73.634 25.783 14.879 58.737 6.05 73.625-19.734 14.879-25.779 6.05-58.737-19.73-73.616" fill="#3d505f"/><path d="m232.954 164.444c25.779 14.879 58.745 6.05 73.625-19.725 14.879-25.779 6.045-58.746-19.725-73.617-25.784-14.887-58.742-6.058-73.63 19.721-14.883 25.775-6.045 58.742 19.73 73.621" fill="#3d505f"/><path d="m139.606 232.775c-25.779 14.888-34.617 47.854-19.729 73.638 14.879 25.779 47.842 34.6 73.625 19.72 25.775-14.879 34.608-47.845 19.725-73.625-14.888-25.783-47.846-34.604-73.621-19.733" fill="#3d505f"/><path d="m193.501 110.55c25.775-14.88 34.608-47.846 19.725-73.63-14.888-25.779-47.846-34.6-73.621-19.72-25.779 14.879-34.613 47.845-19.729 73.625 14.879 25.77 47.846 34.604 73.625 19.725" fill="#3d505f"/><path d="m259.901 171.663c-29.771.008-53.9 24.137-53.896 53.895 0 29.775 24.125 53.892 53.896 53.9 29.767-.008 53.904-24.125 53.904-53.9 0-29.758-24.137-53.887-53.904-53.895" fill="#3d505f"/><path d="m73.198 171.67c29.767-.008 53.896-24.137 53.896-53.904s-24.129-53.892-53.896-53.892c-29.762 0-53.9 24.125-53.9 53.892.004 29.767 24.138 53.896 53.9 53.904" fill="#3d505f"/><path d="m126.446 205.194c8.595 4.958 19.587 2.012 24.545-6.588 4.959-8.587 2.013-19.579-6.575-24.529-8.595-4.967-19.583-2.029-24.537 6.563-4.967 8.604-2.025 19.587 6.567 24.554" fill="#3d505f"/><path d="m188.68 169.256c8.596 4.959 19.579 2.013 24.542-6.571 4.962-8.595 2.017-19.587-6.571-24.545-8.592-4.971-19.583-2.021-24.546 6.579-4.958 8.596-2.021 19.579 6.575 24.537" fill="#3d505f"/><path d="m175.532 223.151c8.587-4.958 11.537-15.942 6.571-24.546-4.954-8.583-15.938-11.529-24.538-6.562-8.591 4.95-11.533 15.941-6.575 24.537 4.963 8.592 15.946 11.529 24.542 6.571" fill="#3d505f"/><path d="m157.567 120.175c-8.595 4.958-11.537 15.941-6.575 24.545 4.963 8.592 15.946 11.53 24.542 6.571 8.588-4.958 11.533-15.941 6.571-24.546-4.958-8.583-15.942-11.529-24.538-6.57" fill="#3d505f"/><path d="m197.667 207.592c9.92 0 17.966-8.038 17.966-17.963 0-9.929-8.046-17.966-17.966-17.966-9.921 0-17.963 8.037-17.963 17.966 0 9.925 8.042 17.963 17.963 17.963" fill="#3d505f"/><path d="m135.432 135.732c-9.92 0-17.966 8.038-17.966 17.967 0 9.917 8.046 17.963 17.966 17.963 9.921 0 17.967-8.046 17.967-17.963 0-9.929-8.046-17.967-17.967-17.967" fill="#3d505f"/><path d="m153.18 172.465c-2.858 1.654-3.841 5.321-2.187 8.175 1.65 2.867 5.308 3.846 8.179 2.2 2.858-1.65 3.85-5.317 2.187-8.183-1.654-2.863-5.316-3.846-8.179-2.192" fill="#3d505f"/><path d="m182.104 162.684c-1.65-2.862-5.316-3.854-8.175-2.2-2.87 1.65-3.845 5.317-2.195 8.184 1.65 2.862 5.316 3.845 8.187 2.191 2.858-1.654 3.842-5.312 2.183-8.175" fill="#3d505f"/><path d="m166.549 177.653c-3.308 0-5.991 2.675-5.991 5.983 0 3.313 2.683 5.992 5.991 5.992 3.309 0 5.988-2.679 5.988-5.992 0-3.308-2.679-5.983-5.988-5.983" fill="#3d505f"/><path d="m166.549 165.672c3.309 0 5.988-2.675 5.988-5.984 0-3.312-2.679-5.991-5.988-5.991-3.308 0-5.991 2.687-5.991 5.991 0 3.309 2.683 5.984 5.991 5.984" fill="#3d505f"/><path d="m173.928 182.842c2.862 1.646 6.525.662 8.175-2.2 1.658-2.859.675-6.525-2.188-8.175-2.866-1.654-6.533-.675-8.179 2.191-1.65 2.863-.675 6.53 2.192 8.184" fill="#3d505f"/><path d="m159.171 160.482c-2.867-1.654-6.525-.662-8.179 2.2-1.654 2.867-.671 6.525 2.187 8.18 2.863 1.65 6.53.671 8.18-2.196 1.654-2.863.67-6.521-2.188-8.184" fill="#3d505f"/><path d="m1202.23 280.75h-15.18v-36.2h-15.05v88.721h15.05l-.12-37.716h15.18l.12 37.716h15.19v-88.721h-15.19z" fill="#231916"/><path d="m1143.55 243.543c-14.66 0-23.21 8.417-23.21 22.046v44.825c0 15.979 7.73 24.279 22.66 24.279 14.39 0 22.8-8.417 22.8-23.9v-9.167h-15.2v11.888c0 6.075-6.08 6.658-7.53 6.658-1.44 0-7.66-.583-7.66-6.658v-48.796c0-6.063 7.59-6.033 7.59-6.033s7.6-.03 7.6 6.033v9.658h15.2v-8.425c0-14.112-8.82-22.408-22.25-22.408" fill="#231916"/><path d="m1090.93 282.263h-6.37v-22.188h5.82c4.28-.012 9.76 2.484 9.76 10.6 0 8.45-3.94 11.396-9.21 11.588m25.14-12.092c-.15-11.75-4.89-24.625-23.89-25.641h-22.48v88.725l14.94-.017v-35.833l6.68.033 10.41 35.817 15.22-.017-11.63-39.033c7.76-4.717 10.88-13.475 10.75-24.034" fill="#231916"/><path d="m1029.12 299.78 5.12-28.787h.96l4.84 28.787zm-4.09-55.241-15.94 88.737h14.7l3.16-19.225h15.12l3.02 19.225h15.38l-15.93-88.737z" fill="#231916"/><path d="m962.007 333.294h39.703v-15.388h-24.465v-23.258h17.612v-14.008h-17.612v-20.68h24.465v-15.387h-39.703z" fill="#231916"/><path d="m941.717 284.003c-9.167-6.804-14.913-10.112-15.055-17.645-.091-4.955 4.009-8.267 7.634-8.08 5.654.292 8.462 5.988 10.55 12.067l12.971-3.542c.5-8.575-10.159-23.087-22.525-23.337-14.08-.279-23.246 9.275-22.792 24.25.379 12.446 8.8 19.962 17.6 27.404 8.183 6.917 13.112 8.738 13.112 16.063 0 5.083-3.7 8.8-9.162 8.8-6.288 0-9.504-4.25-10.413-14.184l-13.191 2.3c-.534 15.829 10.491 26.479 24.979 26.479 13.271 0 22.129-11.537 22.487-21.762.467-13.146-6.354-21.504-16.195-28.813" fill="#231916"/><path d="m864.075 333.272h39.7v-15.388h-24.462v-23.258h17.612v-14.008h-17.612v-20.68h24.462v-15.387h-39.7z" fill="#231916"/><path d="m833.493 282.291h-6.366v-22.188h5.812c4.288-.012 9.763 2.484 9.763 10.6 0 8.45-3.934 11.396-9.209 11.588m25.138-12.092c-.146-11.75-4.888-24.625-23.888-25.641h-22.479v88.725l14.938-.017v-35.833l6.679.033 10.416 35.817 15.221-.017-11.637-39.029c7.758-4.721 10.883-13.479 10.75-24.038" fill="#231916"/><path d="m709.511 333.24h39.7v-15.387h-24.462v-23.259h17.612v-14.008h-17.612v-20.679h24.462v-15.388h-39.7z" fill="#231916"/><path d="m663.285 333.266h15.167v-38.846h17.129v-14.575h-17.129v-20.004h24.337v-15.321h-39.504z" fill="#231916"/><path d="m607.448 244.519h-15.404v88.725h39.513v-13.742h-24.109z" fill="#231916"/></g><path d="m566.084 244.446h15.25v88.729h-15.25z" fill="#020202"/><path d="m543.063 280.718h-15.184v-36.2h-15.045v88.721h15.045l-.116-37.717h15.183l.117 37.717h15.187v-88.721h-15.187z" fill="#231916" fill-rule="nonzero"/><path d="m483.717 243.334c-14.659 0-23.209 8.416-23.209 22.046v44.825c0 15.983 7.734 24.279 22.663 24.279 14.387 0 22.8-8.417 22.8-23.9v-9.167h-15.204v11.888c0 6.075-6.084 6.658-7.525 6.658-1.442 0-7.667-.583-7.667-6.658v-48.796c0-6.063 7.596-6.034 7.596-6.034s7.596-.029 7.596 6.034v9.658h15.204v-8.425c0-14.112-8.821-22.408-22.254-22.408" fill="#231916" fill-rule="nonzero"/><path d="m429.689 282.263h-6.367v-22.187h5.813c4.287-.008 9.762 2.483 9.762 10.6 0 8.45-3.933 11.396-9.208 11.587m25.137-12.091c-.145-11.75-4.887-24.625-23.887-25.642h-22.479v88.725l14.937-.017v-35.833l6.679.033 10.417 35.817 15.221-.017-11.638-39.033c7.759-4.717 10.884-13.475 10.75-24.033" fill="#231916" fill-rule="nonzero"/><path d="m368.809 299.761 5.121-28.788h.962l4.842 28.788zm-4.087-55.242-15.938 88.738h14.7l3.163-19.225h15.112l3.021 19.225h15.387l-15.933-88.738z" fill="#231916" fill-rule="nonzero"/><path d="m638.821 244.534h15.25v88.729h-15.25z" fill="#020202"/><path d="m428.787 140.1s-5.242-3.68-5.729-4.1c-.488-.425-8.104-5.925-9.05-6.709-.942-.779-7.225-5.404-8.009-6.183-.337-.338-1.6-1.196-2.975-2.079 1.655-1.471 2.759-2.463 2.975-2.675 1.175-1.138 9.246-9.959 8.659-9.504-.396.308 5.666-7.038 9.408-11.784h.033c.359-.066 3.809-4.362 4.038-4.754.225-.392.258-2.146.062-2.733-.191-.588-2.895-4.296-3.837-4.884-.946-.587-1.629-1.137-2.933-1.041-1.3.1-20.442-.488-21.288-.325-.179.033-1.412.041-3.187.037 0-3.946-.021-10.646-.134-11.691-.162-1.496-.196-5.046.521-5.988.717-.946 2.375-2.021 2.996-2.279.617-.263 1.658-1.108 1.629-1.825-.033-.717-.55-1.317-1.629-1.583-1.079-.271-7.671-.934-8.063-.959-.391-.025-8.258-.821-8.604-.833-.341-.013-1.45-.167-1.562-.204 0 0-4.492-1.434-4.296 3.125.146 3.458.146 15.95.137 22.025-1.479-.017-2.445-.025-2.55-.021-.52.033-22.066.229-22.587.067 0 0-3.029-.459-3.192 2.016-.162 2.475-.033 5.892 0 6.704.034.817.096 4.071.588 4.95.487.88.683 1.855 4.033 1.563 3.354-.292 35.875-1.171 37.304-1.171.467 0 4.038-.017 8.642-.033-.654 1.216-1.229 2.25-1.413 2.504-.487.687-8.495 9.996-9.895 11.2s-7.034 6.542-8.463 7.746c-1.433 1.204-14.292 11.558-16.146 12.696-1.858 1.141-9.866 5.829-11.396 6.708-1.529.879-3.808 2.212-4.75 2.667-.945.458-4.166 1.595-2.929 2.8 1.234 1.204 12.467 7.487 14.192 8.4 1.725.912 1.625 1.82 4.817.391 3.191-1.433 12.404-8.366 13.279-8.921.033-.02.158-.125.246-.191.008 2.921.016 5.291.016 5.641 0 .996-.521 46.567-.587 47.817-.063 1.246-.575 9.863.175 10.504.746.642 1.041.821 1.758 1 .713.175 16.504.034 17.054-.146.554-.175.588 0 1.109-.641.52-.642.65-.925.65-3.138 0-2.212-.3-19.571-.3-20.854 0-1.287-.134-12.242-.134-13.346 0-1.108.1-12.491.067-13.846-.029-1.133-.146-13.433-.108-18.387 1.629 1.204 3.437 2.433 3.95 2.787.845.588 6.575 6.088 7.941 7.163 1.367 1.075 7.488 5.467 8.4 5.925.909.454 2.279-1.271 3.125-2.15s5.567-5.763 7.096-6.704c1.529-.946 2.279-1.859 2.604-2.671.325-.813-1.758-2.083-1.758-2.083" fill="#020202" fill-rule="nonzero"/><path d="m500.523 142.954c.55-.025 4.491.163 9.121.404.029 3.855.254 20.43.254 20.43-.063.908-.092 9.441-.109 18.3-5.241.175-24.016.133-24.891.191-.6.038-7.375-.021-12.488-.071-.087-9.75-.112-30.3-.146-39.016 3.484-.175 28.259-.238 28.259-.238m34.766-53.254c-1.433-.717-1.304-.521-2.737-.521-1.429 0-46.938.325-48.438.388-.154.008-.804.008-1.804.004.117-.754.209-1.325.246-1.567 0 0 1.204-17.804 1.367-18.879 0 0 .029-3.971 1.754-4.75 0 0 2.542-1.467 1.825-2.671 0 0-.588-1.3-5.858-2.083 0 0-8.4-1.3-10.417-1.563 0 0-5.667-.845-6.383-.129 0 0-1.821.65-1.692 2.342 0 0-.063 16.017-.129 16.929 0 0-.375 6.246-.767 12.158-12.329-.145-25.275-.312-25.275-.312s-5.5-.35-5.6 2.083c-.154 3.842-.129 7.946-.129 8.467s-.454 4.621 1.171 5.075c1.629.458 5.533.392 7.162.392.717 0 10.217-.063 20.725-.138-1.875 8.317-5.658 23.917-8.616 30.217-3.971 8.462-11.196 21.875-19.009 29.816-7.812 7.942-11.654 11.85-23.829 20.055 0 0-2.733 1.758-1.954 2.604 0 0 1.433 1.433 5.079 2.212 0 0 4.1 1.304 7.163 3.388 0 0 3.058 2.929 5.079 2.604 0 0 1.366.129 4.687-2.604 0 0 11.129-8.921 12.629-10.55 0 0 9.242-9.375 10.805-11.329 0 0 .183-.259.437-.63-.058 11.259-.058 32.142-.058 32.142-.2 4.883.966 5.1 1.337 5.308.367.213 15.217.03 15.217.03 2.825-.196 2.767-.492 3.246-.996.466-.492.521-2.138.521-2.138s.02-3.875-.105-7.587c7.888-.792 33.05-.346 33.05-.346.625 0 2.271.083 3.78.179v5.55c-.196 4.883.912 4.688.912 4.688.65 1.041 15.1.65 15.1.65 2.738-.196 2.996-.909 2.996-.909.387-.421.517-.912.554-1.329.004-.008.013-.012.013-.021.004-.021.004-.062.008-.087 0-.009.004-.017.004-.021.083-.504.067-1.604.05-2.079.063-4.054-.5-16.254-.5-16.254-.158-1.138-.187-32.605-.229-44.142.283-1.313.1-11.458.1-11.458.129-2.671-1.042-2.867-1.042-2.867-.65-.779-1.041-.521-1.041-.521-.975-.392-34.242.392-34.242.392-1.292 0-12.596-.279-18.525-.429.092-.334.208-.671.296-1.005 0 0 4.296-15.037 5.466-21.225 0 0 .088-.554.23-1.458 5.358-.046 9.137-.083 9.404-.104.979-.063 43.816.912 44.796.392.975-.521 1.104-.521 1.429-1.563s.521-5.925.521-6.771.654-6.312-.78-7.029" fill="#020202" fill-rule="nonzero"/><path d="m738.462 196.255c.037-.58-.005-1.088-.059-1.459-.087-.996-.429-2.662-1.691-2.783.066-.096-13.192.471-14.23.637 0 0-14.187.559-15.17.559 0 0-16.676.329-17.68.304 0 0-13.504.1-14.508.146 0 0-7.375-.025-13.179-.054.021-8.517.012-23.884-.004-39.159 3.383-.029 5.704-.05 6.091-.058 1.884-.042 46.955 1.587 47.805 1.287 0 0 .775-.362.904-.691 0 0 .133-.475.116-.879 0 0 .342-11.163.309-11.471-.034-.313-.071-1.567-.275-1.825-.204-.263-.534-1.346-1.892-1.388-1.354-.041-17.5.667-19.104.709-1.608.041-24.742.516-26.217.516-.454 0-3.591-.021-7.758-.05-.013-10-.025-18.904-.034-24.496v-5.8h-.004s.004-.35.004-.82v.82c7.505-.008 13.759-.016 13.759-.016.683.033 21.421.262 21.421.262.941-.033 16.212.454 16.212.454 1.625.03 9.488.03 9.488.03 1.791-.134 1.971-1.267 1.971-1.267.162-.583-.067-5.075-.067-5.075.067-.458 0-6.771 0-6.771-.129-.717-.784-1.042-.784-1.042-.625-.354-2.795-.329-2.795-.329-1.434-.096-18.884.134-18.884.134-.487.095-21.741 0-21.741 0-.346 0-10.325-.1-18.559-.159v-.95c-.004-.221-.012-.891-.021-1.746v-9.441c.167-3.946.738-17.654.738-17.654.296-1.238 4.429-2.8 4.429-2.8 2.246-1.138 1.042-3.513 1.042-3.513-1.767-1.504-4.442-1.842-6.209-1.883-1.066-.025-1.799.058-1.799.058-1.042-.067-13.609-1.042-13.609-1.042-3.646-.683-4.229.13-4.229.13-1.237.52-1.108 1.954-1.108 1.954-.292.846.129 19.141.129 19.141.017.63-.042 9.092-.109 17.684-8.941-.042-20.658-.104-20.658-.104-.516 0-10.583-.188-16.816-.3 2.25-3.967 4.712-8.763 6.095-11.834 1.955-4.341 3.905-4.166 3.905-4.166 3.82-.825 4.491-1.78 4.491-1.78 1.163-1.412-.929-3.687-.929-3.687-1.088-1.088-9.204-3.475-9.204-3.475-2.038-.388-10.588-3.471-10.588-3.471-3.733-.954-4.254 4.513-4.254 4.513-.129.954-.825 2.691-1.391 4.254-.563 1.562-3.296 6.596-4.771 9.808-1.479 3.213-6.554 10.983-9.896 15.279s-13.154 13.109-15.8 15.279c-2.646 2.167-8.596 6.075-8.596 6.075-2.342.609-2.604 2.517-2.604 2.517.087 1.217 1.65 1.475 1.65 1.475 1.562.783 5.817 3.038 5.817 3.038 2.258 1.087 5.816 3.645 5.816 3.645 2.517 1.738 4.167 1.65 4.167 1.65 2.862-.608 9.896-8.42 14.496-12.15 2.691-2.183 6.633-6.583 10.966-11.995 2.084-.03 8.217-.3 15.109-.375 12.596-.138 28.158-.305 28.158-.305.188-.008 2.017-.012 4.725-.02-.012 1.679.033 17.512.075 30.104l-.525-.004c-2.146-.021-3.667-.034-4.079-.042-2.083-.046-22.483-.304-24.221-.263-1.737.046-26.979-.791-27.975-.791s-1.163.225-1.667.65c-.508.425-.883.85-.85 2.321.034 1.47-.141 7.75-.275 8.645 0 0-.487 3.084.455 3.946 0 0 .433.804 4.7.8 0 0 30.525-.858 31.916-.9.646-.016 10.888-.096 21.888-.183l.679-.004c.004.987.008 1.562.008 1.562v16.634c-.021 1.154.113 13.329.017 20.67l-.358-.004c-.255 0-.509-.004-.755-.004-3.387-.021-6.095-.042-6.429-.05 0 0-19.779-.271-20.687-.296 0 0-43.334-.441-46.175-.833.091.033-8.871-.425-9.671-.192 0 0-1.263.142-1.408.925 0 0-.392 1.817-.392 3.334 0 0-.492 7.87-.392 8.629 0 0 .046 1.25.488 1.716 0 0 .971 1.959 3.229 1.713 0 0 39.321-1.396 40.3-1.421 0 0 46.371.358 47.983.358h43.434s28.708.575 29.712.625c0 0 13.917.271 14.358.196.442-.071 4.242.234 3.988-2.8 0 0 .167-7.254.042-9.116" fill="#020202" fill-rule="nonzero"/><path d="m813.266 168.396c-4.062.871-11.012.429-11.012.429-.5.021-3.846-.129-6.055-.233.025-1.8.05-3.079.067-3.292 0 0 .05-5.267.05-6.175 0 0 .171-8.896.146-10.296 0 0 .342-11.175.342-11.712 0 0 .375-10.521.504-13.35.062-.167.116-.35.175-.521 2.191.012 10.479-.029 11.283-.05.3-.008 2.129 0 4.425.017.033 5.854.433 35.325.433 35.325-.07.316-.212 4.741-.358 9.858m15.117 22.779c2.604-.737 2.341-2.171 2.341-2.171.263-.779-.608-24.129-.608-24.129 0-.521-.171-23.437-.171-23.437 0-.521-.175-17.45-.175-17.45-.029-.246.079-1.188.134-1.98.016-.2.029-.379.037-.479.025-.321.246-5.541.246-6.229 0-.683-.292-2.892-.638-3.625-.341-.737-2.941-.587-2.941-.587-.292.07-8.404.22-10.834.241-1.937.021-10.7-.175-14.812-.233.258-1.108.533-2.183.771-3.342 0 0 4.246-20.454 5.521-30.929 5.175.017 9.25.038 9.504.046.708.025 14.508.146 14.508.146 1.104-.146 1.275-.929 1.275-.929.858-1.155.683-10 .683-10 .246-2.455-1.27-2.892-1.27-2.892-1.13-.638-4.317-.346-4.317-.346-.613.075-16.079-.146-16.079-.146h-8.921c-.513.025-21.271-.196-21.271-.196-1.008-.025-14.071.05-14.071.05-1.129.046-1.129 1.321-1.129 1.321-.146.638-.196 7.013-.196 7.696 0 .688.15 3.825.15 3.825.442 2.158 2.154 1.763 2.154 1.763 1.13.125 14.684-.367 15.738-.392.246-.004 2.142-.004 4.862 0-.6 7.292-1.695 19.846-2.245 21.546 0 0-2.867 14.616-6.575 20.508 0 0-9.15 17.088-10.355 18.617 0 0-12.27 14.487-13.279 15.366 0 0-1.204.88-.391 1.955 0 0 12.987 5.695 14.129 5.925 0 0 1.137.616 2.666-.392 0 0 4.33-3.942 5.534-5.146 0 0 .312-.262.837-.767-.058 7.888-.15 19.105-.208 19.692-.083.913-1.083 19.4-1.213 19.967-.129.562-.529 4.25-.529 4.25s-.291 2.746-.046 3.283c0 0 .292 1.421 2.105 1.325 0 0 14.929.196 15.345 0 0 0 1.25-.025 1.275-1.862 0 0 .171-14.584.096-15.738 0 0 .009-.833.021-2.129 4.1-.496 11.55-.479 11.55-.479 1.054.066 3.683.129 5.296.166-.025 1.159-.046 1.896-.046 1.896-.171 4.209.263 5.642.263 5.642 1 1.429 8.679 1.042 8.679 1.042 1.521 0 6.6-.263 6.6-.263" fill="#020202" fill-rule="nonzero"/><path d="m893.919 76.235s5.367.1 11.825.217c0 .038-.021.083-.021.117 0 0-.171 33.579-.171 34.454 0 0-.004.737-.012 2.004-11.063-.017-22.667-.033-23.167.013-.141.012-.833.025-1.846.033.017-2.433.017-4.246-.021-4.633-.129-1.434-.391-16.017-.391-18.1 0-1.767-.046-10.417-.258-13.909 6.966-.104 13.6-.196 14.062-.196m-32.421 67.621c-.262 1.563-1.5 9.375-2.604 13.15-1.108 3.779-3.192 9.509-4.167 11.592-.979 2.083-2.67 5.662-4.687 8.592-2.021 2.929-6.384 8.725-8.075 10.025-1.692 1.304-4.75 3.975-6.771 5.079-2.017 1.108-5.012 3.125-6.121 3.516-1.104.392-2.471 1.238-2.471 1.692 0 .458.909 1.108 2.734 1.954 1.82.846 8.333 5.079 8.854 5.729s1.758 1.759 2.475 2.084 2.083 1.041 4.033-.263c1.954-1.3 6.25-4.229 7.163-5.075.912-.846 5.275-5.012 6.771-6.771 1.5-1.758 4.883-5.862 6.12-7.683 1.238-1.825 4.038-6.704 4.95-8.596.909-1.887 3.775-7.225 4.688-9.762.908-2.542 2.667-8.529 3.254-11.071.583-2.538 1.625-11 1.821-12.5.196-1.496.979-11.521.912-13.408-.02-.559-.004-2.742.021-5.559h1.196s22.133.175 22.742.175c0 0 .433.004 1.116.009-.083 12.645-.196 28.429-.25 29.208 0 0-1.562 48.1-1.562 49.325 0 0 .521 1.837 1.737 2.1 0 0 17.1.35 18.23 0 0 0 1.216-.35 1.562-2.275 0 0-.783-41.538-.696-42.85 0 0-.087-34.108 0-34.983 0 0 .004-.15.009-.384 6.17.046 11.5.092 11.97.113 0 0 10.55.3 11.375.171 0 0 2.084.175 2.429-2.342 0 0 .609-8.942-.262-10.071 0 0-.171-2.212-5.033-1.908 0 0-18.359.129-19.359.171-.075.004-.446.008-.95.008.171-14.171.4-33.879.342-34.383 0 0 .067-.788.158-1.867 1.563.029 2.625.046 2.796.046 0 0 17.967.562 18.663.171 0 0 .737-.171 1.041-1.038 0 0 .434-10.504.346-10.942 0 0 .088-1.733-2.429-1.733 0 0-13.5-.175-14.408-.175 0 0-21.875-.129-22.659-.087 0 0-43.054-.13-43.837-.088 0 0-17.796.133-18.488-.171 0 0-3.258-.479-4.083.171 0 0-1.342.221-1.387 2.258 0 0-.346 9.375-.176 10.071 0 0 0 1.042.521 1.475 0 0 .825.609 2.692.434 0 0 13.363-.338 18.025-.471.208.854.396 1.691.508 2.425.459 2.9.392 14.712.392 15.754s-.067 16.862 0 17.837c.004.063.008.192.008.371-3.612.004-6.37.009-6.691.021 0 0-12.33.046-14.15-.346 0 0-4.43-.521-4.6 1.563 0 0-.479 3.821-.434 4.775 0 0-.045 5.379.084 5.816 0 0 .825 1.78 2.433 1.646h23.221c-.042 2.479-.092 4.463-.129 5.038-.134 1.821-.654 10.675-.913 12.237" fill="#020202" fill-rule="nonzero"/><path d="m1085.83 89.001c4.16-.029 7.41-.054 7.64-.033.48.05 23.02.117 34.82.187.12 3.342.25 6.196.25 6.196.02.463.01 4.242-.07 8.084-.79-.388-1.53-.755-2.13-1.055 0 0-3.48-3.187-4.81-2.8 0 0-1.17-.52-2.48 3.259 0 0-.98 2.383-1.62 3.45-1.05 1.716-2.07 2.504-3.03 3.025-1.56.846-10.75 1.271-13.39 1.271-2.63 0-14.48.258-15.29-2.867-.76-2.896-.28-15.638.11-18.717m-113.391 23.288s-.195 1.912 2.8 1.941h12.825s1.759.159 2.605-.312c0 0 1.266-.346 1.041-3.575-.229-3.229-.471-15.333.259-19.125 0 0 .179-1.408.312-2.288 11.879.017 25.379.038 25.669.038.52 0 47.04-.258 47.98 0 .13.037.75.062 1.68.075-.2.542-.32 1.175-.18 2.008 0 0-.66 23.017 0 24.025 0 0 .97 4.429 6.83 6.9 0 0 5.21 2.021 25.07 1.629 0 0 18.91.392 23.69-1.495 0 0 4.79-1.955 6.77-4.559 0 0 .87-1.216 1.88-2.737 4.49.141 13.79.087 13.79.087 2.04.046 1.83-.954 1.83-.954.26-.912-.61-9.112-.61-9.112-.26-1.955-.17-10.938-.17-10.938.08-3.558.78-13.629.78-13.629.08-1.908.12-3.213-1.05-4.167-.31-.25-1.62-.316-3.1-.308h-.01s-32.87.546-34.3.546-37.66-.229-38.15-.196h-.04c0-.029-.01-.104-.01-.104s-.25-6.975.7-8.588c.96-1.608 4.86-3.221 4.86-5.187 0 0 1.22-1.879-3.99-2.684 0 0-17.54-2.416-18.92-1.966 0 0-2.44-.359-2.61 1.429 0 0-.43 2.504-.35 3.758 0 0 .09 10.288.18 11.984 0 0-.02.62-.06 1.437-9.51.029-18.88.054-19.21.054 0 0-38.282-.196-39.195-.196 0 0-6.087 0-13.15-.654 0 0-2.8-.583-4.429.134 0 0-1.529.583-1.562 1.95 0 0 .095 8.825.066 9.312-.008 2.054.229 5.671.196 6.404 0 0-.783 17.996-.717 19.063" fill="#020202" fill-rule="nonzero"/><path d="m1033.94 91.308s-1.33.025-2.26 1.471c0 0-4.09 5.417-5.88 7.059 0 0-5.27 4.633-8.68 6.812-3.4 2.183-8.72 5.983-14.31 8.138 0 0-10.933 3.554-11.962 3.875 0 0-.883.425-.637.97.246.546 12.939 10.817 14.219 10.792 0 0 .31.075 1.07-.246 0 0 17.24-7.104 25.59-13.775 8.36-6.662 12.13-11.075 13.93-12.154 0 0 1.05-.933 4.55-.587 0 0 2.43-.396 2.65-1.817 0 0 .83-2.058-4.65-4.604 0 0-5.5-2.55-5.81-2.746.01.008.01.008.03.017-1.23-.746-6.1-3.609-7.85-3.205" fill="#020202" fill-rule="nonzero"/><path d="m1088.9 150.202c-.63 3.15-1.51 7.312-1.68 8.129-.27 1.237-2.41 16.083-2.61 17.579-.19 1.5-1.36 12.892-1.69 16.667-.32 3.775 1.24 6.121 2.09 7.291.84 1.171 2.86 2.996 4.16 3.775 1.3.784 4.1 1.63 5.86 2.084 1.76.458 11.26.783 12.76.783s13.61.067 18.75.258c5.14.196 8.47-1.233 11.33-2.083 2.86-.846 6.64-5.208 7.55-6.117.91-.912 4.43-6.512 5.47-8.725 1.04-2.212 1.5-4.233 1.82-5.47.33-1.234.33-2.605.26-3.513-.06-.912-1.36-1.175-2.21-1.562-.85-.392-3.65-1.563-4.82-1.955-1.17-.391-5.47-3.645-6.51-4.429-1.04-.779-1.1-.712-2.08-.387s-1.44 3.321-1.82 5.208c-.4 1.888-1.31 3.646-1.96 5.467-.65 1.825-1.63 3.387-2.34 4.687-.72 1.304-2.22 2.929-3.26 3.646s-3.84 1.042-5.21 1.171c-1.36.133-9.43.392-10.93.392s-4.95-.325-6.51-.65-2.28-1.042-2.87-2.213c-.58-1.175-.84-2.671-.78-4.167.06-1.5.98-11.72 1.3-13.675.33-1.95 1.89-12.5 2.48-15.233.4-1.858 1.2-6.329 1.73-9.392.45-1.745 1.38-5.441 1.52-6.429 0 0 1.14-3.35.33-4.687 0 0-.2-.975-1.95-.975-1.76 0-25.36 1.171-26.38 1.3-.47.062-9.67.466-19.31.887.33-3.875.64-9.487 1-9.875.46-.491.37-.883 2.77-1.325 0 0 2.92-1.216 2.92-2.354 0 0 .17-2.204-2.52-2.646l-16.53-2.158s-6.29-.65-6.67-.604c-.39.05-1.22.166-1.17 2.075 0 0-.2 9.191-.2 10.296 0 0-.47 4.529-1.06 7.537-.54.025-.95.05-1.02.058-.85.096-44.493 1.338-47.918 1.234 0 0-4.946-.55-6.312.654 0 0-1.371.358-1.371 3.058 0 0 .329 8.104.85 9.117 0 0 .225.487.65.908 0 0-.358.75 7.813.459 0 0 37.038-1.955 39.058-2.084 0 0 1.98-.083 4.97-.208-.58 1.929-1.12 3.504-1.54 4.367 0 0-1.64 4.604-3.53 7.204 0 0-5.66 7.596-11.57 12.204 0 0-4.16 4.437-14.41 9.071-10.241 4.633-20.145 7.133-25.633 7.841 0 0-4.954.296-6.129.884 0 0-1.25.466-1.225 1.325 0 0-.737.637 3.138 3.087 0 0 6.691 5.246 8.579 8.625 0 0 .879 1.334 2.987.938 2.109-.396 11.938-3.459 14.113-4.171 2.19-.713 22.48-9.879 24.02-10.783 1.55-.909 10.52-7.109 16.38-13.384 5.85-6.275 9.07-11.687 10.34-13.971 1.02-1.845 3.36-5.187 5.54-12.941.11-.392.25-.788.4-1.196 6.83-.292 12.51-.538 13.29-.588 0 0 8.86-.129 17.5-.316" fill="#020202" fill-rule="nonzero"/><path d="m1296.23 165.015s-11.62.116-23.13.229c.07-3.075.12-5.379.12-5.679 0 0-.07-4.684 2.04-4.709 0 0 1.83-.391 1.83-1.712 0 0-.11-1.446-.95-1.667 0 0-17.83-2.183-19.16-2.004 0 0-1.45.108-2.26.875-.18.175-.49.45-.59.654-.37.817-.76.983-.54 3.221 0 0 .05 5.267.11 11.208-1.75.017-2.86.025-3.02.025 0 0-18.83-.146-19.89-.246 0 0-1.76-.17-4.04-.354 3.51-2.446 6.54-4.687 7.87-5.987 0 0 9.94-9.909 14.19-14.509 4.53-.02 7.81-.041 8.35-.054 0 0 14.02-.033 25.05-.054 1.34 1.946 2.85 3.942 2.85 3.942 2.43 3.862 11.02 12.066 12.67 13.454.43.358 2.21 1.6 4.67 3.267-3.01.037-5.79.079-6.17.1m-57.7-41.55c1.47-.563 35.93.175 35.93.175.92.041 16.11.391 16.97.391.35 0 .71-.096 1.04-.2h.05c0 1.875-.06 4.25-.08 4.346-.03.208-.04 1.754-.05 3.663h-.75c-.63 0-30.71-.067-31.38 0-.32.033-12.05.05-24.14.058 0-.246.01-3.463.04-7.996 1.13-.325 2.37-.437 2.37-.437m-2.28-20.121c1.24-.588 3.23-.763 3.23-.763 1.48-.566 35.94.171 35.94.171.91.046 16.1.392 16.97.392.01 0 .04.55.07 1.054 0 1.962.05 5.475.06 7.762h-.06c-1.55 1.467-3.93 1.521-3.93 1.521h-35.9c-.92 0-11.42-.45-16.42-.666.01-3.196.03-6.446.04-9.471m.06-12.309c0-.887.01-1.383.01-1.383l.09-6.9c10.15-.042 20.69-.092 21.66-.117 0 0 29.08-.07 34.34-.066.01 2.129.01 6.179.02 9.241-1.41.763-2.95.788-2.95.788h-35.89c-.98 0-12.75-.508-17.28-.704 0-.288 0-.621 0-.859m120.64 41.913s-.44-1.213-2.44-1.229c-1.99-.021-17.46.116-18.57.133-.6.013-13.45.004-25.15 0 0-.425-.01-.717-.01-.812 0-.192.01-3.93.01-7.588.01-2.9.02-6.5.03-10.187h.07c0-2.125-.05-5.988-.05-8.346h.05c.01-5.784-.02-11.967-.03-13.488h.03l.21-8.566c10.56.175 22.01.362 22.69.362 0 0 14.05.633 15.88-.821 0 0 .62-.737.75-2.583s.52-7.371 0-8.038c0 0-.41-1.162-2.25-1.179-1.85-.012-16.16.117-17.19.134-.49.008-9.83.004-19.46 0l.17-5.017c.25-.908 2.82-3.038 2.82-3.038 1.7-.908 1.41-2.083 1.41-2.083.17-.954-.33-1.129-.33-1.129-.87-1.517-15.64-1.908-18.25-1.908-2.62 0-2.58 0-3.49.695-.91.692-.99 2.342-.99 2.342-.11.558-.23 5.6-.32 10.125h-2.56c-.59 0-28.42-.067-29.04 0-.31.033-12.31.046-24.1.054l.21-5.7c.26-.908 2.95-3.037 2.95-3.037 1.78-.913 1.48-2.084 1.48-2.084.17-.954-.35-1.129-.35-1.129-.91-1.516-16.36-1.908-19.09-1.908-2.74 0-2.7 0-3.65.696-.96.691-1.04 2.341-1.04 2.341-.12.588-.26 6.142-.36 10.83h-2.98c-.79 0-26.25-.084-27.64-.184 0 0-6.14-.508-6.93 0 0 0-1.53.184-1.38 2.354 0 0-.13 7.68 0 7.975 0 0 .06.913.53 1.371 0 0 .26.884 7.32.788 6.83-.096 28.53-.238 30.97-.263.01 2.254-.03 45.996-.02 49.075h-7.32c-.84 0-28.35-.087-29.86-.187 0 0-6.64-.534-7.48 0 0 0-1.65.187-1.49 2.462 0 0-.15 8.038 0 8.346 0 0 .06.958.57 1.438 0 0 .28.92 7.91.82 7.62-.104 32.47-.258 33.72-.275 0 0 4.44-.016 10.5-.041-.53.716-5.16 6.883-10.84 10.929 0 0-6.03 6.596-25.34 14.062 0 0-7.77 2.734-13.37 3.905 0 0-3.48.654-3.56 1.825 0 0-.18.954 1.99 2.083 0 0 7.3 3.471 9.55 6.162 0 0 1.65 2.692 2.26 2.692 0 0 6.21-.825 8.94-1.996 0 0 14.45-6.554 16.84-8.075 0 0 2.46-1.571 5.83-3.775.02 1.842.13 4.092.57 4.696 0 0 1.2 1.446 8.14 1.054 6.93-.396 27.31-.196 28.33-.221 0 0 .45-.004 1.11-.008.02 2.104.05 3.633.07 4.017 0 0-.34 9.925-.34 10.491 0 0-.02.896.29 2.125-1.32.013-2.18.021-2.31.025-.72.034-28.09-.425-29.23-.391-1.14.033-16.28.066-17.45.066l-14.78-.325s-2.47-.52-3.51.325c0 0-1.11.421-1.24 2.213 0 0-.2 9.279 0 9.504 0 0-.1.846 1.69 1.629 0 0 16.63.067 18.88 0 0 0 28-.521 28.91-.521h35.28s37.99.88 39.46.846c0 0 26.4.784 27.8.454 0 0 1.56.196 2.6-.908 0 0 .72-1.204.72-3.321 0 0 .78-7.062-.52-8.596 0 0-.07-.879-2.02-.975-1.95-.095-4.82-.291-5.6-.262-.78.033-29.04-.163-29.82-.129-.78.033-27.28.129-27.99.196-.11.008-.69.02-1.55.029-.02-.138-.71-7.842-.59-10.663.04-.816.1-3.091.18-5.916 9.57-.042 19.07-.075 19.57-.055 0 0 16.52.492 17.65.15 0 0 .64.025 1.37-.541 0 0 .41-.246.44-2.892 0 0 .16-1.329.22-2.996 5.57 3.704 11.03 7.292 12.77 8.396 3.82 2.413 16.58 6.871 16.58 6.871 1.43.521 3.21 0 3.21 0 1.83-.65 5.65-6.338 5.65-6.338.56-.608 4.08-3.212 4.08-3.212 2.3-1.733 0-2.558 0-2.558-.83-.434-5.56-1.867-5.56-1.867-4.91-.871-22.92-9.463-22.92-9.463-11.98-6.512-19.83-15.104-20.66-16.32-.34-.509-.93-1.446-1.68-2.521 12.42.204 34.48.554 35.46.554 0 0 15.19.667 17.16-.858 0 0 .68-.771.82-2.7.14-1.934.56-7.717 0-8.417" fill="#020202" fill-rule="nonzero"/><path d="m1499.66 112.113c-5.83.021-11.07.05-11.47.079 0 0-26.87-.262-28-.129 0 0-12.37-.446-22.23-.788-2.19-.075-4.27-.145-6.05-.208 1.28-.758 2.08-1.229 2.08-1.229 1.69-1.3 16.52-13.871 16.52-13.871 1.95-1.425 14.57-14.3 14.57-14.3.61-.579 2.06-1.779 3.85-3.229 4.81 6.608 10.31 12.3 22.06 22.367 4.39 3.758 10.14 7.729 15.7 11.283-2.26.008-4.69.017-7.03.025m65.81 7.442c-1.69-1.042-12.37-3.255-12.37-3.255-6.51-1.433-22.52-8.529-26.95-10.675-4.43-2.15-21.55-13.087-31.9-22.529-6.86-6.25-10.75-11.7-12.63-14.708.15-.125.27-.217.32-.263.88-.716 2.28-1.37 2.28-3.191 0-1.825-2.4-2.279-2.4-2.279-1.28-.259-16.8-5.08-16.8-5.08-4.17-1.725-5.4-.52-5.4-.52-1.57.912-2.74 3.45-2.74 3.45-2.22 5.862-13.68 18.204-13.68 18.204-2.06 2.525-19.46 17.108-19.46 17.108-3.16 2.475-19.39 12.183-23.53 14.167-4.14 1.987-28.48 10.612-28.48 10.612-.88 1.154 7.7 6.496 7.7 6.496.98.833 7.45 5.392 7.45 5.392 2.3-.121 4.89-1.6 4.89-1.6 5.47-1.3 18.62-7.684 18.62-7.684 1.09-.358 5.55-2.845 10.3-5.579 0 .742.02 1.567.07 2.513 0 0-.15 3.125.48 3.908 0 0 .3.779 3.63.779h34.09c-.02 4.188.02 15.634.03 20.409-.83.008-1.43.016-1.59.029 0 0-43.34-1.171-45.44-1.171 0 0-4.69-.263-5.86.912 0 0-1.69.455-1.17 8.334 0 0-.2 3.125.65 3.904 0 0 .39.783 4.81.783h48.6v35.796c-5.07-.037-9.78-.104-10.7-.033-1.15.087-7.98.033-15.41-.063 1.38-.454 3.2-1.129 4.47-1.891 0 0 6.05-2.342 6.9-3.775 0 0 1.3-.934-1.82-6.163 0 0-10.49-16.362-13.81-16.754 0 0-1.3-1.233-6.5 1.533l-5.21 2.763s-3.59 1.562-3 3.125c0 0 .78 2.15 3.78 4.821 0 0 7.29 10.545 7.94 11.587 0 0 1.83 3.263 3.6 4.704-7.93-.112-15.61-.246-17.01-.279-2.93-.062-21.35-.454-23.7-.779 0 0-3.9-.129-5.08.779 0 0-1.17.521-1.17 1.954v10.159s-.2 1.95 2.08 2.341c2.28.392 31.06-.65 32.17-.65h67.7s39.39.629 41.28.738c0 0 26.46 1.062 28.87.387 0 0 1-.583.82-2.429 0 0 .84-10.675-.65-11.587 0 0-1.44-1.171-8.86-.78-6.03.317-28.37.205-37.74.221 5.19-4.95 12.48-15.066 12.48-15.066 1.37-1.563 3.52-1.821 3.52-1.821 4.29-1.175 3.12-2.346 3.12-2.346.52-2.342-4.04-3.383-4.04-3.383-3.7-1.238-10.8-4.459-10.8-4.459-4.88-2.833-6.51.713-6.9 2.504-.57 2.55-4.43 7.163-4.43 7.163-2.02 2.8-10.81 11.067-10.81 11.067-2.34 2.212 2.48 3.125 2.48 3.125 1.79.104 5.15 2.354 6.53 3.32-6.68.038-17.85.017-19.3.063-.17.008-.49.004-1.05.004v-35.896h10.69c1.17 0 23.89.909 25.91.909 0 0 15.5.458 16.93 0 0 0 1.43.458 1.43-2.342v-9.375s.33-1.954-1.95-1.954c0 0-35.87.066-37.11.129 0 0-7.58-.054-15.9-.1-.01-5.046 0-17.325 0-20.467h5.53c.88 0 17.96.913 19.47.913 0 0 11.65.454 12.72 0 0 0 1.08.454 1.08-2.346v-4.692c4.98 2.892 8.48 4.767 8.48 4.767 8.07 4.492 24.87 10.675 24.87 10.675 3.13.717 3.25-.779 3.25-.779 1.24-1.888 4.43-5.859 4.43-5.859 1.76-2.345 6.12-5.729 6.12-5.729 2.08-1.371.78-2.216.78-2.216" fill="#020202" fill-rule="nonzero"/><path d="m1714.53 192.735c-2.88.305-35.93.13-36.92.175-.79.034-33.71-.375-47.99-.595-.06-1.838-.1-3.071-.1-3.071.01-.088.02-.992.03-2.304.45-.109.86-.205 1.14-.267 1.22-.271 7.38-.408 8.01-.408.64 0 42.1-.088 42.69-.088s33.58.271 36.07.45c.72.054 1.24.175 1.68.313-.02 1.07-.04 1.812-.05 1.975-.03.287-.11 1.72-.21 3.666-1.73.013-3.37.05-4.35.154m-84.83-24.845c1.89-.063 9.02-.296 9.92-.296 1.05 0 29.25-.054 30-.054s44.57.112 45.71.166c.3.013 1.86.059 3.98.113-.02 1.766-.04 4.2-.06 6.796-1.05.304-2.7.487-3.01.516-.5.046-45.26 0-45.44 0-.19 0-36.49 0-39.61-.225-.53-.041-1.05-.112-1.56-.191 0-.83 0-1.4-.01-1.517-.01-.288.04-2.613.08-5.308m88.91 38.137c.27 2.375 1.96 2.538 1.96 2.538 1.17.75 10.16.229 13.28.262 3.13.033 3.51-1.496 3.51-1.496.82-1.304-.3-17.925-.3-19.325 0-1.129.29-17.612.41-23.971.06-1.737.07-3.62-.01-3.975-.15-.645.16-4.041-3.23-4.008-3.4.038-13.81.625-14.68.646-.88.017-26.85.312-27.49.292-.64-.017-30.47.02-31.29 0-.82-.017-33.68-.33-34.58-.313-.89.021-5.8-.254-6.35-.325 0 0-5.89-.504-6.94-.042-1.04.463-1.59 1.305-1.64 2.005-.05.629-.18 7.025-.08 8.608.01.179.02.354.02.425 0 .725-.55 24.796-.66 26.412-.11 1.621-.62 11.959-.76 13.646-.15 1.688 4.1 1.55 4.1 1.55s8.35.171 11.5-.071c3.15-.237 4.17-1.512 4.17-1.512.25-.338.19-.758.22-3.35 5.25-.125 10.11-.246 10.83-.263 1.63-.045 34.64.346 35.46.259.64-.067 29.57.137 42.35.096-.03 1.637.14 1.354.2 1.912" fill="#020202" fill-rule="nonzero"/><path d="m1696.76 93.864c-1.11.066-27.67-.521-29.3-.392-1.42.117-29.31-.371-37.18-.579 10.87-3.388 19.38-6.792 29.36-10.717 5.33-2.091 10.75-4.787 15.29-7.229 4.73 2.917 12.6 7.525 19.66 10.5 5.13 2.163 14.67 5.392 24.68 8.508-7.2-.154-21.65-.141-22.51-.091m68.53-2.429s-10.63-2.171-14.76-3.125c0 0-26.25-5.992-34.37-9.292-8.12-3.296-22.65-9.458-26.04-12.496-.15-.137-.36-.233-.56-.333 1.62-1.304 1.47-1.813 1.47-1.813 1.15-2.141-1.94-3.404-1.94-3.404-.65-.392-10.86-3.829-10.86-3.829-4.58-1.863-6.42 1.604-6.42 1.604-14.39 10.667-25.13 14.333-40.31 19.767-15.18 5.429-41.03 8.308-45.42 9.554-4.38 1.242.66 4.579.66 4.579 1.5 1.179 1.37.788 5.49 5.367 4.13 4.583 6.03 3.666 6.03 3.666 4.58-.458 22.12-5.891 22.12-5.891.9-.246 1.72-.488 2.58-.734-.01.088-.02.146-.03.242-.06 1.238-.32 6.704-.32 6.704s-.4 2.409.26 3.45c.65 1.042 3.06 1.367 4.75 1.175 1.69-.196 52.73 0 54.56-.133 1.82-.129 39.71 1.108 41.14 1.042 1.44-.063 1.69.262 2.61-.521.91-.779.97-1.821 1.04-2.604.06-.78 0-6.967-.13-7.55-.05-.213-.05-.417-.06-.621 13.56 4.037 26.21 7.321 28.15 6.879 0 0 1.18.392 2.48-.783 0 0 4.63-5.388 5.71-6.3 0 0 1.74-2.084 2.69-2.517 0 0 1.35-1.175-.52-2.083" fill="#020202" fill-rule="nonzero"/><path d="m1613.16 124.919c3.6-.021 6.64-.041 7.44-.046.46-.004 2.54-.004 5.5-.004 1.49 1.917 2.91 3.829 3.45 4.434 0 0 3.25 5.341 5.63 9.079-.58.004-1.03.004-1.16.012-.95.05-12.05-.075-20.85-.187-.03-4.263-.06-7.967-.06-8.1 0-.154.02-2.654.05-5.188m51.74.046c.39.883.7 1.758.73 2.554.2 3.859-.13 9.088-.13 9.088s-.07.896-.24 1.987c-3.99-.033-8.78-.075-13.42-.112-1.5-2.971-4.76-9.404-6.94-13.6 9.51.012 18.43.037 20 .083m18.05 1.508c.04-.366.2-.875.43-1.437 9.61.033 19.73.067 21.66.062-.82 2.18-4.98 9.517-8.06 13.78-4.53-.042-9.32-.088-13.31-.125-.47-1.205-.87-2.634-.84-4.013.06-3.233 0-6.796.12-8.267m39.78-1.116c4.02.054 8.29.1 12.31.129-.14 4.142-.31 8.946-.46 13.25-.51 0-.88.004-1 .021-.91.096-12.45.233-18.01.275 1.26-2.754 4.51-9.638 7.16-13.675m-126.1 16.758v.117c0 .629-.29 9.221-.22 9.662 0 0 .49 1.409 1.59 1.775 0 0 13.53.171 13.87.05s0 0 0 0 1.36 0 1.41-2.483c0 0 0-.513-.01-1.317 3.64-.025 6.73-.041 7.53-.046 2.28-.016 42.98-.004 44.58.1 0 0 38.16.138 40.17.125 1.14-.008 15.89.28 28.64.38-.03 2.095 1.29 2.691 1.29 2.691 1.34 1.321 14.67.634 14.67.634 3.45-.021 3.11-1.713 3.11-1.713.44-.454.12-19.267-.09-29.512.08-1.392.12-3.567-.11-5.388-.02-.675-.03-1.125-.03-1.125-.08-.5-.3-.862-.58-1.167-.21-.408-.47-.725-.81-.8 0 0-.19-.004-.46-.012-1.52-.488-3.41-.117-3.41-.117-.06.009-.16.013-.28.021-5.14-.129-13.3-.317-14.08-.233-1.14.121-19.41.312-20.89.283s-37.37-.375-38.21-.367c-.83.005-38.89-.362-40.49-.279-1.59.088-31.67-.325-31.67-.325s-5.59-.2-5.69 1.929c-.06 1.121-.04 2.242-.02 3.209v.021c0 .083.02.925.05 2.145 0 .038.01.113.01.242.11 3.975.32 11.538.3 11.829-.02.288-.1 5.167-.14 7.934-.02.595-.03 1.175-.03 1.737" fill="#020202" fill-rule="nonzero"/></svg>