<svg clip-rule="evenodd" fill-rule="evenodd" stroke-linejoin="round" stroke-miterlimit="2" viewBox="0 0 690 320" xmlns="http://www.w3.org/2000/svg"><path d="m304.807 151.72c-1.409-.8-3.008-1.205-4.609-.952l-.106.017-.09.013c-.015.003-.03.005-.046.008-1.583.255-2.967 1.121-4.056 2.301-.553.603-1.307 1.031-2.178 1.167-2.04.319-3.952-1.077-4.271-3.116-.21-1.331.3-2.749 1.512-3.628.478-.348 1.031-.56 1.605-.642.812-.127 1.604.018 2.283.367.101.049.197.102.289.158 1.264.763 2.716 1.156 4.175.932l.387-.06.403-.064c1.459-.23 2.722-1.046 3.695-2.157.069-.079.144-.157.223-.234.541-.54 1.252-.92 2.065-1.047.572-.097 1.165-.063 1.727.123 1.421.469 2.337 1.663 2.542 2.993.319 2.04-1.076 3.952-3.115 4.27-.874.136-1.723-.041-2.435-.449zm-.888-11.031c-1.148-1.145-2.583-1.958-4.195-2.137l-.106-.012-.09-.011c-.007 0-.013-.001-.02-.002-1.604-.18-3.177.289-4.547 1.144-.692.436-1.533.648-2.409.549-2.051-.231-3.526-2.082-3.294-4.134.149-1.339 1.016-2.571 2.417-3.099.553-.209 1.143-.268 1.718-.195.818.093 1.545.443 2.108.961.083.073.161.148.234.225 1.017 1.07 2.313 1.833 3.781 2.004l.388.044.405.045c1.468.164 2.903-.288 4.134-1.103.087-.057.177-.112.273-.164.665-.38 1.452-.56 2.272-.467.578.057 1.14.247 1.633.575 1.246.828 1.815 2.222 1.661 3.559-.233 2.052-2.084 3.526-4.135 3.294-.878-.099-1.65-.495-2.228-1.076zm126.671 4.732c-.599-1.507-1.594-2.822-3.002-3.627l-.093-.053-.079-.046c-.009-.005-.018-.01-.027-.015-1.397-.798-3.024-.989-4.617-.749-.809.125-1.664-.013-2.429-.452-1.791-1.027-2.41-3.311-1.383-5.102.668-1.17 1.953-1.957 3.449-1.886.589.028 1.154.208 1.653.503.713.409 1.24 1.017 1.551 1.714.049.102.091.204.128.305.509 1.385 1.396 2.6 2.675 3.339l.339.195.354.202c1.283.733 2.778.887 4.232.628.102-.018.207-.032.315-.042.761-.085 1.556.063 2.271.473.508.282.949.68 1.272 1.177.814 1.254.783 2.759.111 3.925-1.027 1.791-3.311 2.41-5.102 1.383-.766-.44-1.318-1.11-1.618-1.872zm-2.307 15.2c-.752-1.436-1.877-2.642-3.361-3.296l-.099-.043s-.1-.045-.109-.049c-1.473-.649-3.112-.671-4.673-.266-.791.208-1.656.159-2.463-.198-1.887-.835-2.74-3.043-1.904-4.931.543-1.233 1.74-2.149 3.234-2.233.59-.034 1.17.086 1.697.328.75.333 1.336.881 1.718 1.539.06.098.114.197.162.295.649 1.325 1.658 2.441 3.007 3.043l.357.159.374.165c1.35.595 2.855.593 4.273.185.105-.03.213-.056.326-.078.743-.159 1.542-.093 2.291.238.535.228 1.015.578 1.387 1.039.94 1.163 1.065 2.663.518 3.892-.836 1.888-3.044 2.741-4.932 1.905-.807-.357-1.425-.966-1.803-1.694zm-37.64 13.538c-.006 1.655-.015 2.937-.025 3.319-.06 2.17-.186 4.209-.38 6.114-.193 1.906-.674 3.375-1.44 4.407-.767 1.032-1.559 1.803-2.377 2.312-.816.51-1.431.897-4.045 1.161-.981.1-1.735.181-2.521.245l-2.058-5.686c.369-.017.777-.036 1.245-.057 3.436-.156 4.295-.58 4.781-1.272.487-.692.739-1.396.759-2.113.098-3.593.308-13.368.333-16.944.002-.414.002-.774 0-1.065l-6.186 1.528v-5.763l6.187-1.529v-19.501h-5.406v-5.601h25.887v34.744c0 5.166.716 10.159 2.15 14.978.823-3.039 1.356-6.946 1.595-11.722l5.34 3.256c-.304 3.452-.907 6.615-1.808 9.492-.901 2.876-1.769 4.672-2.605 5.389-.835.716-1.795 1.074-2.88 1.074-1.326 0-2.471-.504-3.437-1.514-.965-1.009-1.888-3.989-2.768-8.938-.879-4.95-1.319-9.399-1.319-13.351v-27.807h-9.019v17.973l7.927-2.29v5.763l-7.927 2.291c.014.813.013 6.301 0 10.296v.811zm-14.78 14.813h-12.862v1.595h-5.763v-23.119h18.625zm-5.86-15.988h-7.001v10.517h7.001zm5.795-9.997h-18.56v-5.275h18.56zm0-9.736h-18.56v-5.341h18.56zm1.466-9.899h-21.622v-5.373h8.532c-.348-1.02-1.054-2.398-2.117-4.134l5.861-2.215c1.173 2.193 2.149 4.31 2.931 6.349h6.415zm163.23 29.434h-22.89v17.716h-6.122v-17.716h-22.793v-30.458h22.793v-9.949h6.122v9.949h22.89zm-29.012-24.597h-16.606v18.703h16.606zm22.859 0h-16.737v18.703h16.737zm74.614 30.786-5.796 2.735c-2.128-8.878-5.525-17.572-10.192-26.082l5.21-2.801c5.189 9.878 8.78 18.593 10.778 26.148zm-18.592-28.687-5.081 3.679c-3.451-6.382-8.032-12.492-13.741-18.332l4.2-3.679c5.406 5.101 10.279 11.212 14.622 18.332zm5.339 20.546c-.131 4.255-.364 7.685-.701 10.29-.335 2.605-.769 4.31-1.302 5.112-.531.803-1.324 1.574-2.376 2.312-1.054.738-2.535 1.177-4.446 1.319-1.909.141-3.95.212-6.121.212-2.409 0-4.678-.094-6.805-.278-2.128-.184-3.544-.526-4.25-1.025-.706-.5-1.264-1.184-1.677-2.052-.412-.867-.618-1.92-.618-3.157v-36.926h5.959v35.329c0 1.607.971 2.378 2.914 2.313 1.942-.066 5.194-.098 9.752-.098.717 0 1.427-.234 2.133-.7.706-.467 1.183-2.415 1.433-5.845.249-3.429.374-6.273.374-8.532zm-32.334-17.127c-2.063 12.808-4.776 22.858-8.141 30.152l-5.404-3.223c3.755-8.575 6.284-17.953 7.587-28.134zm-214.448 32.529-3.192 5.145c-5.817-1.867-12.33-3.223-19.537-4.071l3.061-5.014c7.034.608 13.589 1.921 19.668 3.94zm-.782-45.326c-2.062 2.953-4.005 5.438-5.829 7.457l-5.046-2.996c.563-.651 1.758-2.138 3.581-4.461h-21.003c-2.04 2.344-3.994 4.298-5.861 5.862l-4.526-3.875c3.452-2.497 6.762-6.274 9.931-11.332l5.471 1.856c-.195.76-.619 1.541-1.27 2.344h24.552zm1.172 11.722-2.8 5.341c-1.716-.347-3.647-.901-5.796-1.661v25.073h-28.134l2.865 3.321c-6.273 2.887-13.675 5.025-22.206 6.415l-2.866-5.341c6.338-.759 12.406-2.225 18.203-4.395h-9.802v-25.203h12.602l-2.54-3.68c7.793-1.975 13.599-5.437 17.42-10.387l6.057 1.335c-.651 1.194-1.807 2.471-2.133 2.775 4.732 3.06 11.554 4.845 19.13 6.407zm-14.587 14.946h-29.729v2.474h29.729zm0-6.675h-29.729v2.344h29.729zm0 13.481h-29.729v2.605h29.729zm5.34-18.202c-4.473-1.455-9.481-3.064-13.692-5.886-2.779 2.517-5.726 4.127-10.176 5.886zm138.679 31.824-5.507 2.918c-1.007-2.382-1.968-4.448-2.887-6.197-11.345 2.71-21.958 4.503-31.838 5.377l-2.23-5.705c5.486-4.481 10.439-11.509 14.854-21.083h-14.788v-5.837h18.133v-10.624h-15.313v-5.771h15.313v-8.918h6.132v8.918h14.427v5.771h-14.427v10.624h17.443v5.837h-19.805c-4.219 8.722-8.656 15.477-13.312 20.264 7.148-.809 14.624-2.154 22.428-4.033-1.268-2.339-3.279-5.464-6.033-9.378l5.705-2.623c5.29 7.869 9.192 14.69 11.705 20.46zm-41.894-17.377c-4.078 7.503-8.697 14.078-13.855 19.729l-4.617-4.41c4.37-4.293 8.93-10.645 13.683-19.059z"/><path d="m310.58 108.967h-9.904v6.885h-1.483v-6.885h-9.959v-10.958h9.959v-4.287h1.483v4.287h9.904zm-1.512-9.612h-8.392v8.252h8.392zm-9.875 0h-8.476v8.252h8.476zm42.056 5.218h-3.682v11.229h-1.469v-11.229h-4.437c0 3.177-.385 5.183-1.154 6.87-.769 1.689-1.763 3.14-2.981 4.359l-1.223-.901c1.429-1.342 2.441-2.79 3.037-4.347.595-1.556.869-3.264.824-5.981h-3.27v-1.26h3.27v-7.689h-2.816v-1.31h13.365v1.31h-3.146v7.689h3.682zm-5.151-8.949h-4.436v7.689h4.436zm-9.368.58h-4.163c-.439 2.239-1.076 4.306-1.909 6.199h5.454v11.276h-1.428v-.569h-3.998v.975h-1.415v-9.149c-.521.764-1.089 1.44-1.703 2.024l-1.017-1.037c2.216-2.206 3.736-5.446 4.561-9.719h-4.08v-1.308h9.698zm-2.046 7.571h-3.997v7.988h3.997zm42.645-1.977h-9.574v-1.248h9.574zm2.582-.481h-1.455v-4.157h-11.882v4.157h-1.456v-5.478h6.525c-.175-.618-.505-1.001-.989-1.932l1.497-.358c.412.815.769 1.317 1.071 2.29h6.689zm.564 9.558c0 1.334-.11 2.334-.33 3.001-.22.666-.556 1.119-1.009 1.359-.454.238-1.354.358-2.7.358-1.584 0-2.376-.528-2.376-1.581v-7.768h-3.201c-.192 2.858-.836 4.94-1.93 6.248-1.094 1.31-2.721 2.412-4.882 3.31l-1.072-1.111c2.097-.716 3.686-1.716 4.766-3.001 1.081-1.284 1.621-3.099 1.621-5.446h-4.19v-1.259h14.877v1.259h-4.52v7.484c0 .131.065.261.194.389.127.127.54.191 1.235.191.623 0 1.04-.039 1.25-.117.211-.078.366-.181.467-.31.101-.126.193-.532.275-1.215s.115-1.416.097-2.198zm-18.484-8.574c1.566 1.852 2.349 3.796 2.349 5.829 0 .757-.22 1.38-.66 1.871-.439.49-1.364.734-2.774.734-.358 0-.706-.012-1.044-.036l-.564-1.334 1.566.025c.861 0 1.423-.101 1.683-.303.262-.201.392-.508.392-.921 0-1.901-.82-3.794-2.459-5.68.613-1.679 1.318-4.491 2.124-6.912h-4.354v20.253h-1.429v-21.537h7.308v1.284c-.659 1.993-1.369 4.744-2.138 6.727zm47.628 2.807h-8.832c-1.997 3.574-4.039 6.458-6.127 8.657 4.02-.403 7.788-.98 11.306-1.729-.981-1.474-1.993-2.795-3.037-3.964l1.237-.667c2.426 2.923 4.217 5.512 5.371 7.768l-1.237.79c-.522-1.12-1.057-2.058-1.606-2.816-4.14.831-8.764 1.515-13.875 2.05l-.59-1.358c.861-.321 1.942-1.333 3.242-3.038 1.3-1.704 2.501-3.601 3.599-5.693h-6.895v-1.26h8.076v-4.989h-6.772v-1.26h6.772v-3.926h1.443v3.926h6.662v1.26h-6.662v4.989h7.925zm-18.67-1.733-1.029.938c-1.301-1.211-2.906-2.038-4.809-2.958l.92-.99c1.953.923 3.627 1.798 4.918 3.01zm.689-6.355-1.03.938c-1.3-1.21-2.905-2.038-4.808-2.958l.92-.989c1.953.923 3.628 1.798 4.918 3.009zm-.494 10.286c-1.712 3.598-3.374 6.421-4.986 8.472l-1.237-.803c1.713-2.075 3.393-4.874 5.042-8.398zm47.537-6.022h-2.253v4.475h-6.47v1.959h7.007v1.222h-7.007v2.518h8.159v1.234h-8.159v3.222h-1.455v-3.222h-7.487v-1.234h7.487v-2.518h-6.594v-1.222h6.594v-1.959h-5.975v-1.186h5.975v-3.289h-7.185v-1.186h7.185v-3.175h-5.975v-1.185h5.975v-1.954h1.455v1.954h6.47v4.36h2.253zm-3.736-4.361h-4.986v3.175h4.986zm0 4.361h-4.986v3.29h4.986zm-14.245-7.179c-1.831 2.626-3.74 4.549-5.727 5.767l-.934-.939c2.097-1.424 3.878-3.203 5.343-5.334zm.152 5.569c-.605 1.26-1.186 2.321-1.745 3.186v13.054h-1.497v-10.905c-.953 1.086-1.901 1.996-2.843 2.73l-.811-1.136c1.969-1.474 3.805-3.887 5.508-7.237zm47.056 2.481h-3.201v13.759h-1.387v-13.759h-5.055c.009 3.467-.309 6.84-.955 8.51-.645 1.671-1.642 3.421-2.988 5.249l-1.181-.865c1.594-2.025 2.606-3.838 3.036-5.439.431-1.602.646-3.724.646-6.367v-7.718c3.819-.165 7.147-.766 9.986-1.803l.769 1.148c-2.5.923-5.605 1.527-9.313 1.816v4.234h9.643zm-12.912-7.285c-2.674 1.013-5.458 1.659-8.352 1.94v2.41h7.363v7.963h-7.39c-.248 3.631-.99 6.455-2.226 8.471l-1.236-.778c1.365-2.395 2.047-5.24 2.047-8.533v-10.571c3.809-.379 6.859-1.063 9.148-2.05zm-2.417 5.586h-5.935v5.442h5.935z" fill="#595656"/><path d="m543.236 224.742v-12.8c0-.666.333-.999.999-.999.605 0 .934.274.991.822h4.998c.666 0 .999.333.999.998v1.997c0 .665-.333.997-.999.997-.665 0-.998-.332-.998-.997v-.998h-3.993v10.98c0 .665-.332.998-.998.998s-.999-.333-.999-.998zm-22.098-9.595v-1.386h-.999c-.665 0-.997-.332-.997-.999 0-.664.332-.997.997-.997h.999v-4.992c0-.665.333-.997.998-.997s.999.332.999.997v4.992h2.995c.665 0 .997.333.997.997 0 .667-.332.999-.997.999h-2.995v1.431c.007.062.011.128.011.197v9.338c0 1.407 1.249 2.484 1.249 2.484.488.489.488.859 0 1.347-.489.489-.976.489-1.465 0l-.732-.732c-.584-.829-1.06-1.595-1.076-3.099v-9.338c0-.086.005-.167.016-.242zm-15.043 9.595v-12.8c0-.666.332-.999.999-.999.604 0 .934.274.99.822h4c1.12 0 2.066.386 2.836 1.158.771.77 1.157 1.716 1.157 2.834v8.985c0 .665-.332.999-.998.999-.665 0-.997-.334-.997-.999v-8.985c0-.564-.193-1.037-.576-1.42-.384-.384-.857-.576-1.422-.576h-3.992v10.981c0 .665-.333.999-.998.999-.667 0-.999-.334-.999-.999zm-58.41.998h-4.824c-1.119 0-2.064-.386-2.836-1.157s-1.157-1.716-1.157-2.835c0-.726.176-1.397.53-2.012.756-1.321 1.911-1.982 3.463-1.982h3.993v-1.997c0-.564-.191-1.037-.575-1.421-.383-.383-.857-.574-1.421-.574h-3.993c-.666 0-.999-.334-.999-.999s.333-.998.999-.998h3.993c1.119 0 2.064.385 2.835 1.157.772.772 1.158 1.716 1.158 2.835v7.993c.555.053.832.383.832.991 0 .667-.333.999-.999.999h-.832zm-.831-5.989h-3.993c-.554 0-1.026.194-1.414.582s-.582.86-.582 1.415c0 .543.196 1.012.59 1.406.392.394.861.59 1.406.59h3.993zm-45.128 4.991v-12.8c0-.666.333-.999.999-.999.604 0 .934.274.99.822h4c1.12 0 2.066.386 2.837 1.158.771.77 1.157 1.716 1.157 2.834v8.985c0 .665-.333.999-.998.999s-.998-.334-.998-.999v-8.985c0-.564-.192-1.037-.575-1.42-.384-.384-.858-.576-1.423-.576h-3.992v10.981c0 .665-.333.999-.998.999-.666 0-.999-.334-.999-.999zm-27.158-9.655v-1.326h-.999c-.665 0-.998-.332-.998-.999 0-.664.333-.997.998-.997h.999v-4.992c0-.665.332-.997.998-.997.665 0 .999.332.999.997v4.992h2.994c.665 0 .998.333.998.997 0 .667-.333.999-.998.999h-2.994v1.628 9.338.015c.008 1.399 1.249 2.469 1.249 2.469.488.489.488.859 0 1.347-.488.489-.976.489-1.464 0l-.732-.732c-.584-.829-1.061-1.595-1.077-3.099v-9.338c0-.109.009-.21.027-.302zm-6.173 10.653h-4.878c-1.119 0-2.063-.386-2.835-1.157s-1.158-1.716-1.158-2.835c0-.726.177-1.397.53-2.012.756-1.321 1.911-1.982 3.463-1.982h3.994v-1.997c0-.564-.192-1.037-.576-1.421-.382-.383-.856-.574-1.421-.574h-3.992c-.667 0-.999-.334-.999-.999s.332-.998.999-.998h3.992c1.119 0 2.065.385 2.835 1.157.772.772 1.158 1.716 1.158 2.835v7.989c.591.036.886.368.886.995 0 .667-.332.999-.999.999h-.886zm-.884-5.989h-3.994c-.554 0-1.026.194-1.414.582s-.581.86-.581 1.415c0 .543.195 1.012.589 1.406.393.394.862.59 1.406.59h3.994zm-23.036-7.986h7.994c1.118 0 2.063.385 2.835 1.157.771.772 1.157 1.716 1.157 2.835v8.985c0 .665-.332.998-.998.998s-.999-.333-.999-.998v-8.985c0-.564-.191-1.037-.574-1.421-.383-.383-.857-.574-1.421-.574h-1.997v10.98c0 .665-.333.998-.999.998-.665 0-.998-.333-.998-.998v-10.98h-3.992v10.98c0 .665-.334.998-.999.998s-.999-.333-.999-.998v-11.801-.179l.001-.82c0-.666.332-.999.999-.999.604 0 .934.274.99.822zm-13.039 12.977v-12.8c0-.666.333-.999.999-.999.604 0 .934.274.99.822h4.999c.665 0 .999.333.999.998v1.997c0 .665-.334.997-.999.997s-.999-.332-.999-.997v-.998h-3.992v10.98c0 .665-.333.998-.998.998-.666 0-.999-.333-.999-.998zm-37.142 0v-12.8c0-.666.333-.999.999-.999.604 0 .934.274.99.822h4c1.121 0 2.066.386 2.837 1.158.771.77 1.157 1.716 1.157 2.834v8.985c0 .665-.333.999-.998.999s-.998-.334-.998-.999v-8.985c0-.564-.192-1.037-.575-1.42-.384-.384-.858-.576-1.423-.576h-3.992v10.981c0 .665-.333.999-.998.999-.666 0-.999-.334-.999-.999zm-4.062.998c-.665 0-.998-.332-.998-.999v-17.968c0-.665.333-.998.998-.998.666 0 .999.333.999.998v17.968c0 .667-.333.999-.999.999zm18.107-13.975h.999v-1.997c0-1.119.387-2.064 1.164-2.835.776-.772 1.718-1.157 2.828-1.157h.998c.666 0 .999.333.999.998s-.333.998-.999.998h-.998c-.554 0-1.026.194-1.414.582s-.583.86-.583 1.414v1.997h2.995c.666 0 .999.333.999.998s-.333.999-.999.999h-2.995v10.98c0 .665-.332.998-.998.998-.665 0-.997-.333-.997-.998v-10.98h-.999c-.665 0-.999-.334-.999-.999s.334-.998.999-.998zm10.051 8.984v-3.993c0-1.381.486-2.559 1.46-3.531.972-.974 2.15-1.46 3.532-1.46 1.401 0 2.583.482 3.546 1.444.963.963 1.445 2.146 1.445 3.547v3.993c0 1.381-.487 2.559-1.46 3.531-.973.974-2.151 1.46-3.531 1.46-1.382 0-2.56-.486-3.532-1.46-.974-.972-1.46-2.15-1.46-3.531zm7.986 0v-3.993c0-.826-.293-1.532-.877-2.117-.585-.585-1.291-.878-2.117-.878-.828 0-1.534.293-2.118.878-.585.585-.877 1.291-.877 2.117v3.993c0 .837.289 1.545.869 2.126.58.579 1.288.869 2.126.869.826 0 1.532-.293 2.117-.878.584-.584.877-1.289.877-2.117zm57.244-7.986c0-.665.333-.998.999-.998.665 0 .998.333.998.998v11.979c0 .665-.333.998-.998.998-.666 0-.999-.333-.999-.998zm0-4.991v-.998c0-.665.333-.998.999-.998.665 0 .998.333.998.998v.998c0 .666-.333.999-.998.999-.666 0-.999-.333-.999-.999zm5.061 12.977v-3.993c0-1.381.485-2.559 1.459-3.531.973-.974 2.15-1.46 3.532-1.46 1.402 0 2.583.482 3.546 1.444.963.963 1.445 2.146 1.445 3.547v3.993c0 1.381-.487 2.559-1.46 3.531-.973.974-2.15 1.46-3.531 1.46-1.382 0-2.559-.486-3.532-1.46-.974-.972-1.459-2.15-1.459-3.531zm7.986 0v-3.993c0-.826-.293-1.532-.878-2.117s-1.291-.878-2.117-.878c-.827 0-1.533.293-2.118.878s-.877 1.291-.877 2.117v3.993c0 .837.289 1.545.87 2.126.579.579 1.287.869 2.125.869.826 0 1.532-.293 2.117-.878.585-.584.878-1.289.878-2.117zm29.155-13.976c0-.665.333-.997.999-.997.665 0 .998.332.998.997v16.971h6.988c.665 0 .997.332.997.998s-.332.998-.997.998h-7.986c-.666 0-.999-.332-.999-.998zm36.075 18.967c-.463 0-.786-.242-.967-.726l-2.027-5.429-2.027 5.399c-.192.504-.514.756-.968.756-.525 0-.862-.311-1.013-.937l-2.95-11.798c-.02-.081-.03-.176-.03-.288 0-.635.332-.952.999-.952.524 0 .846.252.967.757l2.208 8.847 1.861-4.961c.161-.434.479-.65.953-.65.463 0 .776.216.937.65l1.86 4.977 2.224-8.863c.131-.505.454-.757.968-.757.262 0 .494.094.695.28.202.186.304.411.304.672 0 .112-.011.207-.031.288l-2.964 11.858c-.142.585-.475.877-.999.877zm27.09-19.964c.665 0 .999.332.999.997 0 .666-.334.999-.999.999h-3.992c-.838 0-1.546.292-2.126.877-.58.584-.869 1.29-.869 2.118v9.982c0 .828.292 1.533.877 2.117.584.585 1.29.878 2.118.878h3.992c.665 0 .999.332.999.998s-.334.998-.999.998h-3.992c-1.382 0-2.56-.486-3.533-1.46-.973-.972-1.46-2.15-1.46-3.531v-9.982c0-1.382.487-2.559 1.46-3.532s2.151-1.459 3.533-1.459zm6.059 13.974v1.997c0 .545.196 1.014.59 1.407.393.393.862.59 1.406.59h4.991c.666 0 .999.332.999.998s-.333.998-.999.998h-4.991c-1.12 0-2.064-.385-2.836-1.157-.771-.771-1.157-1.717-1.157-2.836v-4.991c0-1.381.487-2.559 1.459-3.531.973-.974 2.151-1.46 3.532-1.46 1.402 0 2.584.482 3.547 1.444.962.963 1.445 2.146 1.445 3.547v2.994zm2.994-5.989c-.827 0-1.533.293-2.118.878-.584.585-.876 1.291-.876 2.117v.999h5.989v-.999c0-.826-.293-1.532-.878-2.117-.584-.585-1.29-.878-2.117-.878zm34.148 5.989v1.997c0 .545.195 1.014.59 1.407.393.393.861.59 1.405.59h4.992c.666 0 .998.332.998.998s-.332.998-.998.998h-4.992c-1.119 0-2.063-.385-2.835-1.157-.771-.771-1.157-1.717-1.157-2.836v-4.991c0-1.381.486-2.559 1.459-3.531.973-.974 2.151-1.46 3.532-1.46 1.402 0 2.584.482 3.547 1.444.962.963 1.444 2.146 1.444 3.547v2.994zm2.994-5.989c-.827 0-1.533.293-2.118.878s-.876 1.291-.876 2.117v.999h5.989v-.999c0-.826-.293-1.532-.878-2.117-.584-.585-1.29-.878-2.117-.878zm21.101 9.983c.665 0 .998.327.998.983 0 .09-.343 1.507-1.028 4.25-.121.504-.444.756-.969.756-.665 0-.997-.333-.997-.998 0-.454.343-1.866 1.028-4.235.141-.504.464-.756.968-.756z" fill="#595656"/><path d="m572.935 206.815v20.02h-1.411v-20.02zm5.197 0v20.02h-1.411v-20.02zm17.101 20.02-2.337-6.227h-8.867l-2.339 6.227h-1.552l7.711-20.02h1.34l7.627 20.02zm-6.273-16.753c-.104-.279-.19-.553-.256-.823-.066-.233-.138-.466-.213-.699h-.057c-.162.615-.319 1.113-.471 1.495l-3.435 9.282h7.882zm9.217 16.04v-1.577c1.465.912 2.947 1.368 4.448 1.368 1.598 0 2.809-.323 3.635-.971.827-.646 1.241-1.551 1.241-2.715 0-1.023-.278-1.84-.834-2.45-.557-.609-1.76-1.44-3.615-2.491-2.069-1.182-3.381-2.171-3.933-2.967-.551-.795-.828-1.715-.828-2.757 0-1.414.562-2.615 1.684-3.603 1.119-.986 2.618-1.479 4.489-1.479 1.217 0 2.433.2 3.65.601v1.452c-1.198-.532-2.475-.796-3.835-.796-1.387 0-2.488.344-3.301 1.033-.811.688-1.217 1.563-1.217 2.624 0 1.024.278 1.839.833 2.443.557.605 1.756 1.429 3.6 2.472 1.909 1.061 3.181 2.002 3.813 2.826.631.824.948 1.771.948 2.841 0 1.535-.544 2.787-1.633 3.755-1.088.969-2.624 1.453-4.611 1.453-.704 0-1.513-.108-2.43-.322-.918-.214-1.617-.461-2.104-.74z"/><path d="m573.981 206.831v20.019h-1.411v-20.019zm5.197 0v20.019h-1.411v-20.019zm17.1 20.02-2.336-6.227h-8.868l-2.339 6.227h-1.552l7.711-20.02h1.34l7.627 20.02zm-6.272-16.753c-.105-.279-.191-.553-.256-.823-.066-.233-.139-.466-.214-.699h-.056c-.162.615-.319 1.113-.472 1.495l-3.435 9.282h7.882zm9.217 16.04v-1.577c1.464.912 2.946 1.368 4.447 1.368 1.598 0 2.809-.323 3.636-.971.826-.646 1.24-1.551 1.24-2.715 0-1.023-.278-1.84-.833-2.449-.558-.61-1.761-1.441-3.615-2.492-2.07-1.182-3.382-2.171-3.934-2.967-.55-.795-.827-1.716-.827-2.757 0-1.414.561-2.615 1.684-3.602 1.119-.987 2.617-1.479 4.489-1.479 1.216 0 2.433.199 3.649.6v1.452c-1.198-.532-2.475-.796-3.834-.796-1.387 0-2.489.344-3.301 1.033-.813.688-1.218 1.563-1.218 2.624 0 1.024.278 1.839.834 2.443.556.605 1.755 1.429 3.599 2.472 1.91 1.06 3.182 2.002 3.813 2.826.631.825.948 1.771.948 2.841 0 1.536-.544 2.788-1.633 3.755-1.087.969-2.624 1.453-4.61 1.453-.705 0-1.514-.108-2.431-.322s-1.617-.46-2.103-.74z"/><path d="m572.873 205.724v20.02h-1.411v-20.02zm5.198 0v20.02h-1.411v-20.02zm17.1 20.02-2.336-6.227h-8.868l-2.338 6.227h-1.553l7.711-20.02h1.34l7.628 20.02zm-6.272-16.753c-.105-.279-.19-.553-.256-.823-.066-.232-.138-.466-.214-.699h-.056c-.162.615-.319 1.113-.472 1.495l-3.435 9.282h7.882zm9.217 16.04v-1.577c1.464.912 2.946 1.368 4.447 1.368 1.598 0 2.81-.323 3.635-.971.827-.646 1.241-1.551 1.241-2.715 0-1.023-.279-1.84-.833-2.449-.558-.61-1.761-1.441-3.615-2.492-2.071-1.182-3.382-2.171-3.934-2.967-.55-.795-.827-1.716-.827-2.757 0-1.414.561-2.615 1.683-3.603 1.12-.986 2.618-1.478 4.49-1.478 1.216 0 2.433.199 3.649.6v1.452c-1.197-.532-2.474-.796-3.834-.796-1.387 0-2.488.344-3.301 1.033-.813.688-1.218 1.563-1.218 2.624 0 1.024.279 1.839.834 2.443.556.605 1.755 1.429 3.599 2.472 1.91 1.061 3.182 2.002 3.814 2.826.63.825.947 1.771.947 2.841 0 1.536-.544 2.788-1.633 3.755-1.087.969-2.624 1.453-4.61 1.453-.705 0-1.514-.108-2.431-.322s-1.617-.46-2.103-.74z" fill="#c9c9ca"/><path d="m208.171 166.127c-1.052 1.059-2.349 1.882-3.813 2.355-.635.206-1.271.342-1.9.414-4.146.477-8.084 2.065-11.029 5.021l-.194.196-.166.165c-.024.024-.048.048-.072.072-2.706 2.73-4.249 6.299-4.833 10.091.458 3.468 1.833 6.74 4.309 9.227l.434.437 1.02 1.018c2.694 2.681 6.307 4.071 10.094 4.404.586.051 1.195.161 1.827.339 3.095.867 5.692 3.187 6.678 6.248 1.963 6.096-2.352 12.343-8.787 12.63-4.246.19-8.222-2.589-9.529-6.633-.206-.635-.342-1.271-.415-1.901-.476-4.146-2.064-8.084-5.022-11.028l-.195-.194-.165-.166c-.022-.022-.045-.045-.067-.067-2.937-2.914-6.846-4.483-10.961-4.955-.629-.072-1.265-.208-1.9-.414-1.437-.464-2.714-1.266-3.755-2.296-1.39-1.366-2.351-3.137-2.721-5.078-.039-.204-.072-.409-.097-.615-.168-1.353-.05-2.775.405-4.188.28-.87.691-1.681 1.207-2.415 1.692-2.475 4.481-4.061 7.535-4.193 3.7-.37 7.22-1.758 9.857-4.382l.424-.422 1.03-1.033c2.624-2.636 4.012-6.155 4.382-9.854.036-.859.189-1.734.469-2.605s.691-1.682 1.207-2.416c.331-.483.71-.942 1.139-1.371.437-.438.906-.825 1.4-1.161.728-.508 1.532-.914 2.394-1.192.872-.281 1.747-.433 2.607-.469 3.698-.371 7.216-1.758 9.852-4.382l.437-.434 1.017-1.02c2.671-2.683 4.061-6.28 4.401-10.051.141-2.256 1.073-4.471 2.796-6.196.492-.494 1.036-.933 1.62-1.309.669-.44 1.398-.793 2.174-1.044 1.87-.624 3.965-.684 6.042-.015 1.419.457 2.679 1.261 3.709 2.3.021.02.041.041.062.062.105.104.207.211.307.32 1.316 1.441 2.116 3.185 2.399 4.994.049.281.086.558.109.829.334 3.786 1.724 7.4 4.405 10.093l.434.437 1.02 1.018c2.693 2.68 6.307 4.071 10.094 4.404.586.051 1.195.161 1.827.339 3.095.867 5.692 3.187 6.678 6.247 1.963 6.097-2.352 12.344-8.787 12.631-4.246.19-8.222-2.589-9.529-6.633-.206-.635-.342-1.271-.415-1.901-.477-4.146-2.064-8.084-5.021-11.028l-.196-.194-.165-.166c-.024-.024-.048-.048-.072-.073-2.667-2.643-6.135-4.177-9.83-4.791-3.766.608-7.302 2.168-10.002 4.88l-.195.196s-4.71 7.047-5.187 11.193c-.072.63-.208 1.266-.414 1.9-.474 1.465-1.298 2.764-2.357 3.816zm-63.406 49.807c-1.063-1.054-1.889-2.355-2.364-3.823-.206-.635-.342-1.271-.414-1.901-.477-4.146-2.065-8.084-5.022-11.028l-.36-.36c-.024-.024-.048-.048-.072-.072-2.937-2.911-6.844-4.478-10.956-4.95-.63-.072-1.266-.208-1.901-.414-1.443-.466-2.724-1.273-3.768-2.31-.015-.015-.031-.031-.047-.047-.863-.862-1.529-1.848-1.996-2.9-.297-.664-.519-1.365-.66-2.089-.042-.218-.077-.438-.104-.659-.165-1.349-.046-2.764.407-4.172.281-.872.693-1.684 1.21-2.419.333-.487.713-.945 1.136-1.368.884-.885 1.898-1.563 2.981-2.031 1.064-.464 2.218-.738 3.413-.79 3.701-.37 7.221-1.757 9.859-4.383l.424-.421 1.03-1.033c2.625-2.636 4.012-6.155 4.382-9.854.037-.86.189-1.734.469-2.605.277-.859.681-1.66 1.187-2.387.336-.494.722-.963 1.159-1.401.45-.45.933-.847 1.442-1.189.718-.495 1.507-.89 2.352-1.163.872-.281 1.747-.433 2.607-.469 3.698-.371 7.216-1.758 9.852-4.382l.425-.422 1.03-1.032c2.68-2.694 4.07-6.307 4.404-10.094.15-2.24 1.08-4.438 2.792-6.152.438-.438.907-.825 1.4-1.161.729-.509 1.532-.914 2.394-1.192 2.388-.769 4.798-.575 6.865.332 1.07.467 2.072 1.138 2.948 2.013.112.113.222.227.328.344 1.429 1.573 2.244 3.505 2.445 5.488.021.201.036.404.045.61.054 1.208-.132 2.394-.52 3.503-.46 1.338-1.224 2.594-2.291 3.662-1.053 1.064-2.354 1.89-3.822 2.364-.635.206-1.271.342-1.901.415-4.146.477-8.084 2.064-11.028 5.021l-.194.196-.166.165c-.024.024-.048.048-.072.072-2.911 2.936-4.477 6.843-4.95 10.956-.072.63-.208 1.265-.414 1.9-.474 1.465-1.297 2.764-2.357 3.816l-.01.009c-1.051 1.059-2.349 1.881-3.812 2.355-.635.206-1.271.342-1.901.414-4.146.477-8.084 2.065-11.028 5.021l-.195.196-.165.165c-.022.022-.045.045-.068.068-2.709 2.73-4.254 6.301-4.838 10.095.459 3.468 1.834 6.74 4.309 9.227l.422.425 1.033 1.03c2.693 2.68 6.307 4.07 10.093 4.404 2.241.15 4.439 1.08 6.153 2.793.437.437.824.906 1.16 1.399.509.729.915 1.532 1.193 2.394.767 2.385.575 4.792-.329 6.856-.467 1.074-1.139 2.079-2.017 2.957-.165.166-.336.325-.512.477-1.526 1.323-3.37 2.086-5.262 2.289-.22.025-.442.042-.667.052-1.227.055-2.431-.138-3.554-.537-1.319-.462-2.557-1.22-3.612-2.273zm-49.857-49.858c-2.502-2.445-3.621-6.199-2.43-9.897.986-3.061 3.583-5.381 6.678-6.248.632-.177 1.24-.287 1.827-.339 3.787-.333 7.4-1.723 10.094-4.404l.436-.434 1.018-1.02c2.624-2.636 4.011-6.154 4.382-9.853.036-.86.188-1.735.469-2.607.468-1.453 1.299-2.739 2.375-3.782 1.04-1.067 2.32-1.892 3.765-2.357.871-.281 1.745-.433 2.605-.469 3.699-.371 7.217-1.758 9.854-4.382l.449-.447 1.005-1.008c2.681-2.693 4.071-6.307 4.405-10.093.051-.587.161-1.195.339-1.827.867-3.095 3.187-5.692 6.247-6.679 3.719-1.197 7.494-.059 9.938 2.473 3.759 3.755 3.764 9.847.008 13.606-1.936 1.937-4.491 2.877-7.029 2.819-3.708.624-7.185 2.18-9.848 4.855l-.195.195-.166.165c-.024.025-.049.049-.073.074-2.63 2.653-4.162 6.1-4.781 9.775.058 2.534-.879 5.087-2.812 7.021-1.936 1.937-4.491 2.877-7.028 2.819-3.709.625-7.186 2.18-9.85 4.855l-.194.196-.166.164c-.024.025-.048.049-.072.073-2.63 2.654-4.162 6.1-4.782 9.774.058 2.535-.879 5.088-2.813 7.023-3.756 3.76-9.847 3.763-13.606.008-.016-.016-.033-.033-.049-.049z" fill="#004855"/><path d="m208.181 116.309c-3.756 3.759-9.848 3.762-13.607.007-3.76-3.756-3.763-9.847-.007-13.606 3.755-3.76 9.847-3.764 13.606-.008 3.759 3.755 3.764 9.848.008 13.607zm24.904 74.713c-3.756 3.759-9.848 3.762-13.607.007-3.76-3.756-3.763-9.847-.007-13.606 3.755-3.76 9.848-3.764 13.607-.008 3.76 3.755 3.763 9.848.007 13.607z" fill="#67ae28"/><path d="m183.276 91.405c-3.756 3.759-9.847 3.762-13.606.007-3.761-3.756-3.764-9.847-.008-13.607 3.755-3.76 9.848-3.763 13.607-.007 3.76 3.755 3.763 9.848.007 13.607zm0 149.426c-3.755 3.759-9.847 3.762-13.606.007-3.76-3.756-3.763-9.848-.007-13.607 3.754-3.76 9.847-3.763 13.606-.007 3.76 3.755 3.763 9.847.007 13.607z" fill="#b6c900"/></svg>