<svg clip-rule="evenodd" fill-rule="evenodd" stroke-linejoin="round" stroke-miterlimit="2" viewBox="0 0 598 470" xmlns="http://www.w3.org/2000/svg"><g fill-rule="nonzero"><path d="m277.937 247.12c-5.963 20.126-39.657 11.33-39.657 11.33v30.712c9.691 4.473 14.909 5.218 33.097 3.728 18.189-1.342 46.069-16.549 46.367-45.77-5.964.298-12.374.596-19.084.596-7.305 0-14.163-.298-20.723-.596" fill="#ba2027"/><path d="m398.102 115.925c-12.226-12.225-34.589-23.556-80.208-26.09v32.352c25.195 2.087 39.358 8.05 46.515 15.206 7.006 7.007 11.18 15.207 11.18 31.159s-4.025 24.599-10.883 31.606c-7.156 7.157-21.319 12.97-46.664 14.759-5.814.448-12.075.746-19.232.746-7.305 0-13.715-.298-19.679-.894-25.196-2.237-39.508-8.498-46.216-15.357-6.56-6.558-11.182-14.908-11.182-31.009s4.026-24.599 10.884-31.606c7.006-7.007 21.318-12.821 46.514-14.76v-32.202c-43.98 2.684-67.685 13.715-80.059 26.09-12.821 12.821-19.828 28.773-19.828 52.627 0 23.853 7.007 39.508 19.828 52.477 12.076 12.077 35.035 23.408 78.866 26.092 6.411.447 13.269.596 20.724.596 6.857 0 13.12-.149 19.083-.596 44.875-2.535 67.982-13.717 80.209-25.941 12.82-12.822 19.828-28.775 19.828-52.628 0-24.003-6.86-39.806-19.68-52.627" fill="#0a0808"/><path d="m278.981 57.334v157.285c5.964.597 12.375.895 19.681.895 7.155 0 13.417-.298 19.232-.745v-157.435z" fill="#ba2027"/><path d="m83.514 381.4c0 4.082.81 7.061 2.432 8.936 1.621 1.875 3.651 2.812 6.093 2.812 2.422 0 4.454-.933 6.094-2.798 1.641-1.865 2.461-4.79 2.461-8.774 0-3.809-.845-6.68-2.534-8.614-1.69-1.933-3.726-2.9-6.108-2.9-2.344 0-4.336.952-5.977 2.857-1.641 1.904-2.461 4.731-2.461 8.481m-4.365 18.691 5.127.762c.215 1.582.81 2.734 1.787 3.457 1.308.977 3.095 1.465 5.361 1.465 2.442 0 4.326-.488 5.654-1.465 1.329-.976 2.227-2.344 2.696-4.101.273-1.075.4-3.33.381-6.768-2.305 2.715-5.176 4.072-8.614 4.072-4.277 0-7.588-1.543-9.931-4.629-2.344-3.086-3.516-6.787-3.516-11.103 0-2.969.537-5.708 1.611-8.218s2.632-4.448 4.673-5.815c2.041-1.368 4.439-2.051 7.193-2.051 3.672 0 6.698 1.484 9.082 4.453v-3.75h4.863v26.895c0 4.843-.494 8.276-1.48 10.297-.986 2.022-2.548 3.619-4.687 4.79-2.139 1.172-4.771 1.758-7.896 1.758-3.71 0-6.709-.835-8.994-2.505s-3.388-4.184-3.31-7.544"/><path d="m134.783 378.558c0-.664-.025-1.323-.073-1.978-.049-.654-.103-1.293-.161-1.918l-16.202 12.041c.293 1.015.664 1.953 1.114 2.812.449.859.991 1.597 1.626 2.212.634.615 1.357 1.094 2.168 1.435.81.342 1.733.513 2.768.513 1.328 0 2.534-.322 3.618-.967 1.084-.644 2.007-1.601 2.769-2.871.762-1.269 1.348-2.846 1.758-4.731s.615-4.068.615-6.548m-17.52-.352c0 .606.005 1.211.015 1.817.01.605.044 1.191.103 1.758l16.201-11.983c-.293-.996-.664-1.904-1.113-2.724-.45-.821-.987-1.529-1.612-2.124-.625-.596-1.338-1.06-2.138-1.392-.802-.332-1.7-.498-2.696-.498-1.328 0-2.534.322-3.618.967-1.084.644-2.007 1.606-2.768 2.885-.762 1.28-1.348 2.862-1.758 4.747-.41 1.884-.616 4.067-.616 6.547m22.676.176c0 2.93-.293 5.601-.879 8.013s-1.475 4.482-2.666 6.211c-1.191 1.728-2.671 3.066-4.438 4.014-1.768.947-3.843 1.42-6.226 1.42-2.051 0-3.916-.385-5.595-1.157-1.681-.771-3.116-1.958-4.307-3.559-1.191-1.602-2.109-3.643-2.754-6.123-.645-2.481-.967-5.42-.967-8.819 0-2.929.298-5.605.894-8.027.595-2.422 1.484-4.497 2.666-6.226 1.181-1.728 2.661-3.066 4.438-4.013 1.777-.948 3.848-1.421 6.211-1.421 2.051 0 3.916.385 5.596 1.157 1.68.771 3.115 1.963 4.307 3.574 1.19 1.611 2.109 3.657 2.753 6.138.645 2.48.967 5.42.967 8.818"/><path d="m155.115 397.513-11.836-31.113h5.566l6.68 18.633c.722 2.011 1.387 4.101 1.992 6.269.469-1.641 1.123-3.613 1.963-5.918l6.914-18.984h5.42l-11.777 31.113z"/><path d="m215.405 373.828.47.094-1.175-1.693c2.632-.469 6.58-1.69 8.883-2.442l1.786 2.35c-2.444.938-5.781 1.597-8.366 2.066 3.478.8 7.519 1.928 9.823 2.82l-1.081 2.68c-2.585-1.034-7.661-2.539-11.468-3.479zm2.256 10.526c-2.819-1.08-5.311-2.301-7.191-3.43-2.209 1.221-4.652 2.398-7.19 3.43zm4.418 4.325 2.819 1.786c-2.161 2.913-5.827 5.639-9.117 7.708 1.457.657 2.773 1.22 3.807 1.739l-1.927 3.055c-3.666-1.834-10.857-4.937-16.167-6.911l1.833-2.678c2.396.892 5.31 1.974 8.131 3.055 2.208-1.081 4.699-2.678 6.626-4.23h-23.169v-3.289h26.506zm-27.682-11.984c2.726-.471 6.439-1.317 10.434-2.163-2.162-.798-5.875-1.738-8.695-2.349l1.222-2.255c2.914.469 6.909 1.457 9.024 2.209l-1.081 2.301 1.222-.281.281 2.584c-3.947 1.082-7.848 2.209-11.137 3.103zm19.974 1.645c-.328.235-.611.469-.94.752 4.371 2.161 12.078 4.324 19.081 5.262-.846.894-2.021 2.493-2.631 3.574-3.15-.565-6.487-1.504-9.541-2.538v1.692h-19.363v-1.788c-2.914 1.082-5.781 2.022-8.507 2.774-.845-.846-2.396-2.349-3.383-2.961 7.613-1.738 15.884-4.652 20.914-8.224h-1.551v-7.332h-13.911v5.5h-3.902v-8.413h17.813v-2.164h-14.899v-3.242h34.167v3.242h-14.992v2.164h18v8.413h-4.042v-5.5h-13.958v7.332h-1.316z"/><path d="m259.727 387.456c2.067 2.35 4.652 5.593 5.875 7.755l-3.854 2.303c-1.082-2.115-3.572-5.593-5.64-8.083zm9.306-18.705v5.358h9.822v3.807h-3.807v4.512h5.029v3.853h-5.029v11.562c0 2.256-.517 3.43-2.068 4.042-1.645.705-4.089.752-7.707.752-.189-1.175-.847-2.914-1.457-4.089 2.632.094 5.217.094 5.969.094.752-.047.986-.235.986-.893v-11.468h-17.06v-3.853h17.06v-4.512h-15.368v-3.807h9.305v-5.358h-11.137v-3.9h11.137v-5.358h4.325v5.358h11.231v3.9zm-20.398 10.998h-5.687v9.916h5.687zm-5.686-3.854h5.687v-9.447h-5.687zm9.775 17.671h-9.775v3.994h-4.042v-35.059h13.817z"/><path d="m312.836 372.982c.987 4.935 2.35 9.493 4.324 13.488 1.927-3.995 3.102-8.695 3.947-14.24h-7.989zm12.643-.752c-1.176 7.473-2.961 13.629-5.829 18.611 2.397 3.525 5.499 6.297 9.306 8.083-.987.893-2.349 2.538-2.961 3.713-3.666-1.926-6.579-4.606-8.976-7.895-2.632 3.242-5.969 5.874-10.105 8.036-.423-.987-1.691-2.961-2.537-3.854 4.37-2.02 7.707-4.7 10.198-8.177-1.88-3.478-3.29-7.473-4.371-11.843-.799 1.362-1.597 2.584-2.444 3.76-.517-.659-1.692-1.646-2.631-2.398h-5.217v10.81l7.378-1.551.423 3.947c-7.707 1.833-15.932 3.76-21.807 5.03l-.799-4.372 2.632-.516v-20.398h3.949v19.646l3.947-.847v-25.189h-9.587v-4.231h21.337v4.231h-7.473v9.304h5.874v1.457c3.055-4.652 5.029-11.232 6.251-18.093l4.323.752c-.516 2.725-1.174 5.357-1.879 7.895h14.099v4.089z"/><path d="m358.615 383.18c1.927 2.866 4.041 6.532 5.075 8.93l-3.666 1.738c-.986-2.397-3.148-6.298-4.934-9.211zm17.718-2.726h-4.935v17.107c0 2.444-.517 3.666-2.115 4.324-1.551.705-4.042.799-7.707.799-.142-1.175-.752-3.102-1.363-4.324 2.538.141 5.123.094 5.827.094.752-.046 1.034-.235 1.034-.94v-17.06h-13.253v-4.042h13.253v-6.673h4.324v6.673h4.935zm-21.666-10.104c-.893 2.538-2.068 5.169-3.431 7.66v24.674h-4.089v-18.376c-1.034 1.222-2.067 2.443-3.195 3.431-.329-1.081-1.223-3.055-1.88-4.089 3.76-3.619 6.861-9.54 8.318-14.522zm-13.206-1.927v11.749c0 6.721-.565 16.637-4.183 22.794-.799-.799-2.772-2.068-3.76-2.538 3.29-5.686 3.525-14.052 3.525-20.256v-15.791h18.188c-.611-1.41-1.222-2.961-1.833-4.182l4.37-1.175c.941 1.691 1.833 3.712 2.492 5.357h16.026v4.042z"/><path d="m424.977 368.611c-.846 4.23-1.786 9.494-2.772 12.736l-2.774-.705c.894-3.336 1.833-8.835 2.162-12.689zm-14.334 13.065c-.375-3.196-1.504-8.741-2.584-12.924l2.772-.704c1.127 4.182 2.303 9.633 2.773 12.688zm7.378-9.869c0 1.786-.047 3.572-.094 5.405.894 9.446 2.774 18 7.285 21.759-.846.752-2.115 2.303-2.726 3.384-3.102-2.914-4.935-7.707-6.11-13.488-1.173 4.841-3.29 9.635-6.767 13.864-.564-.94-1.786-2.444-2.632-3.055 6.674-8.413 7.332-19.174 7.332-27.869v-11.749h3.712zm-10.95 17.107c-.517-1.41-1.692-3.666-2.772-5.592v19.315h-3.76v-18.658c-1.364 4.607-3.196 8.977-5.17 11.749-.469-1.128-1.363-2.772-2.068-3.76 2.491-3.477 4.842-9.446 6.111-14.897h-4.325v-4.089h5.452v-7.285c-1.504.282-3.055.518-4.512.705-.187-.893-.704-2.303-1.175-3.195 4.276-.658 9.07-1.833 11.984-3.055l2.867 3.195c-1.644.612-3.478 1.176-5.404 1.598v8.037h4.041v4.089h-4.041v1.409c1.127 1.504 4.089 5.735 4.793 6.721zm-12.077-5.687c-1.411.47-2.868.988-4.278 1.457v13.395c0 2.02-.422 3.148-1.597 3.806-1.176.658-2.961.799-5.688.752-.187-.987-.656-2.725-1.222-3.806 1.787.047 3.478.047 3.949.047.564 0 .798-.189.798-.799v-12.173c-1.597.564-3.195.987-4.604 1.457l-1.035-4.183c1.597-.423 3.524-.987 5.639-1.597v-8.836h-5.029v-4.042h5.029v-9.117h3.76v9.117h3.525v4.042h-3.525v7.661c1.222-.329 2.444-.752 3.666-1.129z"/><path d="m465.397 360.857c1.316 6.814 3.948 13.863 7.145 17.812-.94.705-2.491 2.349-3.243 3.383-3.149-4.324-5.64-10.997-7.144-17.529h-4.135v-3.666zm.565 24.768c2.255 4.605 5.169 10.761 6.486 14.334l-3.995 1.926c-.377-1.174-.94-2.585-1.503-4.135-15.228 2.067-17.295 2.396-18.752 3.054-.19-.892-.894-3.008-1.457-4.135 1.08-.283 1.926-1.693 3.053-3.949 1.176-2.162 4.748-10.385 6.628-18.047l4.416 1.176c-2.114 6.955-4.981 14.052-7.941 19.645l12.453-1.41c-1.034-2.397-2.114-4.841-3.101-6.956zm-9.259-23.688c-1.363 7.755-3.76 15.274-7.238 20.209-.515-.846-2.067-2.584-2.914-3.384 3.008-4.229 4.888-10.809 5.969-17.577zm-15.743 13.207c1.315 1.738 4.935 7.049 5.733 8.365l-2.538 3.055c-.657-1.504-1.974-4.042-3.195-6.298v22.371h-3.995v-19.973c-1.457 4.605-3.337 8.881-5.264 11.702-.422-1.269-1.409-3.197-2.162-4.324 2.962-3.76 5.733-10.81 7.096-16.872h-6.25v-4.042h6.58v-9.541h3.995v9.541h5.733v4.042h-5.733z"/><path d="m506.241 383.038c-.282-.234-.564-.469-.846-.704l1.739-1.128h-5.828v1.927zm1.551-5.639h-6.485v1.785h6.485zm-6.486-1.927h6.485v-1.738h-6.485zm-3.619 1.927h-6.203v1.785h6.203zm-6.203-1.927h6.203v-1.738h-6.203zm2.819 19.974c-.751-1.269-2.302-3.101-3.712-4.371l2.773-1.41c1.409 1.223 3.102 2.961 3.854 4.183zm13.912-14.24c1.692 1.269 3.525 3.008 4.511 4.136l-2.349 1.786c-.47-.611-1.128-1.27-1.833-1.975-7.99.236-16.027.471-21.807.612l-.188-2.539c3.102 0 6.956-.046 11.138-.093v-1.927h-9.634v-9.447h9.634v-1.692h-11.232v-2.585h11.232v-1.926h3.619v1.926h11.467v2.585h-11.467v1.692h10.01v9.447zm5.216 8.459h-6.391v3.76c0 1.551-.376 2.068-1.504 2.397-1.175.376-2.914.376-5.64.376-.14-.799-.564-1.645-.939-2.35 1.597.047 3.289.047 3.76.047.516-.047.657-.188.657-.611v-3.619h-17.436v-2.537h17.436v-1.551h3.666v1.551h6.391zm1.317-24.861h-30.173v32.1h30.173zm4.182-3.384v41.122h-4.182v-2.208h-30.173v2.396h-3.994v-41.31z"/></g></svg>