<svg clip-rule="evenodd" fill-rule="evenodd" stroke-linejoin="round" stroke-miterlimit="2" viewBox="0 0 4375 1250" xmlns="http://www.w3.org/2000/svg"><path d="m0 0h4375v1250h-4375z" fill="none"/><g fill-rule="nonzero"><path d="m2620.23 1061.61c-13.03 10.49-29.56 15.73-49.59 15.73-12.71 0-23.99-2.15-33.83-6.44-9.88-4.28-18.21-10.37-25.05-18.23-6.81-7.86-12.02-17.36-15.6-28.49-3.57-11.13-5.36-23.43-5.36-36.937 0-13.517 1.86-25.746 5.59-36.721 3.75-10.963 9.14-20.334 16.22-28.121 7.09-7.788 15.62-13.746 25.62-17.883 10.01-4.125 21.3-6.192 33.87-6.192 19.22 0 35.26 5.242 48.13 15.733 12.89 10.492 21.06 25.425 24.54 44.813h-29.07c-2.7-11.763-7.99-20.65-15.85-26.696-7.86-6.038-17.44-9.063-28.73-9.063-6.84 0-13.23 1.396-19.18 4.18-5.96 2.783-11.17 6.862-15.62 12.266s-7.92 12.084-10.47 20.025c-2.55 7.95-3.83 17.167-3.83 27.659 0 10.475 1.23 19.767 3.7 27.887 2.47 8.1 5.91 14.93 10.37 20.5 4.44 5.56 9.62 9.77 15.49 12.63 5.87 2.85 12.31 4.3 19.3 4.3 11.77 0 21.57-2.99 29.46-8.95 7.85-5.96 13.15-14.9 15.84-26.82h29.08c-3.65 19.39-12 34.32-25.03 44.82" fill="#773dbd"/><path d="m2691.55 1029.79c1.82 5.48 4.28 10 7.38 13.58s6.72 6.28 10.85 8.11c4.14 1.82 8.44 2.74 12.86 2.74 4.46 0 8.75-.92 12.89-2.74 4.13-1.83 7.73-4.53 10.84-8.11 3.08-3.58 5.55-8.1 7.37-13.58 1.84-5.48 2.75-11.96 2.75-19.43 0-7.31-.91-13.755-2.75-19.305-1.82-5.566-4.29-10.179-7.37-13.833-3.11-3.65-6.71-6.392-10.84-8.221-4.14-1.821-8.43-2.741-12.89-2.741-4.42 0-8.72.92-12.86 2.741-4.13 1.829-7.75 4.571-10.85 8.221-3.1 3.654-5.56 8.267-7.38 13.833-1.82 5.55-2.76 11.995-2.76 19.305 0 7.47.94 13.95 2.76 19.43m54.1-82.601c7.55 2.7 14.3 6.796 20.28 12.283 5.94 5.479 10.75 12.433 14.4 20.854 3.66 8.421 5.5 18.438 5.5 30.034 0 11.6-1.84 21.61-5.5 30.03-3.65 8.43-8.46 15.38-14.4 20.86-5.98 5.49-12.73 9.53-20.28 12.15-7.54 2.63-15.22 3.94-23.01 3.94-7.78 0-15.44-1.31-23-3.94-7.52-2.62-14.28-6.66-20.25-12.15-5.98-5.48-10.76-12.43-14.43-20.86-3.64-8.42-5.47-18.43-5.47-30.03 0-11.596 1.83-21.613 5.47-30.034 3.67-8.421 8.45-15.375 14.43-20.854 5.97-5.487 12.73-9.583 20.25-12.283 7.56-2.7 15.22-4.046 23-4.046 7.79 0 15.47 1.346 23.01 4.046" fill="#773dbd"/><path d="m2804.37 1074.24v-128.242h28.36v17.888c3.64-6.679 8.62-11.808 14.89-15.375 6.27-3.588 13.7-5.363 22.28-5.363 10.01 0 17.99 1.984 23.95 5.955 5.97 3.966 10.47 9.529 13.48 16.679 5.56-8.104 11.91-13.905 19.08-17.4 7.13-3.5 14.68-5.234 22.62-5.234 7.65 0 14.13 1.18 19.42 3.567 5.34 2.388 9.67 5.796 13.01 10.246s5.77 9.775 7.27 15.971c1.51 6.208 2.26 13.116 2.26 20.737v80.571h-28.36v-73.66c0-4.286-.21-8.494-.62-12.636-.37-4.125-1.33-7.817-2.83-11.075-1.54-3.254-3.8-5.85-6.79-7.75-3.04-1.912-7.16-2.858-12.41-2.858-5.24 0-9.64.987-13.23 2.987-3.58 1.98-6.47 4.717-8.7 8.221-2.23 3.492-3.82 7.7-4.76 12.629-.97 4.921-1.45 10.252-1.45 15.972v68.17h-28.37v-73.66c0-4.286-.18-8.494-.56-12.636-.41-4.125-1.38-7.817-2.88-11.075-1.5-3.254-3.77-5.85-6.79-7.75-3.02-1.912-7.17-2.858-12.38-2.858-5.27 0-9.68.987-13.24 2.987-3.58 1.98-6.48 4.717-8.7 8.221-2.22 3.492-3.83 7.7-4.78 12.629-.95 4.921-1.41 10.252-1.41 15.972v68.17z" fill="#773dbd"/><path d="m3015.69 1074.24v-128.242h28.37v17.888c3.66-6.679 8.62-11.808 14.89-15.375 6.29-3.588 13.7-5.363 22.28-5.363 10.03 0 18 1.984 23.95 5.955 5.97 3.966 10.46 9.529 13.48 16.679 5.56-8.104 11.94-13.905 19.08-17.4 7.13-3.5 14.7-5.234 22.64-5.234 7.63 0 14.11 1.18 19.42 3.567 5.34 2.388 9.67 5.796 12.98 10.246 3.35 4.45 5.78 9.775 7.29 15.971 1.5 6.208 2.27 13.116 2.27 20.737v80.571h-28.37v-73.66c0-4.286-.2-8.494-.6-12.636-.4-4.125-1.34-7.817-2.86-11.075-1.52-3.254-3.78-5.85-6.79-7.75-3.02-1.912-7.15-2.858-12.41-2.858-5.24 0-9.65.987-13.23 2.987-3.56 1.98-6.47 4.717-8.7 8.221-2.23 3.492-3.8 7.7-4.76 12.629-.95 4.921-1.43 10.252-1.43 15.972v68.17h-28.37v-73.66c0-4.286-.2-8.494-.58-12.636-.41-4.125-1.36-7.817-2.85-11.075-1.52-3.254-3.8-5.85-6.81-7.75-3.03-1.912-7.16-2.858-12.4-2.858s-9.65.987-13.23 2.987c-3.58 1.98-6.48 4.717-8.7 8.221-2.22 3.492-3.83 7.7-4.75 12.629-.98 4.921-1.44 10.252-1.44 15.972v68.17z" fill="#773dbd"/><path d="m3291.04 1071.97c-6.44 3.59-14.04 5.37-22.78 5.37-7.6 0-14.13-1.18-19.55-3.57-5.38-2.39-9.82-5.8-13.35-10.25-3.48-4.45-6.03-9.77-7.61-15.98-1.59-6.2-2.39-13.1-2.39-20.74v-80.8h28.37v73.89c0 4.29.24 8.5.71 12.64.49 4.12 1.52 7.82 3.09 11.08 1.61 3.26 3.96 5.85 7.16 7.74 3.18 1.92 7.39 2.87 12.63 2.87 5.27 0 9.75-1 13.47-2.98 3.73-1.99 6.72-4.73 8.95-8.23 2.22-3.48 3.85-7.71 4.88-12.62 1.03-4.93 1.55-10.26 1.55-15.97v-68.42h28.37v128.24h-28.37v-17.64c-3.65 6.68-8.69 11.81-15.13 15.37" fill="#773dbd"/><path d="m3405.39 948.504c6.6-3.583 14.41-5.362 23.48-5.362 7.78 0 14.42 1.179 19.9 3.571 5.48 2.391 9.98 5.8 13.47 10.245 3.49 4.455 6.08 9.771 7.73 15.98 1.69 6.2 2.52 13.104 2.52 20.737v80.555h-28.37v-73.65c0-4.28-.24-8.492-.71-12.63-.46-4.125-1.56-7.821-3.22-11.079s-4.12-5.846-7.41-7.746c-3.23-1.912-7.56-2.871-12.98-2.871-5.38 0-9.99 1-13.82 2.988-3.82 1.983-6.89 4.725-9.29 8.229-2.39 3.483-4.09 7.696-5.13 12.621-1.01 4.929-1.54 10.258-1.54 15.968v68.17h-28.37v-128.238h28.37v17.887c3.64-6.675 8.77-11.808 15.37-15.375" fill="#773dbd"/><path d="m3525.57 1074.24h-28.37v-128.244h28.37zm0-144.211h-28.37v-28.608h28.37z" fill="#773dbd"/><path d="m3626.98 946.471c6.44 2.229 12.18 5.371 17.28 9.417 5.08 4.062 9.39 8.946 12.87 14.658 3.5 5.729 5.86 12.167 7.16 19.313h-27.66c-1.27-6.842-4.61-12.392-10.01-16.688-5.4-4.291-12-6.437-19.79-6.437-4.45 0-8.7.837-12.75 2.504-4.05 1.675-7.62 4.296-10.71 7.867-3.13 3.583-5.58 8.058-7.41 13.466-1.82 5.409-2.74 11.919-2.74 19.549s.92 14.19 2.74 19.66c1.83 5.48 4.28 10.01 7.41 13.6 3.09 3.57 6.62 6.19 10.59 7.85 3.97 1.67 8.01 2.52 12.17 2.52 3.49 0 6.88-.41 10.25-1.2 3.32-.79 6.44-2.15 9.29-4.06 2.85-1.9 5.32-4.33 7.38-7.26 2.06-2.94 3.58-6.55 4.54-10.85h27.63c-1.42 7.48-4.04 14.14-7.85 20.02-3.8 5.89-8.41 10.81-13.84 14.78-5.38 3.97-11.35 6.99-17.86 9.06-6.52 2.07-13.19 3.09-20.02 3.09-9.38 0-17.84-1.71-25.41-5.11-7.52-3.42-14-8.11-19.42-14.08-5.38-5.95-9.57-13.03-12.5-21.21-2.96-8.18-4.41-17.04-4.41-26.57s1.45-18.393 4.41-26.58c2.93-8.18 7.16-15.292 12.61-21.334 5.52-6.041 12.13-10.771 19.92-14.183 7.79-3.421 16.44-5.125 25.98-5.125 7 0 13.71 1.121 20.15 3.333" fill="#773dbd"/><path d="m3734.54 1017.27c-7.14 1.27-13.03 2.86-17.65 4.77-4.58 1.9-7.96 4.17-10.11 6.79-2.15 2.63-3.22 5.77-3.22 9.41 0 5.57 2.15 9.94 6.44 13.12 4.29 3.17 10.01 4.76 17.15 4.76 10.5 0 18.68-2.66 24.54-7.98 5.89-5.32 8.83-13.47 8.83-24.43v-9.77c-10.16.95-18.82 2.06-25.98 3.33m-32.78 57.33c-5.79-1.83-10.81-4.42-15.02-7.76-4.2-3.32-7.46-7.34-9.76-12.03s-3.47-9.97-3.47-15.85c0-7.95 2.31-14.54 6.92-19.78 4.62-5.24 10.85-9.54 18.72-12.87 7.87-3.34 17-5.89 27.42-7.63 10.39-1.75 21.48-3.25 33.24-4.53v-2.391c0-5.396-.71-9.963-2.15-13.7-1.43-3.734-3.38-6.671-5.84-8.813-2.45-2.15-5.31-3.704-8.59-4.654-3.23-.958-6.62-1.425-10.11-1.425-7.16 0-13.15 1.896-18.01 5.713-4.85 3.816-7.42 9.62-7.73 17.4h-27.9c.47-6.513 2.15-12.475 5-17.88 2.88-5.4 6.68-10.041 11.46-13.937 4.77-3.896 10.36-6.917 16.79-9.067 6.43-2.141 13.55-3.212 21.35-3.212 7.62 0 14.77.958 21.44 2.862 6.68 1.913 12.49 5.004 17.4 9.292 4.91 4.292 8.74 9.979 11.43 17.05 2.71 7.071 3.99 15.692 3.83 25.858 0 1.592-.04 3.664-.13 6.204-.05 2.53-.1 5.32-.1 8.35 0 3.01-.04 6.14-.12 9.4s-.12 6.32-.12 9.19c0 8.1.3 16.08.93 23.96.65 7.85 1.6 14.48 2.88 19.89h-25.99c-.48-2.7-.93-5.17-1.31-7.38-.39-2.23-.75-5.57-1.07-10.02-4.13 6.99-9.82 12.17-17.04 15.5-7.24 3.32-15.62 5-25.15 5-7 0-13.39-.92-19.2-2.74" fill="#773dbd"/><path d="m3844.36 912.147v33.854h25.75v20.5h-25.75v69.849c0 6.51 1.05 10.84 3.11 12.98 2.06 2.15 6.12 3.22 12.15 3.22h10.25v21.69h-20.98c-6.83 0-12.38-.51-16.67-1.55-4.29-1.03-7.63-2.82-10.02-5.36-2.38-2.55-4.02-6-4.87-10.37-.89-4.37-1.34-9.81-1.34-16.33v-74.129h-19.06v-20.5h19.06v-33.854z" fill="#773dbd"/><path d="m3916.57 1074.24h-28.37v-128.244h28.37zm0-144.211h-28.37v-28.608h28.37z" fill="#773dbd"/><path d="m3967.19 1029.79c1.82 5.48 4.28 10 7.39 13.58 3.09 3.58 6.72 6.28 10.84 8.11 4.13 1.82 8.42 2.74 12.87 2.74s8.74-.92 12.86-2.74c4.14-1.83 7.78-4.53 10.85-8.11 3.12-3.58 5.59-8.1 7.4-13.58 1.82-5.48 2.74-11.96 2.74-19.43 0-7.31-.92-13.755-2.74-19.305-1.81-5.566-4.28-10.179-7.4-13.833-3.07-3.65-6.71-6.392-10.85-8.221-4.12-1.821-8.41-2.741-12.86-2.741s-8.74.92-12.87 2.741c-4.12 1.829-7.75 4.571-10.84 8.221-3.11 3.654-5.57 8.267-7.39 13.833-1.84 5.55-2.73 11.995-2.73 19.305 0 7.47.89 13.95 2.73 19.43m54.11-82.601c7.54 2.7 14.3 6.796 20.25 12.283 5.96 5.479 10.76 12.433 14.45 20.854 3.64 8.421 5.46 18.438 5.46 30.034 0 11.6-1.82 21.61-5.46 30.03-3.69 8.43-8.49 15.38-14.45 20.86-5.95 5.49-12.71 9.53-20.25 12.15-7.55 2.63-15.22 3.94-23.01 3.94-7.77 0-15.45-1.31-22.98-3.94-7.57-2.62-14.33-6.66-20.28-12.15-5.95-5.48-10.76-12.43-14.42-20.86-3.66-8.42-5.48-18.43-5.48-30.03 0-11.596 1.82-21.613 5.48-30.034s8.47-15.375 14.42-20.854c5.95-5.487 12.71-9.583 20.28-12.283 7.53-2.7 15.21-4.046 22.98-4.046 7.79 0 15.46 1.346 23.01 4.046" fill="#773dbd"/><path d="m4123.73 948.504c6.6-3.583 14.43-5.362 23.47-5.362 7.81 0 14.45 1.179 19.91 3.571 5.5 2.391 9.97 5.8 13.47 10.245 3.51 4.455 6.08 9.771 7.75 15.98 1.68 6.2 2.49 13.104 2.49 20.737v80.555h-28.36v-73.65c0-4.28-.23-8.492-.69-12.63-.49-4.125-1.56-7.821-3.24-11.079-1.66-3.258-4.12-5.846-7.38-7.746-3.26-1.912-7.59-2.871-12.99-2.871s-10.02 1-13.82 2.988c-3.83 1.983-6.92 4.725-9.31 8.229-2.39 3.483-4.09 7.696-5.11 12.621-1.03 4.929-1.56 10.258-1.56 15.968v68.17h-28.37v-128.238h28.37v17.887c3.66-6.675 8.78-11.808 15.37-15.375" fill="#773dbd"/><path d="m4278.84 968.525c-5-2.459-11.1-3.692-18.23-3.692-6.19 0-11.72 1.275-16.58 3.808-4.85 2.546-7.26 5.963-7.26 10.259 0 4.283 1.48 7.62 4.42 10.012 2.92 2.375 7.18 4.125 12.74 5.233l18.11 3.584c6.52 1.266 12.57 2.771 18.12 4.521 5.57 1.75 10.4 4.1 14.54 7.03 4.14 2.95 7.36 6.56 9.66 10.85 2.31 4.29 3.44 9.54 3.44 15.73 0 6.68-1.46 12.59-4.4 17.76-2.92 5.16-6.9 9.49-11.9 12.99-5.02 3.5-10.77 6.17-17.28 7.99-6.52 1.82-13.44 2.74-20.76 2.74-7.93 0-15.14-1.08-21.57-3.22-6.44-2.15-12.02-5.07-16.79-8.81-4.77-3.75-8.62-8.2-11.58-13.36-2.93-5.16-4.81-10.76-5.58-16.8h27.64c1.28 6.68 4.29 11.8 9.06 15.38 4.78 3.57 11.37 5.36 19.79 5.36 7.45 0 13.62-1.48 18.46-4.41 4.85-2.94 7.27-7.04 7.27-12.28 0-5.25-2.1-9.18-6.31-11.8s-9.5-4.57-15.86-5.83l-19.3-3.82c-5.41-1.11-10.44-2.59-15.13-4.41-4.7-1.83-8.79-4.21-12.28-7.15-3.51-2.94-6.24-6.52-8.25-10.724-1.97-4.221-2.94-9.262-2.94-15.141 0-5.721 1.41-10.85 4.28-15.367 2.86-4.538 6.68-8.429 11.44-11.692 4.75-3.25 10.29-5.754 16.57-7.504 6.26-1.75 12.9-2.617 19.9-2.617 6.2 0 12.23.75 18.12 2.267 5.88 1.504 11.18 3.842 15.95 7.029 4.79 3.175 8.83 7.134 12.17 11.917 3.34 4.767 5.64 10.329 6.9 16.683h-26.69c-1.6-5.879-4.88-10.05-9.89-12.516" fill="#773dbd"/><path d="m904.499 809.07 130.521-182.034h120.52l-136.41 186.242 193 267.182h-117.16l-142.433-196.378-48.038 51.417v144.961h-100.291v-611.036h100.291z" fill="#171415"/></g><path d="m1224.16 469.425h100.292v611.033h-100.292z" fill="#171415"/><path d="m1503.97 1080.46h-100.29v-453.422h100.29zm0-509.906h-100.29v-101.129h100.29z" fill="#171415" fill-rule="nonzero"/><path d="m1849.16 628.703c22.74 7.875 43.12 18.967 61.09 33.3 17.99 14.325 33.16 31.6 45.52 51.821 12.35 20.233 20.78 42.991 25.28 68.275h-97.77c-4.48-24.159-16.27-43.829-35.39-59.009-19.11-15.166-42.41-22.737-69.95-22.737-15.73 0-30.76 2.946-45.09 8.842-14.33 5.904-26.98 15.17-37.91 27.82-10.97 12.634-19.68 28.513-26.14 47.609-6.47 19.108-9.7 42.146-9.7 69.108 0 26.971 3.23 50.142 9.7 69.538 6.46 19.375 15.17 35.4 26.14 48.033 10.93 12.654 23.43 21.925 37.48 27.821 14.05 5.906 28.38 8.846 42.98 8.846 12.37 0 24.45-1.4 36.25-4.21 11.79-2.81 22.75-7.59 32.87-14.324 10.1-6.754 18.81-15.321 26.13-25.725 7.29-10.391 12.63-23.171 16.01-38.341h97.77c-5.07 26.408-14.34 50.02-27.83 70.8-13.48 20.8-29.76 38.2-48.88 52.25-19.1 14.05-40.17 24.72-63.2 32.03-23.04 7.3-46.63 10.96-70.8 10.96-33.15 0-63.08-6.04-89.75-18.12-26.7-12.08-49.58-28.66-68.7-49.74-19.09-21.07-33.84-46.055-44.24-75.005-10.39-28.925-15.59-60.255-15.59-93.955 0-33.725 5.2-65.05 15.59-93.979 10.4-28.929 25.28-54.087 44.66-75.429 19.38-21.362 42.85-38.075 70.38-50.146 27.53-12.087 58.15-18.133 91.87-18.133 24.72 0 48.46 3.942 71.22 11.8" fill="#171415" fill-rule="nonzero"/><path d="m2128.89 809.07 140.18-176.013h120.52l-146.07 180.221 193 267.182h-117.15l-142.44-196.378-48.04 51.417v144.961h-100.29v-611.036h100.29z" fill="#171415" fill-rule="nonzero"/><path d="m2645.98 202.474h100.29v611.029h-100.29v-144.958l-48.04-51.421-142.43 196.379h-117.16l193-267.175-136.42-186.25h120.53l130.52 182.042z" fill="#171415" fill-rule="nonzero"/><path d="m2830.63 204.667h100.292v611.029h-100.292z" fill="#171415"/><path d="m3196.07 614.253c-25.29 4.505-46.07 10.13-62.37 16.859-16.29 6.754-28.24 14.758-35.82 24.029-7.6 9.275-11.39 20.362-11.39 33.283 0 19.659 7.59 35.129 22.77 46.354 15.17 11.238 35.4 16.867 60.69 16.867 37.08 0 66.01-9.425 86.8-28.246 20.79-18.816 31.18-47.625 31.18-86.383v-34.563c-35.95 3.38-66.58 7.317-91.86 11.8m-115.89 202.709c-20.51-6.479-38.2-15.604-53.09-27.404-14.9-11.8-26.4-25.975-34.55-42.559-8.15-16.571-12.23-35.246-12.23-56.05 0-28.096 8.15-51.412 24.44-69.941 16.3-18.555 38.35-33.725 66.16-45.525 27.82-11.788 60.12-20.78 96.93-26.963 36.79-6.167 76-11.508 117.57-16.008v-8.425c0-19.109-2.54-35.263-7.58-48.475-5.07-13.196-11.95-23.588-20.66-31.179-8.71-7.588-18.81-13.071-30.34-16.421-11.51-3.379-23.45-5.071-35.81-5.071-25.29 0-46.5 6.733-63.63 20.217-17.15 13.491-26.29 34-27.41 61.529h-98.6c1.69-23.029 7.58-44.1 17.7-63.192 10.12-19.117 23.6-35.558 40.45-49.317 16.86-13.754 36.66-24.441 59.42-32.029 22.76-7.583 47.9-11.379 75.43-11.379 26.97 0 52.27 3.375 75.86 10.129 23.6 6.729 44.1 17.692 61.53 32.867 17.4 15.167 30.88 35.242 40.45 60.258 9.55 25 14.04 55.479 13.48 91.45 0 5.609-.14 12.921-.42 21.904-.28 8.984-.43 18.821-.43 29.492 0 10.692-.14 21.779-.42 33.304-.27 11.504-.41 22.325-.41 32.434 0 28.658 1.12 56.9 3.37 84.695 2.23 27.83 5.61 51.271 10.11 70.388h-91.86c-1.7-9.546-3.24-18.258-4.64-26.133-1.41-7.859-2.67-19.659-3.79-35.392-14.61 24.717-34.7 42.979-60.26 54.792-25.56 11.8-55.21 17.695-88.92 17.695-24.72 0-47.34-3.233-67.85-9.691" fill="#171415" fill-rule="nonzero"/><path d="m3726.76 363.941c22.74 7.875 43.12 18.966 61.09 33.3 17.99 14.325 33.16 31.608 45.53 51.821 12.35 20.233 20.78 42.991 25.28 68.275h-97.78c-4.47-24.159-16.27-43.825-35.39-59.009-19.1-15.166-42.41-22.737-69.94-22.737-15.74 0-30.77 2.946-45.1 8.841-14.32 5.892-26.97 15.171-37.92 27.821-10.96 12.634-19.67 28.513-26.13 47.609-6.47 19.108-9.7 42.145-9.7 69.108 0 26.971 3.23 50.15 9.7 69.537 6.46 19.375 15.17 35.4 26.13 48.038 10.95 12.65 23.45 21.921 37.5 27.817 14.04 5.904 28.37 8.846 42.97 8.846 12.37 0 24.46-1.405 36.25-4.213 11.79-2.817 22.76-7.588 32.87-14.321 10.1-6.754 18.81-15.321 26.13-25.721 7.3-10.395 12.63-23.175 16.01-38.345h97.77c-5.06 26.408-14.34 50.02-27.83 70.799-13.48 20.801-29.76 38.205-48.87 52.255-19.11 14.046-40.18 24.716-63.21 32.029-23.03 7.292-46.63 10.962-70.8 10.962-33.14 0-63.07-6.045-89.75-18.129-26.7-12.071-49.58-28.658-68.7-49.733-19.09-21.071-33.84-46.058-44.24-75.008-10.39-28.925-15.59-60.255-15.59-93.955 0-33.725 5.2-65.05 15.59-93.979 10.4-28.929 25.28-54.087 44.67-75.429 19.38-21.363 42.84-38.075 70.37-50.146 27.54-12.087 58.16-18.133 91.88-18.133 24.71 0 48.45 3.942 71.21 11.8" fill="#171415" fill-rule="nonzero"/><path d="m4009.32 544.306 167.72-182.033h120.53l-173.62 186.242 193 267.179h-117.16l-142.43-196.375-48.04 51.416v144.959h-100.29v-611.034h100.29z" fill="#171415" fill-rule="nonzero"/><path d="m695.7 768.92c0 179.666-145.646 325.31-325.317 325.31-179.654 0-325.308-145.644-325.308-325.31 0-179.667 145.654-325.313 325.308-325.313 179.671 0 325.317 145.646 325.317 325.313" fill="#c2a6e1" fill-rule="nonzero"/><path d="m583.065 768.92c0 117.462-95.221 212.67-212.675 212.67-117.459 0-212.68-95.208-212.68-212.67 0-117.463 95.221-212.671 212.68-212.671 117.454 0 212.675 95.208 212.675 212.671" fill="#9164cc" fill-rule="nonzero"/><path d="m479.928 768.92c0 60.5-49.046 109.541-109.542 109.541s-109.542-49.041-109.542-109.541 49.046-109.542 109.542-109.542 109.542 49.042 109.542 109.542" fill="#773dbd" fill-rule="nonzero"/></svg>