<svg clip-rule="evenodd" fill-rule="evenodd" stroke-linejoin="round" stroke-miterlimit="2" viewBox="0 0 600 420" xmlns="http://www.w3.org/2000/svg"><g transform="matrix(1.22093 0 0 1.22093 -.723045 -.425489)"><path d="m184.569 202.082c0 .325-.105.501-.313.527-1.628.183-2.745.483-3.35.9-.606.417-.922 1.22-.948 2.407l-.43 23.03c0 .261-.156.391-.469.391-.156 0-.365-.105-.625-.313l-20.143-22.761-.274 18.073c-.013.103-.019.202-.019.293 0 .989.312 1.689.937 2.099.626.411 1.752.714 3.38.909.208.027.313.203.313.528 0 .364-.105.547-.313.547-.677 0-1.608-.039-2.794-.118-1.107-.078-1.96-.117-2.559-.117-.651 0-1.531.039-2.638.117-1.068.079-1.895.118-2.481.118-.208 0-.313-.183-.313-.547 0-.325.117-.501.352-.528 1.615-.195 2.722-.499 3.322-.909.599-.411.918-1.209.957-2.395l.684-18.4v-.176c0-1.056-.306-1.792-.919-2.209-.612-.417-1.752-.73-3.419-.939-.182 0-.273-.179-.273-.537s.104-.538.312-.538c.456 0 1.095.039 1.915.118.729.078 1.276.117 1.641.117.456 0 1.003-.039 1.642-.117.651-.079 1.211-.118 1.68-.118l18.815 21.043v-16.66c0-1.109-.316-1.888-.948-2.339-.632-.45-1.801-.773-3.507-.969-.208-.026-.312-.202-.312-.527 0-.365.104-.548.312-.548.703 0 1.641.039 2.814.118 1.093.078 1.94.117 2.539.117.652 0 1.531-.039 2.638-.117 1.068-.079 1.895-.118 2.481-.118.208 0 .313.183.313.548zm28.72 26.083c0 .364-.104.547-.313.547-.9 0-1.916-.039-3.051-.118-.977-.078-1.812-.117-2.503-.117-.795 0-1.779.039-2.952.117-1.238.079-2.293.118-3.166.118-.208 0-.312-.179-.312-.537 0-.359.078-.538.234-.538 1.159-.052 1.993-.207 2.501-.461.508-.256.762-.653.762-1.19 0-.341-.13-.884-.391-1.631l-2.226-6.545h-8.023l-2.235 6.056c-.286.812-.429 1.44-.429 1.886 0 1.152 1.055 1.78 3.165 1.885.156 0 .234.179.234.538 0 .358-.104.537-.313.537-.781 0-1.647-.039-2.598-.118-.898-.078-1.698-.117-2.401-.117-.56 0-1.262.039-2.107.117-.886.079-1.64.118-2.265.118-.195 0-.293-.163-.293-.489 0-.364.15-.559.45-.586 1.081-.104 1.937-.404 2.569-.899.632-.494 1.286-1.504 1.963-3.028l9.144-22.449c.079-.208.261-.313.547-.313.313 0 .508.098.587.293l8.069 22.469c.456 1.263 1.071 2.195 1.846 2.794s1.814.977 3.116 1.133c.261.027.391.203.391.528zm-11.845-11.606-3.431-9.957-3.697 9.957zm36.717-8.596c0 .247-.235.371-.703.371-.209 0-.339-.091-.392-.274-.56-1.836-1.36-3.135-2.402-3.898-1.043-.761-2.586-1.143-4.631-1.143h-1.837c-.638 0-1.074.105-1.309.313-.234.209-.351.599-.351 1.172v19.832c0 .898.113 1.533.341 1.904s.632.664 1.212.88c.579.215 1.41.388 2.491.517.208.027.313.203.313.528 0 .364-.105.547-.313.547-.872 0-1.914-.039-3.126-.118-1.149-.078-2.109-.117-2.882-.117-.799 0-1.779.039-2.94.117-1.212.079-2.254.118-3.126.118-.209 0-.313-.183-.313-.547 0-.325.104-.501.313-.528 1.576-.182 2.647-.475 3.214-.879.566-.404.849-1.211.849-2.422v-19.832c0-.573-.117-.963-.351-1.172-.235-.208-.677-.313-1.329-.313h-1.524c-1.836 0-3.504.466-5.001 1.397-1.498.932-2.475 2.14-2.931 3.625-.065.195-.208.293-.43.293-.443 0-.664-.143-.664-.43.729-1.967 1.419-4.194 2.071-6.682 1.773.365 5.827.547 12.162.547 6.505 0 10.643-.182 12.416-.547.183 1.693.574 3.94 1.173 6.741zm14.965 20.202c0 .364-.104.547-.312.547-.873 0-1.908-.039-3.106-.118-1.147-.078-2.117-.117-2.912-.117-.794 0-1.765.039-2.911.117-1.211.079-2.26.118-3.145.118-.209 0-.313-.183-.313-.547 0-.325.104-.501.313-.528 1.575-.182 2.647-.475 3.214-.879.566-.405.85-1.213.85-2.425v-18.4c0-.912-.115-1.554-.343-1.925-.228-.372-.628-.665-1.201-.881-.573-.215-1.413-.388-2.52-.518-.209 0-.313-.179-.313-.537s.104-.538.313-.538c.885 0 1.934.039 3.145.118 1.146.078 2.117.117 2.911.117.795 0 1.765-.039 2.912-.117 1.198-.079 2.233-.118 3.106-.118.208 0 .312.18.312.538s-.104.537-.312.537c-1.094.13-1.928.303-2.501.518-.573.216-.97.506-1.191.871-.222.365-.333 1.01-.333 1.935v18.4c0 .899.111 1.535.333 1.906.221.372.615.665 1.181.88.567.215 1.397.388 2.491.518.222.027.332.203.332.528zm32.414-12.895c0 4.129-1.329 7.506-3.987 10.13-2.656 2.625-6.127 3.937-10.412 3.937-4.287 0-7.754-1.312-10.405-3.937-2.652-2.624-3.976-6.001-3.976-10.13 0-4.142 1.335-7.565 4.005-10.267 2.671-2.703 6.128-4.055 10.376-4.055 4.258 0 7.723 1.352 10.393 4.055 2.67 2.702 4.006 6.125 4.006 10.267zm-4.299 0c0-3.843-.928-6.982-2.783-9.418-1.858-2.435-4.295-3.653-7.317-3.653-3.035 0-5.474 1.218-7.318 3.653-1.843 2.436-2.765 5.575-2.765 9.418 0 3.816.914 6.906 2.745 9.271 1.83 2.363 4.276 3.546 7.338 3.546 3.047 0 5.492-1.183 7.336-3.546 1.842-2.365 2.764-5.455 2.764-9.271zm39.076-13.188c0 .325-.105.501-.314.527-1.628.183-2.744.483-3.35.9s-.921 1.22-.947 2.407l-.43 23.03c0 .261-.156.391-.469.391-.156 0-.365-.105-.626-.313l-20.142-22.761-.275 18.073c-.013.103-.019.202-.019.293 0 .989.313 1.689.938 2.099.625.411 1.751.714 3.38.909.208.027.312.203.312.528 0 .364-.104.547-.312.547-.678 0-1.609-.039-2.794-.118-1.107-.078-1.961-.117-2.56-.117-.651 0-1.53.039-2.637.117-1.069.079-1.896.118-2.482.118-.208 0-.312-.183-.312-.547 0-.325.117-.501.351-.528 1.616-.195 2.723-.499 3.322-.909.599-.411.919-1.209.958-2.395l.683-18.4v-.176c0-1.056-.306-1.792-.918-2.209s-1.752-.73-3.419-.939c-.182 0-.274-.179-.274-.537s.104-.538.313-.538c.456 0 1.094.039 1.914.118.73.078 1.277.117 1.642.117.455 0 1.003-.039 1.641-.117.651-.079 1.212-.118 1.68-.118l18.815 21.043v-16.66c0-1.109-.316-1.888-.947-2.339-.632-.45-1.801-.773-3.507-.969-.209-.026-.313-.202-.313-.527 0-.365.104-.548.313-.548.703 0 1.64.039 2.813.118 1.094.078 1.941.117 2.54.117.652 0 1.531-.039 2.638-.117 1.067-.079 1.894-.118 2.48-.118.209 0 .314.183.314.548zm28.72 26.083c0 .364-.105.547-.314.547-.899 0-1.916-.039-3.05-.118-.978-.078-1.812-.117-2.503-.117-.795 0-1.78.039-2.953.117-1.237.079-2.293.118-3.165.118-.209 0-.312-.179-.312-.537 0-.359.078-.538.234-.538 1.159-.052 1.992-.207 2.5-.461.509-.256.763-.653.763-1.19 0-.341-.13-.884-.391-1.631l-2.226-6.545h-8.024l-2.234 6.056c-.286.812-.43 1.44-.43 1.886 0 1.152 1.055 1.78 3.165 1.885.156 0 .235.179.235.538 0 .358-.105.537-.313.537-.781 0-1.647-.039-2.599-.118-.897-.078-1.698-.117-2.4-.117-.56 0-1.263.039-2.108.117-.885.079-1.64.118-2.264.118-.195 0-.293-.163-.293-.489 0-.364.149-.559.449-.586 1.081-.104 1.938-.404 2.57-.899.631-.494 1.286-1.504 1.963-3.028l9.144-22.449c.078-.208.261-.313.547-.313.312 0 .508.098.586.293l8.069 22.469c.456 1.263 1.071 2.195 1.847 2.794.774.599 1.813.977 3.116 1.133.26.027.391.203.391.528zm-11.846-11.606-3.43-9.957-3.697 9.957zm35.916 4.963c-.612 2.292-1.094 4.689-1.445 7.19-4.99-.157-8.538-.235-10.649-.235-2.084 0-5.588.078-10.512.235-.208 0-.312-.183-.312-.547 0-.325.104-.501.312-.528 1.577-.182 2.648-.475 3.215-.879.567-.405.85-1.213.85-2.425v-18.4c0-.912-.114-1.554-.342-1.925-.228-.372-.629-.665-1.202-.881-.573-.215-1.413-.388-2.521-.518-.208 0-.312-.179-.312-.537s.104-.538.312-.538c.874 0 1.916.039 3.127.118 1.16.078 2.136.117 2.931.117.794 0 1.765-.039 2.911-.117 1.198-.079 2.234-.118 3.107-.118.208 0 .312.18.312.538s-.104.537-.312.537c-1.095.131-1.928.304-2.501.519-.574.215-.971.505-1.193.87-.221.365-.332 1.01-.332 1.935v18.987c0 1.538.756 2.307 2.267 2.307h3.868c1.603 0 2.957-.426 4.064-1.28 1.107-.853 2.202-2.445 3.283-4.777.051-.104.175-.156.371-.156.169 0 .329.052.478.156.15.105.225.222.225.352zm-221.498 35.653c0 4.012-1.342 7.249-4.025 9.71-2.683 2.462-6.311 3.693-10.882 3.693-.574 0-1.733-.027-3.478-.078-1.798-.052-2.996-.078-3.595-.078-2.423 0-4.78.051-7.073.156-.208 0-.312-.183-.312-.547 0-.325.104-.501.312-.527 1.081-.131 1.908-.304 2.482-.519.572-.215.973-.505 1.201-.87s.342-1.004.342-1.916v-18.321c0-.9-.107-1.535-.322-1.907-.216-.372-.61-.668-1.182-.889-.574-.222-1.414-.398-2.521-.529-.208 0-.312-.178-.312-.537 0-.358.104-.537.312-.537 1.524.105 3.882.156 7.073.156.599 0 1.797-.019 3.595-.058 1.745-.039 2.904-.059 3.478-.059 4.454 0 8.052 1.274 10.794 3.82 2.742 2.547 4.113 5.825 4.113 9.837zm-4.298.001c0-3.549-1.013-6.5-3.039-8.856-2.025-2.354-4.562-3.532-7.609-3.532h-.118l-3.673.078c-1.537.053-2.305.81-2.305 2.27v19.824c0 1.487.768 2.23 2.305 2.23l3.673.118c3.035 0 5.588-1.158 7.659-3.473 2.071-2.316 3.107-5.202 3.107-8.659zm30.517 6.955c-1.055 2.254-1.914 4.402-2.578 6.447-4.912-.156-8.409-.235-10.493-.235-2.058 0-5.549.079-10.472.235-.208 0-.312-.183-.312-.547 0-.325.104-.501.312-.527 1.081-.131 1.908-.304 2.482-.519.572-.215.973-.505 1.201-.87s.342-1.004.342-1.916v-18.399c0-.9-.107-1.536-.322-1.907-.216-.372-.61-.669-1.182-.889-.574-.222-1.414-.398-2.521-.529-.208 0-.312-.178-.312-.537 0-.358.104-.537.312-.537 3.282.156 6.643.234 10.082.234 3.465 0 6.831-.078 10.101-.234.299 2.019.736 4.012 1.309 5.979 0 .26-.228.39-.684.39-.221 0-.359-.091-.41-.273-.964-3.074-3.022-4.612-6.174-4.612h-3.947c-1.511 0-2.266.782-2.266 2.345v8.695h4.923c1.31 0 2.197-.3 2.662-.899.465-.6.789-1.661.972-3.184 0-.209.179-.314.538-.314.358 0 .537.105.537.314 0 .651-.039 1.471-.117 2.46-.079.952-.118 1.727-.118 2.326 0 .612.039 1.395.118 2.344.078 1.016.117 1.85.117 2.501 0 .209-.179.313-.537.313-.359 0-.538-.104-.538-.313-.196-1.588-.54-2.703-1.031-3.34-.491-.639-1.359-.958-2.603-.958h-4.923v9.613c0 1.537.755 2.305 2.266 2.305h4.259c1.55 0 3.087-.504 4.611-1.514 1.524-1.009 2.644-2.27 3.361-3.78.052-.118.163-.176.332-.176.182 0 .345.049.488.146.143.098.215.218.215.362zm37.61 5.9c0 .364-.105.547-.313.547-.873 0-1.934-.039-3.185-.117-1.195-.078-2.189-.118-2.979-.118-.791 0-1.758.04-2.901.118-1.199.078-2.234.117-3.107.117-.234 0-.351-.183-.351-.547 0-.325.104-.501.312-.527 1.524-.183 2.563-.463 3.116-.841.554-.377.831-1.094.831-2.149v-.312l-.821-18.933-9.417 23.621c-.078.208-.261.313-.547.313-.3 0-.476-.105-.528-.313l-8.87-22.683-1.407 18.011c-.025.221-.039.417-.039.586 0 .874.3 1.5.899 1.878s1.667.652 3.204.822c.183.025.274.204.274.537 0 .358-.117.537-.352.537-.677 0-1.602-.039-2.774-.117-1.091-.078-1.934-.118-2.527-.118-.647 0-1.531.04-2.651.118-1.081.078-1.914.117-2.501.117-.182 0-.273-.183-.273-.547 0-.325.117-.501.351-.527 1.642-.196 2.778-.502 3.41-.919.631-.417.993-1.213 1.084-2.386l2.032-18.399c.013-.235.02-.444.02-.626 0-.847-.3-1.46-.899-1.838s-1.687-.665-3.263-.861c-.183 0-.273-.178-.273-.537 0-.128.039-.25.117-.364.078-.115.156-.173.234-.173.482 0 1.166.039 2.052.117.755.078 1.309.117 1.661.117.455 0 1.107-.039 1.953-.117.873-.078 1.55-.117 2.032-.117l8.381 21.699 8.656-21.699c.519 0 1.199.039 2.042.117.764.078 1.367.117 1.808.117.546 0 1.204-.039 1.972-.117.795-.078 1.479-.117 2.052-.117.235 0 .352.179.352.537 0 .359-.105.537-.313.537-1.524.183-2.563.463-3.116.841-.554.378-.831 1.096-.831 2.152v.332l.899 18.399c.039.912.179 1.551.42 1.916s.655.655 1.241.87 1.426.388 2.52.519c.208.026.313.202.313.527zm30.576-12.896c0 4.13-1.329 7.506-3.986 10.131s-6.129 3.937-10.414 3.937-7.753-1.312-10.404-3.937c-2.65-2.625-3.976-6.001-3.976-10.131 0-4.141 1.335-7.563 4.006-10.266 2.67-2.703 6.128-4.055 10.374-4.055 4.26 0 7.724 1.352 10.394 4.055s4.006 6.125 4.006 10.266zm-4.299 0c0-3.841-.927-6.981-2.784-9.417-1.856-2.435-4.295-3.653-7.317-3.653-3.035 0-5.473 1.218-7.317 3.653-1.843 2.436-2.764 5.576-2.764 9.417 0 3.819.915 6.908 2.745 9.272 1.83 2.363 4.275 3.546 7.336 3.546 3.048 0 5.493-1.183 7.337-3.546 1.843-2.364 2.764-5.453 2.764-9.272zm33.489 6.214c-.47 2.084-.926 4.298-1.369 6.643-.742 0-2.09.176-4.043.527-2.501.456-4.351.684-5.549.684-2.97 0-5.576-.586-7.816-1.758-2.24-1.173-3.986-2.85-5.236-5.031-1.25-2.182-1.876-4.607-1.876-7.279 0-2.63.662-5.056 1.984-7.277s3.142-3.95 5.46-5.187c2.319-1.238 4.93-1.857 7.835-1.857 1.224 0 2.865.131 4.924.392 1.602.208 2.768.312 3.497.312.169 1.824.469 4.038.899 6.643 0 .209-.208.312-.625.312-.261 0-.417-.103-.469-.312-.469-1.772-1.479-3.231-3.028-4.377-1.551-1.146-3.335-1.719-5.354-1.719-3.061 0-5.63 1.264-7.708 3.79-2.078 2.528-3.116 5.621-3.116 9.28 0 3.557 1.029 6.583 3.086 9.077 2.059 2.494 4.573 3.741 7.543 3.741 4.649 0 7.945-2.201 9.885-6.604.091-.209.267-.313.528-.313.365 0 .548.104.548.313zm29.344 6.682c0 .364-.104.547-.312.547-.483 0-1.271-.046-2.364-.137-.795-.065-1.323-.098-1.583-.098-.378 0-.97.04-1.778.118-.807.078-1.4.117-1.778.117l-5.92-9.639c-.834-1.334-1.508-2.19-2.022-2.57-.515-.379-1.547-.568-3.097-.568v8.401c0 .898.114 1.533.342 1.904s.631.664 1.212.88c.579.215 1.409.388 2.491.518.22.026.332.202.332.527 0 .364-.105.547-.313.547-.873 0-1.915-.039-3.126-.117-1.16-.078-2.136-.118-2.93-.118-.795 0-1.766.04-2.911.118-1.2.078-2.235.117-3.107.117-.209 0-.313-.183-.313-.547 0-.325.104-.501.313-.527 1.08-.131 1.907-.304 2.481-.519.573-.215.973-.505 1.202-.87.227-.365.341-1.004.341-1.916v-18.399c0-.9-.107-1.536-.322-1.907-.215-.372-.609-.669-1.182-.889-.574-.222-1.413-.398-2.52-.529-.209 0-.313-.178-.313-.537 0-.358.104-.537.313-.537.872 0 1.907.039 3.107.117 1.145.078 2.116.117 2.911.117.794 0 1.77-.039 2.93-.117 1.211-.078 2.253-.117 3.126-.117 2.905 0 5.152.608 6.741 1.823 1.588 1.215 2.383 2.922 2.383 5.121 0 1.39-.525 2.679-1.575 3.869s-2.47 2.106-4.259 2.749l6.018 9.797c.522.857 1.194 1.489 2.017 1.897.822.408 1.885.69 3.191.847.183.026.274.202.274.527zm-9.965-19.598c0-3.815-1.66-5.723-4.981-5.723-1.095 0-1.925.088-2.491.264-.567.177-.944.454-1.134.833-.188.38-.283 1.046-.283 2v8.723c.756.105 1.706.156 2.852.156 2.098 0 3.628-.496 4.592-1.489s1.445-2.581 1.445-4.764zm38.881 19.598c0 .364-.104.547-.313.547-.9 0-1.916-.039-3.05-.117-.978-.078-1.812-.118-2.503-.118-.796 0-1.78.04-2.953.118-1.237.078-2.293.117-3.165.117-.209 0-.313-.179-.313-.537 0-.359.079-.537.235-.537 1.159-.053 1.992-.207 2.5-.462.509-.256.763-.653.763-1.19 0-.341-.13-.884-.391-1.631l-2.227-6.545h-8.023l-2.234 6.056c-.287.813-.43 1.441-.43 1.886 0 1.152 1.055 1.78 3.165 1.886.156 0 .234.178.234.537 0 .358-.104.537-.312.537-.781 0-1.648-.039-2.599-.117-.897-.078-1.698-.118-2.4-.118-.56 0-1.263.04-2.109.118-.884.078-1.639.117-2.263.117-.196 0-.293-.163-.293-.488 0-.365.149-.56.449-.586 1.081-.105 1.937-.405 2.569-.9.632-.494 1.286-1.504 1.964-3.028l9.144-22.448c.078-.209.26-.314.547-.314.312 0 .507.098.586.294l8.069 22.468c.456 1.264 1.071 2.195 1.847 2.794.774.599 1.813.977 3.116 1.134.259.026.39.202.39.527zm-11.845-11.605-3.43-9.958-3.697 9.958zm36.717-8.597c0 .247-.234.371-.704.371-.208 0-.339-.091-.39-.274-.56-1.836-1.362-3.135-2.404-3.897-1.042-.763-2.585-1.144-4.63-1.144h-1.836c-.638 0-1.075.105-1.309.313-.234.209-.352.6-.352 1.173v19.831c0 .898.114 1.533.342 1.904s.631.664 1.211.88c.579.215 1.41.388 2.491.518.208.026.313.202.313.527 0 .364-.105.547-.313.547-.873 0-1.915-.039-3.126-.117-1.149-.078-2.109-.118-2.881-.118-.799 0-1.779.04-2.941.118-1.212.078-2.254.117-3.126.117-.209 0-.312-.183-.312-.547 0-.325.103-.501.312-.527 1.575-.183 2.648-.476 3.214-.88s.85-1.211.85-2.422v-19.831c0-.573-.118-.964-.352-1.173-.234-.208-.678-.313-1.328-.313h-1.524c-1.837 0-3.504.466-5.002 1.398-1.498.931-2.475 2.139-2.931 3.624-.066.195-.208.293-.43.293-.442 0-.664-.144-.664-.43.73-1.967 1.42-4.194 2.071-6.681 1.773.364 5.827.546 12.163.546 6.504 0 10.643-.182 12.416-.546.182 1.693.573 3.939 1.172 6.74zm14.966 20.202c0 .364-.104.547-.312.547-.873 0-1.908-.039-3.107-.117-1.146-.078-2.117-.118-2.911-.118-.795 0-1.764.04-2.911.118-1.211.078-2.26.117-3.145.117-.209 0-.313-.183-.313-.547 0-.325.104-.501.313-.527 1.576-.183 2.647-.476 3.213-.88.567-.405.85-1.213.85-2.425v-18.399c0-.913-.114-1.555-.342-1.926-.227-.372-.628-.665-1.201-.88-.573-.216-1.414-.388-2.52-.519-.209 0-.313-.178-.313-.537 0-.358.104-.537.313-.537.885 0 1.934.039 3.145.117 1.147.078 2.116.117 2.911.117.794 0 1.765-.039 2.911-.117 1.199-.078 2.234-.117 3.107-.117.208 0 .312.179.312.537 0 .359-.104.537-.312.537-1.094.131-1.928.303-2.501.519-.573.215-.971.505-1.192.87s-.332 1.01-.332 1.936v18.399c0 .899.111 1.535.332 1.906.221.372.616.665 1.182.88s1.397.388 2.491.519c.222.026.332.202.332.527zm28.858-6.682c-.47 2.084-.926 4.298-1.368 6.643-.743 0-2.091.176-4.044.527-2.501.456-4.351.684-5.549.684-2.97 0-5.575-.586-7.816-1.758-2.24-1.173-3.985-2.85-5.236-5.031-1.25-2.182-1.875-4.607-1.875-7.279 0-2.63.66-5.056 1.982-7.277 1.323-2.221 3.143-3.95 5.461-5.187 2.319-1.238 4.93-1.857 7.835-1.857 1.224 0 2.866.131 4.924.392 1.602.208 2.768.312 3.497.312.169 1.824.469 4.038.899 6.643 0 .209-.208.312-.625.312-.261 0-.417-.103-.469-.312-.469-1.772-1.479-3.231-3.028-4.377-1.551-1.146-3.335-1.719-5.354-1.719-3.061 0-5.631 1.264-7.708 3.79-2.077 2.528-3.116 5.621-3.116 9.28 0 3.557 1.029 6.583 3.087 9.077 2.057 2.494 4.572 3.741 7.542 3.741 4.649 0 7.945-2.201 9.885-6.604.091-.209.267-.313.528-.313.365 0 .548.104.548.313zm-238.672 48.549c0 .364-.104.547-.312.547-.873 0-1.908-.039-3.107-.117-1.146-.078-2.116-.117-2.911-.117-.794 0-1.765.039-2.911.117-1.211.078-2.26.117-3.145.117-.209 0-.313-.183-.313-.547 0-.325.104-.501.313-.527 1.575-.183 2.647-.476 3.213-.88.567-.404.851-1.213.851-2.425v-18.399c0-.912-.115-1.555-.343-1.926-.228-.372-.628-.665-1.201-.88-.574-.216-1.414-.388-2.52-.518-.209 0-.313-.179-.313-.538 0-.358.104-.537.313-.537.885 0 1.934.039 3.145.117 1.146.079 2.117.118 2.911.118.795 0 1.765-.039 2.911-.118 1.199-.078 2.234-.117 3.107-.117.208 0 .312.179.312.537 0 .359-.104.538-.312.538-1.094.13-1.928.302-2.501.518-.573.215-.97.505-1.192.87-.221.365-.332 1.01-.332 1.936v18.399c0 .9.111 1.535.332 1.906.222.372.616.665 1.182.88.567.215 1.397.388 2.491.519.221.026.332.202.332.527zm35.813-26.083c0 .325-.105.501-.313.528-1.628.182-2.745.482-3.35.9-.606.417-.922 1.22-.948 2.406l-.43 23.03c0 .261-.156.391-.469.391-.156 0-.365-.104-.625-.312l-20.144-22.762-.273 18.073c-.013.104-.02.202-.02.293 0 .989.313 1.689.938 2.1s1.752.714 3.38.909c.208.026.313.202.313.527 0 .364-.105.547-.313.547-.677 0-1.609-.039-2.794-.117-1.107-.078-1.96-.117-2.559-.117-.652 0-1.531.039-2.638.117-1.068.078-1.895.117-2.481.117-.208 0-.313-.183-.313-.547 0-.325.117-.501.352-.527 1.615-.195 2.722-.499 3.322-.909.599-.411.918-1.209.957-2.396l.684-18.399v-.176c0-1.056-.306-1.793-.919-2.21-.612-.417-1.752-.73-3.419-.938-.182 0-.273-.179-.273-.538 0-.358.104-.537.312-.537.456 0 1.095.039 1.915.117.729.079 1.276.118 1.641.118.456 0 1.003-.039 1.642-.118.65-.078 1.211-.117 1.68-.117l18.815 21.042v-16.659c0-1.109-.316-1.889-.948-2.339-.632-.451-1.801-.773-3.507-.969-.208-.027-.312-.203-.312-.528 0-.364.104-.547.312-.547.703 0 1.641.039 2.814.117 1.093.079 1.94.118 2.539.118.652 0 1.531-.039 2.638-.118 1.068-.078 1.895-.117 2.481-.117.208 0 .313.183.313.547zm18.502 18.776c0 2.592-.77 4.653-2.308 6.184-1.539 1.53-3.62 2.295-6.241 2.295-1.16 0-2.549-.208-4.166-.625-1.474-.391-2.68-.586-3.618-.586-.079-2.214-.236-4.429-.47-6.642 0-.209.195-.314.586-.314.274 0 .443.105.508.314.704 2.421 1.604 4.128 2.7 5.118s2.633 1.485 4.611 1.485c1.575 0 2.795-.456 3.66-1.368.866-.911 1.299-2.188 1.299-3.829 0-1.055-.378-2.035-1.133-2.941-.756-.905-2.364-2.074-4.826-3.506-2.827-1.628-4.676-3.009-5.549-4.143-.873-1.133-1.309-2.39-1.309-3.771 0-2.123.786-3.917 2.357-5.382 1.572-1.465 3.564-2.199 5.977-2.199.913 0 1.963.124 3.15.372 1.108.222 2.067.332 2.876.332.156 2.292.364 4.312.626 6.057 0 .208-.17.313-.508.313-.365 0-.567-.105-.606-.313-.431-1.954-1.083-3.36-1.958-4.221-.874-.859-2.083-1.289-3.627-1.289-1.466 0-2.63.43-3.494 1.289-.864.861-1.296 2.02-1.296 3.479 0 .925.363 1.807 1.088 2.646.725.841 2.296 1.964 4.713 3.372 2.862 1.667 4.737 3.06 5.625 4.18s1.333 2.352 1.333 3.693zm29.189-12.895c0 .247-.235.371-.703.371-.209 0-.339-.091-.392-.273-.56-1.837-1.36-3.136-2.402-3.898-1.043-.762-2.586-1.143-4.631-1.143h-1.837c-.638 0-1.074.104-1.309.312-.234.209-.351.6-.351 1.173v19.831c0 .899.113 1.533.341 1.904.229.371.632.664 1.212.88.58.215 1.41.388 2.491.518.208.026.313.202.313.527 0 .364-.105.547-.313.547-.872 0-1.914-.039-3.126-.117-1.149-.078-2.109-.117-2.882-.117-.799 0-1.778.039-2.94.117-1.212.078-2.254.117-3.126.117-.209 0-.313-.183-.313-.547 0-.325.104-.501.313-.527 1.576-.183 2.647-.476 3.214-.88.566-.403.849-1.211.849-2.422v-19.831c0-.573-.117-.964-.351-1.173-.235-.208-.677-.312-1.329-.312h-1.524c-1.836 0-3.504.465-5.001 1.397-1.498.931-2.475 2.139-2.931 3.624-.065.195-.208.293-.43.293-.443 0-.664-.143-.664-.43.729-1.966 1.419-4.194 2.071-6.681 1.773.364 5.827.547 12.162.547 6.505 0 10.643-.183 12.416-.547.183 1.693.574 3.939 1.173 6.74zm14.966 20.202c0 .364-.105.547-.314.547-.872 0-1.907-.039-3.105-.117-1.147-.078-2.117-.117-2.912-.117-.794 0-1.765.039-2.911.117-1.211.078-2.259.117-3.145.117-.209 0-.313-.183-.313-.547 0-.325.104-.501.313-.527 1.575-.183 2.647-.476 3.214-.88.566-.404.85-1.213.85-2.425v-18.399c0-.912-.114-1.555-.343-1.926-.228-.372-.628-.665-1.201-.88-.573-.216-1.413-.388-2.52-.518-.209 0-.313-.179-.313-.538 0-.358.104-.537.313-.537.886 0 1.934.039 3.145.117 1.146.079 2.117.118 2.911.118.795 0 1.765-.039 2.912-.118 1.198-.078 2.233-.117 3.105-.117.209 0 .314.179.314.537 0 .359-.105.538-.314.538-1.093.13-1.927.302-2.5.518-.573.215-.97.505-1.191.87-.223.365-.333 1.01-.333 1.936v18.399c0 .9.11 1.535.333 1.906.221.372.615.665 1.181.88s1.397.388 2.491.519c.221.026.333.202.333.527zm30.087-20.202c0 .247-.234.371-.704.371-.208 0-.339-.091-.39-.273-.56-1.837-1.362-3.136-2.404-3.898s-2.585-1.143-4.63-1.143h-1.836c-.638 0-1.075.104-1.309.312-.234.209-.352.6-.352 1.173v19.831c0 .899.114 1.533.342 1.904s.631.664 1.211.88c.579.215 1.41.388 2.491.518.208.026.313.202.313.527 0 .364-.105.547-.313.547-.873 0-1.915-.039-3.126-.117-1.149-.078-2.109-.117-2.881-.117-.799 0-1.779.039-2.941.117-1.212.078-2.254.117-3.126.117-.209 0-.312-.183-.312-.547 0-.325.103-.501.312-.527 1.575-.183 2.648-.476 3.214-.88.566-.403.85-1.211.85-2.422v-19.831c0-.573-.118-.964-.352-1.173-.234-.208-.678-.312-1.328-.312h-1.524c-1.837 0-3.504.465-5.002 1.397-1.498.931-2.475 2.139-2.931 3.624-.066.195-.208.293-.43.293-.442 0-.664-.143-.664-.43.73-1.966 1.42-4.194 2.071-6.681 1.773.364 5.827.547 12.163.547 6.504 0 10.643-.183 12.416-.547.182 1.693.573 3.939 1.172 6.74zm30.049-5.891c0 .359-.104.538-.312.538-1.641.208-2.742.511-3.302.909-.56.397-.84 1.203-.84 2.415v12.259c0 3.48-.84 6.208-2.518 8.182-1.679 1.975-4.047 2.962-7.105 2.962-3.487 0-6.207-.941-8.159-2.825s-2.928-4.448-2.928-7.694v-12.884c0-.9-.107-1.535-.322-1.907s-.609-.668-1.183-.889c-.573-.222-1.413-.398-2.52-.528-.208 0-.313-.179-.313-.538 0-.358.105-.537.313-.537.873 0 1.908.039 3.106.117 1.147.079 2.117.118 2.911.118.795 0 1.772-.039 2.931-.118 1.212-.078 2.254-.117 3.126-.117.209 0 .313.179.313.537 0 .359-.104.538-.313.538-1.106.13-1.947.303-2.52.518s-.974.508-1.202.88c-.227.371-.341 1.014-.341 1.926v12.338c0 3.207.605 5.559 1.817 7.058 1.211 1.499 3.184 2.249 5.92 2.249 5.144 0 7.717-3.259 7.717-9.777v-11.868c0-1.212-.29-2.024-.87-2.435-.58-.41-1.669-.707-3.272-.889-.209 0-.312-.179-.312-.538 0-.358.103-.537.311-.537.598 0 1.383.039 2.356.117 1 .079 1.81.118 2.434.118.623 0 1.404-.039 2.342-.118.964-.078 1.771-.117 2.423-.117.208 0 .312.179.312.537zm28.252 5.891c0 .247-.234.371-.704.371-.208 0-.339-.091-.391-.273-.559-1.837-1.361-3.136-2.403-3.898s-2.585-1.143-4.63-1.143h-1.837c-.637 0-1.074.104-1.308.312-.235.209-.352.6-.352 1.173v19.831c0 .899.113 1.533.342 1.904.228.371.631.664 1.211.88.579.215 1.41.388 2.491.518.208.026.313.202.313.527 0 .364-.105.547-.313.547-.873 0-1.915-.039-3.126-.117-1.149-.078-2.109-.117-2.882-.117-.799 0-1.778.039-2.94.117-1.212.078-2.254.117-3.126.117-.209 0-.313-.183-.313-.547 0-.325.104-.501.313-.527 1.575-.183 2.647-.476 3.214-.88.566-.403.849-1.211.849-2.422v-19.831c0-.573-.117-.964-.351-1.173-.235-.208-.678-.312-1.328-.312h-1.525c-1.837 0-3.504.465-5.002 1.397-1.498.931-2.474 2.139-2.93 3.624-.066.195-.208.293-.43.293-.442 0-.664-.143-.664-.43.729-1.966 1.42-4.194 2.071-6.681 1.773.364 5.826.547 12.162.547 6.505 0 10.644-.183 12.416-.547.183 1.693.574 3.939 1.173 6.74zm24.989 14.302c-1.055 2.254-1.915 4.402-2.579 6.447-4.911-.156-8.408-.234-10.492-.234-2.057 0-5.549.078-10.472.234-.209 0-.313-.183-.313-.547 0-.325.104-.501.313-.527 1.081-.131 1.908-.304 2.481-.519s.974-.505 1.202-.87.342-1.004.342-1.916v-18.399c0-.9-.108-1.535-.322-1.907-.215-.372-.61-.668-1.183-.889-.573-.222-1.413-.398-2.52-.528-.209 0-.313-.179-.313-.538 0-.358.104-.537.313-.537 3.283.157 6.643.235 10.082.235 3.464 0 6.831-.078 10.1-.235.3 2.019.736 4.012 1.31 5.979 0 .261-.229.39-.684.39-.222 0-.358-.09-.41-.273-.965-3.074-3.023-4.611-6.175-4.611h-3.946c-1.511 0-2.267.781-2.267 2.344v8.695h4.924c1.31 0 2.196-.3 2.662-.899.464-.599.788-1.661.972-3.184 0-.209.179-.314.537-.314s.538.105.538.314c0 .651-.039 1.471-.117 2.461-.078.951-.117 1.726-.117 2.325 0 .612.039 1.394.117 2.345.078 1.015.117 1.849.117 2.501 0 .208-.18.312-.538.312s-.537-.104-.537-.312c-.196-1.589-.54-2.704-1.031-3.341-.492-.639-1.359-.958-2.603-.958h-4.924v9.613c0 1.537.756 2.306 2.267 2.306h4.26c1.549 0 3.087-.505 4.61-1.515 1.524-1.009 2.644-2.27 3.36-3.78.052-.117.163-.176.332-.176.183 0 .346.049.49.146.142.098.214.218.214.362z" fill="#53565a"/><path d="m34.122 175.705 14.252-.642 14.252-.484 28.504-.957 28.504-.702c9.502-.233 19.003-.35 28.504-.531l14.253-.249 14.252-.158 28.503-.301 57.009-.223 57.008.235c19.002.23 38.004.317 57.007.709 9.501.181 19.002.292 28.504.531l28.504.701 28.504.951 14.252.482 14.252.638v.5l-228.031.249-228.033-.249zm456.065 164.048-14.252.641-14.252.485-28.504.957-28.504.702c-9.502.233-19.003.35-28.504.531l-14.252.249-14.252.158-28.504.301-57.008.223-57.008-.235c-19.002-.23-38.005-.317-57.008-.709-9.501-.181-19.003-.292-28.504-.531l-28.505-.701-28.503-.951-14.252-.483-14.252-.637v-.5l228.032-.249 228.032.249zm-188.8-309.664c0 1.395-.447 2.148-1.339 2.259-6.975.783-11.758 2.068-14.353 3.855-2.595 1.789-3.948 5.226-4.06 10.31l-1.841 98.654c0 1.115-.669 1.674-2.008 1.674-.67 0-1.563-.448-2.679-1.34l-86.288-97.502-1.171 77.416c-.056.447-.084.865-.084 1.255 0 4.241 1.339 7.24 4.018 8.997 2.678 1.758 7.503 3.055 14.479 3.892.891.113 1.338.866 1.338 2.26 0 1.561-.447 2.343-1.338 2.343-2.902 0-6.892-.167-11.969-.502-4.743-.335-8.398-.502-10.964-.502-2.79 0-6.556.167-11.298.502-4.576.335-8.119.502-10.629.502-.893 0-1.339-.782-1.339-2.343 0-1.394.502-2.147 1.506-2.26 6.918-.837 11.661-2.135 14.228-3.894 2.566-1.759 3.934-5.179 4.101-10.26l2.929-78.818v-.753c0-4.523-1.312-7.678-3.933-9.464-2.624-1.787-7.505-3.127-14.647-4.022-.782 0-1.171-.766-1.171-2.301 0-1.534.446-2.302 1.339-2.302 1.952 0 4.686.168 8.202.502 3.124.335 5.467.503 7.03.503 1.952 0 4.296-.168 7.03-.503 2.79-.334 5.189-.502 7.198-.502l80.596 90.138v-71.363c0-4.751-1.353-8.091-4.059-10.02-2.707-1.929-7.713-3.312-15.023-4.152-.893-.111-1.339-.864-1.339-2.259 0-1.562.446-2.344 1.339-2.344 3.012 0 7.03.168 12.053.502 4.686.335 8.312.503 10.88.503 2.789 0 6.555-.168 11.298-.503 4.575-.334 8.119-.502 10.629-.502.892 0 1.339.782 1.339 2.344zm131.062 56.66c0 17.185-5.747 31.05-17.241 41.595-11.495 10.545-27.034 15.818-46.618 15.818-2.456 0-7.421-.112-14.897-.335-7.699-.223-12.834-.334-15.4-.334-10.377 0-20.477.222-30.296.669-.894 0-1.339-.782-1.339-2.343 0-1.394.445-2.147 1.339-2.26 4.63-.558 8.172-1.299 10.628-2.219 2.456-.921 4.17-2.163 5.148-3.727.976-1.564 1.465-4.3 1.465-8.208v-78.482c0-3.853-.461-6.575-1.382-8.167-.92-1.591-2.608-2.861-5.063-3.811-2.456-.949-6.054-1.702-10.796-2.262-.894 0-1.339-.766-1.339-2.301 0-1.534.445-2.302 1.339-2.302 6.528.447 16.626.67 30.296.67 2.566 0 7.701-.084 15.4-.251 7.476-.168 12.441-.252 14.897-.252 19.082 0 34.495 5.455 46.242 16.363 11.744 10.908 17.617 24.955 17.617 42.139zm-18.413.001c0-15.2-4.339-27.844-13.014-37.931-8.677-10.088-19.543-15.131-32.599-15.131h-.502l-15.734.334c-6.585.225-9.876 3.465-9.876 9.724v84.917c0 6.371 3.291 9.555 9.876 9.555l15.734.504c13 0 23.936-4.959 32.808-14.879 8.871-9.919 13.307-22.283 13.307-37.093zm77.583 55.069c0 1.561-.448 2.343-1.34 2.343-3.738 0-8.174-.167-13.307-.502-4.91-.335-9.067-.502-12.471-.502-3.403 0-7.56.167-12.469.502-5.19.335-9.682.502-13.475.502-.893 0-1.34-.782-1.34-2.343 0-1.394.447-2.147 1.34-2.26 6.75-.782 11.34-2.037 13.768-3.769 2.426-1.731 3.64-5.193 3.64-10.385v-78.818c0-3.908-.489-6.658-1.465-8.249-.976-1.592-2.692-2.849-5.147-3.77-2.456-.921-6.055-1.661-10.796-2.22-.893 0-1.34-.766-1.34-2.301 0-1.534.447-2.302 1.34-2.302 3.793 0 8.285.168 13.475.502 4.909.335 9.066.503 12.469.503 3.404 0 7.561-.168 12.471-.503 5.133-.334 9.569-.502 13.307-.502.892 0 1.34.768 1.34 2.302 0 1.535-.448 2.301-1.34 2.301-4.687.559-8.258 1.299-10.712 2.22-2.456.921-4.157 2.164-5.106 3.728s-1.422 4.327-1.422 8.291v78.818c0 3.852.473 6.575 1.422 8.166.949 1.592 2.636 2.848 5.064 3.769 2.427.92 5.983 1.661 10.671 2.219.948.113 1.423.866 1.423 2.26z" fill="#003057"/><path d="m47.127 147.645-.135.101-.442-.203.204-.168zm0 0v-.305l.372.271zm102.729-77.784.101.169.135-.135.102.272.171.27v.373l.033.407.102.407-.102.373-.204.033-.066-.304-.102-.305.034-.272-.069-.305-.168-.169.066.271-.134.102-.17-.306.102-.339.034-.338zm0 0-.101-.305.101-.236.033-.307.068-.372v-.406l.135-.136.206-.238.135-.236.135-.239.169.103.033-.203-.101-.34v-.338l-.034-.373-.067-.34.033-.305.068.374.068.236.101-.338.069-.272.034-.304-.034-.374.034-.304-.103-.44-.033-.408-.068-.339-.169-.407-.101-.304-.102-.272-.067-.474.135.103.1-.103-.066-.204-.102.102-.067-.27.169-.034.101.27.134.305.205.237.169.34.136.474.033.339.137.339-.103.101.034.238.136.339.134.475.035.237.136.473.135.273-.032.271.066.271-.066.338-.136-.474.033.271-.136.102.103.576-.17-.339v.542l-.204.205-.236-.171.033.305.135.17-.034.473v.475l-.101.035-.17-.271-.101-.305v-.373l-.171.136-.101.032-.101.34-.102.17-.1.271-.137.204-.033.338-.137.067zm-48.671-37.418-.236.644-.577.136.135-.712zm.509-1.152-.134-.474.271-.611.678.711-.272.409zm-.509 1.152-.236-.711.745-.441.441.814-.136.305zm46.4 69.955v.27l-.168.035h-.34l-.237.271h-.17l-.203.136-.203.069-.204.067-.17-.035-.169.035-.238.135-.168.135-.238.103-.17-.068-.237.1-.203.07.033-.205h-.237l-.203.035.136-.27.136-.374.236-.034.17-.205.135-.034.204.034.204-.034.1.205.169-.068.205-.103.203-.065.169-.104.137-.406.203.035.203-.035.203-.067.103.102.033.236.204-.033.204-.203.203-.068zm0 0 .339-.305.137.035-.206.406-.101-.136zm1.863-1.017-.202.203-.17.172-.169.169-.135.203-.205.168-.237.068-.167.104.033-.34.167-.203h.172l.237-.169.135-.035-.069-.204.238-.068.203-.136zm.985-.677.202-.44.238-.101-.204.304zm-.985.677.171-.27.204-.236.168-.034h.137l.203-.171.102.034-.135.202-.17.103-.171.169-.169.068-.169.135zm-5.116-.441.102.137-.136.372v.746l-.068.408-.034.336-.17-.066-.203.101-.067.171h-.136l-.169-.238-.204-.104-.305-.169-.168-.166-.069-.172-.204-.101-.169-.27-.204-.237-.033-.239-.137-.304-.032-.239-.204-.169-.068-.168-.27-.034-.069-.406-.102-.273v-.202l-.237-.103-.237-.065-.101-.272-.205-.171-.134-.203h-.171l-.237-.203-.203-.171-.134-.237-.069-.304.306-.103.203.103.271-.103.305-.1.203.136.1.203.171.203.204.102.236.067.238.101.134.24.206.235.235-.169.204.203.238-.034.203.205.169-.036-.034.34.17-.102.204.171-.034.304-.136.305.17.136.237-.136.068.407.135.067.068.236.237-.101zm0 0 .033-.303-.102-.102-.237.068.137-.271.202-.169.102.27.068.204h.135l-.034.338zm13.93-11.624-.068.034-.069-.103-.101-.101c.101.101.17.101.17.101zm0 0 .102.067v.237l-.035.373-.034-.339zm-34.237-53.51.829.62.122-.402.178-.285.507-.009.341-.234.405.554.531-.046.555-.243.218-.328-.468-.323-.323-.443.403-.312 1.246-.142.806.386.461.653.276.631.645.463.606.316.347.015-.174-.523-.734-1.069.612.314.346.024-.144-.394.06-.26.329.038.257-.45.354-.207-.942-.699-.205-.368.229-.263-.452-.291.975-.573.505-.016.224-.319.363-.066.565.509.354.148.112-.181.37.107.352.358.042-.301.121-.214-.033-.465.46-.385.334.088.466.364.383.535.35.012.129-.326.051-.444.193-.266.252-.105-.523-.84.229-.079.236.296-.044.193.335.31.22-.041.339.275-.04-.257-.224-.368-1.032-.9.395-.6.029-.312.454-.12.338.032 3.649 3.721.308.647-.082.187.336.376.011-.188 1.293 1.177.307.522-.193-.03-.013.271 1.28 3.323.318.516-.454-.239-.105.146.423 1.227-.388-.52.226.779-.151-.007.036.341.504.842.434.976.264.322-.053-.264.202.079.447.842.135.042.302.393.059.243-.183-.114.05.264.202.44.551.66.089.31-.089.056.01.326.123.405.473.776-.083.185.101.424.487 1.135.198.934-2.323-3.347-.812-1.525-.016-.308-.204-.446-.216-.256.077-.157-.064-.398-.365-1.078-.806-1.948-.148-.748-.949-1.422-.132-.383-.148-.079.029.422.573.837.001.235.495 1.397-.491-.534-.358-.654.034.346-.187-.002-.031.674.568 1.521.491 1.03.139-.078.2.145-.097.352-.144.077.024.614-.096.155-.189-.167-.073-.366-.207-.153-.019.195-.359.074-.023.197.234.416-.155.082-.07.245-.254.063.057.361-.161-.077-.339.439-.134.3.73 3.776.171 1.516-.043.397.145.208.232-.009.133-.247.413.745-.115-.468.087-.212.206.371.087.369.121-.361-.119-.576.142-.156.221-.009.143.201.465.177.346.783.168.158.358 1.2.683 1.337.304.846.188 1.578.299 1.407.031 1.531.14.899-.123.774-.12.291-.275-.012-.107-.265-.154.143.055.674-.09.08.062.311-.11.267.013.523.244.568-.184.937-.196.418.118.157.043.299.427.227.569.674.448 1.078.102.711-.111.329-.337.52-.1.394-.303-.688.026-.419-.458-.744.154-.206-.157-.278-.234-.132-.207.242-.283-.176-.149-1.198-.524-.006-.158.208-.252.519-.018.339-.209.478.055-.442-.198-.185.046-.935-.226-.257-.236.094-.062.79-.214.563.013.56-.176.2-.186-.032.032.617.198.181.436.179.128.299.203.096.141-.099.069-.522.125-.25.173.116.496-.215.046.448-.149-.048-.281.601.046.354-.199.686v.689l.501.099.565 1.168.35.188.139.268-.194.143.276.166.093.223-.123.16-.116.449-.153.186.144.039.178-.206h.295l.098.651-.085.061.032.401.071.157-.009.222-.116.082-.122 1.344-.128.021.116.534-.14 1.248-.173.12.047.235-.444 1.227-.151.297-.535.477-.073.374-.239-.174-.001.387-.2-.13.029.373-.917 1.129-.029.274.145.228-.08.179-.134.078-.174-.407-.012-.309-.137.074-.193-.073-.202.115-.505.792-.37 1.019-.047.71.198.326.206.132.065.209.387.397.442.298.376.388.289.968.098 1.355-.047.261-.667 1.075-.245.135.03.386-.12.351-.212.173-.322.63-.093-.236.026-.696-.222.005-.128-.169-.254.134-.196-.124-.36-.625-.157-.033-.209-.186-.413.147-.039-.394-.233.005-.18.202.043.856-.245 1.386.128.679.222-.167.068.424.163.145.19.635.16.091.265-.079.161.199.581.37.16.245.039 1.295.3.44.079.338-.327.171-.558-.201-.379-.239-.045-.306-.354-.425.024-.339-.118-.162-.066-.634-.13-.324-.703-.725-.108.166-.115-.568.093-.44-.054-.721.096-.274-.022-.279-.142-.277.079-.445-.527-1.333-.271-1.002-.191-.213-.168-.04-.048.262-.521.84-.361.1-.256-.068.074-.809-.341-1.057-.159.069-.157-.241.055-.207-.156-.24-.161.072-.592-.61-.333-.797-.204-.228-.471.888-.911.621-.143-.378-.047.268-.429.415-.053.27.076.219-.22.696-.446.358-.419.945-1.009 1.514-.017.299-.113.221-.431.27-.062.32-.315.05-.124.633.232 1.14-.011.408-.227.709.113.987-.269.094-.162.392.02.329-.444.379-.072.412-.217.244-.241-.033-.391-.375-.452-1.324-.522-.691-.433-1.31-.431-.569-.287-.559-.435-1.475.069-.26-.241-.47.007-.792-.257-.533.007-.372-.148-.017-.058.751-.205.312-.271.2-.332.099-.302-.099-.271-.228-.216-.182-.186-.316.334-.095.272-.2.052-.384-.319.208-.331.097-.314-.157-.227-.246-.563-.156-.219-.568-.39-.329-.297.012-.798.398-.509-.055-.18.173-.965.366-1.309.131-1.437.014-.228-.644-.233-.202-.305.066-.862.63-.271-.129-.303.122-.23-.204-.314.004-.566-.398-.426-.043-.331-.639-.56-.735-.236-.213-.24.176-.457-.309-.283.774-.35.193.271.08.535.992.868.728.135.291-.017.315.358.43.177-.342.02-.323.148-.094.181.221.09.358-.015.374-.172.406.262-.05.118.163.366-.009.192-.228.671-.073.254-.118.12-.339.87-1.127.07-.264.159.024.061.993.561.436.322.114.672.033.415.517.272.122-.229.786-.184.227-.253.605-.256.055-.122.331-.021.366.129.271-.496.294-.19.216-.074.371-.145.157-.552.296-.077.367-.246.232h-.264l-.305.121-.603.421-.305.233-.09.257.016.228-1.599.891-.31.232-.193.327-.314.174-.324.058-.457.484-.322.114-.596.044-.151.26-.319.167-.644.222-.275-.013-.231-.302.04-.351-.12-.154-.257-.769-.069-.334.036-.297-.251-.597-.237-.32-.227-.141-.735-1.247-.294-.258-.442-.053-.358-.423-.158-.705.041-.248-.081-.357-.43-.672-.628-.341-.327-.699-1.398-1.829-.332.043.158-.789-.029-.383-.203.475-.101.44v.339l-.136.135-.305-.202-.237-.238-.102-.237-.204-.237-.168-.373-.137-.307-.169.172.203.27.069.339.168.273.272.304.203.236.102.305.169.237.069.306.27.339.101.306.204.338.204.269.17.375.237.204-.034.306.067.235.203.339.204.171.304.135.238.102v.408l.237.269.035.239-.035.371.068.406.068.271.203.407.339.137.339.238.17.27.203.34.067.373.068.338.17.271.237.033.17.306.407.135.306.067.303.272.338.237.239.271.271.239.304.236.103.304-.306.238.203.134.238.171.237.271.204.136h.338l.305-.17.34-.237h.372l.305-.136.373-.27.373-.069.338-.169h.306l.373-.203.374-.17.236-.339.372.034-.034.509-.034.407-.136.305v.407l-.168.371-.169.305-.136.272-.102.338-.17.307-.134.37-.103.273-.1.406-.274.272-.202.27-.136.339-.169.308-.271.336-.204.239-.27.337-.204.306-.271.239-.271.27-.338.169-.271.272-.272.304-.272.203-.27.272-.17.27-.305.338-.237.342-.205.27-.166.339-.274.238-.304.302h-.272v.376l-.203.405-.236.407-.171.272-.17.339-.135.338-.101.341.271.27.272.27-.17.341v.372l.033.407.137.337.102.305.236.104.204.168v.304l-.102.95.067-.304-.034.237-.067.372.101.34v.339l.068.338-.068.306-.169.269-.236.308-.239.236-.338.303-.239.238-.438.104-.272.134-.339.17-.238.273-.236.304-.272.337-.304.136-.238.27-.204.205-.305.236-.067.306.204.171.067.338.101.406.102.235-.033.341-.069.272v.306l-.168.304-.238.167-.34.172-.44.202-.238.136-.338.136-.238.373.205.069v.204l-.035.27-.136.304-.134.373-.136.307-.306.201-.338.238-.169.273-.271.269-.171.303-.203.274-.305.303-.272.203-.236.238-.306.271-.237.238-.27.169-.409.238-.305.236-.303.069-.407.034-.17.17-.441.067-.237.17-.304-.035-.374-.065-.304.133-.373-.033-.374.1-.238.136-.44.034-.373.101-.235.171-.409.033-.237-.204-.271-.169-.237.101.034-.236-.102-.237-.272-.34h.171l.169-.17-.033-.337-.205-.341-.203-.234-.135-.238-.101-.339-.171-.27-.067-.341-.238-.236-.305-.169-.169-.24-.203-.202-.068-.304-.101-.34-.103-.27-.032-.271v-.305l-.138-.34-.066-.238.033-.305-.067-.338.067-.272-.101-.236-.271-.237-.102-.271-.238-.238-.101-.338-.237-.305-.171-.273-.133-.272-.239-.17-.169-.372-.067-.305.034-.236.033-.306.034-.305.17-.303.067-.34.101-.304.136-.373.102-.34.238-.273.304-.168.17-.271.136-.271.068-.34-.068-.372-.17-.205-.17-.235-.102-.305-.135-.172.306-.303-.104-.308-.202-.27-.033-.302-.169-.306-.171-.203-.067-.237-.102-.17v-.272l-.17-.235-.236-.273-.168-.238-.24-.202-.236-.202-.237-.206-.34-.203-.237-.303-.237-.274-.137-.305-.169-.304.34-.236.068-.306v-.34l.169-.272-.237-.099.203-.27.1-.274.069-.373.101-.406-.236-.237-.169-.274-.307-.033-.034-.338h-.304l-.304.068h-.339l-.34.068-.373.068h-.338l-.407-.204-.136-.441-.17-.44-.338-.235-.373-.138-.406.035-.406.033-.341.034-.37.036-.409.134-.17.205h-.473l-.407.236-.306.135-.271.067-.372.104-.272.168-.406-.168-.373-.068-.509-.103h-.372l-.271.035-.441.068-.406.033-.272.203-.406.033-.374.238-.272-.068-.371-.136-.408-.27-.338-.237-.305-.239-.339-.336-.475-.239-.272-.27-.372-.203-.339-.17-.338-.34-.137-.306-.033-.272-.068-.336-.236-.272-.272-.305-.306-.169-.168-.308-.204-.302-.305-.137-.033-.44-.306.034-.271-.17-.304-.202v-.407l.067-.338-.035-.374-.168-.373-.306-.203.306-.136.168-.27.238-.273.034-.474.102-.337.136-.341.068-.371v-.342l-.103-.371-.237-.373.237-.203v-.374l-.271-.303-.271-.271.067-.341.068-.371.239-.172.168-.303.204-.475.17-.271.236-.304.306-.306.168-.407.136-.305.102-.373.17-.169.372-.169.17-.239.135-.37.237-.341.51-.032.439-.171.238-.305.406-.17.272-.305.236-.304.204-.475-.168-.237v-.68l.236-.169.169-.338v-.237l.306-.272.237-.338.34-.169.373-.136.405-.237.17-.339.169-.34.136-.339.17-.406.339-.067.17.27.44.305.27-.067h.442l.27-.068.406.203.306-.068.475-.203.169-.271.305-.068.34-.066.338-.272.34-.203.506-.069.442-.067.305-.136h.339l.271-.102h.408l.371.068.238.135.339-.067.271-.203.474.101.305-.135.475.135.34-.101.269-.204.34-.068.339.033.169.408.442-.203-.171.339-.203.136.102.475.238.134.068.339-.171.339-.271.304-.203.205.067.305.272.135.272-.068.135.338.407.17.339.102h.441l.506.035.374.032.407.204.405.102v.407l.171.168.338.169.407.069.577.069.441.237.338.237.338.034.272-.136.239-.203.1-.34-.1-.338-.102-.238.135-.27.372-.373.373-.137.407-.101.44.034.374.102.102.304.371.034.409.102.371-.033.203.304.374-.101.372.033.406.034.271.103.339.101.374-.034.407.136.338-.102.305-.238.374-.236.373-.103h.44l-.034.272.271.101.102-.27.204.169.372-.101.509-.137.367-.689.386-1.715.184-.363-.15-.93.079-.287-.135-.26.187-.3-.076-.201-.288.32-.209.028-.449-.151-.532.618-.267.03-.25.175-.337-.102-.184-.253-.499-.151-.383-.022-.076.35-.466.259-.334-.101-.458-.298-.378.041.087-.214-.643.066.194-.302-.286-.176.029-.282-.614-.226.031-.281.231.19.156-.087-.124-.196-.094-.487.092-.223-.532.123.066-.506.265-.311 1.52-.154-.068-.21.305-.102-.394-.247-.893.161-.47.552-.022.002-.243.309-.02-.214.244-.311-.31.105-.243-.27-.961.02-.147.229-.319.027.179.204-.09.219-.325.029-.348-.335-.02.505.48.602.129.272.511.31.071.272.282.115-.389-.106.036.487-.346-.248-.383-.04-.235-.26-.418.093.299.12.338.169.236.407-.338-.034.135.339.203.441-.304-.238-.204.306-.168-.272h-.273l-.136-.17.035-.372-.339-.238.136-.304.281-.141-.461-.027-.293-.33-.665-1.017-.279-.196.021-1.3-1.062-.657-.902-.68-.377-.054-.171-.212-.384-.203-.017-.297-.171-.218-.077-.376-.439-.279-.039.304-.206.16-.17-.214-.067-.299.094-.234-.321-.065-.309.245-.265.012-.041.307.172.22-.091.304.062.296.281.287.611.421.176.356.072.367.175.212.723.4.539-.033-.148.3 1.393.709.348.338-.094.291-.223-.061-.067-.28-.607-.174-.148.295-.088.431.336.193.021.355-.319.16.016.349-.305.439-.222.013.085-.567.155-.219-.326-.973-.441-.118-.182-.351-.219-.058-.562-.477-.436.022-.334-.205-.623-.699-.325.013-.065-.293-.336-.354-.173-.364-.072-.444-.919-.266-.264.157-.151.302-.746.393-.264.3-.378.08-.383-.212-.812-.209-.641.449.117.957-.702.513-.714.293-.871 1.283.052.355.333.28-.385.28-.222.281-.114.346-.332-.004-.555.759-1.168-.014-.387.064-.338.132-.339.337-.329-.142-.325-.628-.324-.216-.28-.007-.278.13-.331-.075-.392.052.124-.338.076-.835-.272-.01-.16-.285.066-.424.225-.277.262-1.281-.145-.727.068-.365-.255-.523.166-.213.378-.064.226-.36.482.232.918-.056.912.244.545-.141.915.156.323-.067.161-.225.114-.522.168-1.433-.158-.385-.321-.234-.157-.226.056-.237-.365-.467-.424-.085-.368-.234-.316-.004-.263-.167-.04-.473 1.104-.298.208.316.786-.075-.097-.551-.205-.481.364.004.154.396.314-.075.367.075.103-.395.835-.406.152-.732 1.127-.584.454-.671.241-.749.202-.091.011.499.261.168.251-.257-.006-.252-.259-.076-.012-.422.35-.176.562-.014.195-.262.406-.01.31.159.036-.341.245-.265-.213-.247.194-.183-.215-.337-.019-.52-.312-.248-.086-.969.086-.363.238-.27.44-.108.226-.367.389-.102-.092 1.168.346-.01.019.351-.387.19-.402 1.061.359.249.011.255.566.238-.084.345.355-.015.531-.445.395-.108.238-.265.223.332-.241.184.668.22.488-.28.494-.118.372-.362.976-.325.242.508.349-.026.282-.196.113-.437.421-.295.146-.534-.163-1.143.297-.92.423-.128.319.244.233.345.351.056.257-.287-.128-1.085-.342-.064-.198-.44-.057-.463.346-.306.969-.283.543.143.608-.063.606-.726.588.121-.305-.437-.359.13-.484-.422-.651.067-1.465.707-.506.142-.539-.151-.769-.507-.044-.379.122-.589-.299-.568-.111-.578.157-.608 1.154-1.716.227-.637.325-.237-.091-.624-.503-.376-.333.133-.353.029-.408-.067-.168.433-.285.238.085.301-.22.431.397.281-.313.434-.13.421-.42.331-.702.753-.469.92-.033 1.168.092.477.825.706.177.366-.115.289-.306.305.206.171-.807.701-.132 2.004-.197.636-.741.041-.266.45.075.344-.749.038-.023-.347-.222-.427.124-.36-.369-.43-.689-1.692-.176-.641-.306-.268-.176.378-.289.007-.692.855-.477.287-.49-.08-.5-.265-.25-.267.037-.462.277-.377-.432.099-.107-.369.185-.379-.303-.467-.168-.948.227-.39-.2-.389.773-.797.357-.504.557-.11.465-.917.335.294.585-1.037.316-.734.426-.431.713-2.264.392-.555.123-.556.538-.691-1.093.282-.527.463.345-.569.666-.257-.332-.32.437-.357.38-.479-.059.687.303-.357.089.443.419-.476-.308-.088-.048-.453.518-.268.335-.712.62-.042.627-.279.327-.614.432-.385.502.306.206-.492.36-.269.102.821.404-.509.223.562.293-.859.684.174 1.143.583-.477.518-.629-.053.696.398.639.049.356-.281.536.174.096.449.712.022.699.138.649.259 2.309 1.353.299.511.158.631-.229.47-.469.396-.57.188-.596-.132-1.017-.075-.574-.254-.636-.13-.553-.376.425.601 1.107.726.349 1.745.628.229.629.434.652-.092-.128-.597-.39.052-.496-.452.129-.445.45.047 1.015.379.62.006-.77-1.04.326-.474.431-.391.228-.469.526.029.429.145.176-.464-.166-.634-.387-.155-.009-.664-.205-.753-.589-.475.663.126.555-.094.371.271.355.503-.534.203-.134.585.503.132.363.384.488-.087.31-.39-.217-.74.789-.718.291-.393.435-.317.627-.827.263.645.528.348.008-.462.417-.21.532.001.258-.522.329-.319.28.755.378.031-.16-.435.257-.175.133-.388-.741-.767-.564-.23-.387-.277.046-.492.689.444.87.28.582-.03.645.313.474-.007.528.221.558.095.466.343.49.212-.058-.692-.456-.232-.491-.583-.482-.108-.188-.437-.066-.597-.454-.5-.179-.572.305-.588-.069-.636-.259-.706-.114-1.29.296-.357.433.411.042.384.756.176.233.455.171 1.255.598.453 1.251 2.722.655.405.065.575.231.513-.052.602-.105.493-.405.575.683.368.522-.948-.014-.575.117-.624-.47-.683-.257-.635.223-.435-.695.1-.454-.718-.243-.673-.064-.6-.469-.492-.481-.358-.107-.742.239-.343-.04-.513-.271-.445-.53-.238.01-.262.62.34.455.652.132.618.34.666 1.45.041-.362-.261-.718-.157-.48-.5.199-.325.493.234.099-.303-.742-.284.098-.435.464.247.372-.124.588.2.676.419.34-.375-.561-.471-.611-.053-.39-.688-.634-.731 1.071-.665.373-.432.527-.341-.535-.515-.275-.476.063-1.213.691-1.056-.016-.621.452-.198.389-.662.269.528.603-.62-.484-.417.559-.275-.582-.724-.091-1.501.928.207-.066.733.454-.244.48-.098.329.866.364-.203-.215-.402.353-.206.496-.111.506.045.667.292.581.515.538.693.235 2.81-.156.397.227.647.305-.17.376-.837-.436-.221-.083-.432.836.147.26-.16zm0 0-.592-.13-.053-.296.413-.085zm-86.591 111.975-.441-.238-.543-.372.34.169.44.305zm.492.328-.492-.328.508.337zm.198.132-.556-.324-.778-.476-.577-.371-.575-.407-.17-.135.474.337.643.441.713.44.628.363zm97.597-10.819.477-.453-.34.338zm-.808.765.37-.37.371-.34.067-.055zm-.41.362.372-.326.038-.036-.105.105-.305.27zm-96.337 9.716.386.195.237.103-.34-.206.51.272.542.305.644.339-.102-.067-.949-.543-.135-.137-.51-.304-.237-.171.542.306.137.035-.61-.374-.239-.101-.812-.509.271.102.237.202.51.24.744.44-.101-.104.474.308.304.236.374.171-.204-.171-.305-.236-.643-.342-.679-.404-.644-.409-.643-.371.237.068.678.405.27.068.644.375.306.236.678.341.712.371.711.339.611.237.576.237.677.304.271.068.408.101.677.308.712.27.543.272-.375-.272-.067-.17.712.273.712.338.509.203.169.236.509.137.507.135.476.067.507.101.238-.033-.136-.237-.306-.271-.405-.272-.34-.336-.508-.341-.474-.337-.305-.341.474.137.102-.137-.407-.203.034-.169-.238-.236-.44-.272-.169-.205-.271.069-.34-.102-.237-.269.069-.171.237-.035.305.272.237.034.441.271-.238-.305.271-.033-.305-.273.203-.101.272-.137-.17-.235.475.168v-.237l.407.069-.068-.239.135-.068.543.033.305-.066.339-.036.372.036.34.236-.305-.066-.306.066.441.104.17.338-.442-.137-.372-.27.067.27-.406-.168-.238.103-.27.099-.136.203.067.172.069.203.033.202-.474-.236-.136.067.374.307-.475-.102-.068.169.169.272.407.236-.101.1.439.306.509.135.61.307.44.372.408.339.441.305.135.17.407.203.305.27-.102.171.542.27.102.17.712.303.034.137-.476-.066.407.236.509.339-.17.1.272.205-.441-.068.372.271.035.169-.338.034-.272.068.982.339.848.168.914.238.984.273.847.305 1.119.34.982.302 1.052.306.779.203 1.424.272 1.118.201.882.103.609-.067.271-.135.509-.067.542-.069.544-.068.575-.066.44-.137.271-.137.78-.1v-.239l.508-.134.678-.102.543-.103.678-.135.575-.102.746-.033.542-.033.509-.103.44-.136.068-.17-.441-.135-.136-.203h.341l.271.169.203-.169.338-.101.407.101.169.135.102.203.575-.068-.202-.135.17-.17-.203-.133.406-.033h.508v.132l-.067.17.745.034.745-.034-.033-.302-.171-.138.408-.101.441.101.338.138-.271.166.442.136.305.136.678-.136.643-.17.442-.202.574-.134h.848l.508-.136.678-.035.645.035.677-.068.678-.035h.813l.679-.034.643-.034.678-.067.78.033h.711l.712.034.847-.17.373-.168.813-.068.713-.204.847-.135.712-.203.371-.101.714-.068.067-.272.169-.203.441-.102.237.137.338.168.441.035.61-.035v.237l.442-.273.304-.132.135-.171.171-.203.746-.305.441-.237.778-.272.578-.167.744-.105.543-.201.508-.035.27-.171.374-.099.101.204.407-.204.068-.307.339-.339.575-.236.442-.27.745-.17.712-.101.237.101.509-.036-.135.171-.407.134.238.035.44-.069h.373v.171l.677-.271.339.068.406-.068.543-.236.543-.103.508-.033.541-.104.408-.136.474-.202-.271.306-.035.203v.17l-.507.235-.102.205-.305.305.102.17.44-.17-.066-.137.744-.373.576-.235.373-.07.271-.031.476-.307.609-.339.372-.133.51-.409.406-.271.746-.373.576-.272.644-.439.543-.271.642-.305.612-.306.609-.305.272-.068.44-.169.542-.273.474-.27.305-.102.373-.168.406-.204.272-.068.441-.272h.135l.407-.237.239-.101.337-.203.238-.134.475-.377.576-.37.372-.17.235-.069.205-.033h.137l.27-.135h.137l.337-.27.171-.102.305-.237.235-.239.409-.304.371-.238.341-.238.068.034.033.035.17-.069.134-.033.307-.168.337-.273.441-.338.441-.373-.033.067.236-.168.339-.305.17-.137.407-.374.135-.1-.034.066-.101.103v.021l-2.373 2.081-2.645 2.167-2.542 1.9-2.472 1.696-2.339 1.524-2.271 1.322-2.17 1.219-2.1 1.053-1.967.948-1.931.847-1.832.781-1.795.676-1.694.609-1.662.578-1.592.474-1.525.441-1.492.407-1.457.372-1.425.338-1.388.271-1.324.272-1.319.238-1.29.203-1.287.17-1.254.168-1.22.137-1.22.1-1.186.104-1.187.065-1.187.07-1.186.033-1.153.032h-2.338l-1.185-.032-1.153-.033-1.186-.07-1.186-.065-1.221-.104-1.22-.1-1.219-.137-1.255-.168-1.254-.17-1.287-.203-1.323-.238-1.356-.272-1.355-.271-1.422-.338-1.459-.372-1.491-.407-1.559-.441-1.592-.474-1.628-.578-1.728-.609-1.763-.676-1.831-.781-1.931-.847-2.001-.948-2.067-1.053-2.169-1.219zm-.042-.024.042.024-.022-.011zm49.287-146.667c-.022-.027.022-.052.218-.073zm0 0c.039.051.328.118.325.217l.452.101-1.212.093.383-.251c-.075-.041-.303-.012-.416.002zm-1.076.088c-.394-.197-2.094-.248-.833-.391-.801-.183-.871.228-1.785.075.073-.112.565-.244.334-.359.346.097.08.188.576.212l.112-.169c.93.132 1.377.354 1.596.632zm0 0c.057.027.087.057.076.09-.017-.032-.052-.059-.076-.09zm-15.833-.488c.13-.048.263-.089.394-.122zm-.877.591c.029.033.028.068-.006.103-.007-.034-.005-.068.006-.103zm-6.561 1.374c.165-.129.268-.324.438-.476-.867-.104-.29.35-1.261.304.352-.279 1.26-.58 1.156-.806l.062.082.892-.229c-.214.093-.127.11-.235.157 1.097-.045 1.841-.837 2.856-.591l-.108.042c.766-.086 1.341-.147 2.104-.425l.531.287 1.003-.31c-.428.157-.809.382-.877.591-.104-.122-.607-.217-1.278-.178-.397.305-2.164.142-1.542.436-1.107.287-.084-.021-.78-.117-1.038.106-.981.462-1.615.739-.064-.081.088-.257-.505-.107-.216.189-.322.362-.841.601zm0 0c-.079.062-.168.112-.29.133.121-.049.198-.09.29-.133zm-37.104 20.336c-.16.351-.226.53-.279.821l.359-.33-.559.775c-.322-.125.033-.713.479-1.266zm.327-.386.237-.258c-.035.228-.126.224-.237.258zm-.327.386.057-.123c.091-.193.188-.239.27-.263zm-13.09 13.095c.066-.11.134-.221.224-.341-.05.113-.146.339-.214.377zm.756-.839c-.052.099-.113.203-.189.311zm.304-1.21c.017-.105.039-.206.077-.31.125-.064-.015.156-.077.31zm-.017.111c-.009-.023-.002-.061.017-.111zm4.422-5.763c.017-.025.04-.054.072-.087zm11.629-11.028c.004-.026.011-.052.008-.082.043-.011.028.026-.008.082zm-.185.284c.033-.072.13-.197.185-.284-.015.107-.081.201-.185.284zm22.497-12.728c-.108-.003-.139-.032.171-.202zm.072 0-.12.056.048-.056zm9.115-2.845c-.013-.055.146-.128.701-.214zm-25.324 11.477c-.089.059-.195.118-.322.179.124-.074.231-.132.322-.179zm-5.142 4.782c.052-.023.108-.043.167-.05-.081.039-.132.052-.167.05zm-2.275 1.181-.409.557c.106-.199.252-.382.409-.557zm-1.269 1.078c.088-.09.132-.126.028-.02zm.402.2c.09-.059.209-.115.375-.165-.178.109-.288.146-.375.165zm-6.113 5.361c.013-.03.029-.062.049-.093-.017.033-.033.064-.049.093zm2.102-2.171c.142-.185.314-.376.545-.567-.175.197-.36.383-.545.567zm-6.847 9.198c-.032.017-.064.031-.097.043.044-.03.075-.043.097-.043zm4.435-5.72c-.014.256-.212.49-.038.487-.114.075-.19.117-.238.133l-.263.395-.305.509-.203.507-.305.542-.306.509-.339.474.034.306-.102.475-.338.574-.305.645-.271.069-.271.202-.067-.271-.406.474-.306.169-.339.34.102-.374.167-.38c-.579.673-.17-.068-.336-.065.385-.204.659-.75.963-1.317h-.048l.066-.236.34-.474.373-.408-.306.103-.27.439-.406.373-.103.034.779-.881 1.797-1.829.926-.898c-.092-.024.22-.409.324-.626zm-3.826 5.217.339-.44.095-.263c-.168.243-.321.487-.434.703zm3.81-5.354c.052.008.055.057.016.137.003-.046-.003-.092-.016-.137zm-4.117 2.979c-.221-.022.026-.571.071-.745l.965-1.166c-.052.079-.032.118.022.097.718-.863 1.091-1.578 2.209-2.549-.326.52-.082.668.456-.005l.171-.618c1.127-.879 2.171-2.698 3.002-2.86-.655.477-.362.541-.601.87 1.05-1.223 1.235-1.016 2.307-2.357-.226.291.153.193.454.037-.084-.37 1.167-1.601 1.899-2.452.249-.076.141.305.605-.042.526-.506-.022-.135.028-.358.253-.168.655-.316.892-.507-.03.066-.008.09.159-.006.013-1.068 2.747-2.121 3.759-3.422.1.185-1.112 1.073-.751 1.203.217-.403 1.628-1.043 1.183-1.224 1.213-.943 2.714-2.229 3.583-2.221-.189-.451 1.607-1.194 2.479-1.896-.177.631.867-.44 1.394-.621l-.444.449c1.916-1.216 4.252-2.435 6.329-3.201-.376.274-.302.406.239.198.282-.205.123-.337.234-.542h.606c-.497-.205.926-.47 1.146-.799.465-.196 1.322-.106 2.077-.477l-.098.063c-.032.199.543-.108.898-.158.055-.088-.096-.078-.224-.074 2.911-1.439 6.077-1.918 9.115-2.845.026.106.705.172.734.27-.804-.008-.786.54-1.465.427l.707-.29c-.15-.096-.803 0-1.147-.053l-.007.34c-1.53.033-2.78 1.159-4.376 1.268l-.029-.274c-1.393.345-.301.573-1.879 1.054.592-.359-.406-.17-.861-.059-.546.565-2.407 1.425-3.206 1.619.465-.26 1.203-.574 1.419-.834-.658.306-1.915.622-2.317 1.091l.086.002c-1.036.735-1.452.606-2.122 1.358-.228-.33.65-.551.875-1.021l-.998.487c.011-.134.743-.555.037-.404-1.095.633.187.729-1.331 1.521-.421-.117-1.297.127-1.997.38l-.633.722-.171.014c-.352.298.595.087-.184.419.272-.496-.596-.155-1.291.188-.345.308-.177.555-.946.71.169-.156.599-.336.429-.386-1.289 1.077-3.331 1.656-3.968 2.656l.661-.517c-.243.31.534.457-.55.975-.461.08.089-.636-.794-.186.556-.365.464-.69.817-1.044-1.337.976-2.197 2.099-3.574 2.952l.307-.005c-.512.042-1.439 1.324-1.966 1.386.117.071-.4.66-.224.797l.518-.613c.101.175-.875 1.281-1.114 1.139.039.049.003.165.094.17-.395.182-.602.768-.913.732.605-.517.169-.538-.375-.172.543-.366 1.154-.879 1.125-1.078-.533.489-.124-.245-.143-.38-.556.357-.502.696-.791 1.053l-.011-.065c-.265.275-.765.642-1.167 1.091l.13-.175c-.228.046-1.07.853-.835.338-.685.467-.612.682-.684 1.008l.12-.093c-.165.171-.494.545-.347.61.475-.44.542-.364.749-.41-.473.318-.081.704-.894.91l.445-.65c-.968.855-.675.092-1.346.572-.364.565-.136.806-1.085 1.463-.443.205-.021-.538-.25-.707-.806.855-1.562 2.03-2.501 2.582-.332.657-1.441 1.616-1.317 2.049.295-.638.488-.227.835-.858-.069.171-.016.313.224.163.223-.853 1.073-1.545 1.878-2.334-.217.277-.357.535-.43.749.422-.37.822-1.351 1.21-1.152-.418.669-.081-.058-.65.508l.165.262c.36-.269.573-.485.783-.779-.138.416-1.905 1.984-1.935 2.4-.544.65-1.167 1.108-1.602 1.265.016.029.023.058.031.088-.01-.001-.008-.014-.022-.012l-.83.627.125-.207c-.388.537-1.806 1.261-1.84 2.012-.25.348-.048-.304-.464-.048l-.354.639c-.135-.353.425-.671.51-1.112-.297.045-.481.362-.716.792-.338-.184.704-.87.239-.917-.646.611-.77.947-.765 1.205zm.002.056-.002-.056c.014.002.022.009.04.005zm-8.106 15.789c.034.007.067.036.096.105zm-6.921 19.108c-.126-.068-.263.862-.429 1.184-.472-.847-.344-1.529-.034-3.423 1.205-5.994 3.094-11.862 5.64-17.441.01-.002 1.514-2.529 3.255-6.336.314-.687.662-1.465 1.147-2.269l-.036 1.241c-.804 1.269.156-.794-.469.018-1.128 1.744.505.124-.316 1.779-.181-.064-.33.207-.518.594-.037.377-.335 1.114-.09 1.132.378-1.427 2.137-2.846 1.885-3.987-.538.317-.12-1.24.512-1.844l.049.189c-.581.97-.339 1.582-.163 1.944l1.119-1.575c-.889.747-.136-.783-.003-1.53l-.197.322c.23-.441.249-.779.287-1.099.011.024.04.03.111-.009.468-.662.492-1.266 1.134-1.915l.156.008c.219-.443.728-1.012.745-1.352.051.303.974-1.02.852-.387-.175.321-.924 1.249-.738 1.41l1.128-1.551c.035.334.27.579-.112 1.247l.508-.555c-1.074 1.22.109.6-1.1 1.819-.148-.342-.218-.311-.614-.371-.545 1.492-1.467 3.65-1.708 4.726.164-.751-.444-.176.007-1.094-.426.738-1.072 1.518-1.8 2.732.179.327-.408 1.459-.684 2.254-.142-.177.195-.824.017-.889-.648 1.368-1.338 1.204-1.222 2.2-.154.014-.466.038-.208-.58-.442.561-.337 1.486-.826 1.461-.783 1.921.952.416-.082 2.621-.311.226-.076-.959-.491-.011l.209.229c-.214-.046-.506.973-.764 1.496.148-.399.642-1.887.531-2.17-.515 1.674-1.214 2.124-1.54 3.727.077-.538-.121-.961-.186-1.288l-.113.473c-.656.224.928-2.539-.111-1.156-.266.88-.386 1.166-.754 2.153l-.159-.161c-.319 1.233.302 1.849-.555 3.411.26-.431.357.02.466-.075l-.23.205c.104.508-.121.718.235.897-1.061 3.005-1.621 5.063-2.521 8.091-.072-.488.181-1.988-.261-1.169.217.868-.167 2.896-.704 3.918.054-.301.012-.485-.079-.608l-.053.182c-.103.24.211-.726-.028-.672-.2.868-.227 1.549-.095 1.854zm0 0c.018.009.035.038.052.09-.019-.025-.037-.055-.052-.09zm5.054-15.195c-.099.267.101.197-.12.575l-.2.266zm-.92 2.487-.021.076c.005-.029.012-.054.021-.076zm0 0 .271-.972-.156.828c-.044.037-.087.077-.115.144zm17.4-26.807v.227l-.407.542-.305-.102.102-.272.61-.541v.121l1.021-1.106c.026.381-.714.525-.616.811zm-21.725 45.982h.067v.237l-.067.034-.033-.034.033-.17zm156.449 25.115v-.068-.273l.069-.269v.034h.033l-.033.17-.034.135.034-.036-.034.104v.135zm-129.132 3.591-.169-.337-.237-.34-.101-.442.135-.167-.171-.069-.134-.337-.204-.239-.169-.034-.169.204-.171.101-.237.033.034.239.203.303-.27.07-.238-.035v-.37l-.271-.103-.134-.272-.272-.203-.238-.17-.135.068-.136-.202-.271-.171.067-.304-.169-.271-.27-.34-.136-.271-.169.136-.069-.136-.169-.102-.068-.34.034-.235.034-.272-.203-.339-.203-.304-.17-.339-.169-.305-.136-.34.169.069-.135-.341-.102.136-.305-.136-.203-.066-.238-.271-.203-.103-.101-.203-.238-.27-.238-.102-.236-.239-.238-.27-.136-.304-.168-.307-.17-.373-.101-.202-.204-.272-.17-.203-.204-.136-.235-.101-.239.033-.305.068-.271-.237-.237-.237-.272-.204-.203-.272-.203-.27-.237-.17-.204-.305-.204-.203-.203-.237-.203-.408-.169-.337-.103-.034-.235-.203-.272-.306-.101-.373-.205-.339-.203-.305-.135-.441-.102-.44.169-.103-.034-.203.17-.169.035-.203-.103-.271v-.508l-.102-.305-.101-.374-.102-.339-.101-.44-.135-.339-.136-.338-.034-.475-.238-.337-.136-.273.035-.17.101-.203-.032-.305-.104-.068-.033-.305-.169-.441.067-.338-.202-.203-.137-.475-.101-.475v-.441l-.068-.373.034-.27v-.442l.067-.304-.101-.203-.101-.271-.136-.034-.169-.305-.068.236-.069.306v.339l-.101.305.035.305.1.271.035.406.101.373.068.408-.034.406.102.339.068.44.101.475v.373l.068.44-.068.237.102.339-.102.069.033.338.17.102.102.475.069.372-.272.203-.069-.542-.134-.372-.102-.374-.135-.338-.203-.339.135-.17.068-.373-.035-.406-.136-.306-.067-.305-.169-.101-.136-.27-.068-.204-.034-.306-.135-.338.202.203.205-.101.067-.306-.067-.304-.068-.339-.102-.407-.17-.237.068-.441-.068-.135.102-.306-.102-.272.068-.168-.033-.305.033-.372-.033-.442.033-.406v-.373l-.102-.373-.101-.102.034-.272-.102-.067-.136-.237-.169-.271-.203-.306.102-.371-.069-.509v-.408l-.101-.372.101-.17.102-.305-.102-.102v-.304l.069-.339.067.305.034-.408.101-.066-.101-.17-.068.203-.135-.168.135-.238-.067-.306-.035-.339.102-.339.068-.27.034-.339-.034-.272.069-.203.203-.305.169-.408.102-.439.033-.305.136-.441.237-.407.237-.439.204-.375.136-.405.202-.305.136-.374.102-.271.237.169-.169-.305.068-.304.101-.306.102-.475.101-.405.035-.272.101-.203.17.406.204.171.067.338-.271.27.168-.067-.033.169.271-.372.069-.407.1-.102.068-.44-.033-.306.203-.439-.272.068-.101-.339-.034-.442-.034-.406-.101-.407-.136-.305-.067-.474.136-.272.033-.406.169-.475-.101-.406.135-.645-.034-.372.102-.543.272-.101.066-.272.339-.373h-.27v-.373l.068-.373.102-.473.203-.27-.103-.137-.033-.272-.136.509-.17.643-.305.51.102-.475v-.34l.034-.303.136-.374.203-.372-.17-.035.239-.508.304-.203.102.339.101-.408.102-.372-.237.271-.272.101.239-.372.204-.542.236-.272.135-.473-.271.338-.1-.101-.036.474-.304.44-.237.611-.374.609.238-.643.17-.543.1-.508.204-.542v-.407l.035-.476.101-.541v-.441l.271-.508-.271.102-.136-.271v-.441l-.204-.202-.169-.239v-.473l.035-.543.068-.373-.136-.203-.034-.34-.374.576-.371.374-.136-.204-.306.17-.339.136-.202-.169.304-.205.033-.27.374-.34.406-.508.237.033.305-.202-.1-.17-.374.102-.304.17-.373.405-.339.239-.271.066-.239.238v.339l-.304.272-.27.169-.34.068-.339.17-.305.237-.305.067-.238.035-.271.27-.202-.067h-.203l-.203-.069-.17.069-.171-.069-.27.069h-.271l.134-.238.306-.101.203.034.305-.204h.204l.136.135.372-.27.271-.068.305-.203.271-.136.373-.475.373-.508-.102-.069-.033-.237-.238.237.238-.609-.136-.34-.169.035.237-.475.238-.237.338-.644-.338.204-.069-.204.237-.508.272-.576.304-.509.237-.576.509-.474.441-.306.238-.27.236-.068-.101.441.373-.204.169.204.407-.441.305-.475.34-.373-.205-.034-.271.068.034-.372-.134-.204.031-.475.238-.372.307-.272v-.271l.1-.271.408-.203h.574l.068.203-.338.407.102.338.339-.203.305-.575.204-.544.406-.609.203-.576.272-.542.507-.474.137.169.27.134.407-.27.475-.406.508-.205.203.136.543-.136.169.238.61-.238-.033.509-.239.408.204.338-.271.61.136.237.17.305-.035.576.17.237-.034.476.237.1.169.237-.067.475-.068.407.238.339-.068.509-.102.542.033.543.407-.441.441-.238.271.102v.407l.406-.17.578-.101.542-.034-.305.542.338-.033.679-.577-.171.847-.338.644.034.373.744-.508-.507.678.136.203.542-.441.406.305-.034.644.136.543.17.474.372.305.17.543-.17.576h-.406l-.339.305.339.237.203.406.542.035.509.067.135.441.204.406.406-.439-.17-.475.475-.271.543.033.508.033-.068.849.271.644.203.543.441.472.509.103.44-.678.44-.272-.202-.778.576-.238.61-.508.101.847-.135.847-.711.237-.374.678.135.542.441-.508.136.033.677-.473.205-.679.542-.405-.272-.781.102-.881.576-.609.576-.611.476-.203.439-.644.339-.543.373-.711.271-.61.509-.508.779.068.509.473.17.407-.374.271-.576.442-.577.474-.372-.136-.44.068-.135.508-.476.339-.203.745-.033.679v.507l-.17.747-.712.339.203.474-.068.61-.067.746.847-.678-.033.745-.272.509-.371.611-.036.812.373-.066.271-.51.645-.236.372-.746.339-.713.373-.645.44.171.407.407-.17.44.475.373-.406.779-.577.138-.304.608.339.508-.441.645-.745.339-.679.339-.44-.407v-.373l-.542-.068.1.509-.778.611-.306.575-.576.475-.541.44-.612-.237-.575.542-.237.543-.475.034-.44.033-.271.542-.34.069-.406.373-.475.44-.304.372-.305.407-.305.577-.239.542-.067.474.306.034.236.204-.101.678-.169.405-.068.475-.137.34.305-.068.408-.034.271.509.339.339.271.508.068.509.237.27.305.305.271.577.441.168.441.17.305.372-.407.712v.44l-.17.408-.238.441.171.508.067.475.135.406.035.441.203.44.068-.338.474-.17.441-.406-.034-.543.17-.474.135-.576.034-.441-.034-.474.44-.137.474-.203.51-.304.372-.339.238-.678.101-.611.068-.473.068-.645-.204-.271-.135-.44.169-.34.339.034.408-.373.168-.44.136-.576-.102-.339.305-.407.305-.407-.135-.373.169-.44.406-.202.408.236.339.339.305.067h.575l.239.373.168.475.237.373-.27.339.27.372.339.101.306.204-.237.441-.034.475-.237.508-.102.373.067.508.272.17.101.711.576-.134.272-.306.474-.169.338-.407-.066-.407.305-.203.372-.306.034.407.068.611.135.61.035.576.066.609.17.407-.101.339.168.339-.303.305-.17.509.135.407.338.339-.031.44.54.237.103.372.473.204.171.305-.509.237.509.204-.069.441.408.068.236.575-.203.406.035.678-.34.17-.406.272-.577-.067-.508.135-.305.271-.305.27-.338.238-.509-.101-.407-.035-.238-.203-.339-.102-.304-.067-.306-.17-.407-.033-.339-.068-.304-.102-.442.068-.304.236-.203.373-.339-.103-.441.307-.372.203-.339.339-.238.238-.305.236-.237.272-.305.237.373-.067.304-.238.305-.237.305-.305.373-.237.407-.135.339-.069.441-.135.407.033.406.034.305.237.136.306-.067.304-.374.137-.305.067-.543-.136.239.577.474-.034-.17.339-.068.542.068.509.272.202.338.408.34.169.373-.067.236.135.102-.373.339-.305.27-.339.103.204-.136.44.305.373-.405.237-.339.068-.171.272-.474.034-.611.101-.406.101-.27-.068-.238.238-.34.236-.339.205-.237-.271v-.408l.204-.304.407-.238.236-.068.441-.203-.372-.034.1-.271-.473.204-.373.034-.408-.102-.067.304-.338.136-.306.069-.337.067-.104-.204-.237.306-.372.067-.271.069-.034.135-.272.237-.204.27v.205l-.169.202.137.17v.373l.271.102.067-.237-.067.304-.408.034.035-.135-.238.067-.101-.236-.135.236-.305.068-.272-.068-.238-.101-.304.068-.306.135-.237.204.136.203-.17.372-.271.373-.339.203-.067-.338-.136-.17v.441l.101.542-.169.17-.271.271-.169.373-.136.033.17-.372.135-.237-.169-.068.102-.203-.205-.204.17-.305.069-.271.134-.238-.236.068-.137.239-.067.405v.306l-.236-.169.236.372-.136.339-.033.272.135.338.034.271v.373l-.136-.136-.203.035-.237.033.271.102.204.066-.035.272-.135.17-.169-.068-.305.204.237.067-.169.17-.305-.034-.271.171-.272.204-.237-.036-.305.135-.17.204-.238.203-.304.17-.305.102-.305.237-.204.34-.203.303-.034.407v.407l.034.407.034.406.102.441-.033.237.067.474.033.476-.067.441-.102.406-.169.34-.171.066-.203-.034-.067-.339-.169-.305-.068-.406-.068-.373-.135-.305v-.238l.135-.338h-.17l.035-.272.101-.271-.034-.406-.102-.102-.135-.542-.17-.306-.27-.033-.237.102-.272-.034v-.339l-.237-.237-.136-.238-.237-.034-.271-.033-.237-.102-.034-.271-.17.136-.237-.17-.203-.068-.271.068-.204-.271-.169.236.135.137.203.034.204.068-.068.168-.136.102-.033.102.203.339-.102.101-.101-.237-.136-.135-.204.068-.271-.068-.237-.137v-.27l-.169-.339-.237.102-.238-.17-.203-.237-.271-.067h-.203l-.271.067.067-.305-.203.068.068.338-.203.136-.171.102-.237-.034-.304.136-.272.136-.204.169-.1.34v.405l-.068.374v.305l-.171.269-.135.306-.134.338-.069.34-.068.373-.067.339-.102.271.033.374.171.372-.102.169.033.339.069.306.135.304.068.373.067.373.101.339.239.238.203.203.135.305.169.067.306.034.271.034.305-.034.272.169-.035.135h.305v-.202l.17-.102.169-.034.034-.305.135-.204.068-.27.103-.407.169-.034.271.034.237.034h.27l.272.034.17.135.27.101.102.17-.033.305-.238.203-.136.306-.101.338-.067.34-.102.407-.17.27-.067-.338-.136.576-.034.337-.17.41-.271.134.204.205.169.236.338-.034.272.203.271.069.238-.035.271.168.271.036.135.136.238.136.169.337.204.206.101.135-.068.54-.135.205-.034.407-.034.339-.135.372v.34l-.137.236.069.306.135.338.102.304.204.307.203.271.101.304.203.068.171.237h.305l.27-.033h.306l.135-.171.271.07.204.202.237.135.203.305.169.272.204.269.204.409.033-.474.272-.204.168-.239.238.037v-.341l.068-.304.169-.205.204-.033.237.137.169-.172.373.172.271-.104.204-.1.237-.034.169-.203.203-.101.17.135.102.169-.17.238-.271.034.102.371.067.304-.135.207-.169.271.135.269.034.306.338-.033.035-.374-.17-.439v-.407l.238-.036.27-.034.238-.101-.068-.304.238-.103.068.474.237.068.305.135.203.238.034.306.102.235.338.034.34.103h.236l.272.069.067.201.237.171.339.169.305-.034.34-.203.338.068.408.102.338.1-.508-.033.203.305.17.304h.203l.237.17.373.205.068.372-.101.338h.44l.339.305.61.612.102.271-.069.271h.272l.27.305.204.202.169.272.339.134.34.069h.304l.306.066.305.138.305.167.203.102.271.171.306.202.271.271.304.307.203.202.306.374v.372l.237.476.068.473.372.101-.033.477-.27.27-.203.168-.272.169-.102.306-.068.372.373-.1.169.474.103-.405v-.376l.27-.101.305.101h.338l.374.169-.102.408-.136.273.17.135.204-.441.236-.067.372.067.374.272.339.169.407.168.135.241.306-.037.135.271.135.306-.101.269.373-.033.338-.101.34.101.339.236.305.037.338.203.339.066.306-.066.339.066.339.238.338.27.339.273.204.236.236.237.339.205.238.237.305.101h.338l.407.17.169.373.137.372.101.408.069.305-.035.407-.169.305-.17.272-.17.236-.269.235-.138.239-.338.171-.169.102-.203.304-.135.273-.272.336-.271.203-.305.17-.034.407-.069.27.069.339.034.304.066.306-.1.34-.035.373.035.305-.204.17-.033.305v.305l-.034.27-.306.272-.067.271-.305.27-.068.272v.304l-.305.101-.305.104.034.27-.34-.068h-.304l-.339-.034-.305-.101-.441-.034.135.237-.305-.068-.237.27-.237-.133-.338.133-.305.035-.239.204-.304.203-.204.204-.237.203.034.306.034.404.101.308v.303l-.067.272-.137.102-.236.137-.236.271-.136.235-.069.307-.169.27-.136.237-.271.17-.271.135-.237.136-.034.304-.204.238-.271.135v.204l-.203.17-.271.067h-.305l-.406-.136-.34-.035-.373-.167-.204-.203-.405-.102-.339-.305-.069.17.136.237.544.304.236.237-.068.27.204.306.236.103.102.303-.102.271-.203.204-.033.238-.306.068-.271.035-.339.031-.373-.031-.27-.035-.408-.068-.441-.101-.169-.172v.24l.238.236-.034.204-.068.27.135.17.036.203-.34.067-.475-.132-.305-.171-.305-.237-.135.1.168.339.102.373.306.238.373-.069.203.34v.133l-.272-.066-.271-.237-.201.135.405.168-.306.138-.067.17.102.203.102.305-.204.069.067.203-.304-.102-.305.065-.136.104-.068.273.17.303.271.271.339.305.406.102.137.204v.304l-.17.139-.271.098-.204.137.036.304.066.271h-.306l-.168.136.033.305.204.272.203.304.373.372-.339-.133-.271-.069.034.135-.204-.066-.305.066.067.272.137.304-.137.032-.405-.235-.203-.203h.372l.034-.17-.238-.135-.135.202-.169.069-.408-.238-.237-.203-.067-.17-.272-.134-.203-.272-.101.1-.271-.201-.17-.304.372.168-.033-.204-.237-.34.033.169-.338.036.034-.205-.069-.302.205.132-.17-.235-.035-.237-.203.34-.169-.375.101-.101-.271-.135-.067-.273-.17-.169-.068-.338-.1-.272-.035-.203.17.034.373.441-.137-.34-.067-.236.067-.305-.236-.067-.305-.203-.204.067-.068-.205.272-.135-.17-.202.237.035-.169-.171.033-.204v-.137l-.17-.269.035-.237.135-.138.271.272-.032.136.1.17-.068.168.136.135.102.206.034-.273-.136-.203.17-.101-.135-.169.067-.239-.17-.234.068-.206-.136-.406.103-.069-.17-.17.067-.134-.304-.203-.035.17-.237-.103-.135-.237-.136-.271v-.236l-.102-.376.136-.234-.136-.307-.136-.305-.066-.236-.204-.305v-.34l.237.069-.102-.305.102-.069v-.272l.033-.304.103-.238.068-.271-.035-.304.068-.169-.101-.306.101-.372-.135-.239-.069-.203-.101-.303-.135-.375v-.305l.135-.1-.101-.408-.136-.237.068-.272v-.304l.068-.272-.034-.303.101-.341-.135-.405.102-.17-.034-.237-.103-.34v-.269l-.033-.308-.068-.337.101-.236v-.612l-.066-.307-.035-.302v-.306l-.136-.44-.101-.375-.034-.302-.304-.339-.205-.172-.203-.304-.305-.235-.305-.308-.203-.101-.373-.338-.304-.339-.305-.137-.374-.371-.237-.273-.169-.269-.271-.376v-.303l-.203-.475-.103-.339-.203-.27-.101-.24-.238-.372-.102-.339-.304-.507-.102-.339-.101-.34-.102-.371-.204-.374-.305-.305-.101-.371-.171-.343-.203-.27-.27-.236-.17-.237.17-.136-.203-.406-.103-.34v-.27l.271-.168.238-.104.203-.033.067-.306.102-.169-.237-.067-.033.303-.237-.405-.17-.17.067-.069v-.338l-.102-.44.239-.035v-.339l.236-.134.034-.408.373-.067.272-.068-.102-.306h.237l-.035-.27.169-.27.34.1.136-.305.17-.237-.17-.271.101-.272-.034-.371v-.304l-.033-.443zm15.558 49.111.609.203.577.138.44.1.272.07-.034-.138-.441-.339-.475-.373-.372-.305.102-.031.304.031.61.442.474.405.509.341.441.34.372.338.205.203.135.205-.305.031-.508-.135-.645-.203-.372-.237-.441-.171-.475-.304-.507-.202-.409-.271zm-.306-.305-.034-.134-.203-.171h.373l.406.206.204.202.035.135-.34-.067zm5.051-2.136.236-.066.577.34-.474-.069zm-14.778-15.725.304.204.137.237-.102.136.135.237-.033.237-.305-.135-.067-.408-.069-.204zm5.253 7.559.372.339.138.204.168.236.406.305.408.236.27.205.305.203.34.069.035.134h-.171l-.441-.101-.338.033-.408-.1.203.27-.404-.236-.307-.034-.304-.205-.171-.204-.202.035-.373-.204-.509-.337-.101-.171-.238-.069-.168-.236-.34-.099-.067-.171-.339-.205.1-.133-.27-.104-.338-.237-.136-.202.406.27.406.273.509.304.272.236.405.203.238.17.069-.239.236.341.204.101-.204-.337.306-.036-.102-.135h-.305l-.17-.136-.067-.305.237.069.067-.103.203.103zm3.729.576.407.169.101-.103-.238-.236.408.032.406.204.305-.034.373.171.067.24h-.372l-.103.099-.338-.034-.135-.17-.203-.099-.204.099zm-5.423-38.74.204-.068.033-.303-.102-.07.407.036-.034.337-.136.135zm-9.015-8.336.066-.103.238-.034.271.171.237.134.238.169.068.272-.204-.066-.169-.103-.202.068-.204-.136-.17-.306zm-2.204-3.391.135-.136.102.17.035.237h-.17l-.102-.067.035-.069zm-.915-.407h.305v-.236l.203-.137.306-.067.236.033.272.034.271-.034.271.102.238.204.271.101.203.204.203.169.17.305.236.102.273.203.236.271.204.272.203.169.237.338.272.137.237.135-.101.272h.203l.271.168.136.272.169.067.034.102h-.305l-.203.035-.272-.069-.272-.169-.27-.067-.271-.035-.373-.136.17-.101.203-.136-.068-.269-.407-.137-.237-.305v-.305l-.069-.169-.269-.035-.272-.203-.203-.135-.17-.238-.373-.136-.271-.169-.135-.238.27-.034-.339-.169-.236-.135-.203.102-.205.101-.304-.101-.103.202zm5.22 4.374.204-.102.27.135.238.168.271.104.237-.104-.204-.37.034-.239-.101-.271-.271-.068.203-.134.305.1.305.271.204-.066.372.135.271.133.339.139.068.27.339.1-.271.104.474.271.204.337-.204.238-.169-.271-.305-.102-.34.035-.27-.035v-.169l-.305.034v.17l-.203.236-.204-.406-.271-.17h-.271l-.205-.136-.27-.067-.135.067zm4.135 1.456.033-.339.339.068.339.102.169.238-.135.135-.237-.068h-.271zm-5.558-6.981.134.032.069.408-.034.237.102.305-.102.203-.102-.407-.202-.406.135-.135zm4.507-11.253.102-.204.305.034h.305l.272-.068.168.204-.407.102-.372-.034zm7.049-6.745.339.102.339.169.271.237.238.238.101.339-.304-.068-.339-.17-.271-.237-.069-.272zm-.609 2.948.168-.203-.033.34.306.203.303.102.441.034-.339.135-.066.306-.409-.341-.27-.304zm-4.237-18.301.338-.407.373-.068.307.102-.035.101-.61.34zm1.592.372.34.135-.204.442-.373.406-.068-.339zm-2.507 6.439.508-.203.033.306-.337.543.168-.442-.271.203-.27-.101.473-.306zm-2.034 2.882.306-.068.169.135-.034.441-.237-.271zm10.101 8.134.305-.17.338-.237-.169-.135.27-.338.374-.408.271-.509.338-.44.238-.372.237-.272.407-.169.271.068-.237.44-.338.441-.238.271-.306.441.476-.238.304.238-.304.202.271.374h.372l.373.068.271.236-.373.306.068.338.44.034-.508.373-.168.272.1.202.272-.339.203-.066-.237.439h.305l-.171.442-.202.406-.338-.068.1-.372-.338.168.238-.407-.272-.134h-.237l-.373.407-.339-.137.339-.168.068-.305-.374-.171-.406-.1-.407-.069-.44-.203-.474.068zm-7.83-20.031.611-.305.237-.711.372-.644.339-.44.644-.34-.17.644.17.644.306.543.135.507v.543l.271.44-.576.339-.204-.507-.204-.407-.304-.136-.407.305-.509.373-.407-.069.239-.575zm6.236-3.219.644-.645.475.171v.474l-.271.474-.441.237-.508-.067zm-2.034-6.982.475-.745.475-.509.543-.475.711-.441.542-.203.542.203.476.238-.747.169-.439.305-.476.509-.338.576-.271.576.101.576.203-.609.339-.543.442-.644.745-.441.779-.271.508.034-.033.441-.475.575-.135.712-.509.645.61-.271.407.135.711-.305.273.237.27.407.61.068-.102.508-.372.678.576.304.305.476.237.948.372.611.069.746-.407.508.237.678-.643.067-.272.61.339.711.712.172.203.643.305.542.305.507.169.51-.542.644-.305.473-.61.069-.372.543-.407-.543.033-.746-.508-.813-.406.779.033.678.305.61.136.474-.17.611.17.576-.374.746-.575-.17-.373-.508-.271-.509-.442-.44v.542l.204.475.238.577.203.473-.17.475-.442-.237-.337-.306-.339-.405-.034-.306-.407-.339-.27-.271-.238-.509.204-.475-.272-.406-.305-.305-.338-.441-.408-.237-.441.204-.644-.237-.033-.543.339-.441.305-.034.237-.372.543.406.575.204.577-.272-.135-.711.542-.305.542-.407.475-.304.068-.576.135-.646-.304-.576-.037-.746-.676.272.543-.779-.339-.882.033-.61-.678.542-.44.102-.306-.746-.439-.033-.645-.475-.508-.204-.339-.677-.035-.644.137-.746zm4.949-1.422.51.033.474.236.236.441-.204.61-.27.407-.509-.374-.474.102-.373-.372.203-.644zm-4.169-3.866.847-.643.34.135-.136.611-.509.744-.339-.44zm2.271-2.847.407.407.101.576.543.204-.169.474.135.441-.341.204.171.609.543.407.814-.102.508.373.474.17.374.575-.34.577-.542.508-.746.034-.305-.542-.644.339-.61-.237-.509-.305-.542-.305-.406-.576.406-.746.542-.543.306-.644-.068-.508-.644-.102.135-.779zm4-4.407.644-.744.814-.441.677-.745.406.202-.474.814-.136.611.509.406-.102.508-.679.609.341.408-.475.61-.678.237-.78.645-.779.44-.78-.34.068-.711.44-.746.576-.474.34-.711zm3.287-1.999 1.017-.575.575.237.34-.407.712-.204.982-.203.983-.474 1.187.102.508.305.678-.035.712.239.474.507.644.441.103.576.372.406-.272.408-.677.373-.848.406-.305.475-1.22.642-1.05.476-.78.575-.983.679-1.016.135-.848.712-.508.813-.78.712-.78-.067-.236.542-.848.338.102.814-.813.475-.916.169.136-.576-.508.102-.374-.272-.508.102-.744-.44-.477-.339.441-.61.712-.305.509-.034-.136-.373.441-.61.813.135-.305-.609 1.118-.747h.577l.271-.677.543-.745-.238-.441.949-.813.407.507.576-.27 1.05.033.916-.305-1.018-.102-.778-.271h-.746l-.746-.271v-.779zm-4.575 1.627.542-.372-.271.813zm-2.644.204.44-.204.339.204.035.441.406.203-.068.644-.507.611-.34.609.204.204.609-.576.576-.611.136.814-.203.441-.475.405-.406-.135-.509-.135-.508.101.271-.746-.339-.169-.339-.474.102-.441.61-.339-.203-.475zm.44 3.525h.746l.678.372-.203.373-.509.203-.441-.405zm-2.305-1.153h.34l-.34.474-.271.577-.237-.305zm-1.117 1.627.304.069-.033.54-.136.646.474-.577.508-.305.442.27.135.612-.44.575-.374.611-.677.643-.678-.339.338-.915-.643.102.171-.712.303-.508zm-1.594 2.067.509-.407-.17.577zm-1.66 3.221.406-.068.407.271.171-.746.371-.406.475-.069.339.305.542-.134-.271.779-.745.475.27.44-.373.813-.542.746h-.61l-.644.237.135-.779.069-.712-.339-.135.237-.577zm3.219-8.915.509-.237.643.204.137.542-.408.17-.372-.17-.034-.306zm-.847.238.509-.068-.407.509-.237-.035zm.203.507.475.035.475-.068.272.137-.645.643-.678.102-.272-.306zm-4.066 2.068.508-.339.542-.101-.542.44-.408.306zm-.17-1.627.61-.101.712-.34.61-.203.474-.067.339.305.576-.271-.068.541-.575.205-.374.542-.814.372-.066-.474-.544.339-.642.271-.203-.305-.307-.135zm.17 2.339.643-.44.712-.509.576-.373.272.306.066.576-.1.44-.272.576.44.373.204-.541.374-.34-.036-.338.577-.339.475-.17-.441.711.069.678.169.407-.542.509-.51.542-.407-.067-.507-.374-.508.102-.577.17h-.407l-.202-.306.101-.372.541-.068.137-.61-.577.237-.067-.407zm-4.169 4.406.474-.508.475-.17.27-.372.509-.136.508-.034.509-.202.305.202-.475.814.712-.237.068.474h.475l.135.679.644-.544.712-.542.474.204-.034.509-.508.406-.678.474-.271.577-.305.779-.576.678v.644l.202.575.374.476-.407.542-.44-.069-.136.51-.577.204-.508-.069-.169-.543v-.575l-.61.236-.508-.033h-.678l-.576-.17-.44-.169.338-.915-.373-.237-.136-.509.441-.78.373.171.407.237.576-.069-.102-.577-.406-.202-.373-.373v-.508l.407-.373zm-.983-1.695.576-.406.644-.474.61-.576.508-.847.543.067.644-.067.101.609.441.305-.204.712v.677l-.644.136-.644.137-.677.169-.745.745-.712.441-.374-.102-.541.068.372-.847zm-20.641 9.218.439-.439.069.067-.135.204-.102.069zm.407-.099.202-.137.17-.27.034.168-.135.272h-.136zm6.269-9.931.068.27-.168.407v.306h-.238l.203-.508-.102-.171zm-2.269 4.168.1.068.103.102-.035.203-.168.203h-.137v-.236zm-.611 5.559.407-.203.27-.136.306-.136-.068.305-.272.034v.169l-.169.374-.203-.035-.237.203-.237.069zm2.373 7.896.136.238.168.169-.304.339-.17.543-.204.237.035.339-.136.541-.035-.575.069-.475.169-.474v-.339zm-.374 4.17.204-.034.102.373.168.372.137.305-.034.543v.509l.067.542-.033.474h-.203l-.102-.27-.136-.375.102-.236-.136-.102-.034-.306-.102-.27.136-.204-.101-.373-.067-.372zm36.029-22.065.644-.61.812-.068.814-.271 1.152-.034.916-.847.17-.644-.849-.204.748-.71.948-.543.678-.372.542.236.476-.474.134-.678 1.186-.44 1.729-.17.678.847.678-.847.915.272.644-.781 1.083-.644 1.559-.237 1.255-.339 1.288.305 1.254.203.61.746.135.576.678.339.443.644-.816.442-1.22.101-.847-.136-.642.305 1.523.169-.203.746.61-.067.136-.576.712-.035v.577l-.306.305-.677.473-.61.849.881-.272.712-.407.542-.473.44.236.713-.61 1.084.306.474.745-1.084 1.05-.644.611-.644.813-.441.779-.304.712-.476.475.034.745-.338.848.236.61.17.847-.202.542-.746-.305-.544.373-.135.576.61.238.136.813-.102.78-.44.813.576.068-.271.609-1.085.306.508.305-.101.542-.576.033-.305.239-.44.271.44.203v.744l-.204.476-.575-.339-.542-.339.372.509.407.507.338.645-.101.576-.135.713-.645.067-.406-.271-.033-.611-.035-.474-.508.205v.71l-.611.305-.034.339.645-.304.61.405.61.17-.407.441-.611.407-.575.406-.541.271-.68.272-.678.169-.678.272-.678-.102-.473.304-.509.475-.339.509-.373.508-.508.374-.543.338-.779.339-.744-.102-.644.102-.306.474-.475-.169.102.847-.169.61-.273.576-.508.508-.576.34.034.813-.372.508-.271.542-.17.577-.339.508-.405.135-.578-.475-.204-.54-.44-.272-.678-.203-.339-.745-.101-.645-.136-.712v-.407l-.238-.982.102-.508-.204-.442.204-.711v-.746l-.339-.712.203-.61.069-.644.305-.746.373-.711.541-.475.747.169.405-.982.035-.814-.61.509-.744.102-.374-.611.374-.745.439-.78.61.204.578.542.066-.712-.441-.339.034-.846-.441.372-.542-.102-.101-.407.44-.643.035-.644.44-.78.169-.645-.102-.678.306-.745-.103-.779-.101-.61.238-.508-.543-.408-.372-.677-.644-.17-.747-.135-.609.204-.543-.509-.169-.509.475-.236-.373-.475-.136-.44.61-.238h.644l-.339-.508.17-.577-.475-.068zm15.014 21.794.339-.408.103-.406.371.035.035-.306.372.136.339.44-.034.746.577-.169.135-.645.272.339.272-.271.507-.068.338.205.442-.17.338-.407.271.338.508-.067-.034.711.51.339-.069.746-.473.576-.781.272-.509.373-.507.066-.644.374-.678-.238-.509-.339-.949-.102.475-.473-.238-.611-.744-.068.676-.372.442-.373-.305-.237-.475.169zm4.643-13.626.339.577-.441.033zm37.587 80.633.239-.374.237-.305.135-.271.237-.339.067-.271-.135-.341.033-.236-.134-.338-.034-.34.237-.338.204-.508.271-.035.339-.203.305-.171.338-.203.272-.203.305-.371.237-.037-.034-.235.238-.204-.035-.306.305-.102.271-.169.068-.27.034-.305.272-.307.202.271.136.273.034.374.137.305.067.44.035.305-.239.372-.236-.203.033.475-.067.271-.169.203-.035.239-.069.373-.101.305-.17.406-.135.338-.135.307-.136.269-.067.271-.136.273-.136.271-.101.27-.102.272-.069.271-.067.27-.135.203-.136.339-.136.271-.237.34h-.271l-.61.34-.306.102-.27-.102-.238-.137-.236-.272v-.338l-.035-.405-.136-.239zm31.42-23.488.102-.169.236.201v.273l-.168-.17zm.712 1.151.101-.102.169.375-.135.134-.102-.102zm-9.659-1.997.033-.308.033-.338.103-.306-.103-.27.339.134.171.273.202.27.169.273.17.202.033.405-.099.342-.204.304-.306.203-.204.102-.168-.237-.103-.406-.066-.273zm13.014-13.729.135-.271.17-.339.135-.169.204-.102.202-.136.034.238-.1.304v.407l-.103.305-.168.272-.171.101-.237-.034-.068-.271zm3.795-5.796.033-.406.035-.374.034-.372.135-.305.137.033.068.339v.442l.034.44v.406l-.068.374.034.44-.101-.236-.136-.035-.137-.373zm2.001-10.066.034-.271-.034-.304.169-.068v-.307l.101-.168.169-.033.103.235-.035.273v.304l-.136-.101-.101.271v.201l.034.307h-.168zm-.61-8.914.034-.407-.136-.236.136-.035.101-.135-.068-.237-.135-.237v-.271l-.103-.271-.135-.373-.237-.339v-.306l.203.17.238.237.136.136.236.102h.17l.137-.069v-.439l.135.473.1.069.068.202.101-.202-.033.304-.034.338-.135.104v.372l.068.372.067.271h-.237l-.237-.101-.069.203-.032.237-.135-.067-.069.067.069.237.135.035.169.067-.068.272-.033.338-.171-.474-.134-.136zm-5.558-9.625-.103-.373h.203l.102.508zm1.897-9.456-.271-.542-.068-.272.169.17zm-.203 9.693-.034-.305-.068-.305-.238-.305.033-.169.205.237.273.407.269.407.239.44.201.44.305.373.239.372.27.408.237.338.273.374.202.305-.202-.069-.103.137.034.27.136.306.102.406.202.441.135.237.171.103.169.269.102.034.203.408-.203-.171-.135.035.033.305.135.474-.304-.509-.102-.372-.238-.509-.101-.371-.236-.374-.137-.169-.102-.304-.169-.374-.204-.441-.236-.372-.204-.475-.203-.304-.237-.204-.204-.441-.204-.475zm-9.964-25.521.575.541.169.407-.303-.27zm-5.457 5.592-.339-.475.102-.338.676.271.375.372-.375.271zm-.951-.813.136-.17.306.305-.033.237zm-.778-2.712.304.034.34-.238.441-.135.475.576-.137.238-.679-.035zm-.949 2.034-.815-.882-.099-.576.88.169-.407-.677.611.169.101-.101h.372l.306.304.304.578.172.506-.34-.033-.035.44.035.441-.308.101zm-11.693 2.168-.372-.677-.442-.881-.372-.713.034-.407.712.204.745.374.644.745-.239.475-.574.304zm-4.948-2.372-.17-.847-.44-.78.101-.812.577.339.643.27.237.475.61.474.645.069.711.407.407.745.61.574-.271.34-.645-.068h-.779l-.745-.576-.747-.033zm-6.881 16.947-.237-.712.34-.44-.272-.443.034-.778.338-.474-.405-.44.202-.713v-.948l-.237-.475.542-.542.102-.441.203-.61.475-.711.746-.171.61-.44.033-.61.442-.576.609.136.305.813-.372.542-.44.542-.509.407-.34.678-.372.644-.069.712-.203.711-.068.679-.102.677-.099.678-.036.679.237.676.374.679.474.507.746.339-.238.305-.744.035-.747-.068-.61-.373zm-.067 4.067-.305-.643.17-.476.676.339-.033.441zm-4.983-18.878-.034-.474.542-.102-.373-.712.305-.78.508.78-.033.677.476.306-.543.475zm.102 1.084.068-.509.542.306zm-3.185 0 .575-.779.475.203.135.373.609-.576.374.168-.17.544.238.507-.509.238-.575-.102-.205-.474-.475.101zm-11.999 2.746 1.084-.204.677.271.203-.678.679.169-.103-.609.679-.543.475.61.643-.542.746.271.847.069.135.542-.338.881-.61.508-1.185-.203-.95-.61.272.949 1.083.542.374.711.508.543.814.508-.746.915-.814-.236.204-.848-.476-.441-.303-.779-.441.406.066.678-.202.949-.202.848-.034.848-.882-.814-.576-.78-.238-.779.542-.475-.814.034-.677-.813-.372-1.119zm-8.542 30.605.17-.271v-.34l.509-.372-.17.542zm10.135 2.237.304-.136.271.202v.341h-.373zm.78-.305.371-.205.375-.236.135.406-.237.272.169.17-.34.169-.372-.035zm0 .915.337-.102.307.068-.137.203-.306.101zm3.998-3.051.136-.305.44-.204-.237.272.069.441-.272.237zm2.068-1.05.236-.34.511.102-.272.238-.272.237zm.203-.644.068-.203.338.236-.338.17zm-16.37 9.625.373-.338.305-.305.271-.407h.644l.237-.408-.441.239-.304-.239-.306-.101-.406.101-.102-.269.374-.239.304-.169.033-.473-.371-.035.203-.341-.103-.235.577.101.339-.101v-.408l.236-.44h-.304l-.271-.339.237-.44-.475.169-.439.17-.204-.339.271-.611-.237-.373-.339.442.034-.341h-.373l.406-.371.069-.442-.341.17v-.339l.272-.542h-.406l-.237-.271.202-.17.307.17.067-.339.236-.373.204-.441h.543l.542-.101.067.305-.474.339-.203.44.44-.067h.882l.033.372-.134.34-.204.474-.271.339-.271.271h.371l.408.17.204.338.101.543.17.44.407.17.169.44.101.339.135.238.102.338-.202.273.168.135.204-.238h.237l.372.171.137.338-.137.406-.372.238-.237.44.508.067-.304.408-.509.169h-.474l-.475-.069-.407.239-.475-.17-.406.067-.101.407-.509-.169-.373.305zm-2.881-2.135h.372l.17-.473.304-.51h-.304l-.271-.373.306-.236-.306-.171.17-.339h.405l.375.035.202-.272-.305-.169.272-.44.442-.171.473.102.374.103.202.372.102.508-.44.339.101.407.035.509-.103.44-.135.407-.543.067-.475.305-.474.17-.508.067-.306-.269zm11.965 9.084.338-.17.136-.304.033.44.034.305-.067.304-.102.442-.339-.374-.068-.27zm-.272 1.389.169.068.203-.102.305-.271.305.339.068.372v.34l-.033.373-.103.337h-.27l-.236.306-.272-.271.033-.441v-.406l-.169-.373zm2.814 2.44.271-.204.304-.033.305.135.374-.034.474-.101.439-.136-.202.339-.103.44.138.271-.103.272-.44-.033-.238-.272-.339-.068-.441-.237h-.203zm7.456 1.796.034-.338.372.033.068.136.305-.1.305.066.373-.066v.202l.34-.169-.068.236-.408.069-.441.067-.235-.136-.341-.033zm5.695-.439.304-.136.136-.136.271-.102.305-.101.373-.205-.339.408.102.169-.238.034-.102.203-.304.136-.407-.034zm-19.829-2.577.441-.305.339.204-.237.372-.239-.203zm16.777 1.932.373-.271-.102.304-.204.204zm-1.288-2.406.17-.102v.204zm47.925 35.384.135-.372.171-.172.135-.202.033-.203.136-.408.135-.37-.033-.138v-.509l.033-.269.103-.305.033-.271-.033-.238-.069-.204.069-.271v-.372l-.103-.104v-.303l.136.168v-.506l.034.203.136.101.068-.373-.034-.204-.034-.203.034-.339.034-.272.203-.371.067-.272-.033-.204.135-.302.136-.342.034.271.137-.336.235-.274.17-.202.17-.339.17-.272.202-.237.17-.103.202-.135.206-.337.169-.136.202-.305.204-.134.202-.273.238-.17.17-.339.135-.271.136-.406.204-.373v-.408l.204-.373.167-.44.036.305.033.204.204-.407-.102-.135.102-.375.168.035.136-.339.068-.338.204-.407.068-.271.203-.169.067-.271.17-.169.102-.272.17-.104.101.171.067.102-.032.339.202-.372.102-.104.136.07.1-.306-.136-.069.171-.372.102-.337.136-.169v-.239l.101-.304.203-.441.171-.169.203-.17.1-.373-.067-.204.17-.069.135.104.134-.104.171-.065.136-.035.17-.271.033.204.135-.442.101.068-.101.374-.069.337-.167.137-.034.339-.034.271-.101.271-.069.305.069.101h.101v.271l.203-.203.067.102.069.07h.1l.103-.037.033.204.103.102.101-.169.17-.306.033-.304.102-.339.102-.408.068-.338.067-.339.033-.304.036-.304.066-.341.069-.406.033-.203.035-.339.102-.305.033-.373.102-.338.068.031v.882l.033.306-.068.305v.339h.068l.102-.239.034.136.068.103-.035.304-.033.273-.034.373v.2l.034.138-.034.304-.069.34v.135l-.033.202.102.034.067-.065.035.169.034.067.067.034-.067.27.034.068v.169l-.034.273-.034.27.101-.27v.067l.069.068-.102.304-.034.239.034.135.033-.035v.236l-.033.206-.034.203-.034.338-.068.272-.103.339-.066.305-.068.339-.102.269-.068.273-.135.371-.102.341-.169.473-.068.272-.136.372-.135.338-.136.34-.135.339-.102.305-.17.374-.102.306-.169.405-.202.474-.102.273-.205.439-.135.374-.17.372-.1.305-.137.306-.135.304-.136.171-.136.203-.1.203-.204.371-.135.307-.239.441v-.137l.102-.236-.169.236.135-.371-.202.405-.135.272-.205.372-.069-.067-.067.034-.067.067-.136.203.034-.169-.068.101v-.269l.068-.17.102-.238.034-.203.033-.203-.033-.068-.17.203.102-.237.136-.305.067-.17v-.203l-.169.373-.136.339-.101.101-.101.17.067-.203.135-.203.102-.273.136-.338.203-.375.135-.472-.168.303-.17.409-.169.303-.17.306-.203.34-.171.336.035-.201.068-.237.033-.205.068-.305h-.101l.101-.304-.033-.069-.102.036-.137.033-.135.136-.067-.034h-.101l-.136.135-.17.135-.17.169-.203.203-.169.239-.238.306-.135.169-.204.203-.204.102-.134.236-.272.341-.169.236-.271.271-.102.373-.203.304-.169.136-.17.104-.203.169-.204.132-.204.138-.237.236-.135.138-.17.339-.167.1-.205.308-.136.233-.204.136-.202.135-.17.135h-.169l-.035-.201zm7.966-17.998.1-.405h.102l.203-.238.036.102-.205.407-.068-.034zm-1.831 13.863.101-.169.137-.206h.101l-.17.308-.169.17zm.509 1.118.067-.067.034.067.1-.169.171-.271.169-.272v.034l-.136.341-.169.337-.067.17-.169.339-.204.373.034-.069-.203.308-.204.369-.068.101v-.03l.068-.17.102-.27.102-.206.067-.236.136-.34zm-.271-15.658.067-.273.204-.065zm.507-.712.069-.237.202-.237-.102.34zm-2.406 2.712.203-.204.17-.1.17.032.101.137-.169.304-.137-.101-.102-.035-.169.136zm1.525-.577.068-.474.102-.272.169-.202.169-.236.102-.273.169-.269.205-.206.168-.168.136-.137-.102.305-.169.27-.171.239-.168.239-.17.338-.169.44-.169.236zm2.509-3.524.033-.339.102-.305v.305zm.846-1.424.035-.373.068-.371.067-.341.035.306-.068.406zm-9.048 4.237.033-.373.238-.035-.103.373zm2.033 1.22c.406-.236.204-.102.204-.102zm-1.491-4.1.067-.441.17-.373.205.067.236-.101.203-.07.069-.472.067-.441.203-.169.236-.204.171-.305.1-.337.136-.342.204-.471.169-.307.272-.17-.033-.27.202-.476.067-.305.17-.339.103-.338.101.101.203.067v.34h.203l.169.069.205.033-.171.237-.169.237.102.205-.237.27v.404l-.102.342.069.27.134.17-.068.273.136.167.169.103.101.134-.202.205-.17.136-.1.27-.069.373-.033.371-.068.34-.17.306-.17.371.137.239-.137.509-.068.371-.202.273-.171.304-.17.204-.033-.236-.102-.138-.202.17-.237-.068-.17.272-.17.099-.204.239-.033-.473-.135.2-.204.17-.238.103v-.373l-.067-.339v-.305l-.136-.237-.203-.101v-.307l-.102-.169zm3.795 0 .136-.341.068-.371v-.375l.034-.303.136-.305v-.305l.033-.339.035-.237.237-.17.068-.442.17-.033.202-.068.169-.102h.136l.169-.135.17-.168.169-.272.102-.306.101-.236.067.102-.067.337-.134.441-.204.237-.169.203h-.171l-.169.137-.169.135-.202.135-.137.17-.101.035-.135.134-.069.373v.374l.17.033.034.238.169-.101.136-.376.168-.133.169-.237.205-.272.102.135-.204.171-.136.372-.136.305-.202.305.136.203.066.168.102.205-.135.305.135.102.102.238.101.17v.37l-.203.34-.102-.134.035-.475-.135.237h-.135l.067-.373-.171-.034-.102-.203.069-.305v-.238l-.135.136-.137.304.036.272v.645l-.069.338.033.306-.202.169-.137.103v-.24l.069-.406.034-.407-.034-.27-.204.135zm2.88-4.678.036-.304.033-.305.136-.272-.069.305.103.203.17-.305v.339l-.136.27.068.137-.136.136-.034.338.034.235.136.207-.17-.069-.102-.17.035-.305-.035-.236zm-.439 3.118.135-.237.169-.068.035.203-.102.272h-.17zm.575-.541.137-.307.204-.168.168-.205.101.035.171-.135.068.169v.27l-.137-.034-.237.137-.168.068-.137.17zm-.136-.815.069-.272.17.069zm.917-1.762.101-.204.169.035-.169.237zm1.388-1.018.17-.135.069.171-.102.167zm-1.253 1.627.135-.405.17-.273.068-.304.203-.169.136.101.17-.168.067.339-.067.373.067.27h.102l.032.27.104.102.1-.102.103-.338.068-.305.103-.373.133-.169.069-.339.169-.34h.136l.134.068.102-.033.137-.035.102-.102h.135l.101-.034.136-.035h.204l.101-.101.102.035.101.034.102.067.102.034.033.17v.372l.102-.067.103.033.1-.203.102.102-.034.307-.101.168-.067.171v.201l.1.205h.068v.372l.034.204.136-.239-.068.304.102-.032.067-.102-.067.272h.067l.103-.1-.069.304-.101.202-.034-.136-.068.102-.102.102-.136.101-.067.103-.033-.17-.068-.102-.069-.136-.033-.166-.035-.274-.067.07h-.17l-.102.135-.1.337-.069.239-.101.236.034.204-.069.203-.136.34-.134.033-.102.136-.135.099-.068-.099-.069-.136-.033-.135-.135.202-.171.168-.135.307-.168.17.135-.477.066-.303.137-.204-.035-.271v-.337l-.067-.306-.068-.102-.101-.033-.168.066h-.138l-.136.034-.169.102-.101-.034-.135-.033-.103-.102-.134.441-.103.102-.035-.238v-.203l-.134-.102-.068.033.068-.168.134-.069.138-.273.134-.168.069-.37-.17.269-.136.204-.135.136-.136-.071v-.269l-.101.069zm-4.271-8.642.204-.034-.068-.339v-.441l-.102-.237.034-.305v-.407l.136-.136.169.069.135-.069.137-.271v.442l.034.339.168.134-.033.374-.068.372-.101.407v.372l.136.374.102.305h.135l.101-.272.102-.068h.17l.202.035-.102.136.068.169.169.169-.101.136h-.136l-.168-.305-.171-.034.035.203.034.273-.203-.273-.171-.033-.134.339-.205.033-.033-.271.068-.305-.137-.101v.236l-.202-.067-.068-.34-.068-.236zm-.406 5.829.068-.372.134-.341.171-.371.101-.306.102-.44.101-.576.102.441-.169.406-.102.203-.068.374-.134.338-.068.272zm.848-4.1.135-.102.136-.034.17.136.032.339-.134.304-.102-.135-.102-.305zm1.389-.374.136-.033.135-.204.135.204.034.305.069.338-.204.169.034.273.101.203-.169.17-.033-.373-.102.033-.035-.372.137-.069.033-.303-.203-.036zm-.679 1.933v-.645l-.102-.236.206-.069.067.136.168-.17.035.407.134-.035v.307l.103-.272.033-.339.035.339.034.272.169-.068v.271l-.135.168-.103-.134-.068.271h-.135l.102.271-.102.237-.135-.135-.102-.204.135-.271-.033-.271-.135-.034zm.171 2.169v-.408l.102-.202.134-.238.068-.305.136-.204.136.035.033.237.102-.306.136-.169.033-.373.102.034.102-.236-.067-.441.201.136.138.236.033.407.103.305.032.272-.067.339-.035.371-.1-.338-.069-.204-.067.272-.068.204.1.168.069.17-.101.407-.102-.135-.102.102-.169-.069-.102-.067-.034-.408.069-.27-.069-.102h-.169l-.103.305-.101.134-.034-.235-.102.135-.066.339-.069.305zm7.117 1.083.101-.101.102-.169.101-.204.104-.135.067-.102.067-.508.101-.102-.033-.44.136-.203.034.271-.068.304-.034.407-.068.102-.101.406-.101.304-.104.138-.066.133-.103.069-.034-.101-.101.067zm1.119-1.863.033-.068.069.305.033.135-.067.306-.035-.101-.033-.238zm-156.789-19.353.068-.068.034.068-.068.204-.034-.069zm.135.712h.068l-.033.374-.068-.103zm.136 1.592.034.136.033.136v.508l-.033.067-.067-.032-.035.032-.033.103-.035-.17.035-.169.033-.339.035-.067zm89.696-70.173-.287-.183.943.041c.145.091-.498.082-.656.142zm-1.819-.566c-.979-.117-.576.205-1.552.099l.652-.318zm-10.799-.745c-.969-.188.32-.23.412-.555l1.004.144c-.191-.013-.383-.021-.417.037 1.53.094 1.003.143 2.762.381-.411.174-.641.064-.954-.08-.339.065-.408.177-.823.213.061-.271-1.119-.284-1.246-.406zm-1.466-.169c.242-.265-.368-.221-.865-.195l1.701-.264c.399.167-.038.418-.836.459zm-1.18.042c-.889.241-.482-.188-1.393-.088.533-.31 1.072-.032 1.393.088zm-5.783.226c1.482-.812 1.671.017 3.681-.427-.444.131-1.024.357-1.408.372-.986.311-.549.379-1.884.454.46-.213 1.525-.078 1.199-.396zm3.172.039-.574.015.744-.171zm-4.037.477-.079.186-.246-.07zm-7.444 1.607-.207.098.246-.227c.187-.034.148.097-.039.129zm-.882-.023-.75.144.242-.233zm-18.161 6.666c.531-.373-.421-.173.453-.571-.01.204.154.394-.453.571zm-10.144 6.745c.379-.43 1.008-.982 1.586-1.234-.566.388-.934.949-1.586 1.234zm-3.509 3.842c-.143-.121-.702-.37.157-.898l-.228.759c.303-.214.149-.03.071.139zm-13.418 13.372c-.054.441-.573.194-.469.644-.206.103-.07-.301.175-.585.139-.069.33-.244.294-.059zm-2.688 4.016c.425-.41.413.366-.119.926.089-.483-.286-.438.188-1.223.297-.334.087.036-.069.297zm-5.285 5.375c.231-.252.495-.623.574-.856-.015.189-.325.866-.574.856zm1.589.992-.002-.634.166.429zm-2.137 5.044.301-.239-.366.964zm-6.516 17.348c.148.424-.229.921-.278.862.093-.246.087-1.107.278-.862z" fill="#53565a"/></g></svg>