<svg enable-background="new 0 0 612 792" height="792" viewBox="0 0 612 792" width="612" xmlns="http://www.w3.org/2000/svg"><g fill="#020202"><path d="m55.845 504.449 11.867-38.493h15.557l11.768 38.493 13.263-38.493h16.155l-23.335 66.914h-11.07l-14.659-46.571-14.56 46.571h-11.069l-23.335-66.914h16.154z"/><path d="m132.531 465.956h14.959v66.914h-14.959z"/><path d="m163.945 465.956h14.958v27.523l25.23-27.523h18.448l-26.626 29.617c2.294 3.191 6.582 9.175 12.765 17.851s10.771 15.158 13.861 19.446h-17.451l-19.546-26.427-6.682 7.479v18.947h-14.958v-66.913z"/><path d="m231.856 465.956h14.959v66.914h-14.959z"/><path d="m323.202 490.787-18.05 36.598h-8.976l-17.95-36.598v42.083h-14.958v-66.914h20.243l17.252 36.798 17.353-36.798h20.144v66.914h-14.958v-42.083z"/><path d="m402.881 465.956v13.263h-33.308v13.762h29.917v12.765h-29.917v13.861h34.305v13.164h-49.264v-66.915h48.267z"/><path d="m468.299 474.731c6.382 5.884 9.573 13.961 9.573 24.332s-3.092 18.648-9.374 24.731c-6.183 6.083-15.756 9.075-28.521 9.075h-22.837v-66.914h23.635c12.067.001 21.141 2.992 27.524 8.776zm-10.97 39.79c3.689-3.49 5.484-8.477 5.484-15.058 0-6.582-1.795-11.668-5.484-15.158-3.689-3.59-9.274-5.285-16.854-5.285h-8.375v40.687h9.474c6.88-.001 12.166-1.696 15.755-5.186z"/><path d="m490.836 465.956h14.959v66.914h-14.959z"/><path d="m569.916 532.87-6.183-14.46h-28.022l-6.183 14.46h-15.855l28.919-66.914h14.46l28.92 66.914zm-20.243-46.97-8.377 19.446h16.753z"/><path d="m176.249 570.393h21.698v4.521h-8.284v22.078h-5.13v-22.078h-8.284z"/><path d="m239.86 596.992-2.356-5.624h-12.996l-2.356 5.624h-5.282l11.666-26.6h5.282l11.514 26.6zm-13.528-9.994h9.348l-4.636-11.172z"/><path d="m267.181 570.393h5.092v26.6h-5.092z"/><path d="m329.692 570.393h5.281l-9.006 26.6h-5.281l-6.08-20.178-6.194 20.178h-5.206l-8.968-26.6h5.472l6.27 21.09 6.232-21.09h5.016l6.271 21.166z"/><path d="m376.62 596.992-2.356-5.624h-12.996l-2.355 5.624h-5.282l11.666-26.6h5.282l11.514 26.6zm-13.528-9.994h9.349l-4.637-11.172z"/><path d="m422.486 570.393h4.94v26.6h-4.826l-13.68-18.316v18.316h-4.979v-26.6h4.826l13.718 18.354v-18.354z"/><path d="m316.421 382.787c35.8-5.086 63.323-35.8 63.323-73.097 0-22.637-10.171-42.881-26.227-56.344l-37.196 37.197v92.244z"/><path d="m295.579 382.787v-92.244l-37.197-37.197c-16.056 13.563-26.227 33.806-26.227 56.344.1 37.196 27.624 68.011 63.424 73.097z"/><path d="m370.171 245.568c17.152 17.152 26.526 39.889 26.526 64.122 0 24.232-9.474 46.969-26.526 64.122-17.152 17.152-39.889 26.526-64.121 26.526s-46.97-9.474-64.122-26.526-26.526-39.889-26.526-64.122 9.474-46.97 26.526-64.122c1.496-1.496 2.991-2.892 4.487-4.188l-20.742-20.742c-1.496 1.396-2.991 2.792-4.487 4.288-10.97 10.969-19.646 23.833-25.729 38.094-6.283 14.759-9.474 30.515-9.474 46.67s3.19 31.911 9.474 46.67c6.083 14.26 14.659 27.125 25.729 38.094 10.97 10.97 23.834 19.646 38.094 25.729 14.759 6.283 30.516 9.474 46.67 9.474 16.155 0 31.912-3.19 46.671-9.474 14.261-6.083 27.125-14.659 38.094-25.729 10.97-10.969 19.646-23.833 25.729-38.094 6.283-14.759 9.474-30.516 9.474-46.67 0-16.155-3.19-31.912-9.474-46.67-6.083-14.261-14.659-27.125-25.729-38.094-1.495-1.496-2.991-2.892-4.487-4.288l-20.742 20.742c1.694 1.296 3.19 2.692 4.685 4.188z"/><circle cx="306.05" cy="226.521" r="37.396"/></g></svg>