<svg clip-rule="evenodd" fill-rule="evenodd" stroke-linejoin="round" stroke-miterlimit="2" viewBox="0 0 351 67" xmlns="http://www.w3.org/2000/svg" xmlns:xlink="http://www.w3.org/1999/xlink"><clipPath id="a"><path clip-rule="evenodd" d="m0 0h301v58h-301z"/></clipPath><g transform="scale(1.16611 1.15517)"><path d="m0 0h301v58h-301z" fill="none"/><g clip-path="url(#a)"><g fill-rule="nonzero" transform="scale(.85755 .865672)"><path d="m94.06 17c-5.37 0-8.46 1-11.6 4.44l5.12 5c1.67-1.91 3.09-2.65 6.18-2.65 4.26 0 6 1.55 6 5.07v1.6h-7.6c-7.47 0-11 4.2-11 9.32-.082 2.658.868 5.246 2.65 7.22 1.92 1.91 4.57 2.84 8.21 2.84s5.74-.93 7.9-3.09v2.78h7.84v-21.15c0-7.54-4.69-11.38-13.7-11.38zm5.68 20.7c0 2-.31 3.27-1.18 4.07-1.42 1.35-2.84 1.54-5.06 1.54-3.15 0-4.63-1.48-4.63-3.7s1.61-3.61 4.51-3.61h6.36zm25.32 12.22c-6.42 0-14.38-3.45-14.38-16.48s7.97-16.44 14.38-16.44c3.999-.18 7.882 1.4 10.62 4.32l-5.43 5.43c-1.66-1.79-3.09-2.53-5.18-2.53-1.769-.067-3.468.714-4.57 2.1-1.24 1.54-1.79 3.7-1.79 7.1s.55 5.62 1.79 7.15c1.1 1.389 2.8 2.17 4.57 2.1 2.1 0 3.52-.74 5.18-2.53l5.43 5.37c-2.727 2.944-6.61 4.553-10.62 4.4zm25.29 0c-6.42 0-14.38-3.45-14.38-16.48s7.96-16.44 14.38-16.44c4.012-.184 7.909 1.404 10.65 4.34l-5.43 5.43c-1.66-1.79-3.09-2.53-5.18-2.53-1.769-.067-3.468.714-4.57 2.1-1.24 1.54-1.79 3.7-1.79 7.1s.55 5.62 1.79 7.15c1.1 1.389 2.8 2.17 4.57 2.1 2.1 0 3.52-.74 5.18-2.53l5.43 5.37c-2.737 2.945-6.633 4.547-10.65 4.38zm38.71-17.52c0-8.84-5.06-15.4-14.06-15.4-8.33 0-14 5.92-14 16.41 0 13 7.28 16.48 14.88 16.48 5.8 0 9-1.79 12.22-5.06l-4.88-4.75c-1.825 2.079-4.52 3.189-7.28 3-4.5 0-7-3-7-7.15h20.13zm-20.13-1.92c.012-1.188.264-2.362.74-3.45 1.013-2.033 3.098-3.324 5.37-3.324s4.357 1.291 5.37 3.324c.477 1.088.729 2.262.74 3.45zm35.49 19.44c-5.06 0-9.63-.56-13.7-4.63l5.28-5.29c2.65 2.65 6.11 3 8.58 3 2.78 0 5.68-.92 5.68-3.33 0-1.6-.87-2.72-3.39-3l-5.06-.5c-5.8-.56-9.38-3.08-9.38-9 0-6.66 5.86-10.24 12.4-10.24 5 0 9.2.86 12.28 3.76l-4.94 5c-1.85-1.66-4.69-2.16-7.47-2.16-3.21 0-4.57 1.48-4.57 3.09 0 1.17.49 2.53 3.33 2.77l5.06.49c6.36.62 9.57 4 9.57 9.45-.02 7.19-6.09 10.58-13.66 10.58zm28.33 0c-5.06 0-9.63-.56-13.71-4.63l5.25-5.29c2.65 2.65 6.11 3 8.58 3 2.78 0 5.68-.92 5.68-3.33 0-1.6-.87-2.72-3.39-3l-5.06-.5c-5.81-.56-9.38-3.08-9.38-9 0-6.66 5.86-10.24 12.4-10.24 5 0 9.2.86 12.28 3.76l-4.94 5c-1.85-1.66-4.69-2.16-7.47-2.16-3.21 0-4.57 1.48-4.57 3.09 0 1.17.49 2.53 3.33 2.77l5.06.49c6.36.62 9.57 4 9.57 9.45.01 7.19-6.04 10.58-13.63 10.58zm38.63-.45v-19.64c0-5.64-3-8.49-7.84-8.49s-7.91 2.92-7.91 8.49v19.63h-4.63v-31.88h4.67v3.5c2.254-2.557 5.533-3.983 8.94-3.89 3.016-.146 5.965.937 8.17 3 2.22 2.18 3.22 5.16 3.22 8.81v20.46zm30.39-28.65c-5.103-4.813-13.177-4.813-18.28 0-3.24 3.31-3.89 7.78-3.89 12.7s.65 9.4 3.89 12.7c5.103 4.813 13.177 4.813 18.28 0 3.24-3.31 3.89-7.78 3.89-12.7s-.66-9.4-3.89-12.7zm-3.3 22.55c-1.555 1.522-3.655 2.361-5.83 2.33-2.158.034-4.241-.807-5.77-2.33-2.33-2.33-2.59-6.29-2.59-9.85s.26-7.52 2.59-9.85c1.529-1.523 3.612-2.364 5.77-2.33 2.175-.031 4.275.808 5.83 2.33 2.33 2.33 2.53 6.33 2.53 9.85s-.2 7.48-2.53 9.85zm42.44 6.09h-4.34l-8.36-24.76-8.3 24.76h-4.34l-10.11-31.88h5.05l7.32 25.6 8.36-25.6h4l8.43 25.6 7.26-25.6h5.12z"/><path d="m5.66 43.16c-1.593-.253-3.17-.55-4.73-.89 2.756 11.561 11.315 20.904 22.59 24.66v-.36c0-2.627.841-5.186 2.4-7.3-1.847-2.12-3.576-4.34-5.18-6.65-1.364.599-2.837.908-4.327.908-5.755 0-10.544-4.617-10.753-10.368zm43.8-3.44c4.875 3.817 10.037 7.254 15.44 10.28 2.495-4.846 3.795-10.219 3.79-15.67-.016-2.227-.247-4.447-.69-6.63-2.251 1.701-4.587 3.287-7 4.75-1.042 3.805-2.379 7.523-4 11.12l-1.21-.81c1.32-3.012 2.44-6.109 3.35-9.27-9.846 5.583-20.742 9.07-32 10.24-.313 3.397-2.223 6.451-5.14 8.22 1.501 2.153 3.113 4.226 4.83 6.21 3.725-4.029 9.717-5.104 14.61-2.62 1.562-4.664 2.834-9.419 3.81-14.24l1.57-.55c-1.028 5.259-2.404 10.444-4.12 15.52 1.218.807 2.285 1.823 3.15 3 3.13-3.911 5.86-8.125 8.15-12.58l1.21.79c-2.38 4.638-5.228 9.021-8.5 13.08.892 1.601 1.415 3.381 1.53 5.21 6.746-2.993 12.356-8.073 16-14.49-5.72-3.223-11.171-6.902-16.3-11zm13.9-21.93c-.274 4.273-.91 8.515-1.9 12.68 2.153-1.333 4.237-2.77 6.25-4.31-.746-3.041-1.906-5.965-3.45-8.69-.287.147-.594.255-.91.32zm-56.36 4.72c-2 1.06-4 2.2-5.92 3.42-1.234 4.84-1.398 9.891-.48 14.8 1.673.38 3.37.713 5.09 1 .331-3.476 2.332-6.582 5.36-8.32-2.18-6.509-3.465-13.285-3.82-20.14-2.474 3.173-4.37 6.758-5.6 10.59 1.66-.993 3.35-1.947 5.07-2.86.09.52.17 1 .3 1.51zm52.1-8.25c-.012-.166-.012-.334 0-.5-2.22-.333-4.467-.577-6.74-.73-.321 1.91-1.548 3.552-3.29 4.4-.001 6.15-.465 12.29-1.39 18.37l-1.55.6-.49.19-1.56.56c-4.872-4.208-9.406-8.792-13.56-13.71-1.214.756-2.616 1.156-4.047 1.156-4.012 0-7.379-3.152-7.643-7.156-2.667.92-5.283 1.963-7.85 3.13-.08-.49-.16-1-.23-1.47 2.654-1.2 5.368-2.265 8.13-3.19.249-1.823 1.148-3.496 2.53-4.71-1.413-2.18-2.747-4.403-4-6.67-3.307 1.862-6.284 4.258-8.81 7.09.222 7.188 1.485 14.305 3.75 21.13 1.292-.528 2.673-.799 4.069-.799 5.74 0 10.521 4.593 10.751 10.329 11.491-1.212 22.588-4.878 32.54-10.75 1.165-4.501 1.904-9.101 2.21-13.74-1.665-.341-2.871-1.82-2.87-3.52zm-6.62-2.66c2.413.167 4.8.427 7.16.78.153-.255.338-.491.55-.7-3.307-3.751-7.392-6.738-11.97-8.75.14 1.16.263 2.327.37 3.5 2.178.829 3.684 2.855 3.85 5.18zm-6 6.44c-2.917.002-5.434-2.124-5.92-5-2.373.16-4.707.42-7 .78 1.331 2.999.592 6.536-1.83 8.75 4.278 5.04 8.96 9.722 14 14l.49-.19c.976-6.112 1.481-12.29 1.51-18.48-.422.081-.851.114-1.28.1zm-13.75-5.56c2.54-.407 5.117-.697 7.73-.87.225-3.127 2.865-5.578 6-5.57.217-.011.433-.011.65 0-.12-1.267-.26-2.523-.42-3.77-9.14-3.513-19.36-2.952-28.06 1.54 1.247 2.213 2.557 4.387 3.93 6.52 3.41-2.033 7.865-1.09 10.16 2.15z" fill="#88bd56"/></g></g></g></svg>