<?xml version="1.0" encoding="UTF-8" standalone="no"?><!DOCTYPE svg PUBLIC "-//W3C//DTD SVG 1.1//EN" "http://www.w3.org/Graphics/SVG/1.1/DTD/svg11.dtd"><svg width="100%" height="100%" viewBox="0 0 1795 359" version="1.1" xmlns="http://www.w3.org/2000/svg" xmlns:xlink="http://www.w3.org/1999/xlink" xml:space="preserve" xmlns:serif="http://www.serif.com/" style="fill-rule:evenodd;clip-rule:evenodd;stroke-linejoin:round;stroke-miterlimit:2;"><g><path d="M1460.76,295.79L1440.33,244.685L1427.99,244.685L1427.97,333.402L1441.76,333.402L1441.77,282.927L1464.05,333.402L1473.9,333.402L1473.91,244.681L1460.8,244.681L1460.76,295.79Z" style="fill:rgb(35,25,22);fill-rule:nonzero;"/><path d="M1752.76,295.713L1732.33,244.609L1719.99,244.609L1719.97,333.325L1733.76,333.325L1733.77,282.85L1756.05,333.325L1765.9,333.325L1765.91,244.605L1752.8,244.605L1752.76,295.713Z" style="fill:rgb(35,25,22);fill-rule:nonzero;"/><path d="M1695.39,312.368C1695.39,318.014 1692.82,320.881 1687.81,320.881C1682.8,320.881 1680.22,318.014 1680.22,312.368L1680.22,267.006C1680.22,261.368 1682.8,258.598 1687.81,258.598C1692.82,258.598 1695.39,261.368 1695.39,267.006L1695.39,312.368ZM1688.35,243.431C1673.72,243.431 1665.19,251.852 1665.19,265.485L1665.19,310.323C1665.19,326.31 1673.18,334.606 1687.81,334.606C1702.16,334.606 1710.56,326.189 1710.56,310.702L1710.56,265.848C1710.56,251.731 1701.76,243.431 1688.35,243.431" style="fill:rgb(35,25,22);fill-rule:nonzero;"/><rect x="1639.06" y="244.525" width="15.25" height="88.729" style="fill:rgb(2,2,2);"/><path d="M1587.16,258.724L1602.46,258.724L1602.46,333.283L1617.21,333.283L1617.21,258.724L1632.63,258.724L1632.63,244.553L1587.16,244.553L1587.16,258.724Z" style="fill:rgb(35,25,22);fill-rule:nonzero;"/><path d="M1555.94,299.766L1561.06,270.979L1562.02,270.979L1566.86,299.766L1555.94,299.766ZM1551.85,244.525L1535.91,333.262L1550.61,333.262L1553.78,314.037L1568.89,314.037L1571.91,333.262L1587.3,333.262L1571.36,244.525L1551.85,244.525Z" style="fill:rgb(35,25,22);fill-rule:nonzero;"/><path d="M1513.71,310.924C1513.71,316.953 1511.52,320.215 1505.88,320.215L1498.33,320.215L1498.33,257.64L1501.76,257.64C1510,257.64 1513.71,260.911 1513.71,268.19L1513.71,310.924ZM1504.79,244.574L1483.48,244.574L1483.48,333.282L1505.47,333.282C1522.1,333.282 1528.97,325.495 1528.97,308.528L1528.97,268.953C1528.97,252.495 1521.41,244.574 1504.79,244.574" style="fill:rgb(35,25,22);fill-rule:nonzero;"/><path d="M1404.14,312.835C1404.14,318.21 1401.16,321.205 1396.69,321.205C1392.22,321.205 1388.83,318.21 1388.83,312.835L1388.83,244.56L1373.8,244.56L1373.8,310.093C1373.8,326.197 1381.93,334.56 1396.56,334.56C1410.91,334.56 1419.17,326.076 1419.17,310.472L1419.17,244.56L1404.14,244.56L1404.14,312.835Z" style="fill:rgb(35,25,22);fill-rule:nonzero;"/><path d="M1351.05,312.3C1351.05,317.946 1348.48,320.813 1343.46,320.813C1338.46,320.813 1335.88,317.946 1335.88,312.3L1335.88,266.938C1335.88,261.3 1338.46,258.529 1343.46,258.529C1348.48,258.529 1351.05,261.3 1351.05,266.938L1351.05,312.3ZM1344.01,243.363C1329.38,243.363 1320.85,251.783 1320.85,265.417L1320.85,310.254C1320.85,326.242 1328.84,334.538 1343.46,334.538C1357.83,334.538 1366.22,326.121 1366.22,310.633L1366.22,265.779C1366.22,251.663 1357.41,243.363 1344.01,243.363" style="fill:rgb(35,25,22);fill-rule:nonzero;"/><path d="M1274.32,333.308L1289.48,333.308L1289.48,294.463L1306.61,294.463L1306.61,279.888L1289.48,279.888L1289.48,259.883L1313.82,259.883L1313.82,244.563L1274.32,244.563L1274.32,333.308Z" style="fill:rgb(35,25,22);fill-rule:nonzero;"/><path d="M163.554,166.473C160.692,168.135 159.708,171.794 161.362,174.656C163.021,177.523 166.679,178.494 169.542,176.852C172.404,175.19 173.383,171.531 171.733,168.665C170.087,165.802 166.417,164.819 163.554,166.473" style="fill:rgb(61,80,95);fill-rule:nonzero;"/><path d="M100.149,178.89C74.37,164.01 41.408,172.831 26.52,198.606C11.641,224.385 20.474,257.352 46.254,272.24C72.037,287.119 104.991,278.29 119.879,252.506C134.758,226.727 125.929,193.769 100.149,178.89" style="fill:rgb(61,80,95);fill-rule:nonzero;"/><path d="M232.954,164.444C258.733,179.323 291.699,170.494 306.579,144.719C321.458,118.94 312.624,85.973 286.854,71.102C261.07,56.215 228.112,65.044 213.224,90.823C198.341,116.598 207.179,149.565 232.954,164.444" style="fill:rgb(61,80,95);fill-rule:nonzero;"/><path d="M139.606,232.775C113.827,247.663 104.989,280.629 119.877,306.413C134.756,332.192 167.719,341.013 193.502,326.133C219.277,311.254 228.11,278.288 213.227,252.508C198.339,226.725 165.381,217.904 139.606,232.775" style="fill:rgb(61,80,95);fill-rule:nonzero;"/><path d="M193.501,110.55C219.276,95.67 228.109,62.704 213.226,36.92C198.338,11.141 165.38,2.32 139.605,17.2C113.826,32.079 104.992,65.045 119.876,90.825C134.755,116.595 167.722,125.429 193.501,110.55" style="fill:rgb(61,80,95);fill-rule:nonzero;"/><path d="M259.901,171.663C230.13,171.671 206.001,195.8 206.005,225.558C206.005,255.333 230.13,279.45 259.901,279.458C289.668,279.45 313.805,255.333 313.805,225.558C313.805,195.8 289.668,171.671 259.901,171.663" style="fill:rgb(61,80,95);fill-rule:nonzero;"/><path d="M73.198,171.67C102.965,171.662 127.094,147.533 127.094,117.766C127.094,87.999 102.965,63.874 73.198,63.874C43.436,63.874 19.298,87.999 19.298,117.766C19.302,147.533 43.436,171.662 73.198,171.67" style="fill:rgb(61,80,95);fill-rule:nonzero;"/><path d="M126.446,205.194C135.041,210.152 146.033,207.206 150.991,198.606C155.95,190.019 153.004,179.027 144.416,174.077C135.821,169.11 124.833,172.048 119.879,180.64C114.912,189.244 117.854,200.227 126.446,205.194" style="fill:rgb(61,80,95);fill-rule:nonzero;"/><path d="M188.68,169.256C197.276,174.215 208.259,171.269 213.222,162.685C218.184,154.09 215.239,143.098 206.651,138.14C198.059,133.169 187.068,136.119 182.105,144.719C177.147,153.315 180.084,164.298 188.68,169.256" style="fill:rgb(61,80,95);fill-rule:nonzero;"/><path d="M175.532,223.151C184.119,218.193 187.069,207.209 182.103,198.605C177.149,190.022 166.165,187.076 157.565,192.043C148.974,196.993 146.032,207.984 150.99,216.58C155.953,225.172 166.936,228.109 175.532,223.151" style="fill:rgb(61,80,95);fill-rule:nonzero;"/><path d="M157.567,120.175C148.972,125.133 146.03,136.116 150.992,144.72C155.955,153.312 166.938,156.25 175.534,151.291C184.122,146.333 187.067,135.35 182.105,126.745C177.147,118.162 166.163,115.216 157.567,120.175" style="fill:rgb(61,80,95);fill-rule:nonzero;"/><path d="M197.667,207.592C207.587,207.592 215.633,199.554 215.633,189.629C215.633,179.7 207.587,171.663 197.667,171.663C187.746,171.663 179.704,179.7 179.704,189.629C179.704,199.554 187.746,207.592 197.667,207.592" style="fill:rgb(61,80,95);fill-rule:nonzero;"/><path d="M135.432,135.732C125.512,135.732 117.466,143.77 117.466,153.699C117.466,163.616 125.512,171.662 135.432,171.662C145.353,171.662 153.399,163.616 153.399,153.699C153.399,143.77 145.353,135.732 135.432,135.732" style="fill:rgb(61,80,95);fill-rule:nonzero;"/><path d="M153.18,172.465C150.322,174.119 149.339,177.786 150.993,180.64C152.643,183.507 156.301,184.486 159.172,182.84C162.03,181.19 163.022,177.523 161.359,174.657C159.705,171.794 156.043,170.811 153.18,172.465" style="fill:rgb(61,80,95);fill-rule:nonzero;"/><path d="M182.104,162.684C180.454,159.822 176.788,158.83 173.929,160.484C171.059,162.134 170.084,165.801 171.734,168.668C173.384,171.53 177.05,172.513 179.921,170.859C182.779,169.205 183.763,165.547 182.104,162.684" style="fill:rgb(61,80,95);fill-rule:nonzero;"/><path d="M166.549,177.653C163.241,177.653 160.558,180.328 160.558,183.636C160.558,186.949 163.241,189.628 166.549,189.628C169.858,189.628 172.537,186.949 172.537,183.636C172.537,180.328 169.858,177.653 166.549,177.653" style="fill:rgb(61,80,95);fill-rule:nonzero;"/><path d="M166.549,165.672C169.858,165.672 172.537,162.997 172.537,159.688C172.537,156.376 169.858,153.697 166.549,153.697C163.241,153.697 160.558,156.384 160.558,159.688C160.558,162.997 163.241,165.672 166.549,165.672" style="fill:rgb(61,80,95);fill-rule:nonzero;"/><path d="M173.928,182.842C176.79,184.488 180.453,183.504 182.103,180.642C183.761,177.783 182.778,174.117 179.915,172.467C177.049,170.813 173.382,171.792 171.736,174.658C170.086,177.521 171.061,181.188 173.928,182.842" style="fill:rgb(61,80,95);fill-rule:nonzero;"/><path d="M159.171,160.482C156.304,158.828 152.646,159.82 150.992,162.682C149.338,165.549 150.321,169.207 153.179,170.862C156.042,172.512 159.709,171.533 161.359,168.666C163.013,165.803 162.029,162.145 159.171,160.482" style="fill:rgb(61,80,95);fill-rule:nonzero;"/><path d="M1202.23,280.75L1187.05,280.75L1187.05,244.55L1172,244.55L1172,333.271L1187.05,333.271L1186.93,295.555L1202.11,295.555L1202.23,333.271L1217.42,333.271L1217.42,244.55L1202.23,244.55L1202.23,280.75Z" style="fill:rgb(35,25,22);fill-rule:nonzero;"/><path d="M1143.55,243.543C1128.89,243.543 1120.34,251.96 1120.34,265.589L1120.34,310.414C1120.34,326.393 1128.07,334.693 1143,334.693C1157.39,334.693 1165.8,326.276 1165.8,310.793L1165.8,301.626L1150.6,301.626L1150.6,313.514C1150.6,319.589 1144.52,320.172 1143.07,320.172C1141.63,320.172 1135.41,319.589 1135.41,313.514L1135.41,264.718C1135.41,258.655 1143,258.685 1143,258.685C1143,258.685 1150.6,258.655 1150.6,264.718L1150.6,274.376L1165.8,274.376L1165.8,265.951C1165.8,251.839 1156.98,243.543 1143.55,243.543" style="fill:rgb(35,25,22);fill-rule:nonzero;"/><path d="M1090.93,282.263L1084.56,282.263L1084.56,260.075L1090.38,260.075C1094.66,260.063 1100.14,262.559 1100.14,270.675C1100.14,279.125 1096.2,282.071 1090.93,282.263M1116.07,270.171C1115.92,258.421 1111.18,245.546 1092.18,244.53L1069.7,244.53L1069.7,333.255L1084.64,333.238L1084.64,297.405L1091.32,297.438L1101.73,333.255L1116.95,333.238L1105.32,294.205C1113.08,289.488 1116.2,280.73 1116.07,270.171" style="fill:rgb(35,25,22);fill-rule:nonzero;"/><path d="M1029.12,299.78L1034.24,270.993L1035.2,270.993L1040.04,299.78L1029.12,299.78ZM1025.03,244.539L1009.09,333.276L1023.79,333.276L1026.95,314.051L1042.07,314.051L1045.09,333.276L1060.47,333.276L1044.54,244.539L1025.03,244.539Z" style="fill:rgb(35,25,22);fill-rule:nonzero;"/><path d="M962.007,333.294L1001.71,333.294L1001.71,317.906L977.245,317.906L977.245,294.648L994.857,294.648L994.857,280.64L977.245,280.64L977.245,259.96L1001.71,259.96L1001.71,244.573L962.007,244.573L962.007,333.294Z" style="fill:rgb(35,25,22);fill-rule:nonzero;"/><path d="M941.717,284.003C932.55,277.199 926.804,273.891 926.662,266.358C926.571,261.403 930.671,258.091 934.296,258.278C939.95,258.57 942.758,264.266 944.846,270.345L957.817,266.803C958.317,258.228 947.658,243.716 935.292,243.466C921.212,243.187 912.046,252.741 912.5,267.716C912.879,280.162 921.3,287.678 930.1,295.12C938.283,302.037 943.212,303.858 943.212,311.183C943.212,316.266 939.512,319.983 934.05,319.983C927.762,319.983 924.546,315.733 923.637,305.799L910.446,308.099C909.912,323.928 920.937,334.578 935.425,334.578C948.696,334.578 957.554,323.041 957.912,312.816C958.379,299.67 951.558,291.312 941.717,284.003" style="fill:rgb(35,25,22);fill-rule:nonzero;"/><path d="M864.075,333.272L903.775,333.272L903.775,317.884L879.313,317.884L879.313,294.626L896.925,294.626L896.925,280.618L879.313,280.618L879.313,259.938L903.775,259.938L903.775,244.551L864.075,244.551L864.075,333.272Z" style="fill:rgb(35,25,22);fill-rule:nonzero;"/><path d="M833.493,282.291L827.127,282.291L827.127,260.103L832.939,260.103C837.227,260.091 842.702,262.587 842.702,270.703C842.702,279.153 838.768,282.099 833.493,282.291M858.631,270.199C858.485,258.449 853.743,245.574 834.743,244.558L812.264,244.558L812.264,333.283L827.202,333.266L827.202,297.433L833.881,297.466L844.297,333.283L859.518,333.266L847.881,294.237C855.639,289.516 858.764,280.758 858.631,270.199" style="fill:rgb(35,25,22);fill-rule:nonzero;"/><path d="M709.511,333.24L749.211,333.24L749.211,317.853L724.749,317.853L724.749,294.594L742.361,294.594L742.361,280.586L724.749,280.586L724.749,259.907L749.211,259.907L749.211,244.519L709.511,244.519L709.511,333.24Z" style="fill:rgb(35,25,22);fill-rule:nonzero;"/><path d="M663.285,333.266L678.452,333.266L678.452,294.42L695.581,294.42L695.581,279.845L678.452,279.845L678.452,259.841L702.789,259.841L702.789,244.52L663.285,244.52L663.285,333.266Z" style="fill:rgb(35,25,22);fill-rule:nonzero;"/><path d="M607.448,244.519L592.044,244.519L592.044,333.244L631.557,333.244L631.557,319.502L607.448,319.502L607.448,244.519Z" style="fill:rgb(35,25,22);fill-rule:nonzero;"/><rect x="566.084" y="244.446" width="15.25" height="88.729" style="fill:rgb(2,2,2);"/><path d="M543.063,280.718L527.879,280.718L527.879,244.518L512.834,244.518L512.834,333.239L527.879,333.239L527.763,295.522L542.946,295.522L543.063,333.239L558.25,333.239L558.25,244.518L543.063,244.518L543.063,280.718Z" style="fill:rgb(35,25,22);fill-rule:nonzero;"/><path d="M483.717,243.334C469.058,243.334 460.508,251.75 460.508,265.38L460.508,310.205C460.508,326.188 468.242,334.484 483.171,334.484C497.558,334.484 505.971,326.067 505.971,310.584L505.971,301.417L490.767,301.417L490.767,313.305C490.767,319.38 484.683,319.963 483.242,319.963C481.8,319.963 475.575,319.38 475.575,313.305L475.575,264.509C475.575,258.446 483.171,258.475 483.171,258.475C483.171,258.475 490.767,258.446 490.767,264.509L490.767,274.167L505.971,274.167L505.971,265.742C505.971,251.63 497.15,243.334 483.717,243.334" style="fill:rgb(35,25,22);fill-rule:nonzero;"/><path d="M429.689,282.263L423.322,282.263L423.322,260.076L429.135,260.076C433.422,260.068 438.897,262.559 438.897,270.676C438.897,279.126 434.964,282.072 429.689,282.263M454.826,270.172C454.681,258.422 449.939,245.547 430.939,244.53L408.46,244.53L408.46,333.255L423.397,333.238L423.397,297.405L430.076,297.438L440.493,333.255L455.714,333.238L444.076,294.205C451.835,289.488 454.96,280.73 454.826,270.172" style="fill:rgb(35,25,22);fill-rule:nonzero;"/><path d="M368.809,299.761L373.93,270.973L374.892,270.973L379.734,299.761L368.809,299.761ZM364.722,244.519L348.784,333.257L363.484,333.257L366.647,314.032L381.759,314.032L384.78,333.257L400.167,333.257L384.234,244.519L364.722,244.519Z" style="fill:rgb(35,25,22);fill-rule:nonzero;"/><rect x="638.821" y="244.534" width="15.25" height="88.729" style="fill:rgb(2,2,2);"/><path d="M428.787,140.1C428.787,140.1 423.545,136.42 423.058,136C422.57,135.575 414.954,130.075 414.008,129.291C413.066,128.512 406.783,123.887 405.999,123.108C405.662,122.77 404.399,121.912 403.024,121.029C404.679,119.558 405.783,118.566 405.999,118.354C407.174,117.216 415.245,108.395 414.658,108.85C414.262,109.158 420.324,101.812 424.066,97.066L424.099,97.066C424.458,97 427.908,92.704 428.137,92.312C428.362,91.92 428.395,90.166 428.199,89.579C428.008,88.991 425.304,85.283 424.362,84.695C423.416,84.108 422.733,83.558 421.429,83.654C420.129,83.754 400.987,83.166 400.141,83.329C399.962,83.362 398.729,83.37 396.954,83.366C396.954,79.42 396.933,72.72 396.82,71.675C396.658,70.179 396.624,66.629 397.341,65.687C398.058,64.741 399.716,63.666 400.337,63.408C400.954,63.145 401.995,62.3 401.966,61.583C401.933,60.866 401.416,60.266 400.337,60C399.258,59.729 392.666,59.066 392.274,59.041C391.883,59.016 384.016,58.22 383.67,58.208C383.329,58.195 382.22,58.041 382.108,58.004C382.108,58.004 377.616,56.57 377.812,61.129C377.958,64.587 377.958,77.079 377.949,83.154C376.47,83.137 375.504,83.129 375.399,83.133C374.879,83.166 353.333,83.362 352.812,83.2C352.812,83.2 349.783,82.741 349.62,85.216C349.458,87.691 349.587,91.108 349.62,91.92C349.654,92.737 349.716,95.991 350.208,96.87C350.695,97.75 350.891,98.725 354.241,98.433C357.595,98.141 390.116,97.262 391.545,97.262C392.012,97.262 395.583,97.245 400.187,97.229C399.533,98.445 398.958,99.479 398.774,99.733C398.287,100.42 390.279,109.729 388.879,110.933C387.479,112.137 381.845,117.475 380.416,118.679C378.983,119.883 366.124,130.237 364.27,131.375C362.412,132.516 354.404,137.204 352.874,138.083C351.345,138.962 349.066,140.295 348.124,140.75C347.179,141.208 343.958,142.345 345.195,143.55C346.429,144.754 357.662,151.037 359.387,151.95C361.112,152.862 361.012,153.77 364.204,152.341C367.395,150.908 376.608,143.975 377.483,143.42C377.516,143.4 377.641,143.295 377.729,143.229C377.737,146.15 377.745,148.52 377.745,148.87C377.745,149.866 377.224,195.437 377.158,196.687C377.095,197.933 376.583,206.55 377.333,207.191C378.079,207.833 378.374,208.012 379.091,208.191C379.804,208.366 395.595,208.225 396.145,208.045C396.699,207.87 396.733,208.045 397.254,207.404C397.774,206.762 397.904,206.479 397.904,204.266C397.904,202.054 397.604,184.695 397.604,183.412C397.604,182.125 397.47,171.17 397.47,170.066C397.47,168.958 397.57,157.575 397.537,156.22C397.508,155.087 397.391,142.787 397.429,137.833C399.058,139.037 400.866,140.266 401.379,140.62C402.224,141.208 407.954,146.708 409.32,147.783C410.687,148.858 416.808,153.25 417.72,153.708C418.629,154.162 419.999,152.437 420.845,151.558C421.691,150.679 426.412,145.795 427.941,144.854C429.47,143.908 430.22,142.995 430.545,142.183C430.87,141.37 428.787,140.1 428.787,140.1" style="fill:rgb(2,2,2);fill-rule:nonzero;"/><path d="M500.523,142.954C501.073,142.929 505.014,143.117 509.644,143.358C509.673,147.213 509.898,163.788 509.898,163.788C509.835,164.696 509.806,173.229 509.789,182.088C504.548,182.263 485.773,182.221 484.898,182.279C484.298,182.317 477.523,182.258 472.41,182.208C472.323,172.458 472.298,151.908 472.264,143.192C475.748,143.017 500.523,142.954 500.523,142.954M535.289,89.7C533.856,88.983 533.985,89.179 532.552,89.179C531.123,89.179 485.614,89.504 484.114,89.567C483.96,89.575 483.31,89.575 482.31,89.571C482.427,88.817 482.519,88.246 482.556,88.004C482.556,88.004 483.76,70.2 483.923,69.125C483.923,69.125 483.952,65.154 485.677,64.375C485.677,64.375 488.219,62.908 487.502,61.704C487.502,61.704 486.914,60.404 481.644,59.621C481.644,59.621 473.244,58.321 471.227,58.058C471.227,58.058 465.56,57.213 464.844,57.929C464.844,57.929 463.023,58.579 463.152,60.271C463.152,60.271 463.089,76.288 463.023,77.2C463.023,77.2 462.648,83.446 462.256,89.358C449.927,89.213 436.981,89.046 436.981,89.046C436.981,89.046 431.481,88.696 431.381,91.129C431.227,94.971 431.252,99.075 431.252,99.596C431.252,100.117 430.798,104.217 432.423,104.671C434.052,105.129 437.956,105.063 439.585,105.063C440.302,105.063 449.802,105 460.31,104.925C458.435,113.242 454.652,128.842 451.694,135.142C447.723,143.604 440.498,157.017 432.685,164.958C424.873,172.9 421.031,176.808 408.856,185.013C408.856,185.013 406.123,186.771 406.902,187.617C406.902,187.617 408.335,189.05 411.981,189.829C411.981,189.829 416.081,191.133 419.144,193.217C419.144,193.217 422.202,196.146 424.223,195.821C424.223,195.821 425.589,195.95 428.91,193.217C428.91,193.217 440.039,184.296 441.539,182.667C441.539,182.667 450.781,173.292 452.344,171.338C452.344,171.338 452.527,171.079 452.781,170.708C452.723,181.967 452.723,202.85 452.723,202.85C452.523,207.733 453.689,207.95 454.06,208.158C454.427,208.371 469.277,208.188 469.277,208.188C472.102,207.992 472.044,207.696 472.523,207.192C472.989,206.7 473.044,205.054 473.044,205.054C473.044,205.054 473.064,201.179 472.939,197.467C480.827,196.675 505.989,197.121 505.989,197.121C506.614,197.121 508.26,197.204 509.769,197.3L509.769,202.85C509.573,207.733 510.681,207.538 510.681,207.538C511.331,208.579 525.781,208.188 525.781,208.188C528.519,207.992 528.777,207.279 528.777,207.279C529.164,206.858 529.294,206.367 529.331,205.95C529.335,205.942 529.344,205.938 529.344,205.929C529.348,205.908 529.348,205.867 529.352,205.842C529.352,205.833 529.356,205.825 529.356,205.821C529.439,205.317 529.423,204.217 529.406,203.742C529.469,199.688 528.906,187.488 528.906,187.488C528.748,186.35 528.719,154.883 528.677,143.346C528.96,142.033 528.777,131.888 528.777,131.888C528.906,129.217 527.735,129.021 527.735,129.021C527.085,128.242 526.694,128.5 526.694,128.5C525.719,128.108 492.452,128.892 492.452,128.892C491.16,128.892 479.856,128.613 473.927,128.463C474.019,128.129 474.135,127.792 474.223,127.458C474.223,127.458 478.519,112.421 479.689,106.233C479.689,106.233 479.777,105.679 479.919,104.775C485.277,104.729 489.056,104.692 489.323,104.671C490.302,104.608 533.139,105.583 534.119,105.063C535.094,104.542 535.223,104.542 535.548,103.5C535.873,102.458 536.069,97.575 536.069,96.729C536.069,95.883 536.723,90.417 535.289,89.7" style="fill:rgb(2,2,2);fill-rule:nonzero;"/><path d="M738.462,196.255C738.499,195.675 738.457,195.167 738.403,194.796C738.316,193.8 737.974,192.134 736.712,192.013C736.778,191.917 723.52,192.484 722.482,192.65C722.482,192.65 708.295,193.209 707.312,193.209C707.312,193.209 690.636,193.538 689.632,193.513C689.632,193.513 676.128,193.613 675.124,193.659C675.124,193.659 667.749,193.634 661.945,193.605C661.966,185.088 661.957,169.721 661.941,154.446C665.324,154.417 667.645,154.396 668.032,154.388C669.916,154.346 714.987,155.975 715.837,155.675C715.837,155.675 716.612,155.313 716.741,154.984C716.741,154.984 716.874,154.509 716.857,154.105C716.857,154.105 717.199,142.942 717.166,142.634C717.132,142.321 717.095,141.067 716.891,140.809C716.687,140.546 716.357,139.463 714.999,139.421C713.645,139.38 697.499,140.088 695.895,140.13C694.287,140.171 671.153,140.646 669.678,140.646C669.224,140.646 666.087,140.625 661.92,140.596C661.907,130.596 661.895,121.692 661.886,116.1L661.886,110.3L661.882,110.3C661.882,110.3 661.886,109.95 661.886,109.48L661.886,110.3C669.391,110.292 675.645,110.284 675.645,110.284C676.328,110.317 697.066,110.546 697.066,110.546C698.007,110.513 713.278,111 713.278,111C714.903,111.03 722.766,111.03 722.766,111.03C724.557,110.896 724.737,109.763 724.737,109.763C724.899,109.18 724.67,104.688 724.67,104.688C724.737,104.23 724.67,97.917 724.67,97.917C724.541,97.2 723.886,96.875 723.886,96.875C723.261,96.521 721.091,96.546 721.091,96.546C719.657,96.45 702.207,96.68 702.207,96.68C701.72,96.775 680.466,96.68 680.466,96.68C680.12,96.68 670.141,96.58 661.907,96.521L661.907,95.571C661.903,95.35 661.895,94.68 661.886,93.825L661.886,84.384C662.053,80.438 662.624,66.73 662.624,66.73C662.92,65.492 667.053,63.93 667.053,63.93C669.299,62.792 668.095,60.417 668.095,60.417C666.328,58.913 663.653,58.575 661.886,58.534C660.82,58.509 660.087,58.592 660.087,58.592C659.045,58.525 646.478,57.55 646.478,57.55C642.832,56.867 642.249,57.68 642.249,57.68C641.012,58.2 641.141,59.634 641.141,59.634C640.849,60.48 641.27,78.775 641.27,78.775C641.287,79.405 641.228,87.867 641.161,96.459C632.22,96.417 620.503,96.355 620.503,96.355C619.987,96.355 609.92,96.167 603.687,96.055C605.937,92.088 608.399,87.292 609.782,84.221C611.737,79.88 613.687,80.055 613.687,80.055C617.507,79.23 618.178,78.275 618.178,78.275C619.341,76.863 617.249,74.588 617.249,74.588C616.161,73.5 608.045,71.113 608.045,71.113C606.007,70.725 597.457,67.642 597.457,67.642C593.724,66.688 593.203,72.155 593.203,72.155C593.074,73.109 592.378,74.846 591.812,76.409C591.249,77.971 588.516,83.005 587.041,86.217C585.562,89.43 580.487,97.2 577.145,101.496C573.803,105.792 563.991,114.605 561.345,116.775C558.699,118.942 552.749,122.85 552.749,122.85C550.407,123.459 550.145,125.367 550.145,125.367C550.232,126.584 551.795,126.842 551.795,126.842C553.357,127.625 557.612,129.88 557.612,129.88C559.87,130.967 563.428,133.525 563.428,133.525C565.945,135.263 567.595,135.175 567.595,135.175C570.457,134.567 577.491,126.755 582.091,123.025C584.782,120.842 588.724,116.442 593.057,111.03C595.141,111 601.274,110.73 608.166,110.655C620.762,110.517 636.324,110.35 636.324,110.35C636.512,110.342 638.341,110.338 641.049,110.33C641.037,112.009 641.082,127.842 641.124,140.434L640.599,140.43C638.453,140.409 636.932,140.396 636.52,140.388C634.437,140.342 614.037,140.084 612.299,140.125C610.562,140.171 585.32,139.334 584.324,139.334C583.328,139.334 583.161,139.559 582.657,139.984C582.149,140.409 581.774,140.834 581.807,142.305C581.841,143.775 581.666,150.055 581.532,150.95C581.532,150.95 581.045,154.034 581.987,154.896C581.987,154.896 582.42,155.7 586.687,155.696C586.687,155.696 617.212,154.838 618.603,154.796C619.249,154.78 629.491,154.7 640.491,154.613L641.17,154.609C641.174,155.596 641.178,156.171 641.178,156.171L641.178,172.805C641.157,173.959 641.291,186.134 641.195,193.475L640.837,193.471C640.582,193.471 640.328,193.467 640.082,193.467C636.695,193.446 633.987,193.425 633.653,193.417C633.653,193.417 613.874,193.146 612.966,193.121C612.966,193.121 569.632,192.68 566.791,192.288C566.882,192.321 557.92,191.863 557.12,192.096C557.12,192.096 555.857,192.238 555.712,193.021C555.712,193.021 555.32,194.838 555.32,196.355C555.32,196.355 554.828,204.225 554.928,204.984C554.928,204.984 554.974,206.234 555.416,206.7C555.416,206.7 556.387,208.659 558.645,208.413C558.645,208.413 597.966,207.017 598.945,206.992C598.945,206.992 645.316,207.35 646.928,207.35L690.362,207.35C690.362,207.35 719.07,207.925 720.074,207.975C720.074,207.975 733.991,208.246 734.432,208.171C734.874,208.1 738.674,208.405 738.42,205.371C738.42,205.371 738.587,198.117 738.462,196.255" style="fill:rgb(2,2,2);fill-rule:nonzero;"/><path d="M813.266,168.396C809.204,169.267 802.254,168.825 802.254,168.825C801.754,168.846 798.408,168.696 796.199,168.592C796.224,166.792 796.249,165.513 796.266,165.3C796.266,165.3 796.316,160.033 796.316,159.125C796.316,159.125 796.487,150.229 796.462,148.829C796.462,148.829 796.804,137.654 796.804,137.117C796.804,137.117 797.179,126.596 797.308,123.767C797.37,123.6 797.424,123.417 797.483,123.246C799.674,123.258 807.962,123.217 808.766,123.196C809.066,123.188 810.895,123.196 813.191,123.213C813.224,129.067 813.624,158.538 813.624,158.538C813.554,158.854 813.412,163.279 813.266,168.396M828.383,191.175C830.987,190.438 830.724,189.004 830.724,189.004C830.987,188.225 830.116,164.875 830.116,164.875C830.116,164.354 829.945,141.438 829.945,141.438C829.945,140.917 829.77,123.988 829.77,123.988C829.741,123.742 829.849,122.8 829.904,122.008C829.92,121.808 829.933,121.629 829.941,121.529C829.966,121.208 830.187,115.988 830.187,115.3C830.187,114.617 829.895,112.408 829.549,111.675C829.208,110.938 826.608,111.088 826.608,111.088C826.316,111.158 818.204,111.308 815.774,111.329C813.837,111.35 805.074,111.154 800.962,111.096C801.22,109.988 801.495,108.913 801.733,107.754C801.733,107.754 805.979,87.3 807.254,76.825C812.429,76.842 816.504,76.863 816.758,76.871C817.466,76.896 831.266,77.017 831.266,77.017C832.37,76.871 832.541,76.088 832.541,76.088C833.399,74.933 833.224,66.088 833.224,66.088C833.47,63.633 831.954,63.196 831.954,63.196C830.824,62.558 827.637,62.85 827.637,62.85C827.024,62.925 811.558,62.704 811.558,62.704L802.637,62.704C802.124,62.729 781.366,62.508 781.366,62.508C780.358,62.483 767.295,62.558 767.295,62.558C766.166,62.604 766.166,63.879 766.166,63.879C766.02,64.517 765.97,70.892 765.97,71.575C765.97,72.263 766.12,75.4 766.12,75.4C766.562,77.558 768.274,77.163 768.274,77.163C769.404,77.288 782.958,76.796 784.012,76.771C784.258,76.767 786.154,76.767 788.874,76.771C788.274,84.063 787.179,96.617 786.629,98.317C786.629,98.317 783.762,112.933 780.054,118.825C780.054,118.825 770.904,135.913 769.699,137.442C769.699,137.442 757.429,151.929 756.42,152.808C756.42,152.808 755.216,153.688 756.029,154.763C756.029,154.763 769.016,160.458 770.158,160.688C770.158,160.688 771.295,161.304 772.824,160.296C772.824,160.296 777.154,156.354 778.358,155.15C778.358,155.15 778.67,154.888 779.195,154.383C779.137,162.271 779.045,173.488 778.987,174.075C778.904,174.988 777.904,193.475 777.774,194.042C777.645,194.604 777.245,198.292 777.245,198.292C777.245,198.292 776.954,201.038 777.199,201.575C777.199,201.575 777.491,202.996 779.304,202.9C779.304,202.9 794.233,203.096 794.649,202.9C794.649,202.9 795.899,202.875 795.924,201.038C795.924,201.038 796.095,186.454 796.02,185.3C796.02,185.3 796.029,184.467 796.041,183.171C800.141,182.675 807.591,182.692 807.591,182.692C808.645,182.758 811.274,182.821 812.887,182.858C812.862,184.017 812.841,184.754 812.841,184.754C812.67,188.963 813.104,190.396 813.104,190.396C814.104,191.825 821.783,191.438 821.783,191.438C823.304,191.438 828.383,191.175 828.383,191.175" style="fill:rgb(2,2,2);fill-rule:nonzero;"/><path d="M893.919,76.235C893.919,76.235 899.286,76.335 905.744,76.452C905.744,76.49 905.723,76.535 905.723,76.569C905.723,76.569 905.552,110.148 905.552,111.023C905.552,111.023 905.548,111.76 905.54,113.027C894.477,113.01 882.873,112.994 882.373,113.04C882.232,113.052 881.54,113.065 880.527,113.073C880.544,110.64 880.544,108.827 880.506,108.44C880.377,107.006 880.115,92.423 880.115,90.34C880.115,88.573 880.069,79.923 879.857,76.431C886.823,76.327 893.457,76.235 893.919,76.235M861.498,143.856C861.236,145.419 859.998,153.231 858.894,157.006C857.786,160.785 855.702,166.515 854.727,168.598C853.748,170.681 852.057,174.26 850.04,177.19C848.019,180.119 843.656,185.915 841.965,187.215C840.273,188.519 837.215,191.19 835.194,192.294C833.177,193.402 830.182,195.419 829.073,195.81C827.969,196.202 826.602,197.048 826.602,197.502C826.602,197.96 827.511,198.61 829.336,199.456C831.156,200.302 837.669,204.535 838.19,205.185C838.711,205.835 839.948,206.944 840.665,207.269C841.382,207.594 842.748,208.31 844.698,207.006C846.652,205.706 850.948,202.777 851.861,201.931C852.773,201.085 857.136,196.919 858.632,195.16C860.132,193.402 863.515,189.298 864.752,187.477C865.99,185.652 868.79,180.773 869.702,178.881C870.611,176.994 873.477,171.656 874.39,169.119C875.298,166.577 877.057,160.59 877.644,158.048C878.227,155.51 879.269,147.048 879.465,145.548C879.661,144.052 880.444,134.027 880.377,132.14C880.357,131.581 880.373,129.398 880.398,126.581L881.594,126.581C881.594,126.581 903.727,126.756 904.336,126.756C904.336,126.756 904.769,126.76 905.452,126.765C905.369,139.41 905.256,155.194 905.202,155.973C905.202,155.973 903.64,204.073 903.64,205.298C903.64,205.298 904.161,207.135 905.377,207.398C905.377,207.398 922.477,207.748 923.607,207.398C923.607,207.398 924.823,207.048 925.169,205.123C925.169,205.123 924.386,163.585 924.473,162.273C924.473,162.273 924.386,128.165 924.473,127.29C924.473,127.29 924.477,127.14 924.482,126.906C930.652,126.952 935.982,126.998 936.452,127.019C936.452,127.019 947.002,127.319 947.827,127.19C947.827,127.19 949.911,127.365 950.256,124.848C950.256,124.848 950.865,115.906 949.994,114.777C949.994,114.777 949.823,112.565 944.961,112.869C944.961,112.869 926.602,112.998 925.602,113.04C925.527,113.044 925.156,113.048 924.652,113.048C924.823,98.877 925.052,79.169 924.994,78.665C924.994,78.665 925.061,77.877 925.152,76.798C926.715,76.827 927.777,76.844 927.948,76.844C927.948,76.844 945.915,77.406 946.611,77.015C946.611,77.015 947.348,76.844 947.652,75.977C947.652,75.977 948.086,65.473 947.998,65.035C947.998,65.035 948.086,63.302 945.569,63.302C945.569,63.302 932.069,63.127 931.161,63.127C931.161,63.127 909.286,62.998 908.502,63.04C908.502,63.04 865.448,62.91 864.665,62.952C864.665,62.952 846.869,63.085 846.177,62.781C846.177,62.781 842.919,62.302 842.094,62.952C842.094,62.952 840.752,63.173 840.707,65.21C840.707,65.21 840.361,74.585 840.531,75.281C840.531,75.281 840.531,76.323 841.052,76.756C841.052,76.756 841.877,77.365 843.744,77.19C843.744,77.19 857.107,76.852 861.769,76.719C861.977,77.573 862.165,78.41 862.277,79.144C862.736,82.044 862.669,93.856 862.669,94.898C862.669,95.94 862.602,111.76 862.669,112.735C862.673,112.798 862.677,112.927 862.677,113.106C859.065,113.11 856.307,113.115 855.986,113.127C855.986,113.127 843.656,113.173 841.836,112.781C841.836,112.781 837.406,112.26 837.236,114.344C837.236,114.344 836.757,118.165 836.802,119.119C836.802,119.119 836.757,124.498 836.886,124.935C836.886,124.935 837.711,126.715 839.319,126.581L862.54,126.581C862.498,129.06 862.448,131.044 862.411,131.619C862.277,133.44 861.757,142.294 861.498,143.856" style="fill:rgb(2,2,2);fill-rule:nonzero;"/><path d="M1085.83,89.001C1089.99,88.972 1093.24,88.947 1093.47,88.968C1093.95,89.018 1116.49,89.085 1128.29,89.155C1128.41,92.497 1128.54,95.351 1128.54,95.351C1128.56,95.814 1128.55,99.593 1128.47,103.435C1127.68,103.047 1126.94,102.68 1126.34,102.38C1126.34,102.38 1122.86,99.193 1121.53,99.58C1121.53,99.58 1120.36,99.06 1119.05,102.839C1119.05,102.839 1118.07,105.222 1117.43,106.289C1116.38,108.005 1115.36,108.793 1114.4,109.314C1112.84,110.16 1103.65,110.585 1101.01,110.585C1098.38,110.585 1086.53,110.843 1085.72,107.718C1084.96,104.822 1085.44,92.08 1085.83,89.001M972.439,112.289C972.439,112.289 972.244,114.201 975.239,114.23L988.064,114.23C988.064,114.23 989.823,114.389 990.669,113.918C990.669,113.918 991.935,113.572 991.71,110.343C991.481,107.114 991.239,95.01 991.969,91.218C991.969,91.218 992.148,89.81 992.281,88.93C1004.16,88.947 1017.66,88.968 1017.95,88.968C1018.47,88.968 1064.99,88.71 1065.93,88.968C1066.06,89.005 1066.68,89.03 1067.61,89.043C1067.41,89.585 1067.29,90.218 1067.43,91.051C1067.43,91.051 1066.77,114.068 1067.43,115.076C1067.43,115.076 1068.4,119.505 1074.26,121.976C1074.26,121.976 1079.47,123.997 1099.33,123.605C1099.33,123.605 1118.24,123.997 1123.02,122.11C1123.02,122.11 1127.81,120.155 1129.79,117.551C1129.79,117.551 1130.66,116.335 1131.67,114.814C1136.16,114.955 1145.46,114.901 1145.46,114.901C1147.5,114.947 1147.29,113.947 1147.29,113.947C1147.55,113.035 1146.68,104.835 1146.68,104.835C1146.42,102.88 1146.51,93.897 1146.51,93.897C1146.59,90.339 1147.29,80.268 1147.29,80.268C1147.37,78.36 1147.41,77.055 1146.24,76.101C1145.93,75.851 1144.62,75.785 1143.14,75.793L1143.13,75.793C1143.13,75.793 1110.26,76.339 1108.83,76.339C1107.4,76.339 1071.17,76.11 1070.68,76.143L1070.64,76.143C1070.64,76.114 1070.63,76.039 1070.63,76.039C1070.63,76.039 1070.38,69.064 1071.33,67.451C1072.29,65.843 1076.19,64.23 1076.19,62.264C1076.19,62.264 1077.41,60.385 1072.2,59.58C1072.2,59.58 1054.66,57.164 1053.28,57.614C1053.28,57.614 1050.84,57.255 1050.67,59.043C1050.67,59.043 1050.24,61.547 1050.32,62.801C1050.32,62.801 1050.41,73.089 1050.5,74.785C1050.5,74.785 1050.48,75.405 1050.44,76.222C1040.93,76.251 1031.56,76.276 1031.23,76.276C1031.23,76.276 992.948,76.08 992.035,76.08C992.035,76.08 985.948,76.08 978.885,75.426C978.885,75.426 976.085,74.843 974.456,75.56C974.456,75.56 972.927,76.143 972.894,77.51C972.894,77.51 972.989,86.335 972.96,86.822C972.952,88.876 973.189,92.493 973.156,93.226C973.156,93.226 972.373,111.222 972.439,112.289" style="fill:rgb(2,2,2);fill-rule:nonzero;"/><path d="M1033.94,91.308C1033.94,91.308 1032.61,91.333 1031.68,92.779C1031.68,92.779 1027.59,98.196 1025.8,99.838C1025.8,99.838 1020.53,104.471 1017.12,106.65C1013.72,108.833 1008.4,112.633 1002.81,114.788C1002.81,114.788 991.877,118.342 990.848,118.663C990.848,118.663 989.965,119.088 990.211,119.633C990.457,120.179 1003.15,130.45 1004.43,130.425C1004.43,130.425 1004.74,130.5 1005.5,130.179C1005.5,130.179 1022.74,123.075 1031.09,116.404C1039.45,109.742 1043.22,105.329 1045.02,104.25C1045.02,104.25 1046.07,103.317 1049.57,103.663C1049.57,103.663 1052,103.267 1052.22,101.846C1052.22,101.846 1053.05,99.788 1047.57,97.242C1047.57,97.242 1042.07,94.692 1041.76,94.496C1041.77,94.504 1041.77,94.504 1041.79,94.513C1040.56,93.767 1035.69,90.904 1033.94,91.308" style="fill:rgb(2,2,2);fill-rule:nonzero;"/><path d="M1088.9,150.202C1088.27,153.352 1087.39,157.514 1087.22,158.331C1086.95,159.568 1084.81,174.414 1084.61,175.91C1084.42,177.41 1083.25,188.802 1082.92,192.577C1082.6,196.352 1084.16,198.698 1085.01,199.868C1085.85,201.039 1087.87,202.864 1089.17,203.643C1090.47,204.427 1093.27,205.273 1095.03,205.727C1096.79,206.185 1106.29,206.51 1107.79,206.51C1109.29,206.51 1121.4,206.577 1126.54,206.768C1131.68,206.964 1135.01,205.535 1137.87,204.685C1140.73,203.839 1144.51,199.477 1145.42,198.568C1146.33,197.656 1149.85,192.056 1150.89,189.843C1151.93,187.631 1152.39,185.61 1152.71,184.373C1153.04,183.139 1153.04,181.768 1152.97,180.86C1152.91,179.948 1151.61,179.685 1150.76,179.298C1149.91,178.906 1147.11,177.735 1145.94,177.343C1144.77,176.952 1140.47,173.698 1139.43,172.914C1138.39,172.135 1138.33,172.202 1137.35,172.527C1136.37,172.852 1135.91,175.848 1135.53,177.735C1135.13,179.623 1134.22,181.381 1133.57,183.202C1132.92,185.027 1131.94,186.589 1131.23,187.889C1130.51,189.193 1129.01,190.818 1127.97,191.535C1126.93,192.252 1124.13,192.577 1122.76,192.706C1121.4,192.839 1113.33,193.098 1111.83,193.098C1110.33,193.098 1106.88,192.773 1105.32,192.448C1103.76,192.123 1103.04,191.406 1102.45,190.235C1101.87,189.06 1101.61,187.564 1101.67,186.068C1101.73,184.568 1102.65,174.348 1102.97,172.393C1103.3,170.443 1104.86,159.893 1105.45,157.16C1105.85,155.302 1106.65,150.831 1107.18,147.768C1107.63,146.023 1108.56,142.327 1108.7,141.339C1108.7,141.339 1109.84,137.989 1109.03,136.652C1109.03,136.652 1108.83,135.677 1107.08,135.677C1105.32,135.677 1081.72,136.848 1080.7,136.977C1080.23,137.039 1071.03,137.443 1061.39,137.864C1061.72,133.989 1062.03,128.377 1062.39,127.989C1062.85,127.498 1062.76,127.106 1065.16,126.664C1065.16,126.664 1068.08,125.448 1068.08,124.31C1068.08,124.31 1068.25,122.106 1065.56,121.664L1049.03,119.506C1049.03,119.506 1042.74,118.856 1042.36,118.902C1041.97,118.952 1041.14,119.068 1041.19,120.977C1041.19,120.977 1040.99,130.168 1040.99,131.273C1040.99,131.273 1040.52,135.802 1039.93,138.81C1039.39,138.835 1038.98,138.86 1038.91,138.868C1038.06,138.964 994.417,140.206 990.992,140.102C990.992,140.102 986.046,139.552 984.68,140.756C984.68,140.756 983.309,141.114 983.309,143.814C983.309,143.814 983.638,151.918 984.159,152.931C984.159,152.931 984.384,153.418 984.809,153.839C984.809,153.839 984.451,154.589 992.622,154.298C992.622,154.298 1029.66,152.343 1031.68,152.214C1031.68,152.214 1033.66,152.131 1036.65,152.006C1036.07,153.935 1035.53,155.51 1035.11,156.373C1035.11,156.373 1033.47,160.977 1031.58,163.577C1031.58,163.577 1025.92,171.173 1020.01,175.781C1020.01,175.781 1015.85,180.218 1005.6,184.852C995.359,189.485 985.455,191.985 979.967,192.693C979.967,192.693 975.013,192.989 973.838,193.577C973.838,193.577 972.588,194.043 972.613,194.902C972.613,194.902 971.876,195.539 975.751,197.989C975.751,197.989 982.442,203.235 984.33,206.614C984.33,206.614 985.209,207.948 987.317,207.552C989.426,207.156 999.255,204.093 1001.43,203.381C1003.62,202.668 1023.91,193.502 1025.45,192.598C1027,191.689 1035.97,185.489 1041.83,179.214C1047.68,172.939 1050.9,167.527 1052.17,165.243C1053.19,163.398 1055.53,160.056 1057.71,152.302C1057.82,151.91 1057.96,151.514 1058.11,151.106C1064.94,150.814 1070.62,150.568 1071.4,150.518C1071.4,150.518 1080.26,150.389 1088.9,150.202" style="fill:rgb(2,2,2);fill-rule:nonzero;"/><path d="M1296.23,165.015C1296.23,165.015 1284.61,165.131 1273.1,165.244C1273.17,162.169 1273.22,159.865 1273.22,159.565C1273.22,159.565 1273.15,154.881 1275.26,154.856C1275.26,154.856 1277.09,154.465 1277.09,153.144C1277.09,153.144 1276.98,151.698 1276.14,151.477C1276.14,151.477 1258.31,149.294 1256.98,149.473C1256.98,149.473 1255.53,149.581 1254.72,150.348C1254.54,150.523 1254.23,150.798 1254.13,151.002C1253.76,151.819 1253.37,151.985 1253.59,154.223C1253.59,154.223 1253.64,159.49 1253.7,165.431C1251.95,165.448 1250.84,165.456 1250.68,165.456C1250.68,165.456 1231.85,165.31 1230.79,165.21C1230.79,165.21 1229.03,165.04 1226.75,164.856C1230.26,162.41 1233.29,160.169 1234.62,158.869C1234.62,158.869 1244.56,148.96 1248.81,144.36C1253.34,144.34 1256.62,144.319 1257.16,144.306C1257.16,144.306 1271.18,144.273 1282.21,144.252C1283.55,146.198 1285.06,148.194 1285.06,148.194C1287.49,152.056 1296.08,160.26 1297.73,161.648C1298.16,162.006 1299.94,163.248 1302.4,164.915C1299.39,164.952 1296.61,164.994 1296.23,165.015M1238.53,123.465C1240,122.902 1274.46,123.64 1274.46,123.64C1275.38,123.681 1290.57,124.031 1291.43,124.031C1291.78,124.031 1292.14,123.935 1292.47,123.831L1292.52,123.831C1292.52,125.706 1292.46,128.081 1292.44,128.177C1292.41,128.385 1292.4,129.931 1292.39,131.84L1291.64,131.84C1291.01,131.84 1260.93,131.773 1260.26,131.84C1259.94,131.873 1248.21,131.89 1236.12,131.898C1236.12,131.652 1236.13,128.435 1236.16,123.902C1237.29,123.577 1238.53,123.465 1238.53,123.465M1236.25,103.344C1237.49,102.756 1239.48,102.581 1239.48,102.581C1240.96,102.015 1275.42,102.752 1275.42,102.752C1276.33,102.798 1291.52,103.144 1292.39,103.144C1292.4,103.144 1292.43,103.694 1292.46,104.198L1292.46,104.198C1292.46,106.16 1292.51,109.673 1292.52,111.96L1292.46,111.96C1290.91,113.427 1288.53,113.481 1288.53,113.481L1252.63,113.481C1251.71,113.481 1241.21,113.031 1236.21,112.815C1236.22,109.619 1236.24,106.369 1236.25,103.344M1236.31,91.035C1236.31,90.148 1236.32,89.652 1236.32,89.652L1236.41,82.752C1246.56,82.71 1257.1,82.66 1258.07,82.635C1258.07,82.635 1287.15,82.565 1292.41,82.569C1292.42,84.698 1292.42,88.748 1292.43,91.81C1291.02,92.573 1289.48,92.598 1289.48,92.598L1253.59,92.598C1252.61,92.598 1240.84,92.09 1236.31,91.894C1236.31,91.606 1236.31,91.273 1236.31,91.035M1356.95,132.948C1356.95,132.948 1356.51,131.735 1354.51,131.719C1352.52,131.698 1337.05,131.835 1335.94,131.852C1335.34,131.865 1322.49,131.856 1310.79,131.852C1310.79,131.427 1310.78,131.135 1310.78,131.04C1310.78,130.848 1310.79,127.11 1310.79,123.452C1310.8,120.552 1310.81,116.952 1310.82,113.265L1310.89,113.265C1310.89,111.14 1310.84,107.277 1310.84,104.919L1310.89,104.919C1310.9,99.135 1310.87,92.952 1310.86,91.431L1310.89,91.431L1311.1,82.865C1321.66,83.04 1333.11,83.227 1333.79,83.227C1333.79,83.227 1347.84,83.86 1349.67,82.406C1349.67,82.406 1350.29,81.669 1350.42,79.823C1350.55,77.977 1350.94,72.452 1350.42,71.785C1350.42,71.785 1350.01,70.623 1348.17,70.606C1346.32,70.594 1332.01,70.723 1330.98,70.74C1330.49,70.748 1321.15,70.744 1311.52,70.74L1311.69,65.723C1311.94,64.815 1314.51,62.685 1314.51,62.685C1316.21,61.777 1315.92,60.602 1315.92,60.602C1316.09,59.648 1315.59,59.473 1315.59,59.473C1314.72,57.956 1299.95,57.565 1297.34,57.565C1294.72,57.565 1294.76,57.565 1293.85,58.26C1292.94,58.952 1292.86,60.602 1292.86,60.602C1292.75,61.16 1292.63,66.202 1292.54,70.727L1289.98,70.727C1289.39,70.727 1261.56,70.66 1260.94,70.727C1260.63,70.76 1248.63,70.773 1236.84,70.781L1237.05,65.081C1237.31,64.173 1240,62.044 1240,62.044C1241.78,61.131 1241.48,59.96 1241.48,59.96C1241.65,59.006 1241.13,58.831 1241.13,58.831C1240.22,57.315 1224.77,56.923 1222.04,56.923C1219.3,56.923 1219.34,56.923 1218.39,57.619C1217.43,58.31 1217.35,59.96 1217.35,59.96C1217.23,60.548 1217.09,66.102 1216.99,70.79L1214.01,70.79C1213.22,70.79 1187.76,70.706 1186.37,70.606C1186.37,70.606 1180.23,70.098 1179.44,70.606C1179.44,70.606 1177.91,70.79 1178.06,72.96C1178.06,72.96 1177.93,80.64 1178.06,80.935C1178.06,80.935 1178.12,81.848 1178.59,82.306C1178.59,82.306 1178.85,83.19 1185.91,83.094C1192.74,82.998 1214.44,82.856 1216.88,82.831C1216.89,85.085 1216.85,128.827 1216.86,131.906L1209.54,131.906C1208.7,131.906 1181.19,131.819 1179.68,131.719C1179.68,131.719 1173.04,131.185 1172.2,131.719C1172.2,131.719 1170.55,131.906 1170.71,134.181C1170.71,134.181 1170.56,142.219 1170.71,142.527C1170.71,142.527 1170.77,143.485 1171.28,143.965C1171.28,143.965 1171.56,144.885 1179.19,144.785C1186.81,144.681 1211.66,144.527 1212.91,144.51C1212.91,144.51 1217.35,144.494 1223.41,144.469C1222.88,145.185 1218.25,151.352 1212.57,155.398C1212.57,155.398 1206.54,161.994 1187.23,169.46C1187.23,169.46 1179.46,172.194 1173.86,173.365C1173.86,173.365 1170.38,174.019 1170.3,175.19C1170.3,175.19 1170.12,176.144 1172.29,177.273C1172.29,177.273 1179.59,180.744 1181.84,183.435C1181.84,183.435 1183.49,186.127 1184.1,186.127C1184.1,186.127 1190.31,185.302 1193.04,184.131C1193.04,184.131 1207.49,177.577 1209.88,176.056C1209.88,176.056 1212.34,174.485 1215.71,172.281C1215.73,174.123 1215.84,176.373 1216.28,176.977C1216.28,176.977 1217.48,178.423 1224.42,178.031C1231.35,177.635 1251.73,177.835 1252.75,177.81C1252.75,177.81 1253.2,177.806 1253.86,177.802C1253.88,179.906 1253.91,181.435 1253.93,181.819C1253.93,181.819 1253.59,191.744 1253.59,192.31C1253.59,192.31 1253.57,193.206 1253.88,194.435C1252.56,194.448 1251.7,194.456 1251.57,194.46C1250.85,194.494 1223.48,194.035 1222.34,194.069C1221.2,194.102 1206.06,194.135 1204.89,194.135L1190.11,193.81C1190.11,193.81 1187.64,193.29 1186.6,194.135C1186.6,194.135 1185.49,194.556 1185.36,196.348C1185.36,196.348 1185.16,205.627 1185.36,205.852C1185.36,205.852 1185.26,206.698 1187.05,207.481C1187.05,207.481 1203.68,207.548 1205.93,207.481C1205.93,207.481 1233.93,206.96 1234.84,206.96L1270.12,206.96C1270.12,206.96 1308.11,207.84 1309.58,207.806C1309.58,207.806 1335.98,208.59 1337.38,208.26C1337.38,208.26 1338.94,208.456 1339.98,207.352C1339.98,207.352 1340.7,206.148 1340.7,204.031C1340.7,204.031 1341.48,196.969 1340.18,195.435C1340.18,195.435 1340.11,194.556 1338.16,194.46C1336.21,194.365 1333.34,194.169 1332.56,194.198C1331.78,194.231 1303.52,194.035 1302.74,194.069C1301.96,194.102 1275.46,194.198 1274.75,194.265C1274.64,194.273 1274.06,194.285 1273.2,194.294C1273.18,194.156 1272.49,186.452 1272.61,183.631C1272.65,182.815 1272.71,180.54 1272.79,177.715C1282.36,177.673 1291.86,177.64 1292.36,177.66C1292.36,177.66 1308.88,178.152 1310.01,177.81C1310.01,177.81 1310.65,177.835 1311.38,177.269C1311.38,177.269 1311.79,177.023 1311.82,174.377C1311.82,174.377 1311.98,173.048 1312.04,171.381C1317.61,175.085 1323.07,178.673 1324.81,179.777C1328.63,182.19 1341.39,186.648 1341.39,186.648C1342.82,187.169 1344.6,186.648 1344.6,186.648C1346.43,185.998 1350.25,180.31 1350.25,180.31C1350.81,179.702 1354.33,177.098 1354.33,177.098C1356.63,175.365 1354.33,174.54 1354.33,174.54C1353.5,174.106 1348.77,172.673 1348.77,172.673C1343.86,171.802 1325.85,163.21 1325.85,163.21C1313.87,156.698 1306.02,148.106 1305.19,146.89C1304.85,146.381 1304.26,145.444 1303.51,144.369C1315.93,144.573 1337.99,144.923 1338.97,144.923C1338.97,144.923 1354.16,145.59 1356.13,144.065C1356.13,144.065 1356.81,143.294 1356.95,141.365C1357.09,139.431 1357.51,133.648 1356.95,132.948" style="fill:rgb(2,2,2);fill-rule:nonzero;"/><path d="M1499.66,112.113C1493.83,112.134 1488.59,112.163 1488.19,112.192C1488.19,112.192 1461.32,111.93 1460.19,112.063C1460.19,112.063 1447.82,111.617 1437.96,111.275C1435.77,111.2 1433.69,111.13 1431.91,111.067C1433.19,110.309 1433.99,109.838 1433.99,109.838C1435.68,108.538 1450.51,95.967 1450.51,95.967C1452.46,94.542 1465.08,81.667 1465.08,81.667C1465.69,81.088 1467.14,79.888 1468.93,78.438C1473.74,85.046 1479.24,90.738 1490.99,100.805C1495.38,104.563 1501.13,108.534 1506.69,112.088C1504.43,112.096 1502,112.105 1499.66,112.113M1565.47,119.555C1563.78,118.513 1553.1,116.3 1553.1,116.3C1546.59,114.867 1530.58,107.771 1526.15,105.625C1521.72,103.475 1504.6,92.538 1494.25,83.096C1487.39,76.846 1483.5,71.396 1481.62,68.388C1481.77,68.263 1481.89,68.171 1481.94,68.125C1482.82,67.409 1484.22,66.755 1484.22,64.934C1484.22,63.109 1481.82,62.655 1481.82,62.655C1480.54,62.396 1465.02,57.575 1465.02,57.575C1460.85,55.85 1459.62,57.055 1459.62,57.055C1458.05,57.967 1456.88,60.505 1456.88,60.505C1454.66,66.367 1443.2,78.709 1443.2,78.709C1441.14,81.234 1423.74,95.817 1423.74,95.817C1420.58,98.292 1404.35,108 1400.21,109.984C1396.07,111.971 1371.73,120.596 1371.73,120.596C1370.85,121.75 1379.43,127.092 1379.43,127.092C1380.41,127.925 1386.88,132.484 1386.88,132.484C1389.18,132.363 1391.77,130.884 1391.77,130.884C1397.24,129.584 1410.39,123.2 1410.39,123.2C1411.48,122.842 1415.94,120.355 1420.69,117.621C1420.69,118.363 1420.71,119.188 1420.76,120.134C1420.76,120.134 1420.61,123.259 1421.24,124.042C1421.24,124.042 1421.54,124.821 1424.87,124.821L1458.96,124.821C1458.94,129.009 1458.98,140.455 1458.99,145.23C1458.16,145.238 1457.56,145.246 1457.4,145.259C1457.4,145.259 1414.06,144.088 1411.96,144.088C1411.96,144.088 1407.27,143.825 1406.1,145C1406.1,145 1404.41,145.455 1404.93,153.334C1404.93,153.334 1404.73,156.459 1405.58,157.238C1405.58,157.238 1405.97,158.021 1410.39,158.021L1458.99,158.021L1458.99,193.817C1453.92,193.78 1449.21,193.713 1448.29,193.784C1447.14,193.871 1440.31,193.817 1432.88,193.721C1434.26,193.267 1436.08,192.592 1437.35,191.83C1437.35,191.83 1443.4,189.488 1444.25,188.055C1444.25,188.055 1445.55,187.121 1442.43,181.892C1442.43,181.892 1431.94,165.53 1428.62,165.138C1428.62,165.138 1427.32,163.905 1422.12,166.671L1416.91,169.434C1416.91,169.434 1413.32,170.996 1413.91,172.559C1413.91,172.559 1414.69,174.709 1417.69,177.38C1417.69,177.38 1424.98,187.925 1425.63,188.967C1425.63,188.967 1427.46,192.23 1429.23,193.671C1421.3,193.559 1413.62,193.425 1412.22,193.392C1409.29,193.33 1390.87,192.938 1388.52,192.613C1388.52,192.613 1384.62,192.484 1383.44,193.392C1383.44,193.392 1382.27,193.913 1382.27,195.346L1382.27,205.505C1382.27,205.505 1382.07,207.455 1384.35,207.846C1386.63,208.238 1415.41,207.196 1416.52,207.196L1484.22,207.196C1484.22,207.196 1523.61,207.825 1525.5,207.934C1525.5,207.934 1551.96,208.996 1554.37,208.321C1554.37,208.321 1555.37,207.738 1555.19,205.892C1555.19,205.892 1556.03,195.217 1554.54,194.305C1554.54,194.305 1553.1,193.134 1545.68,193.525C1539.65,193.842 1517.31,193.73 1507.94,193.746C1513.13,188.796 1520.42,178.68 1520.42,178.68C1521.79,177.117 1523.94,176.859 1523.94,176.859C1528.23,175.684 1527.06,174.513 1527.06,174.513C1527.58,172.171 1523.02,171.13 1523.02,171.13C1519.32,169.892 1512.22,166.671 1512.22,166.671C1507.34,163.838 1505.71,167.384 1505.32,169.175C1504.75,171.725 1500.89,176.338 1500.89,176.338C1498.87,179.138 1490.08,187.405 1490.08,187.405C1487.74,189.617 1492.56,190.53 1492.56,190.53C1494.35,190.634 1497.71,192.884 1499.09,193.85C1492.41,193.888 1481.24,193.867 1479.79,193.913C1479.62,193.921 1479.3,193.917 1478.74,193.917L1478.74,158.021L1489.43,158.021C1490.6,158.021 1513.32,158.93 1515.34,158.93C1515.34,158.93 1530.84,159.388 1532.27,158.93C1532.27,158.93 1533.7,159.388 1533.7,156.588L1533.7,147.213C1533.7,147.213 1534.03,145.259 1531.75,145.259C1531.75,145.259 1495.88,145.325 1494.64,145.388C1494.64,145.388 1487.06,145.334 1478.74,145.288C1478.73,140.242 1478.74,127.963 1478.74,124.821L1484.27,124.821C1485.15,124.821 1502.23,125.734 1503.74,125.734C1503.74,125.734 1515.39,126.188 1516.46,125.734C1516.46,125.734 1517.54,126.188 1517.54,123.388L1517.54,118.696C1522.52,121.588 1526.02,123.463 1526.02,123.463C1534.09,127.955 1550.89,134.138 1550.89,134.138C1554.02,134.855 1554.14,133.359 1554.14,133.359C1555.38,131.471 1558.57,127.5 1558.57,127.5C1560.33,125.155 1564.69,121.771 1564.69,121.771C1566.77,120.4 1565.47,119.555 1565.47,119.555" style="fill:rgb(2,2,2);fill-rule:nonzero;"/><path d="M1714.53,192.735C1711.65,193.04 1678.6,192.865 1677.61,192.91C1676.82,192.944 1643.9,192.535 1629.62,192.315C1629.56,190.477 1629.52,189.244 1629.52,189.244C1629.53,189.156 1629.54,188.252 1629.55,186.94C1630,186.831 1630.41,186.735 1630.69,186.673C1631.91,186.402 1638.07,186.265 1638.7,186.265C1639.34,186.265 1680.8,186.177 1681.39,186.177C1681.98,186.177 1714.97,186.448 1717.46,186.627C1718.18,186.681 1718.7,186.802 1719.14,186.94C1719.12,188.01 1719.1,188.752 1719.09,188.915C1719.06,189.202 1718.98,190.635 1718.88,192.581C1717.15,192.594 1715.51,192.631 1714.53,192.735M1629.7,167.89C1631.59,167.827 1638.72,167.594 1639.62,167.594C1640.67,167.594 1668.87,167.54 1669.62,167.54C1670.37,167.54 1714.19,167.652 1715.33,167.706C1715.63,167.719 1717.19,167.765 1719.31,167.819C1719.29,169.585 1719.27,172.019 1719.25,174.615C1718.2,174.919 1716.55,175.102 1716.24,175.131C1715.74,175.177 1670.98,175.131 1670.8,175.131C1670.61,175.131 1634.31,175.131 1631.19,174.906C1630.66,174.865 1630.14,174.794 1629.63,174.715C1629.63,173.885 1629.63,173.315 1629.62,173.198C1629.61,172.91 1629.66,170.585 1629.7,167.89M1718.61,206.027C1718.88,208.402 1720.57,208.565 1720.57,208.565C1721.74,209.315 1730.73,208.794 1733.85,208.827C1736.98,208.86 1737.36,207.331 1737.36,207.331C1738.18,206.027 1737.06,189.406 1737.06,188.006C1737.06,186.877 1737.35,170.394 1737.47,164.035C1737.53,162.298 1737.54,160.415 1737.46,160.06C1737.31,159.415 1737.62,156.019 1734.23,156.052C1730.83,156.09 1720.42,156.677 1719.55,156.698C1718.67,156.715 1692.7,157.01 1692.06,156.99C1691.42,156.973 1661.59,157.01 1660.77,156.99C1659.95,156.973 1627.09,156.66 1626.19,156.677C1625.3,156.698 1620.39,156.423 1619.84,156.352C1619.84,156.352 1613.95,155.848 1612.9,156.31C1611.86,156.773 1611.31,157.615 1611.26,158.315C1611.21,158.944 1611.08,165.34 1611.18,166.923C1611.19,167.102 1611.2,167.277 1611.2,167.348C1611.2,168.073 1610.65,192.144 1610.54,193.76C1610.43,195.381 1609.92,205.719 1609.78,207.406C1609.63,209.094 1613.88,208.956 1613.88,208.956C1613.88,208.956 1622.23,209.127 1625.38,208.885C1628.53,208.648 1629.55,207.373 1629.55,207.373C1629.8,207.035 1629.74,206.615 1629.77,204.023C1635.02,203.898 1639.88,203.777 1640.6,203.76C1642.23,203.715 1675.24,204.106 1676.06,204.019C1676.7,203.952 1705.63,204.156 1718.41,204.115C1718.38,205.752 1718.55,205.469 1718.61,206.027" style="fill:rgb(2,2,2);fill-rule:nonzero;"/><path d="M1696.76,93.864C1695.65,93.93 1669.09,93.343 1667.46,93.472C1666.04,93.589 1638.15,93.101 1630.28,92.893C1641.15,89.505 1649.66,86.101 1659.64,82.176C1664.97,80.085 1670.39,77.389 1674.93,74.947C1679.66,77.864 1687.53,82.472 1694.59,85.447C1699.72,87.61 1709.26,90.839 1719.27,93.955C1712.07,93.801 1697.62,93.814 1696.76,93.864M1765.29,91.435C1765.29,91.435 1754.66,89.264 1750.53,88.31C1750.53,88.31 1724.28,82.318 1716.16,79.018C1708.04,75.722 1693.51,69.56 1690.12,66.522C1689.97,66.385 1689.76,66.289 1689.56,66.189C1691.18,64.885 1691.03,64.376 1691.03,64.376C1692.18,62.235 1689.09,60.972 1689.09,60.972C1688.44,60.58 1678.23,57.143 1678.23,57.143C1673.65,55.28 1671.81,58.747 1671.81,58.747C1657.42,69.414 1646.68,73.08 1631.5,78.514C1616.32,83.943 1590.47,86.822 1586.08,88.068C1581.7,89.31 1586.74,92.647 1586.74,92.647C1588.24,93.826 1588.11,93.435 1592.23,98.014C1596.36,102.597 1598.26,101.68 1598.26,101.68C1602.84,101.222 1620.38,95.789 1620.38,95.789C1621.28,95.543 1622.1,95.301 1622.96,95.055C1622.95,95.143 1622.94,95.201 1622.93,95.297C1622.87,96.535 1622.61,102.001 1622.61,102.001C1622.61,102.001 1622.21,104.41 1622.87,105.451C1623.52,106.493 1625.93,106.818 1627.62,106.626C1629.31,106.43 1680.35,106.626 1682.18,106.493C1684,106.364 1721.89,107.601 1723.32,107.535C1724.76,107.472 1725.01,107.797 1725.93,107.014C1726.84,106.235 1726.9,105.193 1726.97,104.41C1727.03,103.63 1726.97,97.443 1726.84,96.86C1726.79,96.647 1726.79,96.443 1726.78,96.239C1740.34,100.276 1752.99,103.56 1754.93,103.118C1754.93,103.118 1756.11,103.51 1757.41,102.335C1757.41,102.335 1762.04,96.947 1763.12,96.035C1763.12,96.035 1764.86,93.951 1765.81,93.518C1765.81,93.518 1767.16,92.343 1765.29,91.435" style="fill:rgb(2,2,2);fill-rule:nonzero;"/><path d="M1613.16,124.919C1616.76,124.898 1619.8,124.878 1620.6,124.873C1621.06,124.869 1623.14,124.869 1626.1,124.869C1627.59,126.786 1629.01,128.698 1629.55,129.303C1629.55,129.303 1632.8,134.644 1635.18,138.382C1634.6,138.386 1634.15,138.386 1634.02,138.394C1633.07,138.444 1621.97,138.319 1613.17,138.207C1613.14,133.944 1613.11,130.24 1613.11,130.107C1613.11,129.953 1613.13,127.453 1613.16,124.919M1664.9,124.965C1665.29,125.848 1665.6,126.723 1665.63,127.519C1665.83,131.378 1665.5,136.607 1665.5,136.607C1665.5,136.607 1665.43,137.503 1665.26,138.594C1661.27,138.561 1656.48,138.519 1651.84,138.482C1650.34,135.511 1647.08,129.078 1644.9,124.882C1654.41,124.894 1663.33,124.919 1664.9,124.965M1682.95,126.473C1682.99,126.107 1683.15,125.598 1683.38,125.036C1692.99,125.069 1703.11,125.103 1705.04,125.098C1704.22,127.278 1700.06,134.615 1696.98,138.878C1692.45,138.836 1687.66,138.79 1683.67,138.753C1683.2,137.548 1682.8,136.119 1682.83,134.74C1682.89,131.507 1682.83,127.944 1682.95,126.473M1722.73,125.357C1726.75,125.411 1731.02,125.457 1735.04,125.486C1734.9,129.628 1734.73,134.432 1734.58,138.736C1734.07,138.736 1733.7,138.74 1733.58,138.757C1732.67,138.853 1721.13,138.99 1715.57,139.032C1716.83,136.278 1720.08,129.394 1722.73,125.357M1596.63,142.115L1596.63,142.232C1596.63,142.861 1596.34,151.453 1596.41,151.894C1596.41,151.894 1596.9,153.303 1598,153.669C1598,153.669 1611.53,153.84 1611.87,153.719C1612.21,153.598 1611.87,153.719 1611.87,153.719C1611.87,153.719 1613.23,153.719 1613.28,151.236C1613.28,151.236 1613.28,150.723 1613.27,149.919C1616.91,149.894 1620,149.878 1620.8,149.873C1623.08,149.857 1663.78,149.869 1665.38,149.973C1665.38,149.973 1703.54,150.111 1705.55,150.098C1706.69,150.09 1721.44,150.378 1734.19,150.478C1734.16,152.573 1735.48,153.169 1735.48,153.169C1736.82,154.49 1750.15,153.803 1750.15,153.803C1753.6,153.782 1753.26,152.09 1753.26,152.09C1753.7,151.636 1753.38,132.823 1753.17,122.578C1753.25,121.186 1753.29,119.011 1753.06,117.19C1753.04,116.515 1753.03,116.065 1753.03,116.065C1752.95,115.565 1752.73,115.203 1752.45,114.898C1752.24,114.49 1751.98,114.173 1751.64,114.098C1751.64,114.098 1751.45,114.094 1751.18,114.086C1749.66,113.598 1747.77,113.969 1747.77,113.969C1747.71,113.978 1747.61,113.982 1747.49,113.99C1742.35,113.861 1734.19,113.673 1733.41,113.757C1732.27,113.878 1714,114.069 1712.52,114.04C1711.04,114.011 1675.15,113.665 1674.31,113.673C1673.48,113.678 1635.42,113.311 1633.82,113.394C1632.23,113.482 1602.15,113.069 1602.15,113.069C1602.15,113.069 1596.56,112.869 1596.46,114.998C1596.4,116.119 1596.42,117.24 1596.44,118.207L1596.44,118.228C1596.44,118.311 1596.46,119.153 1596.49,120.373C1596.49,120.411 1596.5,120.486 1596.5,120.615C1596.61,124.59 1596.82,132.153 1596.8,132.444C1596.78,132.732 1596.7,137.611 1596.66,140.378C1596.64,140.973 1596.63,141.553 1596.63,142.115" style="fill:rgb(2,2,2);fill-rule:nonzero;"/></g></svg>
