<?xml version="1.0" encoding="UTF-8" standalone="no"?><!DOCTYPE svg PUBLIC "-//W3C//DTD SVG 1.1//EN" "http://www.w3.org/Graphics/SVG/1.1/DTD/svg11.dtd"><svg width="100%" height="100%" viewBox="0 0 690 320" version="1.1" xmlns="http://www.w3.org/2000/svg" xmlns:xlink="http://www.w3.org/1999/xlink" xml:space="preserve" xmlns:serif="http://www.serif.com/" style="fill-rule:evenodd;clip-rule:evenodd;stroke-linejoin:round;stroke-miterlimit:2;"><g><g><path d="M304.807,151.72C303.398,150.92 301.799,150.515 300.198,150.768L300.092,150.785L300.002,150.798C299.987,150.801 299.972,150.803 299.956,150.806C298.373,151.061 296.989,151.927 295.9,153.107C295.347,153.71 294.593,154.138 293.722,154.274C291.682,154.593 289.77,153.197 289.451,151.158C289.241,149.827 289.751,148.409 290.963,147.53C291.441,147.182 291.994,146.97 292.568,146.888C293.38,146.761 294.172,146.906 294.851,147.255C294.952,147.304 295.048,147.357 295.14,147.413C296.404,148.176 297.856,148.569 299.315,148.345L299.702,148.285L300.105,148.221C301.564,147.991 302.827,147.175 303.8,146.064C303.869,145.985 303.944,145.907 304.023,145.83C304.564,145.29 305.275,144.91 306.088,144.783C306.66,144.686 307.253,144.72 307.815,144.906C309.236,145.375 310.152,146.569 310.357,147.899C310.676,149.939 309.281,151.851 307.242,152.169C306.368,152.305 305.519,152.128 304.807,151.72ZM303.919,140.689C302.771,139.544 301.336,138.731 299.724,138.552L299.618,138.54L299.528,138.529C299.521,138.529 299.515,138.528 299.508,138.527C297.904,138.347 296.331,138.816 294.961,139.671C294.269,140.107 293.428,140.319 292.552,140.22C290.501,139.989 289.026,138.138 289.258,136.086C289.407,134.747 290.274,133.515 291.675,132.987C292.228,132.778 292.818,132.719 293.393,132.792C294.211,132.885 294.938,133.235 295.501,133.753C295.584,133.826 295.662,133.901 295.735,133.978C296.752,135.048 298.048,135.811 299.516,135.982L299.904,136.026L300.309,136.071C301.777,136.235 303.212,135.783 304.443,134.968C304.53,134.911 304.62,134.856 304.716,134.804C305.381,134.424 306.168,134.244 306.988,134.337C307.566,134.394 308.128,134.584 308.621,134.912C309.867,135.74 310.436,137.134 310.282,138.471C310.049,140.523 308.198,141.997 306.147,141.765C305.269,141.666 304.497,141.27 303.919,140.689ZM430.59,145.421C429.991,143.914 428.996,142.599 427.588,141.794L427.495,141.741L427.416,141.695C427.407,141.69 427.398,141.685 427.389,141.68C425.992,140.882 424.365,140.691 422.772,140.931C421.963,141.056 421.108,140.918 420.343,140.479C418.552,139.452 417.933,137.168 418.96,135.377C419.628,134.207 420.913,133.42 422.409,133.491C422.998,133.519 423.563,133.699 424.062,133.994C424.775,134.403 425.302,135.011 425.613,135.708C425.662,135.81 425.704,135.912 425.741,136.013C426.25,137.398 427.137,138.613 428.416,139.352L428.755,139.547L429.109,139.749C430.392,140.482 431.887,140.636 433.341,140.377C433.443,140.359 433.548,140.345 433.656,140.335C434.417,140.25 435.212,140.398 435.927,140.808C436.435,141.09 436.876,141.488 437.199,141.985C438.013,143.239 437.982,144.744 437.31,145.91C436.283,147.701 433.999,148.32 432.208,147.293C431.442,146.853 430.89,146.183 430.59,145.421ZM428.283,160.621C427.531,159.185 426.406,157.979 424.922,157.325L424.823,157.282C424.823,157.282 424.723,157.237 424.714,157.233C423.241,156.584 421.602,156.562 420.041,156.967C419.25,157.175 418.385,157.126 417.578,156.769C415.691,155.934 414.838,153.726 415.674,151.838C416.217,150.605 417.414,149.689 418.908,149.605C419.498,149.571 420.078,149.691 420.605,149.933C421.355,150.266 421.941,150.814 422.323,151.472C422.383,151.57 422.437,151.669 422.485,151.767C423.134,153.092 424.143,154.208 425.492,154.81L425.849,154.969L426.223,155.134C427.573,155.729 429.078,155.727 430.496,155.319C430.601,155.289 430.709,155.263 430.822,155.241C431.565,155.082 432.364,155.148 433.113,155.479C433.648,155.707 434.128,156.057 434.5,156.518C435.44,157.681 435.565,159.181 435.018,160.41C434.182,162.298 431.974,163.151 430.086,162.315C429.279,161.958 428.661,161.349 428.283,160.621ZM390.643,174.159C390.637,175.814 390.628,177.096 390.618,177.478C390.558,179.648 390.432,181.687 390.238,183.592C390.045,185.498 389.564,186.967 388.798,187.999C388.031,189.031 387.239,189.802 386.421,190.311C385.605,190.821 384.99,191.208 382.376,191.472C381.395,191.572 380.641,191.653 379.855,191.717L377.797,186.031C378.166,186.014 378.574,185.995 379.042,185.974C382.478,185.818 383.337,185.394 383.823,184.702C384.31,184.01 384.562,183.306 384.582,182.589C384.68,178.996 384.89,169.221 384.915,165.645C384.917,165.231 384.917,164.871 384.915,164.58L378.729,166.108L378.729,160.345L384.916,158.816L384.916,139.315L379.51,139.315L379.51,133.714L405.397,133.714L405.397,168.458C405.397,173.624 406.113,178.617 407.547,183.436C408.37,180.397 408.903,176.49 409.142,171.714L414.482,174.97C414.178,178.422 413.575,181.585 412.674,184.462C411.773,187.338 410.905,189.134 410.069,189.851C409.234,190.567 408.274,190.925 407.189,190.925C405.863,190.925 404.718,190.421 403.752,189.411C402.787,188.402 401.864,185.422 400.984,180.473C400.105,175.523 399.665,171.074 399.665,167.122L399.665,139.315L390.646,139.315L390.646,157.288L398.573,154.998L398.573,160.761L390.646,163.052C390.66,163.865 390.659,169.353 390.646,173.348L390.646,174.159L390.643,174.159ZM375.863,188.972L363.001,188.972L363.001,190.567L357.238,190.567L357.238,167.448L375.863,167.448L375.863,188.972ZM370.003,172.984L363.002,172.984L363.002,183.501L370.003,183.501L370.003,172.984ZM375.798,162.987L357.238,162.987L357.238,157.712L375.798,157.712L375.798,162.987ZM375.798,153.251L357.238,153.251L357.238,147.91L375.798,147.91L375.798,153.251ZM377.264,143.352L355.642,143.352L355.642,137.979L364.174,137.979C363.826,136.959 363.12,135.581 362.057,133.845L367.918,131.63C369.091,133.823 370.067,135.94 370.849,137.979L377.264,137.979L377.264,143.352ZM540.494,172.786L517.604,172.786L517.604,190.502L511.482,190.502L511.482,172.786L488.689,172.786L488.689,142.328L511.482,142.328L511.482,132.379L517.604,132.379L517.604,142.328L540.494,142.328L540.494,172.786ZM511.482,148.189L494.876,148.189L494.876,166.892L511.482,166.892L511.482,148.189ZM534.341,148.189L517.604,148.189L517.604,166.892L534.341,166.892L534.341,148.189ZM608.955,178.975L603.159,181.71C601.031,172.832 597.634,164.138 592.967,155.628L598.177,152.827C603.366,162.705 606.957,171.42 608.955,178.975ZM590.363,150.288L585.282,153.967C581.831,147.585 577.25,141.475 571.541,135.635L575.741,131.956C581.147,137.057 586.02,143.168 590.363,150.288ZM595.702,170.834C595.571,175.089 595.338,178.519 595.001,181.124C594.666,183.729 594.232,185.434 593.699,186.236C593.168,187.039 592.375,187.81 591.323,188.548C590.269,189.286 588.788,189.725 586.877,189.867C584.968,190.008 582.927,190.079 580.756,190.079C578.347,190.079 576.078,189.985 573.951,189.801C571.823,189.617 570.407,189.275 569.701,188.776C568.995,188.276 568.437,187.592 568.024,186.724C567.612,185.857 567.406,184.804 567.406,183.567L567.406,146.641L573.365,146.641L573.365,181.97C573.365,183.577 574.336,184.348 576.279,184.283C578.221,184.217 581.473,184.185 586.031,184.185C586.748,184.185 587.458,183.951 588.164,183.485C588.87,183.018 589.347,181.07 589.597,177.64C589.846,174.211 589.971,171.367 589.971,169.108L595.702,170.834ZM563.368,153.707C561.305,166.515 558.592,176.565 555.227,183.859L549.823,180.636C553.578,172.061 556.107,162.683 557.41,152.502L563.368,153.707ZM348.92,186.236L345.728,191.381C339.911,189.514 333.398,188.158 326.191,187.31L329.252,182.296C336.286,182.904 342.841,184.217 348.92,186.236ZM348.138,140.91C346.076,143.863 344.133,146.348 342.309,148.367L337.263,145.371C337.826,144.72 339.021,143.233 340.844,140.91L319.841,140.91C317.801,143.254 315.847,145.208 313.98,146.772L309.454,142.897C312.906,140.4 316.216,136.623 319.385,131.565L324.856,133.421C324.661,134.181 324.237,134.962 323.586,135.765L348.138,135.765L348.138,140.91ZM349.31,152.632L346.51,157.973C344.794,157.626 342.863,157.072 340.714,156.312L340.714,181.385L312.58,181.385L315.445,184.706C309.172,187.593 301.77,189.731 293.239,191.121L290.373,185.78C296.711,185.021 302.779,183.555 308.576,181.385L298.774,181.385L298.774,156.182L311.376,156.182L308.836,152.502C316.629,150.527 322.435,147.065 326.256,142.115L332.313,143.45C331.662,144.644 330.506,145.921 330.18,146.225C334.912,149.285 341.734,151.07 349.31,152.632ZM334.723,167.578L304.994,167.578L304.994,170.052L334.723,170.052L334.723,167.578ZM334.723,160.903L304.994,160.903L304.994,163.247L334.723,163.247L334.723,160.903ZM334.723,174.384L304.994,174.384L304.994,176.989L334.723,176.989L334.723,174.384ZM340.063,156.182C335.59,154.727 330.582,153.118 326.371,150.296C323.592,152.813 320.645,154.423 316.195,156.182L340.063,156.182ZM478.742,188.006L473.235,190.924C472.228,188.542 471.267,186.476 470.348,184.727C459.003,187.437 448.39,189.23 438.51,190.104L436.28,184.399C441.766,179.918 446.719,172.89 451.134,163.316L436.346,163.316L436.346,157.479L454.479,157.479L454.479,146.855L439.166,146.855L439.166,141.084L454.479,141.084L454.479,132.166L460.611,132.166L460.611,141.084L475.038,141.084L475.038,146.855L460.611,146.855L460.611,157.479L478.054,157.479L478.054,163.316L458.249,163.316C454.03,172.038 449.593,178.793 444.937,183.58C452.085,182.771 459.561,181.426 467.365,179.547C466.097,177.208 464.086,174.083 461.332,170.169L467.037,167.546C472.327,175.415 476.229,182.236 478.742,188.006ZM436.848,170.629C432.77,178.132 428.151,184.707 422.993,190.358L418.376,185.948C422.746,181.655 427.306,175.303 432.059,166.889L436.848,170.629Z"/><path d="M310.58,108.967L300.676,108.967L300.676,115.852L299.193,115.852L299.193,108.967L289.234,108.967L289.234,98.009L299.193,98.009L299.193,93.722L300.676,93.722L300.676,98.009L310.58,98.009L310.58,108.967ZM309.068,99.355L300.676,99.355L300.676,107.607L309.068,107.607L309.068,99.355ZM299.193,99.355L290.717,99.355L290.717,107.607L299.193,107.607L299.193,99.355ZM341.249,104.573L337.567,104.573L337.567,115.802L336.098,115.802L336.098,104.573L331.661,104.573C331.661,107.75 331.276,109.756 330.507,111.443C329.738,113.132 328.744,114.583 327.526,115.802L326.303,114.901C327.732,113.559 328.744,112.111 329.34,110.554C329.935,108.998 330.209,107.29 330.164,104.573L326.894,104.573L326.894,103.313L330.164,103.313L330.164,95.624L327.348,95.624L327.348,94.314L340.713,94.314L340.713,95.624L337.567,95.624L337.567,103.313L341.249,103.313L341.249,104.573ZM336.098,95.624L331.662,95.624L331.662,103.313L336.098,103.313L336.098,95.624ZM326.73,96.204L322.567,96.204C322.128,98.443 321.491,100.51 320.658,102.403L326.112,102.403L326.112,113.679L324.684,113.679L324.684,113.11L320.686,113.11L320.686,114.085L319.271,114.085L319.271,104.936C318.75,105.7 318.182,106.376 317.568,106.96L316.551,105.923C318.767,103.717 320.287,100.477 321.112,96.204L317.032,96.204L317.032,94.896L326.73,94.896L326.73,96.204ZM324.684,103.775L320.687,103.775L320.687,111.763L324.684,111.763L324.684,103.775ZM367.329,101.798L357.755,101.798L357.755,100.55L367.329,100.55L367.329,101.798ZM369.911,101.317L368.456,101.317L368.456,97.16L356.574,97.16L356.574,101.317L355.118,101.317L355.118,95.839L361.643,95.839C361.468,95.221 361.138,94.838 360.654,93.907L362.151,93.549C362.563,94.364 362.92,94.866 363.222,95.839L369.911,95.839L369.911,101.317ZM370.475,110.875C370.475,112.209 370.365,113.209 370.145,113.876C369.925,114.542 369.589,114.995 369.136,115.235C368.682,115.473 367.782,115.593 366.436,115.593C364.852,115.593 364.06,115.065 364.06,114.012L364.06,106.244L360.859,106.244C360.667,109.102 360.023,111.184 358.929,112.492C357.835,113.802 356.208,114.904 354.047,115.802L352.975,114.691C355.072,113.975 356.661,112.975 357.741,111.69C358.822,110.406 359.362,108.591 359.362,106.244L355.172,106.244L355.172,104.985L370.049,104.985L370.049,106.244L365.529,106.244L365.529,113.728C365.529,113.859 365.594,113.989 365.723,114.117C365.85,114.244 366.263,114.308 366.958,114.308C367.581,114.308 367.998,114.269 368.208,114.191C368.419,114.113 368.574,114.01 368.675,113.881C368.776,113.755 368.868,113.349 368.95,112.666C369.032,111.983 369.065,111.25 369.047,110.468L370.475,110.875ZM351.991,102.301C353.557,104.153 354.34,106.097 354.34,108.13C354.34,108.887 354.12,109.51 353.68,110.001C353.241,110.491 352.316,110.735 350.906,110.735C350.548,110.735 350.2,110.723 349.862,110.699L349.298,109.365L350.864,109.39C351.725,109.39 352.287,109.289 352.547,109.087C352.809,108.886 352.939,108.579 352.939,108.166C352.939,106.265 352.119,104.372 350.48,102.486C351.093,100.807 351.798,97.995 352.604,95.574L348.25,95.574L348.25,115.827L346.821,115.827L346.821,94.29L354.129,94.29L354.129,95.574C353.47,97.567 352.76,100.318 351.991,102.301ZM399.619,105.108L390.787,105.108C388.79,108.682 386.748,111.566 384.66,113.765C388.68,113.362 392.448,112.785 395.966,112.036C394.985,110.562 393.973,109.241 392.929,108.072L394.166,107.405C396.592,110.328 398.383,112.917 399.537,115.173L398.3,115.963C397.778,114.843 397.243,113.905 396.694,113.147C392.554,113.978 387.93,114.662 382.819,115.197L382.229,113.839C383.09,113.518 384.171,112.506 385.471,110.801C386.771,109.097 387.972,107.2 389.07,105.108L382.175,105.108L382.175,103.848L390.251,103.848L390.251,98.859L383.479,98.859L383.479,97.599L390.251,97.599L390.251,93.673L391.694,93.673L391.694,97.599L398.356,97.599L398.356,98.859L391.694,98.859L391.694,103.848L399.619,103.848L399.619,105.108ZM380.949,103.375L379.92,104.313C378.619,103.102 377.014,102.275 375.111,101.355L376.031,100.365C377.984,101.288 379.658,102.163 380.949,103.375ZM381.638,97.02L380.608,97.958C379.308,96.748 377.703,95.92 375.8,95L376.72,94.011C378.673,94.934 380.348,95.809 381.638,97.02ZM381.144,107.306C379.432,110.904 377.77,113.727 376.158,115.778L374.921,114.975C376.634,112.9 378.314,110.101 379.963,106.577L381.144,107.306ZM428.681,101.284L426.428,101.284L426.428,105.759L419.958,105.759L419.958,107.718L426.965,107.718L426.965,108.94L419.958,108.94L419.958,111.458L428.117,111.458L428.117,112.692L419.958,112.692L419.958,115.914L418.503,115.914L418.503,112.692L411.016,112.692L411.016,111.458L418.503,111.458L418.503,108.94L411.909,108.94L411.909,107.718L418.503,107.718L418.503,105.759L412.528,105.759L412.528,104.573L418.503,104.573L418.503,101.284L411.318,101.284L411.318,100.098L418.503,100.098L418.503,96.923L412.528,96.923L412.528,95.738L418.503,95.738L418.503,93.784L419.958,93.784L419.958,95.738L426.428,95.738L426.428,100.098L428.681,100.098L428.681,101.284ZM424.945,96.923L419.959,96.923L419.959,100.098L424.945,100.098L424.945,96.923ZM424.945,101.284L419.959,101.284L419.959,104.574L424.945,104.574L424.945,101.284ZM410.7,94.105C408.869,96.731 406.96,98.654 404.973,99.872L404.039,98.933C406.136,97.509 407.917,95.73 409.382,93.599L410.7,94.105ZM410.852,99.674C410.247,100.934 409.666,101.995 409.107,102.86L409.107,115.914L407.61,115.914L407.61,105.009C406.657,106.095 405.709,107.005 404.767,107.739L403.956,106.603C405.925,105.129 407.761,102.716 409.464,99.366L410.852,99.674ZM457.908,102.155L454.707,102.155L454.707,115.914L453.32,115.914L453.32,102.155L448.265,102.155C448.274,105.622 447.956,108.995 447.31,110.665C446.665,112.336 445.668,114.086 444.322,115.914L443.141,115.049C444.735,113.024 445.747,111.211 446.177,109.61C446.608,108.008 446.823,105.886 446.823,103.243L446.823,95.525C450.642,95.36 453.97,94.759 456.809,93.722L457.578,94.87C455.078,95.793 451.973,96.397 448.265,96.686L448.265,100.92L457.908,100.92L457.908,102.155ZM444.996,94.87C442.322,95.883 439.538,96.529 436.644,96.81L436.644,99.22L444.007,99.22L444.007,107.183L436.617,107.183C436.369,110.814 435.627,113.638 434.391,115.654L433.155,114.876C434.52,112.481 435.202,109.636 435.202,106.343L435.202,95.772C439.011,95.393 442.061,94.709 444.35,93.722L444.996,94.87ZM442.579,100.456L436.644,100.456L436.644,105.898L442.579,105.898L442.579,100.456Z" style="fill:rgb(89,86,86);"/><path d="M543.236,224.742L543.236,211.942C543.236,211.276 543.569,210.943 544.235,210.943C544.84,210.943 545.169,211.217 545.226,211.765L550.224,211.765C550.89,211.765 551.223,212.098 551.223,212.763L551.223,214.76C551.223,215.425 550.89,215.757 550.224,215.757C549.559,215.757 549.226,215.425 549.226,214.76L549.226,213.762L545.233,213.762L545.233,224.742C545.233,225.407 544.901,225.74 544.235,225.74C543.569,225.74 543.236,225.407 543.236,224.742ZM521.138,215.147L521.138,213.761L520.139,213.761C519.474,213.761 519.142,213.429 519.142,212.762C519.142,212.098 519.474,211.765 520.139,211.765L521.138,211.765L521.138,206.773C521.138,206.108 521.471,205.776 522.136,205.776C522.801,205.776 523.135,206.108 523.135,206.773L523.135,211.765L526.13,211.765C526.795,211.765 527.127,212.098 527.127,212.762C527.127,213.429 526.795,213.761 526.13,213.761L523.135,213.761L523.135,215.192C523.142,215.254 523.146,215.32 523.146,215.389L523.146,224.727C523.146,226.134 524.395,227.211 524.395,227.211C524.883,227.7 524.883,228.07 524.395,228.558C523.906,229.047 523.419,229.047 522.93,228.558L522.198,227.826C521.614,226.997 521.138,226.231 521.122,224.727L521.122,215.389C521.122,215.303 521.127,215.222 521.138,215.147ZM506.095,224.742L506.095,211.942C506.095,211.276 506.427,210.943 507.094,210.943C507.698,210.943 508.028,211.217 508.084,211.765L512.084,211.765C513.204,211.765 514.15,212.151 514.92,212.923C515.691,213.693 516.077,214.639 516.077,215.757L516.077,224.742C516.077,225.407 515.745,225.741 515.079,225.741C514.414,225.741 514.082,225.407 514.082,224.742L514.082,215.757C514.082,215.193 513.889,214.72 513.506,214.337C513.122,213.953 512.649,213.761 512.084,213.761L508.092,213.761L508.092,224.742C508.092,225.407 507.759,225.741 507.094,225.741C506.427,225.741 506.095,225.407 506.095,224.742ZM447.685,225.74L442.861,225.74C441.742,225.74 440.797,225.354 440.025,224.583C439.253,223.812 438.868,222.867 438.868,221.748C438.868,221.022 439.044,220.351 439.398,219.736C440.154,218.415 441.309,217.754 442.861,217.754L446.854,217.754L446.854,215.757C446.854,215.193 446.663,214.72 446.279,214.336C445.896,213.953 445.422,213.762 444.858,213.762L440.865,213.762C440.199,213.762 439.866,213.428 439.866,212.763C439.866,212.098 440.199,211.765 440.865,211.765L444.858,211.765C445.977,211.765 446.922,212.15 447.693,212.922C448.465,213.694 448.851,214.638 448.851,215.757L448.851,223.75C449.406,223.803 449.683,224.133 449.683,224.741C449.683,225.408 449.35,225.74 448.684,225.74L447.852,225.74L447.685,225.74ZM446.854,219.751L442.861,219.751C442.307,219.751 441.835,219.945 441.447,220.333C441.059,220.721 440.865,221.193 440.865,221.748C440.865,222.291 441.061,222.76 441.455,223.154C441.847,223.548 442.316,223.744 442.861,223.744L446.854,223.744L446.854,219.751ZM401.726,224.742L401.726,211.942C401.726,211.276 402.059,210.943 402.725,210.943C403.329,210.943 403.659,211.217 403.715,211.765L407.715,211.765C408.835,211.765 409.781,212.151 410.552,212.923C411.323,213.693 411.709,214.639 411.709,215.757L411.709,224.742C411.709,225.407 411.376,225.741 410.711,225.741C410.046,225.741 409.713,225.407 409.713,224.742L409.713,215.757C409.713,215.193 409.521,214.72 409.138,214.337C408.754,213.953 408.28,213.761 407.715,213.761L403.723,213.761L403.723,224.742C403.723,225.407 403.39,225.741 402.725,225.741C402.059,225.741 401.726,225.407 401.726,224.742ZM374.568,215.087L374.568,213.761L373.569,213.761C372.904,213.761 372.571,213.429 372.571,212.762C372.571,212.098 372.904,211.765 373.569,211.765L374.568,211.765L374.568,206.773C374.568,206.108 374.9,205.776 375.566,205.776C376.231,205.776 376.565,206.108 376.565,206.773L376.565,211.765L379.559,211.765C380.224,211.765 380.557,212.098 380.557,212.762C380.557,213.429 380.224,213.761 379.559,213.761L376.565,213.761L376.565,215.389L376.565,224.727L376.565,224.742C376.573,226.141 377.814,227.211 377.814,227.211C378.302,227.7 378.302,228.07 377.814,228.558C377.326,229.047 376.838,229.047 376.35,228.558L375.618,227.826C375.034,226.997 374.557,226.231 374.541,224.727L374.541,215.389C374.541,215.28 374.55,215.179 374.568,215.087ZM368.395,225.74L363.517,225.74C362.398,225.74 361.454,225.354 360.682,224.583C359.91,223.812 359.524,222.867 359.524,221.748C359.524,221.022 359.701,220.351 360.054,219.736C360.81,218.415 361.965,217.754 363.517,217.754L367.511,217.754L367.511,215.757C367.511,215.193 367.319,214.72 366.935,214.336C366.553,213.953 366.079,213.762 365.514,213.762L361.522,213.762C360.855,213.762 360.523,213.428 360.523,212.763C360.523,212.098 360.855,211.765 361.522,211.765L365.514,211.765C366.633,211.765 367.579,212.15 368.349,212.922C369.121,213.694 369.507,214.638 369.507,215.757L369.507,223.746C370.098,223.782 370.393,224.114 370.393,224.741C370.393,225.408 370.061,225.74 369.394,225.74L368.508,225.74L368.395,225.74ZM367.511,219.751L363.517,219.751C362.963,219.751 362.491,219.945 362.103,220.333C361.715,220.721 361.522,221.193 361.522,221.748C361.522,222.291 361.717,222.76 362.111,223.154C362.504,223.548 362.973,223.744 363.517,223.744L367.511,223.744L367.511,219.751ZM344.475,211.765L352.469,211.765C353.587,211.765 354.532,212.15 355.304,212.922C356.075,213.694 356.461,214.638 356.461,215.757L356.461,224.742C356.461,225.407 356.129,225.74 355.463,225.74C354.797,225.74 354.464,225.407 354.464,224.742L354.464,215.757C354.464,215.193 354.273,214.72 353.89,214.336C353.507,213.953 353.033,213.762 352.469,213.762L350.472,213.762L350.472,224.742C350.472,225.407 350.139,225.74 349.473,225.74C348.808,225.74 348.475,225.407 348.475,224.742L348.475,213.762L344.483,213.762L344.483,224.742C344.483,225.407 344.149,225.74 343.484,225.74C342.819,225.74 342.485,225.407 342.485,224.742L342.485,212.941L342.485,212.762L342.486,211.942C342.486,211.276 342.818,210.943 343.485,210.943C344.089,210.943 344.419,211.217 344.475,211.765ZM331.436,224.742L331.436,211.942C331.436,211.276 331.769,210.943 332.435,210.943C333.039,210.943 333.369,211.217 333.425,211.765L338.424,211.765C339.089,211.765 339.423,212.098 339.423,212.763L339.423,214.76C339.423,215.425 339.089,215.757 338.424,215.757C337.759,215.757 337.425,215.425 337.425,214.76L337.425,213.762L333.433,213.762L333.433,224.742C333.433,225.407 333.1,225.74 332.435,225.74C331.769,225.74 331.436,225.407 331.436,224.742ZM294.294,224.742L294.294,211.942C294.294,211.276 294.627,210.943 295.293,210.943C295.897,210.943 296.227,211.217 296.283,211.765L300.283,211.765C301.404,211.765 302.349,212.151 303.12,212.923C303.891,213.693 304.277,214.639 304.277,215.757L304.277,224.742C304.277,225.407 303.944,225.741 303.279,225.741C302.614,225.741 302.281,225.407 302.281,224.742L302.281,215.757C302.281,215.193 302.089,214.72 301.706,214.337C301.322,213.953 300.848,213.761 300.283,213.761L296.291,213.761L296.291,224.742C296.291,225.407 295.958,225.741 295.293,225.741C294.627,225.741 294.294,225.407 294.294,224.742ZM290.232,225.74C289.567,225.74 289.234,225.408 289.234,224.741L289.234,206.773C289.234,206.108 289.567,205.775 290.232,205.775C290.898,205.775 291.231,206.108 291.231,206.773L291.231,224.741C291.231,225.408 290.898,225.74 290.232,225.74ZM308.339,211.765L309.338,211.765L309.338,209.768C309.338,208.649 309.725,207.704 310.502,206.933C311.278,206.161 312.22,205.776 313.33,205.776L314.328,205.776C314.994,205.776 315.327,206.109 315.327,206.774C315.327,207.439 314.994,207.772 314.328,207.772L313.33,207.772C312.776,207.772 312.304,207.966 311.916,208.354C311.528,208.742 311.333,209.214 311.333,209.768L311.333,211.765L314.328,211.765C314.994,211.765 315.327,212.098 315.327,212.763C315.327,213.428 314.994,213.762 314.328,213.762L311.333,213.762L311.333,224.742C311.333,225.407 311.001,225.74 310.335,225.74C309.67,225.74 309.338,225.407 309.338,224.742L309.338,213.762L308.339,213.762C307.674,213.762 307.34,213.428 307.34,212.763C307.34,212.098 307.674,211.765 308.339,211.765ZM318.39,220.749L318.39,216.756C318.39,215.375 318.876,214.197 319.85,213.225C320.822,212.251 322,211.765 323.382,211.765C324.783,211.765 325.965,212.247 326.928,213.209C327.891,214.172 328.373,215.355 328.373,216.756L328.373,220.749C328.373,222.13 327.886,223.308 326.913,224.28C325.94,225.254 324.762,225.74 323.382,225.74C322,225.74 320.822,225.254 319.85,224.28C318.876,223.308 318.39,222.13 318.39,220.749ZM326.376,220.749L326.376,216.756C326.376,215.93 326.083,215.224 325.499,214.639C324.914,214.054 324.208,213.761 323.382,213.761C322.554,213.761 321.848,214.054 321.264,214.639C320.679,215.224 320.387,215.93 320.387,216.756L320.387,220.749C320.387,221.586 320.676,222.294 321.256,222.875C321.836,223.454 322.544,223.744 323.382,223.744C324.208,223.744 324.914,223.451 325.499,222.866C326.083,222.282 326.376,221.577 326.376,220.749ZM383.62,212.763C383.62,212.098 383.953,211.765 384.619,211.765C385.284,211.765 385.617,212.098 385.617,212.763L385.617,224.742C385.617,225.407 385.284,225.74 384.619,225.74C383.953,225.74 383.62,225.407 383.62,224.742L383.62,212.763ZM383.62,207.772L383.62,206.774C383.62,206.109 383.953,205.776 384.619,205.776C385.284,205.776 385.617,206.109 385.617,206.774L385.617,207.772C385.617,208.438 385.284,208.771 384.619,208.771C383.953,208.771 383.62,208.438 383.62,207.772ZM388.681,220.749L388.681,216.756C388.681,215.375 389.166,214.197 390.14,213.225C391.113,212.251 392.29,211.765 393.672,211.765C395.074,211.765 396.255,212.247 397.218,213.209C398.181,214.172 398.663,215.355 398.663,216.756L398.663,220.749C398.663,222.13 398.176,223.308 397.203,224.28C396.23,225.254 395.053,225.74 393.672,225.74C392.29,225.74 391.113,225.254 390.14,224.28C389.166,223.308 388.681,222.13 388.681,220.749ZM396.667,220.749L396.667,216.756C396.667,215.93 396.374,215.224 395.789,214.639C395.204,214.054 394.498,213.761 393.672,213.761C392.845,213.761 392.139,214.054 391.554,214.639C390.969,215.224 390.677,215.93 390.677,216.756L390.677,220.749C390.677,221.586 390.966,222.294 391.547,222.875C392.126,223.454 392.834,223.744 393.672,223.744C394.498,223.744 395.204,223.451 395.789,222.866C396.374,222.282 396.667,221.577 396.667,220.749ZM425.822,206.773C425.822,206.108 426.155,205.776 426.821,205.776C427.486,205.776 427.819,206.108 427.819,206.773L427.819,223.744L434.807,223.744C435.472,223.744 435.804,224.076 435.804,224.742C435.804,225.408 435.472,225.74 434.807,225.74L426.821,225.74C426.155,225.74 425.822,225.408 425.822,224.742L425.822,206.773ZM461.897,225.74C461.434,225.74 461.111,225.498 460.93,225.014L458.903,219.585L456.876,224.984C456.684,225.488 456.362,225.74 455.908,225.74C455.383,225.74 455.046,225.429 454.895,224.803L451.945,213.005C451.925,212.924 451.915,212.829 451.915,212.717C451.915,212.082 452.247,211.765 452.914,211.765C453.438,211.765 453.76,212.017 453.881,212.522L456.089,221.369L457.95,216.408C458.111,215.974 458.429,215.758 458.903,215.758C459.366,215.758 459.679,215.974 459.84,216.408L461.7,221.385L463.924,212.522C464.055,212.017 464.378,211.765 464.892,211.765C465.154,211.765 465.386,211.859 465.587,212.045C465.789,212.231 465.891,212.456 465.891,212.717C465.891,212.829 465.88,212.924 465.86,213.005L462.896,224.863C462.754,225.448 462.421,225.74 461.897,225.74ZM488.987,205.776C489.652,205.776 489.986,206.108 489.986,206.773C489.986,207.439 489.652,207.772 488.987,207.772L484.995,207.772C484.157,207.772 483.449,208.064 482.869,208.649C482.289,209.233 482,209.939 482,210.767L482,220.749C482,221.577 482.292,222.282 482.877,222.866C483.461,223.451 484.167,223.744 484.995,223.744L488.987,223.744C489.652,223.744 489.986,224.076 489.986,224.742C489.986,225.408 489.652,225.74 488.987,225.74L484.995,225.74C483.613,225.74 482.435,225.254 481.462,224.28C480.489,223.308 480.002,222.13 480.002,220.749L480.002,210.767C480.002,209.385 480.489,208.208 481.462,207.235C482.435,206.262 483.613,205.776 484.995,205.776L488.987,205.776ZM495.046,219.75L495.046,221.747C495.046,222.292 495.242,222.761 495.636,223.154C496.029,223.547 496.498,223.744 497.042,223.744L502.033,223.744C502.699,223.744 503.032,224.076 503.032,224.742C503.032,225.408 502.699,225.74 502.033,225.74L497.042,225.74C495.922,225.74 494.978,225.355 494.206,224.583C493.435,223.812 493.049,222.866 493.049,221.747L493.049,216.756C493.049,215.375 493.536,214.197 494.508,213.225C495.481,212.251 496.659,211.765 498.04,211.765C499.442,211.765 500.624,212.247 501.587,213.209C502.549,214.172 503.032,215.355 503.032,216.756L503.032,219.75L495.046,219.75ZM498.04,213.761C497.213,213.761 496.507,214.054 495.922,214.639C495.338,215.224 495.046,215.93 495.046,216.756L495.046,217.755L501.035,217.755L501.035,216.756C501.035,215.93 500.742,215.224 500.157,214.639C499.573,214.054 498.867,213.761 498.04,213.761ZM532.188,219.75L532.188,221.747C532.188,222.292 532.383,222.761 532.778,223.154C533.171,223.547 533.639,223.744 534.183,223.744L539.175,223.744C539.841,223.744 540.173,224.076 540.173,224.742C540.173,225.408 539.841,225.74 539.175,225.74L534.183,225.74C533.064,225.74 532.12,225.355 531.348,224.583C530.577,223.812 530.191,222.866 530.191,221.747L530.191,216.756C530.191,215.375 530.677,214.197 531.65,213.225C532.623,212.251 533.801,211.765 535.182,211.765C536.584,211.765 537.766,212.247 538.729,213.209C539.691,214.172 540.173,215.355 540.173,216.756L540.173,219.75L532.188,219.75ZM535.182,213.761C534.355,213.761 533.649,214.054 533.064,214.639C532.479,215.224 532.188,215.93 532.188,216.756L532.188,217.755L538.177,217.755L538.177,216.756C538.177,215.93 537.884,215.224 537.299,214.639C536.715,214.054 536.009,213.761 535.182,213.761ZM556.283,223.744C556.948,223.744 557.281,224.071 557.281,224.727C557.281,224.817 556.938,226.234 556.253,228.977C556.132,229.481 555.809,229.733 555.284,229.733C554.619,229.733 554.287,229.4 554.287,228.735C554.287,228.281 554.63,226.869 555.315,224.5C555.456,223.996 555.779,223.744 556.283,223.744Z" style="fill:rgb(89,86,86);"/><g><path d="M572.935,206.815L572.935,226.835L571.524,226.835L571.524,206.815L572.935,206.815ZM578.132,206.815L578.132,226.835L576.721,226.835L576.721,206.815L578.132,206.815ZM595.233,226.835L592.896,220.608L584.029,220.608L581.69,226.835L580.138,226.835L587.849,206.815L589.189,206.815L596.816,226.835L595.233,226.835ZM588.96,210.082C588.856,209.803 588.77,209.529 588.704,209.259C588.638,209.026 588.566,208.793 588.491,208.56L588.434,208.56C588.272,209.175 588.115,209.673 587.963,210.055L584.528,219.337L592.41,219.337L588.96,210.082ZM598.177,226.122L598.177,224.545C599.642,225.457 601.124,225.913 602.625,225.913C604.223,225.913 605.434,225.59 606.26,224.942C607.087,224.296 607.501,223.391 607.501,222.227C607.501,221.204 607.223,220.387 606.667,219.777C606.11,219.168 604.907,218.337 603.052,217.286C600.983,216.104 599.671,215.115 599.119,214.319C598.568,213.524 598.291,212.604 598.291,211.562C598.291,210.148 598.853,208.947 599.975,207.959C601.094,206.973 602.593,206.48 604.464,206.48C605.681,206.48 606.897,206.68 608.114,207.081L608.114,208.533C606.916,208.001 605.639,207.737 604.279,207.737C602.892,207.737 601.791,208.081 600.978,208.77C600.167,209.458 599.761,210.333 599.761,211.394C599.761,212.418 600.039,213.233 600.594,213.837C601.151,214.442 602.35,215.266 604.194,216.309C606.103,217.37 607.375,218.311 608.007,219.135C608.638,219.959 608.955,220.906 608.955,221.976C608.955,223.511 608.411,224.763 607.322,225.731C606.234,226.7 604.698,227.184 602.711,227.184C602.007,227.184 601.198,227.076 600.281,226.862C599.363,226.648 598.664,226.401 598.177,226.122Z"/><path d="M573.981,206.831L573.981,226.85L572.57,226.85L572.57,206.831L573.981,206.831ZM579.178,206.831L579.178,226.85L577.767,226.85L577.767,206.831L579.178,206.831ZM596.278,226.851L593.942,220.624L585.074,220.624L582.735,226.851L581.183,226.851L588.894,206.831L590.234,206.831L597.861,226.851L596.278,226.851ZM590.006,210.098C589.901,209.819 589.815,209.545 589.75,209.275C589.684,209.042 589.611,208.809 589.536,208.576L589.48,208.576C589.318,209.191 589.161,209.689 589.008,210.071L585.573,219.353L593.455,219.353L590.006,210.098ZM599.223,226.138L599.223,224.561C600.687,225.473 602.169,225.929 603.67,225.929C605.268,225.929 606.479,225.606 607.306,224.958C608.132,224.312 608.546,223.407 608.546,222.243C608.546,221.22 608.268,220.403 607.713,219.794C607.155,219.184 605.952,218.353 604.098,217.302C602.028,216.12 600.716,215.131 600.164,214.335C599.614,213.54 599.337,212.619 599.337,211.578C599.337,210.164 599.898,208.963 601.021,207.976C602.14,206.989 603.638,206.497 605.51,206.497C606.726,206.497 607.943,206.696 609.159,207.097L609.159,208.549C607.961,208.017 606.684,207.753 605.325,207.753C603.938,207.753 602.836,208.097 602.024,208.786C601.211,209.474 600.806,210.349 600.806,211.41C600.806,212.434 601.084,213.249 601.64,213.853C602.196,214.458 603.395,215.282 605.239,216.325C607.149,217.385 608.421,218.327 609.052,219.151C609.683,219.976 610,220.922 610,221.992C610,223.528 609.456,224.78 608.367,225.747C607.28,226.716 605.743,227.2 603.757,227.2C603.052,227.2 602.243,227.092 601.326,226.878C600.409,226.664 599.709,226.418 599.223,226.138Z"/><path d="M572.873,205.724L572.873,225.744L571.462,225.744L571.462,205.724L572.873,205.724ZM578.071,205.724L578.071,225.744L576.66,225.744L576.66,205.724L578.071,205.724ZM595.171,225.744L592.835,219.517L583.967,219.517L581.629,225.744L580.076,225.744L587.787,205.724L589.127,205.724L596.755,225.744L595.171,225.744ZM588.899,208.991C588.794,208.712 588.709,208.438 588.643,208.168C588.577,207.936 588.505,207.702 588.429,207.469L588.373,207.469C588.211,208.084 588.054,208.582 587.901,208.964L584.466,218.246L592.348,218.246L588.899,208.991ZM598.116,225.031L598.116,223.454C599.58,224.366 601.062,224.822 602.563,224.822C604.161,224.822 605.373,224.499 606.198,223.851C607.025,223.205 607.439,222.3 607.439,221.136C607.439,220.113 607.16,219.296 606.606,218.687C606.048,218.077 604.845,217.246 602.991,216.195C600.92,215.013 599.609,214.024 599.057,213.228C598.507,212.433 598.23,211.512 598.23,210.471C598.23,209.057 598.791,207.856 599.913,206.868C601.033,205.882 602.531,205.39 604.403,205.39C605.619,205.39 606.836,205.589 608.052,205.99L608.052,207.442C606.855,206.91 605.578,206.646 604.218,206.646C602.831,206.646 601.73,206.99 600.917,207.679C600.104,208.367 599.699,209.242 599.699,210.303C599.699,211.327 599.978,212.142 600.533,212.746C601.089,213.351 602.288,214.175 604.132,215.218C606.042,216.279 607.314,217.22 607.946,218.044C608.576,218.869 608.893,219.815 608.893,220.885C608.893,222.421 608.349,223.673 607.26,224.64C606.173,225.609 604.636,226.093 602.65,226.093C601.945,226.093 601.136,225.985 600.219,225.771C599.302,225.557 598.602,225.311 598.116,225.031Z" style="fill:rgb(201,201,202);"/></g><g><path d="M208.171,166.127C207.119,167.186 205.822,168.009 204.358,168.482C203.723,168.688 203.087,168.824 202.458,168.896C198.312,169.373 194.374,170.961 191.429,173.917L191.235,174.113L191.069,174.278C191.045,174.302 191.021,174.326 190.997,174.35C188.291,177.08 186.748,180.649 186.164,184.441C186.622,187.909 187.997,191.181 190.473,193.668L190.907,194.105L191.927,195.123C194.621,197.804 198.234,199.194 202.021,199.527C202.607,199.578 203.216,199.688 203.848,199.866C206.943,200.733 209.54,203.053 210.526,206.114C212.489,212.21 208.174,218.457 201.739,218.744C197.493,218.934 193.517,216.155 192.21,212.111C192.004,211.476 191.868,210.84 191.795,210.21C191.319,206.064 189.731,202.126 186.773,199.182L186.578,198.988L186.413,198.822C186.391,198.8 186.368,198.777 186.346,198.755C183.409,195.841 179.5,194.272 175.385,193.8C174.756,193.728 174.12,193.592 173.485,193.386C172.048,192.922 170.771,192.12 169.73,191.09C168.34,189.724 167.379,187.953 167.009,186.012C166.97,185.808 166.937,185.603 166.912,185.397C166.744,184.044 166.862,182.622 167.317,181.209C167.597,180.339 168.008,179.528 168.524,178.794C170.216,176.319 173.005,174.733 176.059,174.601C179.759,174.231 183.279,172.843 185.916,170.219L186.34,169.797L187.37,168.764C189.994,166.128 191.382,162.609 191.752,158.91C191.788,158.051 191.941,157.176 192.221,156.305C192.501,155.434 192.912,154.623 193.428,153.889C193.759,153.406 194.138,152.947 194.567,152.518C195.004,152.08 195.473,151.693 195.967,151.357C196.695,150.849 197.499,150.443 198.361,150.165C199.233,149.884 200.108,149.732 200.968,149.696C204.666,149.325 208.184,147.938 210.82,145.314L211.257,144.88L212.274,143.86C214.945,141.177 216.335,137.58 216.675,133.809C216.816,131.553 217.748,129.338 219.471,127.613C219.963,127.119 220.507,126.68 221.091,126.304C221.76,125.864 222.489,125.511 223.265,125.26C225.135,124.636 227.23,124.576 229.307,125.245C230.726,125.702 231.986,126.506 233.016,127.545C233.037,127.565 233.057,127.586 233.078,127.607C233.183,127.711 233.285,127.818 233.385,127.927C234.701,129.368 235.501,131.112 235.784,132.921C235.833,133.202 235.87,133.479 235.893,133.75C236.227,137.536 237.617,141.15 240.298,143.843L240.732,144.28L241.752,145.298C244.445,147.978 248.059,149.369 251.846,149.702C252.432,149.753 253.041,149.863 253.673,150.041C256.768,150.908 259.365,153.228 260.351,156.288C262.314,162.385 257.999,168.632 251.564,168.919C247.318,169.109 243.342,166.33 242.035,162.286C241.829,161.651 241.693,161.015 241.62,160.385C241.143,156.239 239.556,152.301 236.599,149.357L236.403,149.163L236.238,148.997C236.214,148.973 236.19,148.949 236.166,148.924C233.499,146.281 230.031,144.747 226.336,144.133C222.57,144.741 219.034,146.301 216.334,149.013L216.139,149.209C216.139,149.209 211.429,156.256 210.952,160.402C210.88,161.032 210.744,161.668 210.538,162.302C210.064,163.767 209.24,165.066 208.181,166.118L208.171,166.127ZM144.765,215.934C143.702,214.88 142.876,213.579 142.401,212.111C142.195,211.476 142.059,210.84 141.987,210.21C141.51,206.064 139.922,202.126 136.965,199.182L136.605,198.822C136.581,198.798 136.557,198.774 136.533,198.75C133.596,195.839 129.689,194.272 125.577,193.8C124.947,193.728 124.311,193.592 123.676,193.386C122.233,192.92 120.952,192.113 119.908,191.076C119.893,191.061 119.877,191.045 119.861,191.029C118.998,190.167 118.332,189.181 117.865,188.129C117.568,187.465 117.346,186.764 117.205,186.04C117.163,185.822 117.128,185.602 117.101,185.381C116.936,184.032 117.055,182.617 117.508,181.209C117.789,180.337 118.201,179.525 118.718,178.79C119.051,178.303 119.431,177.845 119.854,177.422C120.738,176.537 121.752,175.859 122.835,175.391C123.899,174.927 125.053,174.653 126.248,174.601C129.949,174.231 133.469,172.844 136.107,170.218L136.531,169.797L137.561,168.764C140.186,166.128 141.573,162.609 141.943,158.91C141.98,158.05 142.132,157.176 142.412,156.305C142.689,155.446 143.093,154.645 143.599,153.918C143.935,153.424 144.321,152.955 144.758,152.517C145.208,152.067 145.691,151.67 146.2,151.328C146.918,150.833 147.707,150.438 148.552,150.165C149.424,149.884 150.299,149.732 151.159,149.696C154.857,149.325 158.375,147.938 161.011,145.314L161.436,144.892L162.466,143.86C165.146,141.166 166.536,137.553 166.87,133.766C167.02,131.526 167.95,129.328 169.662,127.614C170.1,127.176 170.569,126.789 171.062,126.453C171.791,125.944 172.594,125.539 173.456,125.261C175.844,124.492 178.254,124.686 180.321,125.593C181.391,126.06 182.393,126.731 183.269,127.606C183.381,127.719 183.491,127.833 183.597,127.95C185.026,129.523 185.841,131.455 186.042,133.438C186.063,133.639 186.078,133.842 186.087,134.048C186.141,135.256 185.955,136.442 185.567,137.551C185.107,138.889 184.343,140.145 183.276,141.213C182.223,142.277 180.922,143.103 179.454,143.577C178.819,143.783 178.183,143.919 177.553,143.992C173.407,144.469 169.469,146.056 166.525,149.013L166.331,149.209L166.165,149.374C166.141,149.398 166.117,149.422 166.093,149.446C163.182,152.382 161.616,156.289 161.143,160.402C161.071,161.032 160.935,161.667 160.729,162.302C160.255,163.767 159.432,165.066 158.372,166.118L158.362,166.127C157.311,167.186 156.013,168.008 154.55,168.482C153.915,168.688 153.279,168.824 152.649,168.896C148.503,169.373 144.565,170.961 141.621,173.917L141.426,174.113L141.261,174.278C141.239,174.3 141.216,174.323 141.193,174.346C138.484,177.076 136.939,180.647 136.355,184.441C136.814,187.909 138.189,191.181 140.664,193.668L141.086,194.093L142.119,195.123C144.812,197.803 148.426,199.193 152.212,199.527C154.453,199.677 156.651,200.607 158.365,202.32C158.802,202.757 159.189,203.226 159.525,203.719C160.034,204.448 160.44,205.251 160.718,206.113C161.485,208.498 161.293,210.905 160.389,212.969C159.922,214.043 159.25,215.048 158.372,215.926C158.207,216.092 158.036,216.251 157.86,216.403C156.334,217.726 154.49,218.489 152.598,218.692C152.378,218.717 152.156,218.734 151.931,218.744C150.704,218.799 149.5,218.606 148.377,218.207C147.058,217.745 145.82,216.987 144.765,215.934ZM94.908,166.076C92.406,163.631 91.287,159.877 92.478,156.179C93.464,153.118 96.061,150.798 99.156,149.931C99.788,149.754 100.396,149.644 100.983,149.592C104.77,149.259 108.383,147.869 111.077,145.188L111.513,144.754L112.531,143.734C115.155,141.098 116.542,137.58 116.913,133.881C116.949,133.021 117.101,132.146 117.382,131.274C117.85,129.821 118.681,128.535 119.757,127.492C120.797,126.425 122.077,125.6 123.522,125.135C124.393,124.854 125.267,124.702 126.127,124.666C129.826,124.295 133.344,122.908 135.981,120.284L136.43,119.837L137.435,118.829C140.116,116.136 141.506,112.522 141.84,108.736C141.891,108.149 142.001,107.541 142.179,106.909C143.046,103.814 145.366,101.217 148.426,100.23C152.145,99.033 155.92,100.171 158.364,102.703C162.123,106.458 162.128,112.55 158.372,116.309C156.436,118.246 153.881,119.186 151.343,119.128C147.635,119.752 144.158,121.308 141.495,123.983L141.3,124.178L141.134,124.343C141.11,124.368 141.085,124.392 141.061,124.417C138.431,127.07 136.899,130.517 136.28,134.192C136.338,136.726 135.401,139.279 133.468,141.213C131.532,143.15 128.977,144.09 126.44,144.032C122.731,144.657 119.254,146.212 116.59,148.887L116.396,149.083L116.23,149.247C116.206,149.272 116.182,149.296 116.158,149.32C113.528,151.974 111.996,155.42 111.376,159.094C111.434,161.629 110.497,164.182 108.563,166.117C104.807,169.877 98.716,169.88 94.957,166.125C94.941,166.109 94.924,166.092 94.908,166.076Z" style="fill:rgb(0,72,85);"/><path d="M208.181,116.309C204.425,120.068 198.333,120.071 194.574,116.316C190.814,112.56 190.811,106.469 194.567,102.71C198.322,98.95 204.414,98.946 208.173,102.702C211.932,106.457 211.937,112.55 208.181,116.309ZM233.085,191.022C229.329,194.781 223.237,194.784 219.478,191.029C215.718,187.273 215.715,181.182 219.471,177.423C223.226,173.663 229.319,173.659 233.078,177.415C236.838,181.17 236.841,187.263 233.085,191.022Z" style="fill:rgb(103,174,40);"/><path d="M183.276,91.405C179.52,95.164 173.429,95.167 169.67,91.412C165.909,87.656 165.906,81.565 169.662,77.805C173.417,74.045 179.51,74.042 183.269,77.798C187.029,81.553 187.032,87.646 183.276,91.405ZM183.276,240.831C179.521,244.59 173.429,244.593 169.67,240.838C165.91,237.082 165.907,230.99 169.663,227.231C173.417,223.471 179.51,223.468 183.269,227.224C187.029,230.979 187.032,237.071 183.276,240.831Z" style="fill:rgb(182,201,0);"/></g></g></g></svg>
