<?xml version="1.0" encoding="UTF-8" standalone="no"?>
<!DOCTYPE svg PUBLIC "-//W3C//DTD SVG 1.1//EN" "http://www.w3.org/Graphics/SVG/1.1/DTD/svg11.dtd">
<svg width="100%" height="100%" viewBox="0 0 1470 792" version="1.1" xmlns="http://www.w3.org/2000/svg" xmlns:xlink="http://www.w3.org/1999/xlink" xml:space="preserve" xmlns:serif="http://www.serif.com/" style="fill-rule:evenodd;clip-rule:evenodd;stroke-linejoin:round;stroke-miterlimit:2;">
    <g id="iorg-logo-2023-fit" transform="matrix(3.675,0,0,1.98,-25908.7,0)">
        <rect x="7050" y="0" width="400" height="400" style="fill:none;"/>
        <g transform="matrix(0.816327,0,0,1.26263,1329.85,-84.468)">
            <g transform="matrix(0.333333,0,0,0.4,-7689.44,-6292.72)">
                <path d="M44691.5,16088.7L44691.5,16001.7L44826.6,16001.7L44826.6,16088.5L44798,16088.5L44798,16078.7L44718.8,16078.7L44718.8,16088.7L44691.5,16088.7ZM44718.8,16055.9L44798,16055.9L44798,16024.3L44718.8,16024.3L44718.8,16055.9Z" style="fill:rgb(35,32,32);fill-rule:nonzero;"/>
            </g>
            <g transform="matrix(0.333333,0,0,0.4,-7689.44,-6292.72)">
                <path d="M44810.2,15957.8L44828.1,15980.1C44774.9,15982 44721.1,15984.4 44666.7,15987.7L44660.7,15962.6C44711,15961.5 44760.9,15960 44810.2,15957.8Z" style="fill:rgb(35,32,32);fill-rule:nonzero;"/>
            </g>
            <g transform="matrix(0.333333,0,0,0.4,-7689.44,-6292.72)">
                <path d="M44823.1,16274.1C44808.7,16269.7 44796.2,16261.8 44788.8,16252.5C44776.3,16267.8 44750.3,16275.4 44735,16276.5C44731.7,16270.7 44725.2,16260.8 44725.2,16260.8C44742.2,16258.3 44751.7,16254 44759.7,16249.5C44767,16245.4 44772,16239.6 44774.5,16232.1L44758.4,16232.1C44752.7,16238.2 44746.7,16243.6 44740.5,16248.1C44734,16244.5 44727.6,16241 44720.9,16237.6C44735.5,16226.6 44748,16212.8 44755,16199L44777,16205.5C44774.9,16209.5 44772.9,16212.8 44771.1,16215.3L44854.1,16215.3L44844.8,16243.1L44824.4,16243.1L44827.6,16232.1L44801.8,16232.1C44804.6,16239.4 44809.2,16245.2 44817.3,16249.5C44827.3,16254.7 44842.8,16258.4 44863.7,16260.7C44859.7,16266.3 44854.8,16273.3 44850.4,16280.1C44844.2,16279.2 44832,16276.8 44823.1,16274.1Z" style="fill:rgb(35,32,32);fill-rule:nonzero;"/>
            </g>
            <g transform="matrix(0.333333,0,0,0.4,-7689.44,-6292.72)">
                <path d="M44713.2,16236.9L44665.4,16221.3L44677.1,16205.1L44724.3,16219.5L44713.2,16236.9ZM44713.9,16242.8L44724,16256L44668.8,16280.8L44657.8,16259L44713.9,16242.8Z" style="fill:rgb(35,32,32);fill-rule:nonzero;"/>
            </g>
            <g transform="matrix(0.333333,0,0,0.4,-7689.44,-6292.72)">
                <path d="M44793.2,16351.7C44808.2,16358.3 44831,16367.3 44860.7,16376.9L44826.7,16389.3C44811.9,16383.5 44791.6,16373.3 44776.8,16365.3L44793.2,16351.7Z" style="fill:rgb(35,32,32);fill-rule:nonzero;"/>
            </g>
            <g transform="matrix(0.297552,0,0,0.4,-6087.86,-6292.72)">
                <path d="M44833.4,16355.3L44688,16355.3L44688,16274.1L44833.4,16274.1L44833.4,16355.3ZM44717.2,16339.5L44803,16339.5L44803,16331.7L44717.2,16331.7L44717.2,16339.5ZM44717.2,16318.3L44803,16318.3L44803,16309.7L44717.2,16309.7L44717.2,16318.3ZM44717.2,16296.3L44803,16296.3L44803,16288.7L44717.2,16288.7L44717.2,16296.3Z" style="fill:rgb(35,32,32);fill-rule:nonzero;"/>
            </g>
            <g transform="matrix(0.333333,0,0,0.4,-7689.44,-6292.72)">
                <path d="M44962,16319.9L44962,16378.3L44916.3,16378.3L44916.3,16388.1L44893.9,16388.1L44893.9,16319.9L44962,16319.9ZM44916.3,16359.7L44939.4,16359.7L44939.4,16338.7L44916.3,16338.7L44916.3,16359.7ZM44894.6,16309.1L44894.6,16291.3L44961.8,16291.3L44961.8,16309.1L44894.6,16309.1ZM44894.6,16282.1L44894.6,16263.9L44961.8,16263.9L44961.8,16282.1L44894.6,16282.1ZM44884,16253.9L44884,16235.1L44969.2,16235.1L44969.2,16253.9L44884,16253.9ZM44897.2,16225.3L44897.2,16207.3L44959.1,16207.3L44959.1,16225.3L44897.2,16225.3Z" style="fill:rgb(35,32,32);fill-rule:nonzero;"/>
            </g>
            <g transform="matrix(0.340429,0,0,0.388832,-8008.51,-6109.7)">
                <path d="M45094.8,16382.8C45086.7,16384.4 45074.6,16384.7 45065.7,16380.1C45054.3,16374.2 45044.6,16356.8 45043.8,16330C45042.9,16304.7 45044.4,16281.7 45045.7,16232.5L45019.4,16232.5L45019.4,16274.9L45038.5,16274.9L45033.4,16298.1L45018.7,16298.1C45017.4,16316.1 45014,16332.8 45008.6,16346.1C45002.7,16360.8 44993.6,16374 44986.4,16381.1L44967.6,16364C44979.9,16349.7 44992.3,16325.1 44994,16298.1L44969.6,16298.1L44974.1,16274.9L44994.9,16274.9L44994.9,16232.5L44976.9,16232.5L44976.9,16209.9L45071.3,16209.9C45069.5,16254 45067.8,16275.5 45067.8,16303C45067.9,16336.5 45071.8,16348.2 45078.1,16352.5C45080.6,16354.2 45086.1,16354.7 45093.1,16353.9C45093.6,16362 45093.7,16373 45094.8,16382.8Z" style="fill:rgb(35,32,32);fill-rule:nonzero;"/>
            </g>
            <g transform="matrix(0.333333,0,0,0.4,-7689.44,-6292.72)">
                <path d="M45226.8,16388.9L45226.8,16359.7C45212.9,16367.8 45198.9,16374.4 45184.9,16379.3C45179.3,16373.2 45174.6,16367.5 45169.2,16362.3C45180.4,16359.2 45191.8,16355.1 45203.4,16349.8C45214.9,16344.5 45225.2,16338.8 45234.2,16332.7L45197.9,16332.7L45197.9,16285.9L45310.1,16285.9L45310.1,16332.7L45301.8,16332.7L45319.3,16344.1C45311.7,16349.3 45303.7,16354.1 45295.5,16358.5C45304.3,16363.8 45318.3,16370.4 45327.7,16373C45322.5,16378.9 45316.9,16384.9 45311.2,16391.4C45288.9,16383.6 45265.9,16366.6 45251.8,16345.7L45251.8,16388.9L45226.8,16388.9ZM45116.9,16363.4L45110.8,16339.7C45120.7,16337.7 45131.1,16335.7 45140.1,16333.7L45140.1,16294.5L45120.2,16294.5L45120.2,16273.5L45140.1,16273.5L45140.1,16240.5L45115.2,16240.5L45115.2,16219.7L45186.9,16219.7L45186.9,16240.5L45163.6,16240.5L45163.6,16273.5L45180.3,16273.5L45180.3,16294.5L45163.6,16294.5L45163.6,16328.5L45188.2,16322.7L45191.6,16343.7L45116.9,16363.4ZM45280.3,16347.3C45287.3,16342.9 45294,16338 45300.2,16332.7L45267.1,16332.7C45270.4,16337.5 45274.8,16342.4 45280.3,16347.3ZM45221.2,16315.9L45285.4,16315.9L45285.4,16302.9L45221.2,16302.9L45221.2,16315.9ZM45184.4,16278.7L45184.4,16259.9L45322.2,16259.9L45322.2,16278.7L45184.4,16278.7ZM45194.3,16253.3L45194.3,16208.3L45313.9,16208.3L45313.9,16253.3L45194.3,16253.3ZM45215.6,16237.3L45229.2,16237.3L45229.2,16224.3L45215.6,16224.3L45215.6,16237.3ZM45246.2,16237.3L45260.4,16237.3L45260.4,16224.3L45246.2,16224.3L45246.2,16237.3ZM45277.2,16237.3L45291.7,16237.3L45291.7,16224.3L45277.2,16224.3L45277.2,16237.3Z" style="fill:rgb(35,32,32);fill-rule:nonzero;"/>
            </g>
            <g transform="matrix(0.333333,0,0,0.4,-7689.44,-6292.72)">
                <path d="M45411.8,16389.5C45409.8,16386.4 45399.1,16371.6 45397.2,16369.5C45413.8,16366.7 45425.9,16362.7 45433.5,16357.5C45439.8,16353.1 45444,16346.9 45446.3,16338.9L45427.2,16338.9L45427.2,16275.5L45541.3,16275.5L45541.3,16338.9L45513.7,16338.9L45513.7,16361.3C45513.7,16363.9 45514,16365.4 45514.5,16366C45515,16366.6 45516.3,16366.9 45518.4,16366.9L45532,16366.9C45534,16366.9 45535.2,16365.9 45535.8,16363.9C45536.6,16361.8 45537,16359 45537.2,16351.6C45542.2,16353.6 45554,16357.6 45559.4,16358.9C45558.2,16370.2 45555.8,16378 45552.2,16382.1C45548.7,16386 45543,16387.9 45534.9,16387.9L45513.9,16387.9C45503.6,16387.9 45496.8,16386 45493.3,16382.3C45490,16378.7 45488.4,16372 45488.4,16362.3L45488.4,16338.9L45472.5,16338.9C45469.8,16352 45464.4,16362.2 45456.4,16369.5C45446.8,16378.2 45431.9,16384.8 45411.8,16389.5ZM45350.4,16358.9L45341.4,16335.1C45348.2,16333 45357.3,16329.9 45368.8,16325.9L45368.8,16279.9L45346.6,16279.9L45346.6,16257.5L45368.8,16257.5L45368.8,16206.9L45393.4,16206.9L45393.4,16257.5L45409.8,16257.5L45409.8,16279.9L45393.4,16279.9L45393.4,16316.9C45395.8,16316 45399.3,16314.6 45403.9,16312.8C45408.6,16311 45412,16309.7 45414.2,16308.9L45420.1,16329.9C45407.8,16335.2 45389.3,16343 45364.5,16353.1C45358.1,16355.8 45353.4,16357.7 45350.4,16358.9ZM45452.1,16323.1L45515,16323.1L45515,16313.9L45452.1,16313.9L45452.1,16323.1ZM45452.1,16300.1L45515,16300.1L45515,16291.1L45452.1,16291.1L45452.1,16300.1ZM45414.7,16267.7L45414.7,16248.3L45444.3,16248.3C45443.2,16243.9 45439,16233.1 45439,16233.1L45419.6,16233.1L45419.6,16214.7L45468.2,16214.7L45468.2,16202.5L45494.4,16202.5L45494.4,16214.7L45547.5,16214.7L45547.5,16233.1L45528.2,16233.1C45528.2,16233.1 45523,16242.8 45519.5,16248.3L45551.6,16248.3L45551.6,16267.7L45414.7,16267.7ZM45469.9,16248.3L45495.3,16248.3C45495.3,16248.3 45499.3,16237.6 45500.9,16233.1L45463.5,16233.1C45466.4,16239.8 45469.9,16248.3 45469.9,16248.3Z" style="fill:rgb(35,32,32);fill-rule:nonzero;"/>
            </g>
            <g transform="matrix(0.333333,0,0,0.4,-7689.44,-6292.72)">
                <path d="M44760.4,16690.5C44753.9,16685.5 44747.2,16680.9 44740.2,16676.7C44755.9,16661.5 44764.6,16635.9 44766.4,16603.9L44743.6,16603.9L44743.6,16580.5L44766.9,16580.5L44766.9,16535.1L44749.4,16535.1L44749.4,16512.1L44859.2,16512.1L44859.2,16535.1L44842.1,16535.1L44842.1,16580.5L44863.7,16580.5L44863.7,16603.9L44842.1,16603.9L44842.1,16689.1L44816.8,16689.1L44816.8,16603.9L44791.3,16603.9C44789.5,16642.4 44779.2,16672.6 44760.4,16690.5ZM44670.8,16679.5L44670.8,16617.3C44667.7,16621.4 44664.6,16625.1 44661.6,16628.3C44658.4,16619.5 44653.8,16611.6 44649.9,16604.2C44662.6,16589 44675.2,16568.6 44681.1,16539.1L44657.4,16539.1L44657.4,16517.5L44738.7,16517.5L44738.7,16539.1L44705.7,16539.1C44702.8,16552.8 44701.2,16560.1 44696.2,16572.9L44735.8,16572.9L44735.8,16662.9L44693,16662.9L44693,16679.5L44670.8,16679.5ZM44693,16641.9L44713.1,16641.9L44713.1,16593.9L44693,16593.9L44693,16641.9ZM44791.7,16580.5L44816.8,16580.5L44816.8,16535.1L44791.7,16535.1L44791.7,16580.5Z" style="fill:rgb(35,32,32);fill-rule:nonzero;"/>
            </g>
            <g transform="matrix(0.333333,0,0,0.4,-7689.44,-6292.72)">
                <path d="M44902.4,16600.1C44898.2,16593 44893.8,16587.2 44888.7,16580.9C44910.5,16577.7 44925.8,16572.8 44934.4,16566.1C44941.5,16560.6 44945.9,16552.1 44947.7,16540.5L44919.9,16540.5L44919.9,16560.1L44893,16560.1L44893,16519.3L44975.4,16519.3L44975.4,16502.1L45002.8,16502.1L45002.8,16519.3L45086.5,16519.3L45086.5,16560.3L45058.5,16560.3L45058.5,16540.5L45030,16540.5L45030,16567.3C45030,16570 45030.4,16571.6 45031.2,16572.3C45032,16573 45034.1,16573.3 45037.6,16573.3L45068.5,16573.3L45075.4,16594.3L45033.3,16594.3C45021.4,16594.3 45013.4,16592.4 45009.3,16588.5C45005.5,16584.9 45003.5,16578 45003.5,16567.7L45003.5,16540.5L44975.9,16540.5C44973.2,16557.3 44967.3,16569.8 44958.2,16578.1C44947.3,16588.1 44928.7,16595.4 44902.4,16600.1Z" style="fill:rgb(35,32,32);fill-rule:nonzero;"/>
            </g>
            <g transform="matrix(0.333333,0,0,0.4,-7689.44,-6292.72)">
                <path d="M45203.7,16688.9L45203.7,16627.5L45153.3,16627.5L45153.3,16638.5L45126.4,16638.5L45126.4,16539.7L45203.7,16539.7L45203.7,16502.1L45231.9,16502.1L45231.9,16539.7L45310.5,16539.7L45310.5,16637.5L45282.5,16637.5L45282.5,16627.5L45231.9,16627.5L45231.9,16688.9L45203.7,16688.9ZM45153.3,16604.1L45203.7,16604.1L45203.7,16563.1L45153.3,16563.1L45153.3,16604.1ZM45231.9,16604.1L45282.5,16604.1L45282.5,16563.1L45231.9,16563.1L45231.9,16604.1Z" style="fill:rgb(35,32,32);fill-rule:nonzero;"/>
            </g>
            <g transform="matrix(0.333333,0,0,0.4,-7689.44,-6292.72)">
                <path d="M45439.1,16686.9C45424.9,16686.9 45415.3,16684.6 45410.3,16679.9C45405.3,16675.2 45402.8,16666.6 45402.8,16654.1L45402.8,16559.1L45430.6,16559.1L45430.6,16652.5C45430.6,16657.3 45431.3,16660.3 45432.7,16661.6C45434.1,16662.9 45437.5,16663.5 45442.7,16663.5L45473.4,16663.5C45477.1,16663.5 45479.9,16662.6 45481.7,16660.7C45483.5,16658.7 45484.8,16656.6 45485.7,16651.3C45486.5,16646.5 45487.1,16638.6 45487.7,16627.5C45495.4,16630.6 45506,16635.2 45512.6,16637.9C45511.1,16656.8 45508,16669.6 45503.2,16676.3C45498,16683.4 45488.8,16686.9 45475.6,16686.9L45439.1,16686.9ZM45366.9,16656.7L45340.1,16642.9C45351.8,16627.7 45359.3,16604.5 45362.7,16573.3L45390.9,16579.1C45386.4,16615.7 45378.4,16641.5 45366.9,16656.7ZM45528,16649.7C45525.7,16639.5 45521.1,16627.5 45514.1,16613.7C45506.9,16600 45498.9,16587.7 45490.1,16576.7L45515.5,16565.3C45524.9,16576.1 45533.3,16588.2 45540.8,16601.7C45548.1,16614.8 45553.2,16626.6 45556,16637.3L45528,16649.7ZM45477.2,16559.9C45468.6,16553.5 45457.4,16546.8 45443.3,16539.9C45429.3,16533 45415.7,16527.2 45402.6,16522.7L45420.7,16502.7C45433.6,16506.8 45447.2,16512.2 45461.5,16518.9C45475.3,16525.3 45486.7,16531.5 45495.8,16537.5L45477.2,16559.9Z" style="fill:rgb(35,32,32);fill-rule:nonzero;"/>
            </g>
            <g transform="matrix(0.333333,0,0,0.4,-7689.44,-6292.72)">
                <path d="M45071.8,16088.3L45019,16088.3L45009.8,16070.2L45053.4,16070.2L45055.5,16062.3L44968.3,16062.3C44967.4,16065 44966.7,16066.9 44966.2,16068.1L44942.3,16065.3C44946.1,16055 44949.7,16041.6 44953.3,16026.9L45037.9,16026.9L45039.5,16020.7L44971.8,16020.7L44975.2,16006.3L45064.5,16006.3L45056.5,16040.5L44974.3,16040.5L44972.5,16046.7L45081.7,16046.7C45081.2,16049.5 45071.8,16088.3 45071.8,16088.3ZM44911.1,16086.5L44884.5,16074.5C44895.9,16054.6 44909.3,16029.5 44917.7,16009L44937.1,16019.8C44929.3,16042.7 44920.3,16066.8 44911.1,16086.5ZM44914.7,15993.9C44907,15987.9 44896.2,15981.1 44882.5,15973.5L44897,15956.9C44911,15963.7 44922.3,15969.8 44930.4,15975.7L44914.7,15993.9ZM44919.5,15942.5C44909.7,15935.3 44900,15928.8 44888.2,15920.7L44903.4,15904.5C44915.7,15911.6 44925,15917.1 44932.6,15922C44927.1,15931 44923.1,15937.3 44919.5,15942.5Z" style="fill:rgb(35,32,32);fill-rule:nonzero;"/>
            </g>
            <g transform="matrix(0.336898,0,0,0.4,-7849.57,-6293.22)">
                <path d="M44974.8,15994.1C44973.3,15985.8 44972,15978.3 44970.2,15971.9L44981,15968.1C44983.7,15975.1 44986.9,15983.8 44988.2,15990.7L44974.8,15994.1Z" style="fill:rgb(35,32,32);fill-rule:nonzero;"/>
            </g>
            <g transform="matrix(0.333333,0,0,0.4,-7689.37,-6292.72)">
                <path d="M45004.3,15990.5L45014.5,15990.5L45014.5,15981.7L45004.3,15981.7L45004.3,15990.5ZM44991.1,15965.7L44991.1,15954.9L45028.7,15954.9L45028.7,15965.7L44991.1,15965.7ZM44991.1,15950.3L44991.1,15939.5L45028.7,15939.5L45028.7,15950.3L44991.1,15950.3ZM45028.7,16001.1L44990.9,16001.1L44990.9,15971.1L45028.7,15971.1L45028.7,16001.1Z" style="fill:rgb(35,32,32);fill-rule:nonzero;"/>
            </g>
            <g transform="matrix(0.333333,0,0,0.4,-7689.37,-6292.72)">
                <rect x="44990.7" y="15905.5" width="37.976" height="11.4" style="fill:rgb(35,32,32);fill-rule:nonzero;"/>
            </g>
            <g transform="matrix(0.333333,0,0,0.4,-7689.11,-6292.72)">
                <path d="M44959.3,15932L44949.7,15943.7L44935,15928.4L44954.8,15899.6L44966.9,15911.6L44954.1,15927.2L44959.3,15932Z" style="fill:rgb(35,32,32);fill-rule:nonzero;"/>
            </g>
            <g transform="matrix(0.333333,0,0,0.4,-7689.11,-6292.72)">
                <path d="M44979,15928.3L44954.1,15959.8L44936.7,15957.8C44936.9,15957.6 44967.7,15920.9 44969.2,15918.5L44979,15928.3Z" style="fill:rgb(35,32,32);fill-rule:nonzero;"/>
            </g>
            <g transform="matrix(0.332936,-0.0195173,0.0162644,0.399524,-7930.75,-5407.26)">
                <path d="M44932.4,15954L44982.6,15944.4L44981.8,15960.1L44931.6,15969.9L44932.4,15954Z" style="fill:rgb(35,32,32);fill-rule:nonzero;"/>
            </g>
            <g transform="matrix(0.333333,0,0,0.4,-7689.44,-6291.13)">
                <path d="M44936.6,15971.7L44947.6,15976.7L44946.7,15981.2L44973.3,15973.1L44975.6,15980.4C44975.6,15980.4 44950.8,15993.8 44940.9,16000.9C44936.3,15998.5 44931.6,15996.4 44926.8,15994.7C44930.1,15987.8 44934.8,15978.4 44936.6,15971.7Z" style="fill:rgb(35,32,32);fill-rule:nonzero;"/>
            </g>
            <g transform="matrix(0.327674,0,0,0.4,-7790.21,-5947.65)">
                <path d="M46161.8,15109.4L46131.3,15117.9L46129.8,15113.6L46117.3,15115.6C46119.3,15122.8 46120.9,15129.7 46122,15136.6C46137.2,15129.5 46154.1,15121.7 46163.4,15117.5L46161.8,15109.4Z" style="fill:rgb(35,32,32);"/>
            </g>
            <g transform="matrix(0.341615,0,0,0.440657,-8434.28,-6566.85)">
                <path d="M46160.2,15116.8L46158.1,15139.2L46168.6,15141.3L46177.6,15121.6L46160.2,15116.8Z" style="fill:rgb(35,32,32);"/>
            </g>
            <g transform="matrix(0.333333,0,0,0.4,-7655.28,-6292.72)">
                <path d="M44959.3,15932L44949.7,15943.7L44935,15928.4L44954.8,15899.6L44966.9,15911.6L44954.1,15927.2L44959.3,15932Z" style="fill:rgb(35,32,32);fill-rule:nonzero;"/>
            </g>
            <g transform="matrix(0.333333,0,0,0.4,-7655.28,-6292.72)">
                <path d="M44979,15928.3L44954.1,15959.8L44936.7,15957.8C44936.9,15957.6 44967.7,15920.9 44969.2,15918.5L44979,15928.3Z" style="fill:rgb(35,32,32);fill-rule:nonzero;"/>
            </g>
            <g transform="matrix(0.332936,-0.0195173,0.0162644,0.399524,-7896.92,-5407.26)">
                <path d="M44932.4,15954L44982.6,15944.4L44981.8,15960.1L44931.6,15969.9L44932.4,15954Z" style="fill:rgb(35,32,32);fill-rule:nonzero;"/>
            </g>
            <g transform="matrix(0.309401,0,0,0.4,-6611.92,-6292.72)">
                <path d="M45036.1,15934.3L44981.5,15934.3L44981.5,15921.9L45036.1,15921.9L45036.1,15934.3Z" style="fill:rgb(35,32,32);fill-rule:nonzero;"/>
            </g>
            <g transform="matrix(0.328674,0,0,0.4,-7481.06,-6292.72)">
                <path d="M45055.1,15954.5L45071.1,15957.4L45071.1,16000.9L45055.1,16000.9L45055.1,15954.5Z" style="fill:rgb(35,32,32);fill-rule:nonzero;"/>
            </g>
            <g transform="matrix(0.333333,0,0,0.4,-7689.39,-6292.72)">
                <path d="M44951.9,15954.9L44967.7,15958.8L44967.7,16011.2L44951.9,16011.2L44951.9,15954.9Z" style="fill:rgb(35,32,32);fill-rule:nonzero;"/>
            </g>
            <g transform="matrix(0.333333,0,0,0.4,-7689.44,-6292.72)">
                <path d="M44677.7,16389.5C44671.2,16382.9 44662.7,16376.2 44657.1,16372.1C44682.1,16367.2 44711.2,16358.8 44726.9,16352L44740.9,16365.7C44722.6,16375.2 44694.1,16386 44677.7,16389.5Z" style="fill:rgb(35,32,32);fill-rule:nonzero;"/>
            </g>
            <g transform="matrix(0.333333,0,0,0.4,-7689.44,-6292.72)">
                <path d="M44721.8,15970.2L44694.2,15963.7C44701.9,15950 44715.1,15927.2 44728.1,15900.7L44758.3,15910.7C44740.9,15940.4 44731.3,15955 44721.8,15970.2Z" style="fill:rgb(35,32,32);fill-rule:nonzero;"/>
            </g>
            <g transform="matrix(0.333333,0,0,0.4,-7689.44,-6292.72)">
                <path d="M45017.5,16629.3L44902.2,16629.3L44902.2,16607.3L45045.5,16607.3L45045.5,16657.1C45045.5,16660.2 45045.9,16662.1 45046.6,16662.9C45047.2,16663.7 45048.8,16664.1 45051.1,16664.1L45063.5,16664.1C45065.9,16664.1 45067.4,16662.5 45068.2,16659.2C45068.9,16655.9 45069.5,16648.1 45070,16635.7C45078.6,16639.3 45086,16642.6 45095,16645.7C45093.9,16662 45091.2,16673 45087,16678.9C45083,16684.6 45076.1,16687.5 45066.4,16687.5L45046.2,16687.5C45035.2,16687.5 45027.6,16685.4 45023.6,16681.1C45019.6,16676.8 45017.5,16668.9 45017.5,16657.3L45017.5,16629.3Z" style="fill:rgb(35,32,32);fill-rule:nonzero;"/>
            </g>
            <g transform="matrix(0.333333,0,0,0.4,-7689.11,-6292.72)">
                <path d="M44903.1,16689.9C44897.5,16683.1 44891.3,16676.6 44885.4,16670.3C44924.8,16661.5 44950.1,16650.4 44960,16629.1C44963.3,16621.9 44964.8,16614 44965.5,16604.5C44966,16597.4 44965.9,16583.1 44965.9,16583.1L44992.8,16588.2C44992.8,16588.2 44992.6,16597.8 44991.9,16605.7C44991.2,16614.4 44988.7,16625.9 44986.3,16631.8C44973.5,16662.8 44947.9,16677.4 44903.1,16689.9Z" style="fill:rgb(35,32,32);fill-rule:nonzero;"/>
            </g>
            <g transform="matrix(0.333333,0,0,0.4,-7689.44,-6292.72)">
                <path d="M44839.9,15998.4C44827.1,15982.6 44798.9,15954.4 44781.9,15940.2L44801.6,15927.3C44822.7,15944.2 44846.5,15965.2 44863,15982.6L44839.9,15998.4Z" style="fill:rgb(35,32,32);fill-rule:nonzero;"/>
            </g>
        </g>
        <g transform="matrix(0.29932,0,0,0.555556,-5551.36,-6622.22)">
            <path d="M42500,12080L42100,12080L42100,12480L42500,12480L42500,12080ZM42370.7,12427.7C42327.6,12426.8 42300,12402.3 42300,12364L42300,12362C42300,12323.1 42328.6,12298.1 42373,12298.1C42395.2,12298.1 42413.4,12304.4 42426.1,12315.5L42408.7,12331C42400.4,12324 42388.3,12320.2 42373,12320.2C42341.9,12320.2 42324.2,12335.7 42324.2,12361.8L42324.2,12364.4C42324.2,12390.5 42341.9,12405.6 42373,12405.6C42382.9,12405.6 42391.4,12404 42398.5,12401.1L42398.5,12424.6C42391.3,12426.5 42383.5,12427.5 42375,12427.7L42370.7,12427.7ZM42363.7,12357.8L42363.7,12379.1L42423.3,12379.1L42423.3,12425L42447.1,12425L42447.1,12357.8L42363.7,12357.8ZM42277.9,12341.8L42277.9,12339.5C42277.9,12315.1 42260.4,12300.1 42231.4,12300.1L42153.3,12300.1L42153.3,12425L42177.1,12425L42177.1,12379.3L42209.1,12379.3L42249.9,12425L42277.3,12425L42277.3,12421.4L42239.6,12378.9C42263.8,12376.3 42277.9,12362 42277.9,12341.8ZM42253.7,12340.8C42253.7,12351.9 42245.5,12358.2 42230.8,12358.2L42177.1,12358.2L42177.1,12321.4L42230.8,12321.4C42245.5,12321.4 42253.7,12327.5 42253.7,12338.5L42253.7,12340.8ZM42277.7,12262.2C42322.1,12262.2 42350.5,12237.5 42350.5,12198.6L42350.5,12196.5C42350.5,12157.6 42322.1,12132.7 42277.7,12132.7C42233.3,12132.7 42204.7,12157.6 42204.7,12196.5L42204.7,12198.6C42204.7,12237.5 42233.3,12262.2 42277.7,12262.2ZM42153.7,12259.9L42177.5,12259.9L42177.5,12135L42153.7,12135L42153.7,12259.9ZM42277.7,12240.1C42246.7,12240.1 42228.9,12225.1 42228.9,12199L42228.9,12196.3C42228.9,12170.2 42246.7,12154.8 42277.7,12154.8C42308.8,12154.8 42326.3,12170.2 42326.3,12196.3L42326.3,12199C42326.3,12225.1 42308.8,12240.1 42277.7,12240.1Z" style="fill:rgb(34,32,32);"/>
        </g>
    </g>
</svg>
