<svg clip-rule="evenodd" fill-rule="evenodd" stroke-linejoin="round" stroke-miterlimit="2" viewBox="0 0 1470 792" xmlns="http://www.w3.org/2000/svg"><g transform="matrix(3.675 0 0 1.98 -25908.7 0)"><path d="m7050 0h400v400h-400z" fill="none"/><g fill="#232020"><path d="m44691.5 16088.7v-87h135.1v86.8h-28.6v-9.8h-79.2v10zm27.3-32.8h79.2v-31.6h-79.2z" fill-rule="nonzero" transform="matrix(.27210872789 0 0 .505052 -4947.24748688 -8029.8450536)"/><path d="m44810.2 15957.8 17.9 22.3c-53.2 1.9-107 4.3-161.4 7.6l-6-25.1c50.3-1.1 100.2-2.6 149.5-4.8z" fill-rule="nonzero" transform="matrix(.27210872789 0 0 .505052 -4947.24748688 -8029.8450536)"/><path d="m44823.1 16274.1c-14.4-4.4-26.9-12.3-34.3-21.6-12.5 15.3-38.5 22.9-53.8 24-3.3-5.8-9.8-15.7-9.8-15.7 17-2.5 26.5-6.8 34.5-11.3 7.3-4.1 12.3-9.9 14.8-17.4h-16.1c-5.7 6.1-11.7 11.5-17.9 16-6.5-3.6-12.9-7.1-19.6-10.5 14.6-11 27.1-24.8 34.1-38.6l22 6.5c-2.1 4-4.1 7.3-5.9 9.8h83l-9.3 27.8h-20.4l3.2-11h-25.8c2.8 7.3 7.39999999999 13.1 15.5 17.4 10 5.2 25.5 8.9 46.39999999999 11.2-4 5.6-8.89999999999 12.6-13.3 19.4-6.2-.9-18.4-3.3-27.3-6z" fill-rule="nonzero" transform="matrix(.27210872789 0 0 .505052 -4947.24748688 -8029.8450536)"/><path d="m44713.2 16236.9-47.8-15.6 11.7-16.2 47.2 14.4zm.7 5.9 10.1 13.2-55.2 24.8-11-21.8z" fill-rule="nonzero" transform="matrix(.27210872789 0 0 .505052 -4947.24748688 -8029.8450536)"/><path d="m44793.2 16351.7c15 6.6 37.8 15.6 67.5 25.2l-34 12.4c-14.8-5.8-35.1-16-49.89999999999-24z" fill-rule="nonzero" transform="matrix(.27210872789 0 0 .505052 -4947.24748688 -8029.8450536)"/><path d="m44833.4 16355.3h-145.4v-81.2h145.4zm-116.2-15.8h85.8v-7.8h-85.8zm0-21.2h85.8v-8.6h-85.8zm0-22h85.8v-7.6h-85.8z" fill-rule="nonzero" transform="matrix(.2428997315 0 0 .505052 -3639.83449022 -8029.8450536)"/><path d="m44962 16319.9v58.4h-45.7v9.8h-22.4v-68.2zm-45.7 39.8h23.1v-21h-23.1zm-21.7-50.6v-17.8h67.2v17.8zm0-27v-18.2h67.2v18.2zm-10.6-28.2v-18.8h85.2v18.8zm13.2-28.6v-18h61.9v18z" fill-rule="nonzero" transform="matrix(.27210872789 0 0 .505052 -4947.24748688 -8029.8450536)"/><path d="m45094.8 16382.8c-8.10000000001 1.6-20.2 1.9-29.10000000001-2.7-11.39999999999-5.9-21.1-23.3-21.89999999999-50.1-.9-25.3.6-48.3 1.89999999999-97.5h-26.3v42.4h19.1l-5.1 23.2h-14.7c-1.3 18-4.7 34.7-10.1 48-5.9 14.7-15 27.9-22.2 35l-18.8-17.1c12.3-14.3 24.7-38.9 26.4-65.9h-24.4l4.5-23.2h20.8v-42.4h-18v-22.6h94.4c-1.8 44.1-3.5 65.6-3.5 93.1.1 33.5 4 45.2 10.3 49.5 2.5 1.7 8 2.2 15 1.4.5 8.1.6 19.1 1.7 28.9z" fill-rule="nonzero" transform="matrix(.27790138428 0 0 .49095094816 -5207.71294277 -7798.758511)"/><path d="m45226.8 16388.9v-29.2c-13.9 8.1-27.9 14.7-41.9 19.6-5.6-6.1-10.3-11.8-15.7-17 11.2-3.1 22.60000000001-7.2 34.2-12.5 11.5-5.3 21.8-11 30.8-17.1h-36.3v-46.8h112.2v46.8h-8.3l17.5 11.4c-7.60000000001 5.2-15.60000000001 10-23.8 14.4 8.8 5.3 22.8 11.9 32.2 14.5-5.2 5.9-10.8 11.9-16.5 18.4-22.3-7.8-45.3-24.8-59.39999999999-45.7v43.2zm-109.9-25.5-6.1-23.7c9.89999999999-2 20.3-4 29.3-6v-39.2h-19.9v-21h19.9v-33h-24.9v-20.8h71.7v20.8h-23.3v33h16.7v21h-16.7v34l24.6-5.8 3.4 21zm163.4-16.1c7-4.4 13.7-9.3 19.89999999999-14.6h-33.1c3.3 4.8 7.7 9.7 13.2 14.6zm-59.10000000001-31.4h64.2v-13h-64.2zm-36.8-37.2v-18.8h137.8v18.8zm9.9-25.4v-45h119.6v45zm21.3-16h13.6v-13h-13.6zm30.6 0h14.2v-13h-14.2zm31 0h14.5v-13h-14.5z" fill-rule="nonzero" transform="matrix(.27210872789 0 0 .505052 -4947.24748688 -8029.8450536)"/><path d="m45411.8 16389.5c-2-3.1-12.7-17.9-14.60000000001-20 16.60000000001-2.8 28.7-6.8 36.3-12 6.3-4.4 10.5-10.6 12.8-18.6h-19.10000000001v-63.4h114.10000000001v63.4h-27.60000000001v22.4c0 2.6.3 4.1.8 4.7s1.8.9 3.9.9h13.6c2 0 3.2-1 3.8-3 .8-2.1 1.2-4.9 1.39999999999-12.3 5 2 16.8 6 22.2 7.3-1.2 11.3-3.6 19.1-7.2 23.2-3.5 3.9-9.2 5.8-17.3 5.8h-21c-10.3 0-17.1-1.9-20.6-5.6-3.3-3.6-4.9-10.3-4.9-20v-23.4h-15.9c-2.7 13.1-8.1 23.3-16.1 30.6-9.6 8.7-24.5 15.3-44.6 20zm-61.4-30.6-9-23.8c6.8-2.1 15.9-5.2 27.4-9.2v-46h-22.2v-22.4h22.2v-50.6h24.6v50.6h16.4v22.4h-16.4v37c2.4-.9 5.9-2.3 10.5-4.1 4.7-1.8 8.1-3.1 10.3-3.9l5.9 21c-12.3 5.3-30.8 13.1-55.6 23.2-6.4 2.7-11.1 4.6-14.1 5.8zm101.7-35.8h62.9v-9.2h-62.9zm0-23h62.9v-9h-62.9zm-37.4-32.4v-19.4h29.60000000001c-1.10000000001-4.4-5.3-15.2-5.3-15.2h-19.4v-18.4h48.6v-12.2h26.2v12.2h53.1v18.4h-19.3s-5.2 9.7-8.7 15.2h32.1v19.4zm55.2-19.4h25.4s4-10.7 5.6-15.2h-37.4c2.9 6.7 6.4 15.2 6.4 15.2z" fill-rule="nonzero" transform="matrix(.27210872789 0 0 .505052 -4947.24748688 -8029.8450536)"/><path d="m44760.4 16690.5c-6.5-5-13.2-9.6-20.2-13.8 15.7-15.2 24.4-40.8 26.2-72.8h-22.8v-23.4h23.3v-45.4h-17.5v-23h109.8v23h-17.1v45.4h21.6v23.4h-21.6v85.2h-25.3v-85.2h-25.5c-1.8 38.5-12.10000000001 68.7-30.9 86.6zm-89.6-11v-62.2c-3.10000000001 4.1-6.2 7.8-9.2 11-3.2-8.8-7.8-16.7-11.7-24.1 12.7-15.2 25.3-35.6 31.2-65.1h-23.7v-21.6h81.3v21.6h-33c-2.89999999999 13.7-4.5 21-9.5 33.8h39.60000000001v90h-42.8v16.6zm22.2-37.6h20.1v-48h-20.1zm98.7-61.4h25.10000000001v-45.4h-25.10000000001z" fill-rule="nonzero" transform="matrix(.27210872789 0 0 .505052 -4947.24748688 -8029.8450536)"/><path d="m44902.4 16600.1c-4.2-7.1-8.6-12.9-13.7-19.2 21.8-3.2 37.10000000001-8.1 45.7-14.8 7.1-5.5 11.5-14 13.3-25.6h-27.8v19.6h-26.9v-40.8h82.4v-17.2h27.4v17.2h83.7v41h-28v-19.8h-28.5v26.8c0 2.7.4 4.3 1.2 5s2.9 1 6.4 1h30.9l6.9 21h-42.1c-11.9 0-19.9-1.9-24-5.8-3.8-3.6-5.8-10.5-5.8-20.8v-27.2h-27.6c-2.7 16.8-8.6 29.3-17.7 37.6-10.89999999999 10-29.5 17.3-55.8 22z" fill-rule="nonzero" transform="matrix(.27210872789 0 0 .505052 -4947.24748688 -8029.8450536)"/><path d="m45203.7 16688.9v-61.4h-50.39999999999v11h-26.9v-98.8h77.3v-37.6h28.2v37.6h78.6v97.8h-28v-10h-50.6v61.4zm-50.39999999999-84.8h50.39999999999v-41h-50.39999999999zm78.6 0h50.6v-41h-50.6z" fill-rule="nonzero" transform="matrix(.27210872789 0 0 .505052 -4947.24748688 -8029.8450536)"/><path d="m45439.1 16686.9c-14.2 0-23.8-2.3-28.8-7s-7.5-13.3-7.5-25.8v-95h27.8v93.4c0 4.8.7 7.8 2.1 9.1s4.8 1.9 10 1.9h30.7c3.7 0 6.5-.9 8.3-2.8 1.8-2 3.10000000001-4.1 4-9.4.8-4.8 1.4-12.7 2-23.8 7.7 3.1 18.3 7.7 24.9 10.4-1.5 18.9-4.6 31.7-9.4 38.4-5.2 7.1-14.39999999999 10.6-27.6 10.6zm-72.2-30.2-26.8-13.8c11.7-15.2 19.2-38.4 22.6-69.6l28.2 5.8c-4.5 36.6-12.5 62.4-24 77.6zm161.1-7c-2.3-10.2-6.9-22.2-13.9-36-7.2-13.7-15.2-26-24-37l25.4-11.4c9.4 10.8 17.8 22.9 25.3 36.4 7.3 13.1 12.39999999999 24.9 15.2 35.6zm-50.8-89.8c-8.6-6.4-19.8-13.1-33.89999999999-20-14-6.9-27.60000000001-12.7-40.7-17.2l18.1-20c12.9 4.1 26.5 9.5 40.8 16.2 13.8 6.4 25.2 12.6 34.3 18.6z" fill-rule="nonzero" transform="matrix(.27210872789 0 0 .505052 -4947.24748688 -8029.8450536)"/><path d="m45071.8 16088.3h-52.8l-9.2-18.1h43.6l2.1-7.9h-87.2c-.9 2.7-1.60000000001 4.6-2.10000000001 5.8l-23.89999999999-2.8c3.8-10.3 7.39999999999-23.7 11-38.4h84.6l1.6-6.2h-67.7l3.39999999999-14.4h89.3l-8 34.2h-82.2l-1.8 6.2h109.2c-.5 2.8-9.89999999999 41.6-9.89999999999 41.6zm-160.7-1.8-26.6-12c11.4-19.9 24.8-45 33.2-65.5l19.4 10.8c-7.8 22.9-16.8 47-26 66.7zm3.6-92.6c-7.7-6-18.5-12.8-32.2-20.4l14.5-16.6c14 6.8 25.3 12.9 33.4 18.8zm4.8-51.4c-9.8-7.2-19.5-13.7-31.3-21.8l15.2-16.2c12.3 7.1 21.6 12.6 29.2 17.5-5.5 9-9.5 15.3-13.1 20.5z" fill-rule="nonzero" transform="matrix(.27210872789 0 0 .505052 -4947.24748688 -8029.8450536)"/><path d="m44974.80000000001 15994.1c-1.5-8.3-2.8-15.8-4.60000000001-22.2l10.8-3.8c2.7 7 5.9 15.7 7.2 22.6z" fill-rule="nonzero" transform="matrix(.27501893365 0 0 .505052 -5077.96592939 -8030.4763686)"/><path d="m45004.30000000001 15990.5h10.2v-8.8h-10.2zm-13.2-24.8v-10.8h37.6v10.8zm0-15.4v-10.8h37.6v10.8zm37.6 50.8h-37.8v-30h37.8z" fill-rule="nonzero" transform="matrix(.27210872789 0 0 .505052 -4947.19034399 -8029.8450536)"/><path d="m44990.7 15905.5h37.976v11.4h-37.976z" fill-rule="nonzero" transform="matrix(.27210872789 0 0 .505052 -4947.19034399 -8029.8450536)"/><path d="m44959.30000000001 15932-9.60000000001 11.7-14.7-15.3 19.8-28.8 12.1 12-12.8 15.6z" fill-rule="nonzero" transform="matrix(.27210872789 0 0 .505052 -4946.97809897 -8029.8450536)"/><path d="m44979 15928.3-24.9 31.5-17.4-2c.2-.2 31-36.9 32.5-39.3z" fill-rule="nonzero" transform="matrix(.27210872789 0 0 .505052 -4946.97809897 -8029.8450536)"/><path d="m44932.4 15954 50.2-9.6-.8 15.7-50.2 9.8z" fill-rule="nonzero" transform="matrix(.27178464607 -.0246431285 .01327706886 .50445098812 -5144.23535525 -6911.8366938)"/><path d="m44936.6 15971.7 11 5-.9 4.5 26.60000000001-8.1 2.3 7.3s-24.8 13.4-34.7 20.5c-4.6-2.4-9.3-4.5-14.1-6.2 3.3-6.9 8-16.3 9.8-23z" fill-rule="nonzero" transform="matrix(.27210872789 0 0 .505052 -4947.24748688 -8027.8374719)"/><path d="m46161.8 15109.4-30.5 8.5-1.5-4.3-12.5 2c2 7.2 3.6 14.1 4.7 21 15.2-7.1 32.1-14.9 41.4-19.1z" transform="matrix(.2674891334 0 0 .505052 -5029.50875867 -7594.1493195)"/><path d="m46160.2 15116.8-2.1 22.4 10.5 2.1 9-19.7z" transform="matrix(.27886954811 0 0 .55638674791 -5555.28048956 -8375.9698155)"/><path d="m44959.30000000001 15932-9.60000000001 11.7-14.7-15.3 19.8-28.8 12.1 12-12.8 15.6z" fill-rule="nonzero" transform="matrix(.27210872789 0 0 .505052 -4919.36175656 -8029.8450536)"/><path d="m44979 15928.3-24.9 31.5-17.4-2c.2-.2 31-36.9 32.5-39.3z" fill-rule="nonzero" transform="matrix(.27210872789 0 0 .505052 -4919.36175656 -8029.8450536)"/><path d="m44932.4 15954 50.2-9.6-.8 15.7-50.2 9.8z" fill-rule="nonzero" transform="matrix(.27178464607 -.0246431285 .01327706886 .50445098812 -5116.61901284 -6911.8366938)"/><path d="m45036.1 15934.3h-54.6v-12.4h54.6z" fill-rule="nonzero" transform="matrix(.25257239013 0 0 .505052 -4067.63881784 -8029.8450536)"/><path d="m45055.1 15954.5 16 2.9v43.5h-16z" fill-rule="nonzero" transform="matrix(.2683054604 0 0 .505052 -4777.14126662 -8029.8450536)"/><path d="m44951.9 15954.9 15.8 3.9v52.4h-15.8z" fill-rule="nonzero" transform="matrix(.27210872789 0 0 .505052 -4947.20667053 -8029.8450536)"/><path d="m44677.7 16389.5c-6.5-6.6-15-13.3-20.6-17.4 25-4.9 54.1-13.3 69.8-20.1l14 13.7c-18.3 9.5-46.8 20.3-63.2 23.8z" fill-rule="nonzero" transform="matrix(.27210872789 0 0 .505052 -4947.24748688 -8029.8450536)"/><path d="m44721.80000000001 15970.2-27.60000000001-6.5c7.7-13.7 20.9-36.5 33.9-63l30.2 10c-17.4 29.7-27 44.3-36.5 59.5z" fill-rule="nonzero" transform="matrix(.27210872789 0 0 .505052 -4947.24748688 -8029.8450536)"/><path d="m45017.5 16629.3h-115.3v-22h143.3v49.8c0 3.1.4 5 1.1 5.8.6.8 2.2 1.2 4.5 1.2h12.4c2.4 0 3.9-1.6 4.7-4.9.7-3.3 1.3-11.1 1.8-23.5 8.6 3.6 16 6.9 25 10-1.1 16.3-3.8 27.3-8 33.2-4 5.7-10.9 8.6-20.6 8.6h-20.2c-11 0-18.6-2.1-22.6-6.4s-6.1-12.2-6.1-23.8z" fill-rule="nonzero" transform="matrix(.27210872789 0 0 .505052 -4947.24748688 -8029.8450536)"/><path d="m44903.1 16689.9c-5.6-6.8-11.8-13.3-17.7-19.6 39.4-8.8 64.7-19.9 74.6-41.2 3.3-7.2 4.8-15.1 5.5-24.6.5-7.1.4-21.4.4-21.4l26.9 5.1s-.2 9.6-.9 17.5c-.7 8.7-3.2 20.2-5.6 26.1-12.8 31-38.4 45.6-83.2 58.1z" fill-rule="nonzero" transform="matrix(.27210872789 0 0 .505052 -4946.97809897 -8029.8450536)"/><path d="m44839.9 15998.4c-12.8-15.8-41-44-58-58.2l19.7-12.9c21.1 16.9 44.9 37.9 61.4 55.3z" fill-rule="nonzero" transform="matrix(.27210872789 0 0 .505052 -4947.24748688 -8029.8450536)"/></g><path d="m42500 12080h-400v400h400zm-129.3 347.7c-43.1-.9-70.7-25.4-70.7-63.7v-2c0-38.9 28.6-63.9 73-63.9 22.2 0 40.4 6.3 53.1 17.4l-17.4 15.5c-8.3-7-20.39999999999-10.8-35.7-10.8-31.1 0-48.8 15.5-48.8 41.6v2.6c0 26.1 17.7 41.2 48.8 41.2 9.9 0 18.4-1.6 25.5-4.5v23.5c-7.2 1.9-15 2.9-23.5 3.1zm-7-69.9v21.3h59.60000000001v45.9h23.8v-67.2zm-85.8-16v-2.3c0-24.4-17.5-39.4-46.5-39.4h-78.1v124.9h23.8v-45.7h32l40.8 45.7h27.4v-3.6l-37.7-42.5c24.2-2.6 38.3-16.9 38.3-37.1zm-24.2-1c0 11.1-8.2 17.4-22.89999999999 17.4h-53.7v-36.8h53.7c14.7 0 22.89999999999 6.1 22.89999999999 17.1zm24-78.6c44.4 0 72.8-24.7 72.8-63.6v-2.1c0-38.9-28.4-63.8-72.8-63.8s-73 24.9-73 63.8v2.1c0 38.9 28.60000000001 63.6 73 63.6zm-124-2.3h23.8v-124.9h-23.8zm124-19.8c-31 0-48.8-15-48.8-41.1v-2.7c0-26.1 17.8-41.5 48.8-41.5 31.10000000001 0 48.60000000001 15.4 48.60000000001 41.5v2.7c0 26.1-17.5 41.1-48.60000000001 41.1z" fill="#222020" transform="matrix(.29932 0 0 .555556 -5551.36 -6622.22)"/></g></svg>