<?xml version="1.0" encoding="UTF-8" standalone="no"?><!DOCTYPE svg PUBLIC "-//W3C//DTD SVG 1.1//EN" "http://www.w3.org/Graphics/SVG/1.1/DTD/svg11.dtd"><svg width="100%" height="100%" viewBox="0 0 598 470" version="1.1" xmlns="http://www.w3.org/2000/svg" xmlns:xlink="http://www.w3.org/1999/xlink" xml:space="preserve" xmlns:serif="http://www.serif.com/" style="fill-rule:evenodd;clip-rule:evenodd;stroke-linejoin:round;stroke-miterlimit:2;"><g id="Layer-1" serif:id="Layer 1"><path d="M277.937,247.12C271.974,267.246 238.28,258.45 238.28,258.45L238.28,289.162C247.971,293.635 253.189,294.38 271.377,292.89C289.566,291.548 317.446,276.341 317.744,247.12C311.78,247.418 305.37,247.716 298.66,247.716C291.355,247.716 284.497,247.418 277.937,247.12" style="fill:rgb(186,32,39);fill-rule:nonzero;"/><path d="M398.102,115.925C385.876,103.7 363.513,92.369 317.894,89.835L317.894,122.187C343.089,124.274 357.252,130.237 364.409,137.393C371.415,144.4 375.589,152.6 375.589,168.552C375.589,184.504 371.564,193.151 364.706,200.158C357.55,207.315 343.387,213.128 318.042,214.917C312.228,215.365 305.967,215.663 298.81,215.663C291.505,215.663 285.095,215.365 279.131,214.769C253.935,212.532 239.623,206.271 232.915,199.412C226.355,192.854 221.733,184.504 221.733,168.403C221.733,152.302 225.759,143.804 232.617,136.797C239.623,129.79 253.935,123.976 279.131,122.037L279.131,89.835C235.151,92.519 211.446,103.55 199.072,115.925C186.251,128.746 179.244,144.698 179.244,168.552C179.244,192.405 186.251,208.06 199.072,221.029C211.148,233.106 234.107,244.437 277.938,247.121C284.349,247.568 291.207,247.717 298.662,247.717C305.519,247.717 311.782,247.568 317.745,247.121C362.62,244.586 385.727,233.404 397.954,221.18C410.774,208.358 417.782,192.405 417.782,168.552C417.782,144.549 410.922,128.746 398.102,115.925" style="fill:rgb(10,8,8);fill-rule:nonzero;"/><path d="M278.981,57.334L278.981,214.619C284.945,215.216 291.356,215.514 298.662,215.514C305.817,215.514 312.079,215.216 317.894,214.769L317.894,57.334L278.981,57.334Z" style="fill:rgb(186,32,39);fill-rule:nonzero;"/><path d="M83.514,381.4C83.514,385.482 84.324,388.461 85.946,390.336C87.567,392.211 89.597,393.148 92.039,393.148C94.461,393.148 96.493,392.215 98.133,390.35C99.774,388.485 100.594,385.56 100.594,381.576C100.594,377.767 99.749,374.896 98.06,372.962C96.37,371.029 94.334,370.062 91.952,370.062C89.608,370.062 87.616,371.014 85.975,372.919C84.334,374.823 83.514,377.65 83.514,381.4M79.149,400.091L84.276,400.853C84.491,402.435 85.086,403.587 86.063,404.31C87.371,405.287 89.158,405.775 91.424,405.775C93.866,405.775 95.75,405.287 97.078,404.31C98.407,403.334 99.305,401.966 99.774,400.209C100.047,399.134 100.174,396.879 100.155,393.441C97.85,396.156 94.979,397.513 91.541,397.513C87.264,397.513 83.953,395.97 81.61,392.884C79.266,389.798 78.094,386.097 78.094,381.781C78.094,378.812 78.631,376.073 79.705,373.563C80.779,371.053 82.337,369.115 84.378,367.748C86.419,366.38 88.817,365.697 91.571,365.697C95.243,365.697 98.269,367.181 100.653,370.15L100.653,366.4L105.516,366.4L105.516,393.295C105.516,398.138 105.022,401.571 104.036,403.592C103.05,405.614 101.488,407.211 99.349,408.382C97.21,409.554 94.578,410.14 91.453,410.14C87.743,410.14 84.744,409.305 82.459,407.635C80.174,405.965 79.071,403.451 79.149,400.091" style="fill-rule:nonzero;"/><path d="M134.783,378.558C134.783,377.894 134.758,377.235 134.71,376.58C134.661,375.926 134.607,375.287 134.549,374.662L118.347,386.703C118.64,387.718 119.011,388.656 119.461,389.515C119.91,390.374 120.452,391.112 121.087,391.727C121.721,392.342 122.444,392.821 123.255,393.162C124.065,393.504 124.988,393.675 126.023,393.675C127.351,393.675 128.557,393.353 129.641,392.708C130.725,392.064 131.648,391.107 132.41,389.837C133.172,388.568 133.758,386.991 134.168,385.106C134.578,383.221 134.783,381.038 134.783,378.558M117.263,378.206C117.263,378.812 117.268,379.417 117.278,380.023C117.288,380.628 117.322,381.214 117.381,381.781L133.582,369.798C133.289,368.802 132.918,367.894 132.469,367.074C132.019,366.253 131.482,365.545 130.857,364.95C130.232,364.354 129.519,363.89 128.719,363.558C127.917,363.226 127.019,363.06 126.023,363.06C124.695,363.06 123.489,363.382 122.405,364.027C121.321,364.671 120.398,365.633 119.637,366.912C118.875,368.192 118.289,369.774 117.879,371.659C117.469,373.543 117.263,375.726 117.263,378.206M139.939,378.382C139.939,381.312 139.646,383.983 139.06,386.395C138.474,388.807 137.585,390.877 136.394,392.606C135.203,394.334 133.723,395.672 131.956,396.62C130.188,397.567 128.113,398.04 125.73,398.04C123.679,398.04 121.814,397.655 120.135,396.883C118.454,396.112 117.019,394.925 115.828,393.324C114.637,391.722 113.719,389.681 113.074,387.201C112.429,384.72 112.107,381.781 112.107,378.382C112.107,375.453 112.405,372.777 113.001,370.355C113.596,367.933 114.485,365.858 115.667,364.129C116.848,362.401 118.328,361.063 120.105,360.116C121.882,359.168 123.953,358.695 126.316,358.695C128.367,358.695 130.232,359.08 131.912,359.852C133.592,360.623 135.027,361.815 136.219,363.426C137.409,365.037 138.328,367.083 138.972,369.564C139.617,372.044 139.939,374.984 139.939,378.382" style="fill-rule:nonzero;"/><path d="M155.115,397.513L143.279,366.4L148.845,366.4L155.525,385.033C156.247,387.044 156.912,389.134 157.517,391.302C157.986,389.661 158.64,387.689 159.48,385.384L166.394,366.4L171.814,366.4L160.037,397.513L155.115,397.513Z" style="fill-rule:nonzero;"/><path d="M215.405,373.828L215.875,373.922L214.7,372.229C217.332,371.76 221.28,370.539 223.583,369.787L225.369,372.137C222.925,373.075 219.588,373.734 217.003,374.203C220.481,375.003 224.522,376.131 226.826,377.023L225.745,379.703C223.16,378.669 218.084,377.164 214.277,376.224L215.405,373.828ZM217.661,384.354C214.842,383.274 212.35,382.053 210.47,380.924C208.261,382.145 205.818,383.322 203.28,384.354L217.661,384.354ZM222.079,388.679L224.898,390.465C222.737,393.378 219.071,396.104 215.781,398.173C217.238,398.83 218.554,399.393 219.588,399.912L217.661,402.967C213.995,401.133 206.804,398.03 201.494,396.056L203.327,393.378C205.723,394.27 208.637,395.352 211.458,396.433C213.666,395.352 216.157,393.755 218.084,392.203L194.915,392.203L194.915,388.914L221.421,388.914L222.079,388.679ZM194.397,376.695C197.123,376.224 200.836,375.378 204.831,374.532C202.669,373.734 198.956,372.794 196.136,372.183L197.358,369.928C200.272,370.397 204.267,371.385 206.382,372.137L205.301,374.438L206.523,374.157L206.804,376.741C202.857,377.823 198.956,378.95 195.667,379.844L194.397,376.695ZM214.371,378.34C214.043,378.575 213.76,378.809 213.431,379.092C217.802,381.253 225.509,383.416 232.512,384.354C231.666,385.248 230.491,386.847 229.881,387.928C226.731,387.363 223.394,386.424 220.34,385.39L220.34,387.082L200.977,387.082L200.977,385.294C198.063,386.376 195.196,387.316 192.47,388.068C191.625,387.222 190.074,385.719 189.087,385.107C196.7,383.369 204.971,380.455 210.001,376.883L208.45,376.883L208.45,369.551L194.539,369.551L194.539,375.051L190.637,375.051L190.637,366.638L208.45,366.638L208.45,364.474L193.551,364.474L193.551,361.232L227.718,361.232L227.718,364.474L212.726,364.474L212.726,366.638L230.726,366.638L230.726,375.051L226.684,375.051L226.684,369.551L212.726,369.551L212.726,376.883L211.41,376.883L214.371,378.34Z" style="fill-rule:nonzero;"/><path d="M259.727,387.456C261.794,389.806 264.379,393.049 265.602,395.211L261.748,397.514C260.666,395.399 258.176,391.921 256.108,389.431L259.727,387.456ZM269.033,368.751L269.033,374.109L278.855,374.109L278.855,377.916L275.048,377.916L275.048,382.428L280.077,382.428L280.077,386.281L275.048,386.281L275.048,397.843C275.048,400.099 274.531,401.273 272.98,401.885C271.335,402.59 268.891,402.637 265.273,402.637C265.084,401.462 264.426,399.723 263.816,398.548C266.448,398.642 269.033,398.642 269.785,398.642C270.537,398.595 270.771,398.407 270.771,397.749L270.771,386.281L253.711,386.281L253.711,382.428L270.771,382.428L270.771,377.916L255.403,377.916L255.403,374.109L264.708,374.109L264.708,368.751L253.571,368.751L253.571,364.851L264.708,364.851L264.708,359.493L269.033,359.493L269.033,364.851L280.264,364.851L280.264,368.751L269.033,368.751ZM248.635,379.749L242.948,379.749L242.948,389.665L248.635,389.665L248.635,379.749ZM242.949,375.895L248.636,375.895L248.636,366.448L242.949,366.448L242.949,375.895ZM252.724,393.566L242.949,393.566L242.949,397.56L238.907,397.56L238.907,362.501L252.724,362.501L252.724,393.566Z" style="fill-rule:nonzero;"/><path d="M312.836,372.982C313.823,377.917 315.186,382.475 317.16,386.47C319.087,382.475 320.262,377.775 321.107,372.23L313.118,372.23L312.836,372.982ZM325.479,372.23C324.303,379.703 322.518,385.859 319.65,390.841C322.047,394.366 325.149,397.138 328.956,398.924C327.969,399.817 326.607,401.462 325.995,402.637C322.329,400.711 319.416,398.031 317.019,394.742C314.387,397.984 311.05,400.616 306.914,402.778C306.491,401.791 305.223,399.817 304.377,398.924C308.747,396.904 312.084,394.224 314.575,390.747C312.695,387.269 311.285,383.274 310.204,378.904C309.405,380.266 308.607,381.488 307.76,382.664C307.243,382.005 306.068,381.018 305.129,380.266L299.912,380.266L299.912,391.076L307.29,389.525L307.713,393.472C300.006,395.305 291.781,397.232 285.906,398.502L285.107,394.13L287.739,393.614L287.739,373.216L291.688,373.216L291.688,392.862L295.635,392.015L295.635,366.826L286.048,366.826L286.048,362.595L307.385,362.595L307.385,366.826L299.912,366.826L299.912,376.13L305.786,376.13L305.786,377.587C308.841,372.935 310.815,366.355 312.037,359.494L316.36,360.246C315.844,362.971 315.186,365.603 314.481,368.141L328.58,368.141L328.58,372.23L325.479,372.23Z" style="fill-rule:nonzero;"/><path d="M358.615,383.18C360.542,386.046 362.656,389.712 363.69,392.11L360.024,393.848C359.038,391.451 356.876,387.55 355.09,384.637L358.615,383.18ZM376.333,380.454L371.398,380.454L371.398,397.561C371.398,400.005 370.881,401.227 369.283,401.885C367.732,402.59 365.241,402.684 361.576,402.684C361.434,401.509 360.824,399.582 360.213,398.36C362.751,398.501 365.336,398.454 366.04,398.454C366.792,398.408 367.074,398.219 367.074,397.514L367.074,380.454L353.821,380.454L353.821,376.412L367.074,376.412L367.074,369.739L371.398,369.739L371.398,376.412L376.333,376.412L376.333,380.454ZM354.667,370.35C353.774,372.888 352.599,375.519 351.236,378.01L351.236,402.684L347.147,402.684L347.147,384.308C346.113,385.53 345.08,386.751 343.952,387.739C343.623,386.658 342.729,384.684 342.072,383.65C345.832,380.031 348.933,374.11 350.39,369.128L354.667,370.35ZM341.461,368.423L341.461,380.172C341.461,386.893 340.896,396.809 337.278,402.966C336.479,402.167 334.506,400.898 333.518,400.428C336.808,394.742 337.043,386.376 337.043,380.172L337.043,364.381L355.231,364.381C354.62,362.971 354.009,361.42 353.398,360.199L357.768,359.024C358.709,360.715 359.601,362.736 360.26,364.381L376.286,364.381L376.286,368.423L341.461,368.423Z" style="fill-rule:nonzero;"/><path d="M424.977,368.611C424.131,372.841 423.191,378.105 422.205,381.347L419.431,380.642C420.325,377.306 421.264,371.807 421.593,367.953L424.977,368.611ZM410.643,381.676C410.268,378.48 409.139,372.935 408.059,368.752L410.831,368.048C411.958,372.23 413.134,377.681 413.604,380.736L410.643,381.676ZM418.021,371.807C418.021,373.593 417.974,375.379 417.927,377.212C418.821,386.658 420.701,395.212 425.212,398.971C424.366,399.723 423.097,401.274 422.486,402.355C419.384,399.441 417.551,394.648 416.376,388.867C415.203,393.708 413.086,398.502 409.609,402.731C409.045,401.791 407.823,400.287 406.977,399.676C413.651,391.263 414.309,380.502 414.309,371.807L414.309,360.058L418.021,360.058L418.021,371.807ZM407.071,388.914C406.554,387.504 405.379,385.248 404.299,383.322L404.299,402.637L400.539,402.637L400.539,383.979C399.175,388.586 397.343,392.956 395.369,395.728C394.9,394.6 394.006,392.956 393.301,391.968C395.792,388.491 398.143,382.522 399.412,377.071L395.087,377.071L395.087,372.982L400.539,372.982L400.539,365.697C399.035,365.979 397.484,366.215 396.027,366.402C395.84,365.509 395.323,364.099 394.852,363.207C399.128,362.549 403.922,361.374 406.836,360.152L409.703,363.347C408.059,363.959 406.225,364.523 404.299,364.945L404.299,372.982L408.34,372.982L408.34,377.071L404.299,377.071L404.299,378.48C405.426,379.984 408.388,384.215 409.092,385.201L407.071,388.914ZM394.994,383.227C393.583,383.697 392.126,384.215 390.716,384.684L390.716,398.079C390.716,400.099 390.294,401.227 389.119,401.885C387.943,402.543 386.158,402.684 383.431,402.637C383.244,401.65 382.775,399.912 382.209,398.831C383.996,398.878 385.687,398.878 386.158,398.878C386.722,398.878 386.956,398.689 386.956,398.079L386.956,385.906C385.359,386.47 383.761,386.893 382.352,387.363L381.317,383.18C382.914,382.757 384.841,382.193 386.956,381.583L386.956,372.747L381.927,372.747L381.927,368.705L386.956,368.705L386.956,359.588L390.716,359.588L390.716,368.705L394.241,368.705L394.241,372.747L390.716,372.747L390.716,380.408C391.938,380.079 393.16,379.656 394.382,379.279L394.994,383.227Z" style="fill-rule:nonzero;"/><path d="M465.397,360.857C466.713,367.671 469.345,374.72 472.542,378.669C471.602,379.374 470.051,381.018 469.299,382.052C466.15,377.728 463.659,371.055 462.155,364.523L458.02,364.523L458.02,360.857L465.397,360.857ZM465.962,385.625C468.217,390.23 471.131,396.386 472.448,399.959L468.453,401.885C468.076,400.711 467.513,399.3 466.95,397.75C451.722,399.817 449.655,400.146 448.198,400.804C448.008,399.912 447.304,397.796 446.741,396.669C447.821,396.386 448.667,394.976 449.794,392.72C450.97,390.558 454.542,382.335 456.422,374.673L460.838,375.849C458.724,382.804 455.857,389.901 452.897,395.494L465.35,394.084C464.316,391.687 463.236,389.243 462.249,387.128L465.962,385.625ZM456.703,361.937C455.34,369.692 452.943,377.211 449.465,382.146C448.95,381.3 447.398,379.562 446.551,378.762C449.559,374.533 451.439,367.953 452.52,361.185L456.703,361.937ZM440.96,375.144C442.275,376.882 445.895,382.193 446.693,383.509L444.155,386.564C443.498,385.06 442.181,382.522 440.96,380.266L440.96,402.637L436.965,402.637L436.965,382.664C435.508,387.269 433.628,391.545 431.701,394.366C431.279,393.097 430.292,391.169 429.539,390.042C432.501,386.282 435.272,379.232 436.635,373.17L430.385,373.17L430.385,369.128L436.965,369.128L436.965,359.587L440.96,359.587L440.96,369.128L446.693,369.128L446.693,373.17L440.96,373.17L440.96,375.144Z" style="fill-rule:nonzero;"/><path d="M506.241,383.038C505.959,382.804 505.677,382.569 505.395,382.334L507.134,381.206L501.306,381.206L501.306,383.133L506.241,383.038ZM507.792,377.399L501.307,377.399L501.307,379.184L507.792,379.184L507.792,377.399ZM501.306,375.472L507.791,375.472L507.791,373.734L501.306,373.734L501.306,375.472ZM497.687,377.399L491.484,377.399L491.484,379.184L497.687,379.184L497.687,377.399ZM491.484,375.472L497.687,375.472L497.687,373.734L491.484,373.734L491.484,375.472ZM494.303,395.446C493.552,394.177 492.001,392.345 490.591,391.075L493.364,389.665C494.773,390.888 496.466,392.626 497.218,393.848L494.303,395.446ZM508.215,381.206C509.907,382.475 511.74,384.214 512.726,385.342L510.377,387.128C509.907,386.517 509.249,385.858 508.544,385.153C500.554,385.389 492.517,385.624 486.737,385.765L486.549,383.226C489.651,383.226 493.505,383.18 497.687,383.133L497.687,381.206L488.053,381.206L488.053,371.759L497.687,371.759L497.687,370.067L486.455,370.067L486.455,367.482L497.687,367.482L497.687,365.556L501.306,365.556L501.306,367.482L512.773,367.482L512.773,370.067L501.306,370.067L501.306,371.759L511.316,371.759L511.316,381.206L508.215,381.206ZM513.431,389.665L507.04,389.665L507.04,393.425C507.04,394.976 506.664,395.493 505.536,395.822C504.361,396.198 502.622,396.198 499.896,396.198C499.756,395.399 499.332,394.553 498.957,393.848C500.554,393.895 502.246,393.895 502.717,393.895C503.233,393.848 503.374,393.707 503.374,393.284L503.374,389.665L485.938,389.665L485.938,387.128L503.374,387.128L503.374,385.577L507.04,385.577L507.04,387.128L513.431,387.128L513.431,389.665ZM514.748,364.804L484.575,364.804L484.575,396.904L514.748,396.904L514.748,364.804ZM518.93,361.42L518.93,402.542L514.748,402.542L514.748,400.334L484.575,400.334L484.575,402.73L480.581,402.73L480.581,361.42L518.93,361.42Z" style="fill-rule:nonzero;"/></g></svg>