<?xml version="1.0" encoding="UTF-8" standalone="no"?><!DOCTYPE svg PUBLIC "-//W3C//DTD SVG 1.1//EN" "http://www.w3.org/Graphics/SVG/1.1/DTD/svg11.dtd"><svg width="100%" height="100%" viewBox="0 0 4375 1250" version="1.1" xmlns="http://www.w3.org/2000/svg" xmlns:xlink="http://www.w3.org/1999/xlink" xml:space="preserve" xmlns:serif="http://www.serif.com/" style="fill-rule:evenodd;clip-rule:evenodd;stroke-linejoin:round;stroke-miterlimit:2;"><rect id="Page-1" serif:id="Page 1" x="0" y="0" width="4375" height="1250" style="fill:none;"/><g id="圖層-1" serif:id="圖層 1"><path d="M2620.23,1061.61C2607.2,1072.1 2590.67,1077.34 2570.64,1077.34C2557.93,1077.34 2546.65,1075.19 2536.81,1070.9C2526.93,1066.62 2518.6,1060.53 2511.76,1052.67C2504.95,1044.81 2499.74,1035.31 2496.16,1024.18C2492.59,1013.05 2490.8,1000.75 2490.8,987.243C2490.8,973.726 2492.66,961.497 2496.39,950.522C2500.14,939.559 2505.53,930.188 2512.61,922.401C2519.7,914.613 2528.23,908.655 2538.23,904.518C2548.24,900.393 2559.53,898.326 2572.1,898.326C2591.32,898.326 2607.36,903.568 2620.23,914.059C2633.12,924.551 2641.29,939.484 2644.77,958.872L2615.7,958.872C2613,947.109 2607.71,938.222 2599.85,932.176C2591.99,926.138 2582.41,923.113 2571.12,923.113C2564.28,923.113 2557.89,924.509 2551.94,927.293C2545.98,930.076 2540.77,934.155 2536.32,939.559C2531.87,944.963 2528.4,951.643 2525.85,959.584C2523.3,967.534 2522.02,976.751 2522.02,987.243C2522.02,997.718 2523.25,1007.01 2525.72,1015.13C2528.19,1023.23 2531.63,1030.06 2536.09,1035.63C2540.53,1041.19 2545.71,1045.4 2551.58,1048.26C2557.45,1051.11 2563.89,1052.56 2570.88,1052.56C2582.65,1052.56 2592.45,1049.57 2600.34,1043.61C2608.19,1037.65 2613.49,1028.71 2616.18,1016.79L2645.26,1016.79C2641.61,1036.18 2633.26,1051.11 2620.23,1061.61" style="fill:rgb(119,61,189);fill-rule:nonzero;"/><path d="M2691.55,1029.79C2693.37,1035.27 2695.83,1039.79 2698.93,1043.37C2702.03,1046.95 2705.65,1049.65 2709.78,1051.48C2713.92,1053.3 2718.22,1054.22 2722.64,1054.22C2727.1,1054.22 2731.39,1053.3 2735.53,1051.48C2739.66,1049.65 2743.26,1046.95 2746.37,1043.37C2749.45,1039.79 2751.92,1035.27 2753.74,1029.79C2755.58,1024.31 2756.49,1017.83 2756.49,1010.36C2756.49,1003.05 2755.58,996.605 2753.74,991.055C2751.92,985.489 2749.45,980.876 2746.37,977.222C2743.26,973.572 2739.66,970.83 2735.53,969.001C2731.39,967.18 2727.1,966.26 2722.64,966.26C2718.22,966.26 2713.92,967.18 2709.78,969.001C2705.65,970.83 2702.03,973.572 2698.93,977.222C2695.83,980.876 2693.37,985.489 2691.55,991.055C2689.73,996.605 2688.79,1003.05 2688.79,1010.36C2688.79,1017.83 2689.73,1024.31 2691.55,1029.79M2745.65,947.189C2753.2,949.889 2759.95,953.985 2765.93,959.472C2771.87,964.951 2776.68,971.905 2780.33,980.326C2783.99,988.747 2785.83,998.764 2785.83,1010.36C2785.83,1021.96 2783.99,1031.97 2780.33,1040.39C2776.68,1048.82 2771.87,1055.77 2765.93,1061.25C2759.95,1066.74 2753.2,1070.78 2745.65,1073.4C2738.11,1076.03 2730.43,1077.34 2722.64,1077.34C2714.86,1077.34 2707.2,1076.03 2699.64,1073.4C2692.12,1070.78 2685.36,1066.74 2679.39,1061.25C2673.41,1055.77 2668.63,1048.82 2664.96,1040.39C2661.32,1031.97 2659.49,1021.96 2659.49,1010.36C2659.49,998.764 2661.32,988.747 2664.96,980.326C2668.63,971.905 2673.41,964.951 2679.39,959.472C2685.36,953.985 2692.12,949.889 2699.64,947.189C2707.2,944.489 2714.86,943.143 2722.64,943.143C2730.43,943.143 2738.11,944.489 2745.65,947.189" style="fill:rgb(119,61,189);fill-rule:nonzero;"/><path d="M2804.37,1074.24L2804.37,945.998L2832.73,945.998L2832.73,963.886C2836.37,957.207 2841.35,952.078 2847.62,948.511C2853.89,944.923 2861.32,943.148 2869.9,943.148C2879.91,943.148 2887.89,945.132 2893.85,949.103C2899.82,953.069 2904.32,958.632 2907.33,965.782C2912.89,957.678 2919.24,951.877 2926.41,948.382C2933.54,944.882 2941.09,943.148 2949.03,943.148C2956.68,943.148 2963.16,944.328 2968.45,946.715C2973.79,949.103 2978.12,952.511 2981.46,956.961C2984.8,961.411 2987.23,966.736 2988.73,972.932C2990.24,979.14 2990.99,986.048 2990.99,993.669L2990.99,1074.24L2962.63,1074.24L2962.63,1000.58C2962.63,996.294 2962.42,992.086 2962.01,987.944C2961.64,983.819 2960.68,980.127 2959.18,976.869C2957.64,973.615 2955.38,971.019 2952.39,969.119C2949.35,967.207 2945.23,966.261 2939.98,966.261C2934.74,966.261 2930.34,967.248 2926.75,969.248C2923.17,971.228 2920.28,973.965 2918.05,977.469C2915.82,980.961 2914.23,985.169 2913.29,990.098C2912.32,995.019 2911.84,1000.35 2911.84,1006.07L2911.84,1074.24L2883.47,1074.24L2883.47,1000.58C2883.47,996.294 2883.29,992.086 2882.91,987.944C2882.5,983.819 2881.53,980.127 2880.03,976.869C2878.53,973.615 2876.26,971.019 2873.24,969.119C2870.22,967.207 2866.07,966.261 2860.86,966.261C2855.59,966.261 2851.18,967.248 2847.62,969.248C2844.04,971.228 2841.14,973.965 2838.92,977.469C2836.7,980.961 2835.09,985.169 2834.14,990.098C2833.19,995.019 2832.73,1000.35 2832.73,1006.07L2832.73,1074.24L2804.37,1074.24Z" style="fill:rgb(119,61,189);fill-rule:nonzero;"/><path d="M3015.69,1074.24L3015.69,945.998L3044.06,945.998L3044.06,963.886C3047.72,957.207 3052.68,952.078 3058.95,948.511C3065.24,944.923 3072.65,943.148 3081.23,943.148C3091.26,943.148 3099.23,945.132 3105.18,949.103C3111.15,953.069 3115.64,958.632 3118.66,965.782C3124.22,957.678 3130.6,951.877 3137.74,948.382C3144.87,944.882 3152.44,943.148 3160.38,943.148C3168.01,943.148 3174.49,944.328 3179.8,946.715C3185.14,949.103 3189.47,952.511 3192.78,956.961C3196.13,961.411 3198.56,966.736 3200.07,972.932C3201.57,979.14 3202.34,986.048 3202.34,993.669L3202.34,1074.24L3173.97,1074.24L3173.97,1000.58C3173.97,996.294 3173.77,992.086 3173.37,987.944C3172.97,983.819 3172.03,980.127 3170.51,976.869C3168.99,973.615 3166.73,971.019 3163.72,969.119C3160.7,967.207 3156.57,966.261 3151.31,966.261C3146.07,966.261 3141.66,967.248 3138.08,969.248C3134.52,971.228 3131.61,973.965 3129.38,977.469C3127.15,980.961 3125.58,985.169 3124.62,990.098C3123.67,995.019 3123.19,1000.35 3123.19,1006.07L3123.19,1074.24L3094.82,1074.24L3094.82,1000.58C3094.82,996.294 3094.62,992.086 3094.24,987.944C3093.83,983.819 3092.88,980.127 3091.39,976.869C3089.87,973.615 3087.59,971.019 3084.58,969.119C3081.55,967.207 3077.42,966.261 3072.18,966.261C3066.94,966.261 3062.53,967.248 3058.95,969.248C3055.37,971.228 3052.47,973.965 3050.25,977.469C3048.03,980.961 3046.42,985.169 3045.5,990.098C3044.52,995.019 3044.06,1000.35 3044.06,1006.07L3044.06,1074.24L3015.69,1074.24Z" style="fill:rgb(119,61,189);fill-rule:nonzero;"/><path d="M3291.04,1071.97C3284.6,1075.56 3277,1077.34 3268.26,1077.34C3260.66,1077.34 3254.13,1076.16 3248.71,1073.77C3243.33,1071.38 3238.89,1067.97 3235.36,1063.52C3231.88,1059.07 3229.33,1053.75 3227.75,1047.54C3226.16,1041.34 3225.36,1034.44 3225.36,1026.8L3225.36,946L3253.73,946L3253.73,1019.89C3253.73,1024.18 3253.97,1028.39 3254.44,1032.53C3254.93,1036.65 3255.96,1040.35 3257.53,1043.61C3259.14,1046.87 3261.49,1049.46 3264.69,1051.35C3267.87,1053.27 3272.08,1054.22 3277.32,1054.22C3282.59,1054.22 3287.07,1053.22 3290.79,1051.24C3294.52,1049.25 3297.51,1046.51 3299.74,1043.01C3301.96,1039.53 3303.59,1035.3 3304.62,1030.39C3305.65,1025.46 3306.17,1020.13 3306.17,1014.42L3306.17,946L3334.54,946L3334.54,1074.24L3306.17,1074.24L3306.17,1056.6C3302.52,1063.28 3297.48,1068.41 3291.04,1071.97" style="fill:rgb(119,61,189);fill-rule:nonzero;"/><path d="M3405.39,948.504C3411.99,944.921 3419.8,943.142 3428.87,943.142C3436.65,943.142 3443.29,944.321 3448.77,946.713C3454.25,949.104 3458.75,952.513 3462.24,956.958C3465.73,961.413 3468.32,966.729 3469.97,972.938C3471.66,979.138 3472.49,986.042 3472.49,993.675L3472.49,1074.23L3444.12,1074.23L3444.12,1000.58C3444.12,996.3 3443.88,992.088 3443.41,987.95C3442.95,983.825 3441.85,980.129 3440.19,976.871C3438.53,973.613 3436.07,971.025 3432.78,969.125C3429.55,967.213 3425.22,966.254 3419.8,966.254C3414.42,966.254 3409.81,967.254 3405.98,969.242C3402.16,971.225 3399.09,973.967 3396.69,977.471C3394.3,980.954 3392.6,985.167 3391.56,990.092C3390.55,995.021 3390.02,1000.35 3390.02,1006.06L3390.02,1074.23L3361.65,1074.23L3361.65,945.992L3390.02,945.992L3390.02,963.879C3393.66,957.204 3398.79,952.071 3405.39,948.504" style="fill:rgb(119,61,189);fill-rule:nonzero;"/><path d="M3525.57,1074.24L3497.2,1074.24L3497.2,945.996L3525.57,945.996L3525.57,1074.24ZM3525.57,930.029L3497.2,930.029L3497.2,901.421L3525.57,901.421L3525.57,930.029Z" style="fill:rgb(119,61,189);fill-rule:nonzero;"/><path d="M3626.98,946.471C3633.42,948.7 3639.16,951.842 3644.26,955.888C3649.34,959.95 3653.65,964.834 3657.13,970.546C3660.63,976.275 3662.99,982.713 3664.29,989.859L3636.63,989.859C3635.36,983.017 3632.02,977.467 3626.62,973.171C3621.22,968.88 3614.62,966.734 3606.83,966.734C3602.38,966.734 3598.13,967.571 3594.08,969.238C3590.03,970.913 3586.46,973.534 3583.37,977.105C3580.24,980.688 3577.79,985.163 3575.96,990.571C3574.14,995.98 3573.22,1002.49 3573.22,1010.12C3573.22,1017.75 3574.14,1024.31 3575.96,1029.78C3577.79,1035.26 3580.24,1039.79 3583.37,1043.38C3586.46,1046.95 3589.99,1049.57 3593.96,1051.23C3597.93,1052.9 3601.97,1053.75 3606.13,1053.75C3609.62,1053.75 3613.01,1053.34 3616.38,1052.55C3619.7,1051.76 3622.82,1050.4 3625.67,1048.49C3628.52,1046.59 3630.99,1044.16 3633.05,1041.23C3635.11,1038.29 3636.63,1034.68 3637.59,1030.38L3665.22,1030.38C3663.8,1037.86 3661.18,1044.52 3657.37,1050.4C3653.57,1056.29 3648.96,1061.21 3643.53,1065.18C3638.15,1069.15 3632.18,1072.17 3625.67,1074.24C3619.15,1076.31 3612.48,1077.33 3605.65,1077.33C3596.27,1077.33 3587.81,1075.62 3580.24,1072.22C3572.72,1068.8 3566.24,1064.11 3560.82,1058.14C3555.44,1052.19 3551.25,1045.11 3548.32,1036.93C3545.36,1028.75 3543.91,1019.89 3543.91,1010.36C3543.91,1000.83 3545.36,991.967 3548.32,983.78C3551.25,975.6 3555.48,968.488 3560.93,962.446C3566.45,956.405 3573.06,951.675 3580.85,948.263C3588.64,944.842 3597.29,943.138 3606.83,943.138C3613.83,943.138 3620.54,944.259 3626.98,946.471" style="fill:rgb(119,61,189);fill-rule:nonzero;"/><path d="M3734.54,1017.27C3727.4,1018.54 3721.51,1020.13 3716.89,1022.04C3712.31,1023.94 3708.93,1026.21 3706.78,1028.83C3704.63,1031.46 3703.56,1034.6 3703.56,1038.24C3703.56,1043.81 3705.71,1048.18 3710,1051.36C3714.29,1054.53 3720.01,1056.12 3727.15,1056.12C3737.65,1056.12 3745.83,1053.46 3751.69,1048.14C3757.58,1042.82 3760.52,1034.67 3760.52,1023.71L3760.52,1013.94C3750.36,1014.89 3741.7,1016 3734.54,1017.27M3701.76,1074.6C3695.97,1072.77 3690.95,1070.18 3686.74,1066.84C3682.54,1063.52 3679.28,1059.5 3676.98,1054.81C3674.68,1050.12 3673.51,1044.84 3673.51,1038.96C3673.51,1031.01 3675.82,1024.42 3680.43,1019.18C3685.05,1013.94 3691.28,1009.64 3699.15,1006.31C3707.02,1002.97 3716.15,1000.42 3726.57,998.68C3736.96,996.93 3748.05,995.43 3759.81,994.15L3759.81,991.759C3759.81,986.363 3759.1,981.796 3757.66,978.059C3756.23,974.325 3754.28,971.388 3751.82,969.246C3749.37,967.096 3746.51,965.542 3743.23,964.592C3740,963.634 3736.61,963.167 3733.12,963.167C3725.96,963.167 3719.97,965.063 3715.11,968.88C3710.26,972.696 3707.69,978.5 3707.38,986.28L3679.48,986.28C3679.95,979.767 3681.63,973.805 3684.48,968.4C3687.36,963 3691.16,958.359 3695.94,954.463C3700.71,950.567 3706.3,947.546 3712.73,945.396C3719.16,943.255 3726.28,942.184 3734.08,942.184C3741.7,942.184 3748.85,943.142 3755.52,945.046C3762.2,946.959 3768.01,950.05 3772.92,954.338C3777.83,958.63 3781.66,964.317 3784.35,971.388C3787.06,978.459 3788.34,987.08 3788.18,997.246C3788.18,998.838 3788.14,1000.91 3788.05,1003.45C3788,1005.98 3787.95,1008.77 3787.95,1011.8C3787.95,1014.81 3787.91,1017.94 3787.83,1021.2C3787.75,1024.46 3787.71,1027.52 3787.71,1030.39C3787.71,1038.49 3788.01,1046.47 3788.64,1054.35C3789.29,1062.2 3790.24,1068.83 3791.52,1074.24L3765.53,1074.24C3765.05,1071.54 3764.6,1069.07 3764.22,1066.86C3763.83,1064.63 3763.47,1061.29 3763.15,1056.84C3759.02,1063.83 3753.33,1069.01 3746.11,1072.34C3738.87,1075.66 3730.49,1077.34 3720.96,1077.34C3713.96,1077.34 3707.57,1076.42 3701.76,1074.6" style="fill:rgb(119,61,189);fill-rule:nonzero;"/><path d="M3844.36,912.147L3844.36,946.001L3870.11,946.001L3870.11,966.501L3844.36,966.501L3844.36,1036.35C3844.36,1042.86 3845.41,1047.19 3847.47,1049.33C3849.53,1051.48 3853.59,1052.55 3859.62,1052.55L3869.87,1052.55L3869.87,1074.24L3848.89,1074.24C3842.06,1074.24 3836.51,1073.73 3832.22,1072.69C3827.93,1071.66 3824.59,1069.87 3822.2,1067.33C3819.82,1064.78 3818.18,1061.33 3817.33,1056.96C3816.44,1052.59 3815.99,1047.15 3815.99,1040.63L3815.99,966.501L3796.93,966.501L3796.93,946.001L3815.99,946.001L3815.99,912.147L3844.36,912.147Z" style="fill:rgb(119,61,189);fill-rule:nonzero;"/><path d="M3916.57,1074.24L3888.2,1074.24L3888.2,945.996L3916.57,945.996L3916.57,1074.24ZM3916.57,930.029L3888.2,930.029L3888.2,901.421L3916.57,901.421L3916.57,930.029Z" style="fill:rgb(119,61,189);fill-rule:nonzero;"/><path d="M3967.19,1029.79C3969.01,1035.27 3971.47,1039.79 3974.58,1043.37C3977.67,1046.95 3981.3,1049.65 3985.42,1051.48C3989.55,1053.3 3993.84,1054.22 3998.29,1054.22C4002.74,1054.22 4007.03,1053.3 4011.15,1051.48C4015.29,1049.65 4018.93,1046.95 4022,1043.37C4025.12,1039.79 4027.59,1035.27 4029.4,1029.79C4031.22,1024.31 4032.14,1017.83 4032.14,1010.36C4032.14,1003.05 4031.22,996.605 4029.4,991.055C4027.59,985.489 4025.12,980.876 4022,977.222C4018.93,973.572 4015.29,970.83 4011.15,969.001C4007.03,967.18 4002.74,966.26 3998.29,966.26C3993.84,966.26 3989.55,967.18 3985.42,969.001C3981.3,970.83 3977.67,973.572 3974.58,977.222C3971.47,980.876 3969.01,985.489 3967.19,991.055C3965.35,996.605 3964.46,1003.05 3964.46,1010.36C3964.46,1017.83 3965.35,1024.31 3967.19,1029.79M4021.3,947.189C4028.84,949.889 4035.6,953.985 4041.55,959.472C4047.51,964.951 4052.31,971.905 4056,980.326C4059.64,988.747 4061.46,998.764 4061.46,1010.36C4061.46,1021.96 4059.64,1031.97 4056,1040.39C4052.31,1048.82 4047.51,1055.77 4041.55,1061.25C4035.6,1066.74 4028.84,1070.78 4021.3,1073.4C4013.75,1076.03 4006.08,1077.34 3998.29,1077.34C3990.52,1077.34 3982.84,1076.03 3975.31,1073.4C3967.74,1070.78 3960.98,1066.74 3955.03,1061.25C3949.08,1055.77 3944.27,1048.82 3940.61,1040.39C3936.95,1031.97 3935.13,1021.96 3935.13,1010.36C3935.13,998.764 3936.95,988.747 3940.61,980.326C3944.27,971.905 3949.08,964.951 3955.03,959.472C3960.98,953.985 3967.74,949.889 3975.31,947.189C3982.84,944.489 3990.52,943.143 3998.29,943.143C4006.08,943.143 4013.75,944.489 4021.3,947.189" style="fill:rgb(119,61,189);fill-rule:nonzero;"/><path d="M4123.73,948.504C4130.33,944.921 4138.16,943.142 4147.2,943.142C4155.01,943.142 4161.65,944.321 4167.11,946.713C4172.61,949.104 4177.08,952.513 4180.58,956.958C4184.09,961.413 4186.66,966.729 4188.33,972.938C4190.01,979.138 4190.82,986.042 4190.82,993.675L4190.82,1074.23L4162.46,1074.23L4162.46,1000.58C4162.46,996.3 4162.23,992.088 4161.77,987.95C4161.28,983.825 4160.21,980.129 4158.53,976.871C4156.87,973.613 4154.41,971.025 4151.15,969.125C4147.89,967.213 4143.56,966.254 4138.16,966.254C4132.76,966.254 4128.14,967.254 4124.34,969.242C4120.51,971.225 4117.42,973.967 4115.03,977.471C4112.64,980.954 4110.94,985.167 4109.92,990.092C4108.89,995.021 4108.36,1000.35 4108.36,1006.06L4108.36,1074.23L4079.99,1074.23L4079.99,945.992L4108.36,945.992L4108.36,963.879C4112.02,957.204 4117.14,952.071 4123.73,948.504" style="fill:rgb(119,61,189);fill-rule:nonzero;"/><path d="M4278.84,968.525C4273.84,966.066 4267.74,964.833 4260.61,964.833C4254.42,964.833 4248.89,966.108 4244.03,968.641C4239.18,971.187 4236.77,974.604 4236.77,978.9C4236.77,983.183 4238.25,986.52 4241.19,988.912C4244.11,991.287 4248.37,993.037 4253.93,994.145L4272.04,997.729C4278.56,998.995 4284.61,1000.5 4290.16,1002.25C4295.73,1004 4300.56,1006.35 4304.7,1009.28C4308.84,1012.23 4312.06,1015.84 4314.36,1020.13C4316.67,1024.42 4317.8,1029.67 4317.8,1035.86C4317.8,1042.54 4316.34,1048.45 4313.4,1053.62C4310.48,1058.78 4306.5,1063.11 4301.5,1066.61C4296.48,1070.11 4290.73,1072.78 4284.22,1074.6C4277.7,1076.42 4270.78,1077.34 4263.46,1077.34C4255.53,1077.34 4248.32,1076.26 4241.89,1074.12C4235.45,1071.97 4229.87,1069.05 4225.1,1065.31C4220.33,1061.56 4216.48,1057.11 4213.52,1051.95C4210.59,1046.79 4208.71,1041.19 4207.94,1035.15L4235.58,1035.15C4236.86,1041.83 4239.87,1046.95 4244.64,1050.53C4249.42,1054.1 4256.01,1055.89 4264.43,1055.89C4271.88,1055.89 4278.05,1054.41 4282.89,1051.48C4287.74,1048.54 4290.16,1044.44 4290.16,1039.2C4290.16,1033.95 4288.06,1030.02 4283.85,1027.4C4279.64,1024.78 4274.35,1022.83 4267.99,1021.57L4248.69,1017.75C4243.28,1016.64 4238.25,1015.16 4233.56,1013.34C4228.86,1011.51 4224.77,1009.13 4221.28,1006.19C4217.77,1003.25 4215.04,999.67 4213.03,995.466C4211.06,991.245 4210.09,986.204 4210.09,980.325C4210.09,974.604 4211.5,969.475 4214.37,964.958C4217.23,960.42 4221.05,956.529 4225.81,953.266C4230.56,950.016 4236.1,947.512 4242.38,945.762C4248.64,944.012 4255.28,943.145 4262.28,943.145C4268.48,943.145 4274.51,943.895 4280.4,945.412C4286.28,946.916 4291.58,949.254 4296.35,952.441C4301.14,955.616 4305.18,959.575 4308.52,964.358C4311.86,969.125 4314.16,974.687 4315.42,981.041L4288.73,981.041C4287.13,975.162 4283.85,970.991 4278.84,968.525" style="fill:rgb(119,61,189);fill-rule:nonzero;"/><path d="M904.499,809.07L1035.02,627.036L1155.54,627.036L1019.13,813.278L1212.13,1080.46L1094.97,1080.46L952.537,884.082L904.499,935.499L904.499,1080.46L804.208,1080.46L804.208,469.424L904.499,469.424L904.499,809.07Z" style="fill:rgb(23,20,21);fill-rule:nonzero;"/><rect x="1224.16" y="469.425" width="100.292" height="611.033" style="fill:rgb(23,20,21);"/><path d="M1503.97,1080.46L1403.68,1080.46L1403.68,627.038L1503.97,627.038L1503.97,1080.46ZM1503.97,570.554L1403.68,570.554L1403.68,469.425L1503.97,469.425L1503.97,570.554Z" style="fill:rgb(23,20,21);fill-rule:nonzero;"/><path d="M1849.16,628.703C1871.9,636.578 1892.28,647.67 1910.25,662.003C1928.24,676.328 1943.41,693.603 1955.77,713.824C1968.12,734.057 1976.55,756.815 1981.05,782.099L1883.28,782.099C1878.8,757.94 1867.01,738.27 1847.89,723.09C1828.78,707.924 1805.48,700.353 1777.94,700.353C1762.21,700.353 1747.18,703.299 1732.85,709.195C1718.52,715.099 1705.87,724.365 1694.94,737.015C1683.97,749.649 1675.26,765.528 1668.8,784.624C1662.33,803.732 1659.1,826.77 1659.1,853.732C1659.1,880.703 1662.33,903.874 1668.8,923.27C1675.26,942.645 1683.97,958.67 1694.94,971.303C1705.87,983.957 1718.37,993.228 1732.42,999.124C1746.47,1005.03 1760.8,1007.97 1775.4,1007.97C1787.77,1007.97 1799.85,1006.57 1811.65,1003.76C1823.44,1000.95 1834.4,996.17 1844.52,989.436C1854.62,982.682 1863.33,974.115 1870.65,963.711C1877.94,953.32 1883.28,940.54 1886.66,925.37L1984.43,925.37C1979.36,951.778 1970.09,975.39 1956.6,996.17C1943.12,1016.97 1926.84,1034.37 1907.72,1048.42C1888.62,1062.47 1867.55,1073.14 1844.52,1080.45C1821.48,1087.75 1797.89,1091.41 1773.72,1091.41C1740.57,1091.41 1710.64,1085.37 1683.97,1073.29C1657.27,1061.21 1634.39,1044.63 1615.27,1023.55C1596.18,1002.48 1581.43,977.495 1571.03,948.545C1560.64,919.62 1555.44,888.29 1555.44,854.59C1555.44,820.865 1560.64,789.54 1571.03,760.611C1581.43,731.682 1596.31,706.524 1615.69,685.182C1635.07,663.82 1658.54,647.107 1686.07,635.036C1713.6,622.949 1744.22,616.903 1777.94,616.903C1802.66,616.903 1826.4,620.845 1849.16,628.703" style="fill:rgb(23,20,21);fill-rule:nonzero;"/><path d="M2128.89,809.07L2269.07,633.057L2389.59,633.057L2243.52,813.278L2436.52,1080.46L2319.37,1080.46L2176.93,884.082L2128.89,935.499L2128.89,1080.46L2028.6,1080.46L2028.6,469.424L2128.89,469.424L2128.89,809.07Z" style="fill:rgb(23,20,21);fill-rule:nonzero;"/><path d="M2645.98,202.474L2746.27,202.474L2746.27,813.503L2645.98,813.503L2645.98,668.545L2597.94,617.124L2455.51,813.503L2338.35,813.503L2531.35,546.328L2394.93,360.078L2515.46,360.078L2645.98,542.12L2645.98,202.474Z" style="fill:rgb(23,20,21);fill-rule:nonzero;"/><rect x="2830.63" y="204.667" width="100.292" height="611.029" style="fill:rgb(23,20,21);"/><path d="M3196.07,614.253C3170.78,618.758 3150,624.383 3133.7,631.112C3117.41,637.866 3105.46,645.87 3097.88,655.141C3090.28,664.416 3086.49,675.503 3086.49,688.424C3086.49,708.083 3094.08,723.553 3109.26,734.778C3124.43,746.016 3144.66,751.645 3169.95,751.645C3207.03,751.645 3235.96,742.22 3256.75,723.399C3277.54,704.583 3287.93,675.774 3287.93,637.016L3287.93,602.453C3251.98,605.833 3221.35,609.77 3196.07,614.253M3080.18,816.962C3059.67,810.483 3041.98,801.358 3027.09,789.558C3012.19,777.758 3000.69,763.583 2992.54,746.999C2984.39,730.428 2980.31,711.753 2980.31,690.949C2980.31,662.853 2988.46,639.537 3004.75,621.008C3021.05,602.453 3043.1,587.283 3070.91,575.483C3098.73,563.695 3131.03,554.703 3167.84,548.52C3204.63,542.353 3243.84,537.012 3285.41,532.512L3285.41,524.087C3285.41,504.978 3282.87,488.824 3277.83,475.612C3272.76,462.416 3265.88,452.024 3257.17,444.433C3248.46,436.845 3238.36,431.362 3226.83,428.012C3215.32,424.633 3203.38,422.941 3191.02,422.941C3165.73,422.941 3144.52,429.674 3127.39,443.158C3110.24,456.649 3101.1,477.158 3099.98,504.687L3001.38,504.687C3003.07,481.658 3008.96,460.587 3019.08,441.495C3029.2,422.378 3042.68,405.937 3059.53,392.178C3076.39,378.424 3096.19,367.737 3118.95,360.149C3141.71,352.566 3166.85,348.77 3194.38,348.77C3221.35,348.77 3246.65,352.145 3270.24,358.899C3293.84,365.628 3314.34,376.591 3331.77,391.766C3349.17,406.933 3362.65,427.008 3372.22,452.024C3381.77,477.024 3386.26,507.503 3385.7,543.474C3385.7,549.083 3385.56,556.395 3385.28,565.378C3385,574.362 3384.85,584.199 3384.85,594.87C3384.85,605.562 3384.71,616.649 3384.43,628.174C3384.16,639.678 3384.02,650.499 3384.02,660.608C3384.02,689.266 3385.14,717.508 3387.39,745.303C3389.62,773.133 3393,796.574 3397.5,815.691L3305.64,815.691C3303.94,806.145 3302.4,797.433 3301,789.558C3299.59,781.699 3298.33,769.899 3297.21,754.166C3282.6,778.883 3262.51,797.145 3236.95,808.958C3211.39,820.758 3181.74,826.653 3148.03,826.653C3123.31,826.653 3100.69,823.42 3080.18,816.962" style="fill:rgb(23,20,21);fill-rule:nonzero;"/><path d="M3726.76,363.941C3749.5,371.816 3769.88,382.907 3787.85,397.241C3805.84,411.566 3821.01,428.849 3833.38,449.062C3845.73,469.295 3854.16,492.053 3858.66,517.337L3760.88,517.337C3756.41,493.178 3744.61,473.512 3725.49,458.328C3706.39,443.162 3683.08,435.591 3655.55,435.591C3639.81,435.591 3624.78,438.537 3610.45,444.432C3596.13,450.324 3583.48,459.603 3572.53,472.253C3561.57,484.887 3552.86,500.766 3546.4,519.862C3539.93,538.97 3536.7,562.007 3536.7,588.97C3536.7,615.941 3539.93,639.12 3546.4,658.507C3552.86,677.882 3561.57,693.907 3572.53,706.545C3583.48,719.195 3595.98,728.466 3610.03,734.362C3624.07,740.266 3638.4,743.208 3653,743.208C3665.37,743.208 3677.46,741.803 3689.25,738.995C3701.04,736.178 3712.01,731.407 3722.12,724.674C3732.22,717.92 3740.93,709.353 3748.25,698.953C3755.55,688.558 3760.88,675.778 3764.26,660.608L3862.03,660.608C3856.97,687.016 3847.69,710.628 3834.2,731.407C3820.72,752.208 3804.44,769.612 3785.33,783.662C3766.22,797.708 3745.15,808.378 3722.12,815.691C3699.09,822.983 3675.49,826.653 3651.32,826.653C3618.18,826.653 3588.25,820.608 3561.57,808.524C3534.87,796.453 3511.99,779.866 3492.87,758.791C3473.78,737.72 3459.03,712.733 3448.63,683.783C3438.24,654.858 3433.04,623.528 3433.04,589.828C3433.04,556.103 3438.24,524.778 3448.63,495.849C3459.03,466.92 3473.91,441.762 3493.3,420.42C3512.68,399.057 3536.14,382.345 3563.67,370.274C3591.21,358.187 3621.83,352.141 3655.55,352.141C3680.26,352.141 3704,356.083 3726.76,363.941" style="fill:rgb(23,20,21);fill-rule:nonzero;"/><path d="M4009.32,544.306L4177.04,362.273L4297.57,362.273L4123.95,548.515L4316.95,815.694L4199.79,815.694L4057.36,619.319L4009.32,670.735L4009.32,815.694L3909.03,815.694L3909.03,204.66L4009.32,204.66L4009.32,544.306Z" style="fill:rgb(23,20,21);fill-rule:nonzero;"/><path d="M695.7,768.92C695.7,948.586 550.054,1094.23 370.383,1094.23C190.729,1094.23 45.075,948.586 45.075,768.92C45.075,589.253 190.729,443.607 370.383,443.607C550.054,443.607 695.7,589.253 695.7,768.92" style="fill:rgb(194,166,225);fill-rule:nonzero;"/><path d="M583.065,768.92C583.065,886.382 487.844,981.59 370.39,981.59C252.931,981.59 157.71,886.382 157.71,768.92C157.71,651.457 252.931,556.249 370.39,556.249C487.844,556.249 583.065,651.457 583.065,768.92" style="fill:rgb(145,100,204);fill-rule:nonzero;"/><path d="M479.928,768.92C479.928,829.42 430.882,878.461 370.386,878.461C309.89,878.461 260.844,829.42 260.844,768.92C260.844,708.42 309.89,659.378 370.386,659.378C430.882,659.378 479.928,708.42 479.928,768.92" style="fill:rgb(119,61,189);fill-rule:nonzero;"/></g></svg>