<svg clip-rule="evenodd" fill-rule="evenodd" stroke-linejoin="round" stroke-miterlimit="2" viewBox="0 0 1500 220" xmlns="http://www.w3.org/2000/svg"><path d="m1470.86 49.45c17.51 17.53 26.56 43.73 26.18 75.76 0 5.99-.35 10.19-.37 10.37l-.1 1.26h-133.2c3.63 31.08 20.14 47.5 47.83 47.5 20.1 0 33.51-8.24 38.78-23.83l.3-.95h45.71l-.42 1.7c-8.85 36.24-41.05 58.74-84.01 58.74-56.71 0-93.36-37.49-93.36-95.51 0-59.03 36.8-98.7 91.57-98.7 25.91 0 45.62 8.18 61.09 23.66zm-106.35 55.97h88.14c-2.44-28.6-17.62-44.32-42.88-44.32-24.16 0-40.59 16.12-45.26 44.32zm-1364.51-78.225 46.97-.005v145.79h86.51v42.08h-133.48zm584.3-2.475c42.13 0 68.29 28.79 68.29 75.14v115.2h-45.11v-107.4c0-27.75-12.99-43.66-35.64-43.66-22.72 0-37.41 16.16-37.41 41.17v109.89h-45.12v-107.4c0-27.75-13.11-43.66-35.98-43.66-22.73 0-37.42 16.16-37.42 41.17v109.89h-45.11v-186.08h41.54v21.97c12.14-16.96 31.31-26.23 54.5-26.23 25.86 0 46.27 11.3 57.73 31.9 12.79-20.6 33.9-31.9 59.73-31.9zm112.78 192.81v-187.87h44.5v187.87zm188.28-192.81c43.08 0 68.8 27.82 68.8 74.42v115.92h-44.98v-106.7c0-29.49-12.66-45.07-36.59-45.07-24.1 0-39.07 17.41-39.07 45.43v106.34h-44.98v-186.08h41.42v22.18c12.07-17.54 30.69-26.44 55.4-26.44zm192.41 0c51.74 0 79.08 23.49 79.08 67.92v123.09h-41.07v-21.22c-13.91 16.92-33.24 25.49-57.52 25.49-38.84 0-67.02-23.63-67.02-56.19 0-33.71 22.63-53.87 65.46-58.3l55.53-5.58v-9.42c0-25.92-18.74-31.36-34.46-31.36-22.12 0-33.97 8.91-37.32 28.04l-.2 1.14h-45.3l.2-1.56c5.35-40.01 34.69-62.05 82.62-62.05zm34.11 104.37-45.29 5.85c-19.18 2.21-29.31 11.45-29.31 26.74 0 15.35 12.56 25.67 31.26 25.67 27.14 0 43.34-16.78 43.34-44.88zm144.29-129.09.01 28.06h39.1v38.11h-39.11v86.78c0 17.09 7.46 25.39 22.79 25.39 6.12 0 10.77-.34 14.7-1.04l1.62-.3v37.76l-1.08.23c-8.69 1.9-14.96 2.54-24.83 2.54-38.13 0-58.28-21.47-58.28-62.08v-89.28h-29.52v-38.12h6.45c3.23 0 11.87-.7 16.87-6.04 5.16-5.5 6.2-13.16 6.2-17.58v-4.43zm-975.16 138.13v-108.47h45.28v186.08h-41.35v-23.34c-12.7 18.08-31.88 27.6-55.76 27.6-41.96 0-66.03-25.06-66.03-68.74v-121.6h45.27v116.27c0 23.12 11.56 35.86 32.55 35.86 24.33 0 40.04-17.14 40.04-43.66z"/></svg>