<svg height="22" viewBox="0 0 150 22" width="150" xmlns="http://www.w3.org/2000/svg"><path d="m15.333 2.473c-1.547-1.548-3.518-2.366-6.109-2.366-5.477 0-9.157 3.967-9.157 9.87 0 5.802 3.665 9.551 9.336 9.551 4.296 0 7.516-2.25 8.401-5.874l.042-.17h-4.571l-.03.095c-.527 1.559-1.868 2.383-3.878 2.383-2.769 0-4.42-1.642-4.783-4.75h13.32l.01-.126c.002-.018.037-.438.037-1.037.038-3.203-.867-5.823-2.618-7.576m-10.635 5.597c.467-2.82 2.11-4.432 4.526-4.432 2.526 0 4.044 1.572 4.288 4.432z" transform="translate(131.753 2.472)"/><path d="m0 2.72v18.786h13.348v-4.208h-8.651v-14.579h-4.697m58.43-.247c-2.583 0-4.694 1.13-5.973 3.19-1.146-2.06-3.187-3.19-5.773-3.19-2.319 0-4.236.927-5.45 2.623v-2.197h-4.154v18.608h4.511v-10.989c0-2.501 1.469-4.117 3.742-4.117 2.287 0 3.598 1.591 3.598 4.366v10.74h4.512v-10.989c0-2.501 1.469-4.117 3.741-4.117 2.265 0 3.564 1.591 3.564 4.366v10.74h4.511v-11.52c0-4.635-2.616-7.514-6.829-7.514m11.278 19.281h4.45v-18.787h-4.45zm18.828-19.281c-2.471 0-4.333.89-5.54 2.644v-2.218h-4.142v18.608h4.498v-10.634c0-2.802 1.497-4.543 3.907-4.543 2.393 0 3.659 1.558 3.659 4.507v10.67h4.498v-11.592c0-4.66-2.572-7.442-6.88-7.442m19.241 0c-4.793 0-7.727 2.204-8.262 6.205l-.02.156h4.53l.02-.114c.335-1.913 1.52-2.804 3.732-2.804 1.572 0 3.446.544 3.446 3.136v.942l-5.553.558c-4.283.443-6.546 2.459-6.546 5.83 0 3.256 2.818 5.619 6.702 5.619 2.428 0 4.361-.857 5.752-2.549v2.122h4.107v-12.309c0-4.443-2.734-6.792-7.908-6.792m3.411 10.437v1.338c0 2.81-1.62 4.488-4.334 4.488-1.87 0-3.126-1.032-3.126-2.567 0-1.529 1.013-2.453 2.931-2.674zm14.429-12.909h-4.508v.443c0 .442-.104 1.208-.62 1.758-.5.534-1.364.604-1.687.604h-.645v3.812h2.952v8.928c0 4.061 2.015 6.208 5.828 6.208.987 0 1.614-.064 2.483-.254l.108-.023v-3.776l-.162.03c-.393.07-.858.104-1.47.104-1.533 0-2.279-.83-2.279-2.539v-8.678h3.911v-3.811h-3.91v-2.806m-97.517 13.813c0 2.652-1.571 4.366-4.004 4.366-2.099 0-3.255-1.274-3.255-3.586v-11.627h-4.527v12.16c0 4.368 2.407 6.874 6.603 6.874 2.388 0 4.306-.952 5.576-2.76v2.334h4.135v-18.608h-4.528z"/></svg>
