<svg clip-rule="evenodd" fill-rule="evenodd" stroke-linejoin="round" stroke-miterlimit="2" viewBox="0 0 1266 1266" xmlns="http://www.w3.org/2000/svg"><path d="m.975.975h1264.87v1264.87h-1264.87z" fill="none"/><g fill-rule="nonzero"><path d="m187.421 869.458h22.333v67.046h-22.333zm-59.167 0h23.746l17.988 29.809 14.145-24.25v33.75l-16.116 27.737zm-.05 67.046v-60.829l20.867 35.013v25.816z" fill="#58595b"/><path d="m220.967 882.846h22.383v53.654h-22.383zm0-20.458h22.383v14.245h-22.383z" fill="#58595b"/><path d="m279.322 936.504v-12.529h9.904v-6.721h22.329v5.862l-13.387 13.388zm0-40.267v-13.392h18.846l13.387 13.392v8.033h-22.329v-8.033zm-3.538 40.267h-8.941l-13.388-13.388v-26.879l13.388-13.392h8.941z" fill="#58595b"/><path d="m356.118 936.504v-40.267h-31.779v-6.671l6.721-6.721h33.495l13.388 13.392v40.267zm-3.538-31.225v9.296h-11.516v9.4h11.516v5.912l-6.666 6.617h-17.079l-8.992-8.842v-13.437l8.992-8.946z" fill="#58595b"/><path d="m423.415 896.236h-9.5v-5.862l7.48-7.525h13.541l10.863 12.529v13.892h-22.384zm-35.416-13.387h22.333v53.654h-22.333z" fill="#58595b"/><path d="m478.082 936.504v-12.529h30.013v5.808l-6.671 6.721zm0-21.525v-9.346h11.771v-9.396h-11.771v-13.392h18.946l13.387 13.392v18.742zm-3.537 21.525h-8.942l-13.388-13.388v-26.879l13.388-13.392h8.942z" fill="#58595b"/><path d="m545.936 882.848v-13.388h25.058l13.392 13.388v22.987l-13.392 13.442h-25.058v-13.442h16.217v-22.987zm-25.463-13.388h21.93v67.046h-21.93z" fill="#58595b"/><path d="m628.997 896.236h-9.5v-5.862l7.479-7.525h13.542l10.862 12.529v13.892h-22.383zm-35.417-13.387h22.333v53.654h-22.333z" fill="#58595b"/><path d="m718.07 923.115-13.387 13.388h-14.959v-12.53h5.559v-27.737h-5.559v-13.388h14.959l13.387 13.388zm-37.692.858h5.813v12.53h-15.008l-13.388-13.388v-26.879l13.388-13.388h15.008v13.388h-5.813z" fill="#58595b"/><path d="m786.629 936.504h-22.333v-74.116h22.333zm-36.629-12.529h10.763v7.225l-5.305 5.304h-15.712l-12.075-12.075v-29.508l12.075-12.075h21.017v13.392h-10.763z" fill="#58595b"/><path d="m854.838 936.504h-22.334v-53.658h22.334zm-35.821-13.387h9.954v6.666l-6.467 6.721h-12.379l-13.442-13.387v-40.271h22.334z" fill="#58595b"/><path d="m890.752 936.504v-12.529h9.904v-6.721h22.329v5.862l-13.387 13.388zm0-40.267v-13.392h18.846l13.387 13.392v8.033h-22.329v-8.033zm-3.538 40.267h-8.933l-13.388-13.388v-26.879l13.388-13.392h8.933z" fill="#58595b"/><path d="m958.654 882.846h12.025v13.387h-12.025zm-3.533 40.271h14.75v13.387h-23.646l-13.437-13.387v-26.879h-4.446v-13.392h4.446v-5.808l22.333-7.58z" fill="#58595b"/><path d="m978.463 882.846h22.387v53.654h-22.387zm0-20.458h22.387v14.245h-22.387z" fill="#58595b"/><path d="m1071.22 923.115-13.38 13.388h-14.96v-12.53h5.55v-27.737h-5.55v-13.388h14.96l13.38 13.388zm-37.69.858h5.81v12.53h-15l-13.39-13.388v-26.879l13.39-13.388h15v13.388h-5.81z" fill="#58595b"/><path d="m1117.05 896.236h-9.6v-5.862l7.48-7.525h12.43l12.07 12.075v41.579h-22.38zm-35.77-13.387h22.53v53.654h-22.53z" fill="#58595b"/><path d="m915.647 330.313h-212.771l-68.983 119.492h-.959l-68.983-119.492h-212.771l-282.246 488.85h141.125l211.675-366.638h103.609l108.07 187.184 108.071-187.184h103.604l211.682 366.638h141.11z" fill="#58595b"/><path d="m472.141 782.627c-10.483 0-19.054-8.571-19.054-19.05v-46.663c0-10.483 8.571-19.058 19.054-19.058 10.475 0 19.046 8.575 19.046 19.058v46.663c0 10.479-8.571 19.05-19.046 19.05" fill="#58595b"/><path d="m473.808 714.09c0 3.812-3.091 6.9-6.9 6.9-3.812 0-6.904-3.088-6.904-6.9 0-3.813 3.092-6.9 6.904-6.9 3.809 0 6.9 3.087 6.9 6.9" fill="#fff"/><path d="m794.684 782.627c-10.475 0-19.054-8.571-19.054-19.05v-46.663c0-10.483 8.579-19.058 19.054-19.058 10.484 0 19.054 8.575 19.054 19.058v46.663c0 10.479-8.57 19.05-19.054 19.05" fill="#58595b"/><path d="m796.356 714.09c0 3.812-3.092 6.9-6.9 6.9-3.813 0-6.904-3.088-6.904-6.9 0-3.813 3.091-6.9 6.904-6.9 3.808 0 6.9 3.087 6.9 6.9" fill="#fff"/><path d="m277.426 702.845 8.634-14.954-108.925-55.762-8.634 14.954z" fill="#fff"/><path d="m244.723 759.491 8.633-14.954-108.925-55.763-8.633 14.954z" fill="#fff"/><path d="m991.131 705.201 108.919-55.758-8.63-14.955-108.922 55.759z" fill="#fff"/><path d="m1023.84 761.846 108.92-55.758-8.64-14.954-108.92 55.758z" fill="#fff"/></g></svg>