<?xml version="1.0" encoding="UTF-8" standalone="no"?><!DOCTYPE svg PUBLIC "-//W3C//DTD SVG 1.1//EN" "http://www.w3.org/Graphics/SVG/1.1/DTD/svg11.dtd"><svg width="100%" height="100%" viewBox="0 0 1266 1266" version="1.1" xmlns="http://www.w3.org/2000/svg" xmlns:xlink="http://www.w3.org/1999/xlink" xml:space="preserve" xmlns:serif="http://www.serif.com/" style="fill-rule:evenodd;clip-rule:evenodd;stroke-linejoin:round;stroke-miterlimit:2;"><rect x="0.975" y="0.975" width="1264.87" height="1264.87" style="fill:none;"/><g><path d="M187.421,869.458L209.754,869.458L209.754,936.504L187.421,936.504L187.421,869.458ZM128.254,869.458L152,869.458L169.988,899.267L184.133,875.017L184.133,908.767L168.017,936.504L128.254,869.458ZM128.204,936.504L128.204,875.675L149.071,910.688L149.071,936.504L128.204,936.504Z" style="fill:rgb(88,89,91);fill-rule:nonzero;"/><path d="M220.967,882.846L243.35,882.846L243.35,936.5L220.967,936.5L220.967,882.846ZM220.967,862.388L243.35,862.388L243.35,876.633L220.967,876.633L220.967,862.388Z" style="fill:rgb(88,89,91);fill-rule:nonzero;"/><path d="M279.322,936.504L279.322,923.975L289.226,923.975L289.226,917.254L311.555,917.254L311.555,923.116L298.168,936.504L279.322,936.504ZM279.322,896.237L279.322,882.845L298.168,882.845L311.555,896.237L311.555,904.27L289.226,904.27L289.226,896.237L279.322,896.237ZM275.784,936.504L266.843,936.504L253.455,923.116L253.455,896.237L266.843,882.845L275.784,882.845L275.784,936.504Z" style="fill:rgb(88,89,91);fill-rule:nonzero;"/><path d="M356.118,936.504L356.118,896.237L324.339,896.237L324.339,889.566L331.06,882.845L364.555,882.845L377.943,896.237L377.943,936.504L356.118,936.504ZM352.58,905.279L352.58,914.575L341.064,914.575L341.064,923.975L352.58,923.975L352.58,929.887L345.914,936.504L328.835,936.504L319.843,927.662L319.843,914.225L328.835,905.279L352.58,905.279Z" style="fill:rgb(88,89,91);fill-rule:nonzero;"/><path d="M423.415,896.236L413.915,896.236L413.915,890.374L421.395,882.849L434.936,882.849L445.799,895.378L445.799,909.27L423.415,909.27L423.415,896.236ZM387.999,882.849L410.332,882.849L410.332,936.503L387.999,936.503L387.999,882.849Z" style="fill:rgb(88,89,91);fill-rule:nonzero;"/><path d="M478.082,936.504L478.082,923.975L508.095,923.975L508.095,929.783L501.424,936.504L478.082,936.504ZM478.082,914.979L478.082,905.633L489.853,905.633L489.853,896.237L478.082,896.237L478.082,882.845L497.028,882.845L510.415,896.237L510.415,914.979L478.082,914.979ZM474.545,936.504L465.603,936.504L452.215,923.116L452.215,896.237L465.603,882.845L474.545,882.845L474.545,936.504Z" style="fill:rgb(88,89,91);fill-rule:nonzero;"/><path d="M545.936,882.848L545.936,869.46L570.994,869.46L584.386,882.848L584.386,905.835L570.994,919.277L545.936,919.277L545.936,905.835L562.153,905.835L562.153,882.848L545.936,882.848ZM520.473,869.46L542.403,869.46L542.403,936.506L520.473,936.506L520.473,869.46Z" style="fill:rgb(88,89,91);fill-rule:nonzero;"/><path d="M628.997,896.236L619.497,896.236L619.497,890.374L626.976,882.849L640.518,882.849L651.38,895.378L651.38,909.27L628.997,909.27L628.997,896.236ZM593.58,882.849L615.913,882.849L615.913,936.503L593.58,936.503L593.58,882.849Z" style="fill:rgb(88,89,91);fill-rule:nonzero;"/><path d="M718.07,923.115L704.683,936.503L689.724,936.503L689.724,923.973L695.283,923.973L695.283,896.236L689.724,896.236L689.724,882.848L704.683,882.848L718.07,896.236L718.07,923.115ZM680.378,923.973L686.191,923.973L686.191,936.503L671.183,936.503L657.795,923.115L657.795,896.236L671.183,882.848L686.191,882.848L686.191,896.236L680.378,896.236L680.378,923.973Z" style="fill:rgb(88,89,91);fill-rule:nonzero;"/><path d="M786.629,936.504L764.296,936.504L764.296,862.388L786.629,862.388L786.629,936.504ZM750,923.975L760.763,923.975L760.763,931.2L755.458,936.504L739.746,936.504L727.671,924.429L727.671,894.921L739.746,882.846L760.763,882.846L760.763,896.238L750,896.238L750,923.975Z" style="fill:rgb(88,89,91);fill-rule:nonzero;"/><path d="M854.838,936.504L832.504,936.504L832.504,882.846L854.838,882.846L854.838,936.504ZM819.017,923.117L828.971,923.117L828.971,929.783L822.504,936.504L810.125,936.504L796.683,923.117L796.683,882.846L819.017,882.846L819.017,923.117Z" style="fill:rgb(88,89,91);fill-rule:nonzero;"/><path d="M890.752,936.504L890.752,923.975L900.656,923.975L900.656,917.254L922.985,917.254L922.985,923.116L909.598,936.504L890.752,936.504ZM890.752,896.237L890.752,882.845L909.598,882.845L922.985,896.237L922.985,904.27L900.656,904.27L900.656,896.237L890.752,896.237ZM887.214,936.504L878.281,936.504L864.893,923.116L864.893,896.237L878.281,882.845L887.214,882.845L887.214,936.504Z" style="fill:rgb(88,89,91);fill-rule:nonzero;"/><path d="M958.654,882.846L970.679,882.846L970.679,896.233L958.654,896.233L958.654,882.846ZM955.121,923.117L969.871,923.117L969.871,936.504L946.225,936.504L932.788,923.117L932.788,896.238L928.342,896.238L928.342,882.846L932.788,882.846L932.788,877.038L955.121,869.458L955.121,923.117Z" style="fill:rgb(88,89,91);fill-rule:nonzero;"/><path d="M978.463,882.846L1000.85,882.846L1000.85,936.5L978.463,936.5L978.463,882.846ZM978.463,862.388L1000.85,862.388L1000.85,876.633L978.463,876.633L978.463,862.388Z" style="fill:rgb(88,89,91);fill-rule:nonzero;"/><path d="M1071.22,923.115L1057.84,936.503L1042.88,936.503L1042.88,923.973L1048.43,923.973L1048.43,896.236L1042.88,896.236L1042.88,882.848L1057.84,882.848L1071.22,896.236L1071.22,923.115ZM1033.53,923.973L1039.34,923.973L1039.34,936.503L1024.34,936.503L1010.95,923.115L1010.95,896.236L1024.34,882.848L1039.34,882.848L1039.34,896.236L1033.53,896.236L1033.53,923.973Z" style="fill:rgb(88,89,91);fill-rule:nonzero;"/><path d="M1117.05,896.236L1107.45,896.236L1107.45,890.374L1114.93,882.849L1127.36,882.849L1139.43,894.924L1139.43,936.503L1117.05,936.503L1117.05,896.236ZM1081.28,882.849L1103.81,882.849L1103.81,936.503L1081.28,936.503L1081.28,882.849Z" style="fill:rgb(88,89,91);fill-rule:nonzero;"/><path d="M915.647,330.313L702.876,330.313L633.893,449.805L632.934,449.805L563.951,330.313L351.18,330.313L68.934,819.163L210.059,819.163L421.734,452.525L525.343,452.525L633.413,639.709L741.484,452.525L845.088,452.525L1056.77,819.163L1197.88,819.163L915.647,330.313Z" style="fill:rgb(88,89,91);fill-rule:nonzero;"/><path d="M472.141,782.627C461.658,782.627 453.087,774.056 453.087,763.577L453.087,716.914C453.087,706.431 461.658,697.856 472.141,697.856C482.616,697.856 491.187,706.431 491.187,716.914L491.187,763.577C491.187,774.056 482.616,782.627 472.141,782.627" style="fill:rgb(88,89,91);fill-rule:nonzero;"/><path d="M473.808,714.09C473.808,717.902 470.717,720.99 466.908,720.99C463.096,720.99 460.004,717.902 460.004,714.09C460.004,710.277 463.096,707.19 466.908,707.19C470.717,707.19 473.808,710.277 473.808,714.09" style="fill:white;fill-rule:nonzero;"/><path d="M794.684,782.627C784.209,782.627 775.63,774.056 775.63,763.577L775.63,716.914C775.63,706.431 784.209,697.856 794.684,697.856C805.168,697.856 813.738,706.431 813.738,716.914L813.738,763.577C813.738,774.056 805.168,782.627 794.684,782.627" style="fill:rgb(88,89,91);fill-rule:nonzero;"/><path d="M796.356,714.09C796.356,717.902 793.264,720.99 789.456,720.99C785.643,720.99 782.552,717.902 782.552,714.09C782.552,710.277 785.643,707.19 789.456,707.19C793.264,707.19 796.356,710.277 796.356,714.09" style="fill:white;fill-rule:nonzero;"/><path d="M277.426,702.845L286.06,687.891L177.135,632.129L168.501,647.083L277.426,702.845Z" style="fill:white;fill-rule:nonzero;"/><path d="M244.723,759.491L253.356,744.537L144.431,688.774L135.798,703.728L244.723,759.491Z" style="fill:white;fill-rule:nonzero;"/><path d="M991.131,705.201L1100.05,649.443L1091.42,634.488L982.498,690.247L991.131,705.201Z" style="fill:white;fill-rule:nonzero;"/><path d="M1023.84,761.846L1132.76,706.088L1124.12,691.134L1015.2,746.892L1023.84,761.846Z" style="fill:white;fill-rule:nonzero;"/></g></svg>
