<svg clip-rule="evenodd" fill-rule="evenodd" stroke-linejoin="round" stroke-miterlimit="2" viewBox="0 0 103 34" xmlns="http://www.w3.org/2000/svg"><path d="m0 0h102.047v34h-102.047z" fill="none"/><path d="m0 0h102.047v34h-102.047z" fill="#33367c"/><g fill-rule="nonzero"><path d="m56.801 24.847h-1.777v-6.65h1.777zm0-8.017h-1.777v-1.445h1.777z" fill="#f5f4f4"/><path d="m68.722 18.196c-.2.562-.436 1.115-.704 1.661-.269.545-.577 1.066-.927 1.56-.348.494-.738.951-1.168 1.372-.431.42-.907.783-1.43 1.089-.521.305-1.088.545-1.701.719s-1.277.262-1.993.262c-.123 0-.239-.02-.348-.061-.11-.041-.206-.098-.288-.17s-.145-.156-.191-.252c-.046-.097-.068-.201-.068-.311v-5.869h1.777v5.002c.433 0 .849-.084 1.248-.253.398-.168.775-.391 1.131-.667.355-.277.684-.592.988-.944.303-.353.572-.715.81-1.086.237-.371.438-.736.604-1.092.167-.357.291-.677.373-.96z" fill="#f5f4f4"/><path d="m72.31 24.847h-1.777v-6.65h1.777zm0-8.017h-1.777v-1.445h1.777z" fill="#f5f4f4"/><path d="m82.556 22.601c0 .275-.039.522-.116.742-.077.219-.18.412-.308.578s-.275.308-.444.425c-.169.116-.345.212-.53.286-.184.073-.372.128-.561.162-.188.036-.367.053-.536.053h-4.813v-1.6h4.799c.241 0 .424-.055.547-.166.123-.11.185-.27.185-.48-.023-.426-.262-.64-.718-.64h-2.755c-.392 0-.725-.061-.998-.184s-.496-.277-.666-.461c-.172-.185-.295-.384-.369-.597-.076-.214-.113-.412-.113-.597 0-.357.07-.657.211-.901.142-.244.32-.442.534-.594.213-.152.446-.261.697-.329s.485-.101.704-.101h4.368v1.599h-4.354c-.091 0-.163.009-.215.028-.053.018-.092.043-.117.074-.025.03-.039.063-.044.098s-.007.069-.007.101c.005.066.018.117.041.154.022.037.051.064.086.08.033.017.072.026.115.028.044.002.086.003.127.003h2.755c.456 0 .843.074 1.162.221.319.148.576.333.772.557.197.224.338.467.428.73.088.262.133.506.133.731" fill="#f5f4f4"/><path d="m91.796 24.847h-1.777v-4.411c0-.209-.062-.368-.185-.477s-.306-.163-.547-.163h-2.31v5.051h-1.778v-5.857c0-.111.023-.214.069-.311.046-.096.109-.181.191-.252s.178-.128.287-.169c.11-.041.226-.061.349-.061h3.206c.246 0 .511.039.793.116.282.078.552.203.806.376v-.492h2.407c.169 0 .346.017.533.051.186.036.372.09.558.163.183.075.36.169.529.287.169.117.316.258.444.424s.231.358.308.576c.077.217.116.463.116.738v4.411h-1.777v-4.411c0-.209-.058-.368-.175-.477-.115-.109-.295-.163-.536-.163h-1.6c.06.197.089.41.089.64z" fill="#f5f4f4"/><path d="m64.398 8.308c.109 0 .218.118.324.355.107.238.16.416.16.536 0 .161-.101.242-.304.242-.105 0-.188-.083-.25-.25-.141-.36-.211-.573-.211-.641 0-.161.093-.242.281-.242m.945 1.289.016-.062.305-1.071c.042-.161.135-.242.281-.242.192 0 .289.075.289.227 0 .12-.136.503-.406 1.148h.406c.208 0 .312.089.312.266 0 .172-.104.258-.312.258h-2.164c-.177 0-.266-.089-.266-.266 0-.172.094-.258.281-.258zm-.523 1.899v.96c0 .193.101.294.305.305l.57.008.398-.016c.199 0 .297.089.297.266 0 .183-.128.278-.383.289l-.671.008c-.443 0-.731-.042-.864-.125s-.202-.227-.207-.43v-1.265h-.195c-.183 0-.274-.089-.274-.266 0-.172.091-.258.274-.258h.844v-.422c0-.177.093-.265.281-.265.182 0 .273.088.273.265v.422h.789c.193 0 .289.089.289.266 0 .172-.096.258-.289.258zm-1.164-3.157v5.805c0 .208-.091.312-.274.312-.182 0-.273-.104-.273-.312v-5.93c-.036-.515.206-.755.726-.719h2.704c.515-.036.755.204.718.719v5.485c.021.484-.208.726-.687.726h-.492c-.245 0-.367-.101-.367-.304 0-.199.117-.297.351-.297h.359c.177-.005.269-.097.274-.274v-5.203c-.005-.187-.102-.284-.289-.289h-2.469c-.183.005-.276.099-.281.281m-1.266 3.188c.078 0 .138.028.18.086.036.057.101.328.195.812l.11.836c0 .177-.086.266-.258.266-.099 0-.169-.039-.211-.117l-.016-.055-.195-1.453-.024-.18c0-.13.074-.195.219-.195m-1.031-.969.891-.055-.079-.218c-.036-.089-.054-.154-.054-.196 0-.13.073-.195.218-.195.11 0 .191.062.243.187.234.505.351.841.351 1.008 0 .152-.083.227-.25.227-.109 0-.206-.128-.289-.383l-.031.008-.414.047-.024.008v3.156c0 .223-.096.336-.289.336-.192 0-.289-.113-.289-.336v-3.094l-.211.023-.507.047-.157.016c-.182 0-.273-.097-.273-.289 0-.141.078-.23.234-.266l.383-.023.016-.024.507-.765-.117-.11c-.292-.286-.542-.505-.75-.656-.145-.104-.218-.203-.218-.297 0-.182.081-.273.242-.273.062 0 .161.047.297.14.223-.411.386-.756.488-1.035.101-.278.225-.418.371-.418.219 0 .328.091.328.274 0 .187-.27.682-.812 1.484l.359.32.102.094.546-.984c.079-.136.172-.203.282-.203.208 0 .312.089.312.265 0 .11-.341.661-1.023 1.657l-.313.437zm-.625.945c.161 0 .242.11.242.328 0 .271-.062.727-.187 1.368-.068.348-.183.523-.344.523-.172 0-.258-.083-.258-.25 0-.067.023-.161.07-.281.136-.349.211-.81.227-1.383.011-.203.094-.305.25-.305" fill="#fff"/><path d="m73.582 8.464c.141.511.401.964.781 1.359.214-.192.435-.434.664-.726.23-.292.344-.474.344-.547 0-.058-.036-.086-.109-.086zm-.031 5.172h1.703c.172.005.255-.078.25-.25v-1.024c.005-.171-.078-.254-.25-.25h-1.703c-.172-.004-.255.079-.25.25v1.024c-.005.172.078.255.25.25m-.133-2.117h1.992c.526-.036.771.211.735.742v1.226c.036.532-.209.779-.735.743h-1.992c-.531.036-.778-.211-.742-.743v-1.226c-.036-.531.211-.778.742-.742m1.414-1.297c.458.333.948.567 1.469.703.297.078.445.211.445.398 0 .23-.106.344-.32.344-.193 0-.509-.118-.949-.355-.441-.238-.798-.476-1.075-.715-.359.286-.746.547-1.16.781s-.686.352-.816.352c-.177 0-.266-.107-.266-.321 0-.151.112-.268.336-.351.5-.183.987-.477 1.461-.883-.308-.339-.563-.758-.766-1.258-.38.63-.661.945-.843.945-.204 0-.305-.098-.305-.296 0-.074.073-.199.219-.375.401-.516.723-1.099.968-1.75.079-.208.196-.313.352-.313.214 0 .32.099.32.297 0 .062-.054.211-.164.445h1.735c.463 0 .695.149.695.446 0 .167-.149.457-.449.871s-.595.758-.887 1.035m-3.133 1.265c.141 0 .25.199.328.594.136.677.203 1.068.203 1.172 0 .172-.088.258-.265.258-.172 0-.274-.138-.305-.414-.057-.511-.117-.919-.18-1.227l-.023-.172c0-.14.081-.211.242-.211m-1.062-.914.023-.007.18-.008.359-.024.36-.015-.094-.282c-.036-.083-.055-.145-.055-.187 0-.146.081-.219.242-.219.099 0 .18.058.242.172l.344.883.016.117c0 .156-.089.234-.266.234-.13 0-.226-.098-.289-.296l-.148.015-.414.055v3.141c0 .223-.097.335-.289.335-.193 0-.289-.112-.289-.335v-3.071l-.61.063-.258.023c-.198 0-.297-.099-.297-.297 0-.156.094-.242.282-.258l.375-.015.562-.844-.008-.008c-.307-.281-.612-.528-.914-.742-.14-.099-.211-.195-.211-.289 0-.187.094-.281.282-.281.062 0 .159.05.289.148.229-.395.409-.765.539-1.109.083-.219.2-.328.351-.328.203 0 .305.096.305.289 0 .198-.268.677-.805 1.437l.469.407.547-.961c.073-.105.161-.157.266-.157.198 0 .296.094.296.282 0 .223-.46.934-1.382 2.132m-.68.938c.167 0 .25.094.25.281 0 .281-.047.665-.141 1.152-.093.488-.229.731-.406.731-.182 0-.273-.083-.273-.25 0-.063.023-.153.07-.273.141-.36.219-.792.234-1.297.005-.23.094-.344.266-.344" fill="#fff"/><path d="m82.087 8.19c-.255 0-.383-.114-.383-.344 0-.229.128-.344.383-.344h3.148c.255 0 .383.115.383.344 0 .23-.128.344-.383.344zm2.703 2.203v3.117c.036.652-.261.956-.89.914h-.672c-.292 0-.438-.125-.438-.375 0-.245.146-.367.438-.367h.484c.255.005.38-.12.375-.375v-2.914h-2.359c-.271 0-.407-.114-.407-.344 0-.229.136-.343.407-.343h3.804c.282 0 .422.114.422.343 0 .23-.14.344-.422.344zm-4.156-3.219c.239 0 .359.115.359.344 0 .151-.292.441-.875.867-.583.427-.973.641-1.172.641-.203 0-.304-.128-.304-.383 0-.14.128-.273.382-.398.407-.219.826-.513 1.258-.883.146-.125.263-.188.352-.188m-.235 3.172v3.727c0 .276-.112.414-.335.414-.224 0-.336-.138-.336-.414v-3c-.407.417-.683.625-.829.625-.213 0-.32-.122-.32-.367 0-.141.105-.292.313-.453.578-.449 1.101-1.019 1.57-1.711.109-.152.229-.227.359-.227.245 0 .368.106.368.32 0 .167-.263.529-.79 1.086" fill="#fff"/><path d="m93.341 9.597c-.036.948-.12 1.739-.25 2.375s-.332 1.188-.605 1.66c-.274.472-.509.707-.708.707-.213 0-.32-.109-.32-.328 0-.089.063-.198.188-.328.682-.75 1.042-2.112 1.078-4.086h-.524c-.245 0-.367-.109-.367-.328 0-.224.122-.336.367-.336h.539l.008-.344.016-.492-.008-.625c0-.229.107-.344.32-.344.208 0 .313.117.313.352l-.016 1.453h.782c.495 0 .742.214.742.641l-.063 1.64c-.057 1.167-.13 1.964-.219 2.391-.109.531-.528.797-1.257.797-.25 0-.375-.12-.375-.36 0-.135.051-.234.156-.297.047-.031.192-.049.437-.054.313-.027.48-.269.5-.727.068-.761.118-1.481.149-2.164l.023-.531.016-.391c0-.187-.097-.281-.289-.281zm-3.156 1.797h.781c.146-.005.219-.078.219-.219v-.297h-1zm0-.953h1v-.274c0-.145-.073-.221-.219-.226h-.781zm-1.485.437v.297c0 .141.071.214.211.219h.75v-.516zm0-.437h.961v-.5h-.75c-.14.005-.211.081-.211.226zm.961-1.399h-1.586c-.187 0-.281-.089-.281-.265 0-.172.094-.258.281-.258h1.586v-.492l-.234.023-.242.016-.891.062c-.208 0-.312-.094-.312-.281 0-.141.062-.227.187-.258l.391-.031c1.192-.047 2.065-.153 2.617-.32l.156-.024c.208 0 .313.105.313.313 0 .151-.141.251-.422.3-.281.05-.628.101-1.039.153v.539h1.414c.192 0 .289.089.289.265 0 .172-.097.258-.289.258h-1.414v.446h.961c.395 0 .593.187.593.562v1.219c0 .386-.203.578-.609.578h-.945v.469h1.328c.192 0 .289.086.289.258 0 .171-.097.257-.289.257h-1.328v.571l.953-.086.281-.031c.156 0 .234.083.234.25 0 .14-.073.223-.218.25l-.867.125-2.219.226-.25.024c-.208 0-.313-.105-.313-.313 0-.198.146-.3.438-.305l1.437-.101v-.61h-1.343c-.188 0-.282-.086-.282-.257 0-.172.094-.258.282-.258h1.343v-.469h-.906c-.406 0-.609-.187-.609-.562v-1.219c-.005-.386.192-.578.593-.578h.922z" fill="#fff"/><path d="m23.315 24.025c0 .172-.036.332-.107.479-.073.149-.168.276-.288.384s-.261.192-.425.254c-.164.061-.338.092-.524.092-.164 0-.329-.027-.497-.083-.167-.056-.316-.145-.446-.268l-9.74-9.155v9.321h-2.666v-12.209c0-.246.076-.469.23-.669.153-.2.35-.349.59-.448.252-.092.512-.115.779-.069.266.047.495.159.687.337l9.741 9.145v-9.32h2.666z" fill="#eeb718"/><path d="m38.313 19.642h-8.419v-2.418h8.419zm1.2 5.408h-9.619c-.37 0-.773-.059-1.209-.176-.439-.116-.843-.309-1.216-.576-.372-.268-.684-.615-.933-1.043-.25-.428-.375-.952-.375-1.573v-8.657c0-.166.034-.323.104-.47.067-.149.162-.278.281-.388.12-.111.262-.197.426-.259.164-.061.341-.092.533-.092h12.008v2.4h-10.686v7.466c0 .313.093.553.277.719.185.166.455.249.811.249h9.598z" fill="#eeb718"/><path d="m55.187 14.216h-5.876v10.834h-2.666v-10.834h-5.886v-2.399h14.428z" fill="#eeb718"/></g></svg>