<?xml version="1.0" encoding="UTF-8" standalone="no"?><!DOCTYPE svg PUBLIC "-//W3C//DTD SVG 1.1//EN" "http://www.w3.org/Graphics/SVG/1.1/DTD/svg11.dtd"><svg width="100%" height="100%" viewBox="0 0 103 34" version="1.1" xmlns="http://www.w3.org/2000/svg" xmlns:xlink="http://www.w3.org/1999/xlink" xml:space="preserve" xmlns:serif="http://www.serif.com/" style="fill-rule:evenodd;clip-rule:evenodd;stroke-linejoin:round;stroke-miterlimit:2;"><rect id="Page-1" serif:id="Page 1" x="0" y="0" width="102.047" height="34" style="fill:none;"/><g id="Page-11" serif:id="Page 1"><g id="圖層-1" serif:id="圖層 1"><rect x="0" y="0" width="102.047" height="34" style="fill:rgb(51,54,124);"/><path d="M56.801,24.847L55.024,24.847L55.024,18.197L56.801,18.197L56.801,24.847ZM56.801,16.83L55.024,16.83L55.024,15.385L56.801,15.385L56.801,16.83Z" style="fill:rgb(245,244,244);fill-rule:nonzero;"/><path d="M68.722,18.196C68.522,18.758 68.286,19.311 68.018,19.857C67.749,20.402 67.441,20.923 67.091,21.417C66.743,21.911 66.353,22.368 65.923,22.789C65.492,23.209 65.016,23.572 64.493,23.878C63.972,24.183 63.405,24.423 62.792,24.597C62.179,24.771 61.515,24.859 60.799,24.859C60.676,24.859 60.56,24.839 60.451,24.798C60.341,24.757 60.245,24.7 60.163,24.628C60.081,24.556 60.018,24.472 59.972,24.376C59.926,24.279 59.904,24.175 59.904,24.065L59.904,18.196L61.681,18.196L61.681,23.198C62.114,23.198 62.53,23.114 62.929,22.945C63.327,22.777 63.704,22.554 64.06,22.278C64.415,22.001 64.744,21.686 65.048,21.334C65.351,20.981 65.62,20.619 65.858,20.248C66.095,19.877 66.296,19.512 66.462,19.156C66.629,18.799 66.753,18.479 66.835,18.196L68.722,18.196Z" style="fill:rgb(245,244,244);fill-rule:nonzero;"/><path d="M72.31,24.847L70.533,24.847L70.533,18.197L72.31,18.197L72.31,24.847ZM72.31,16.83L70.533,16.83L70.533,15.385L72.31,15.385L72.31,16.83Z" style="fill:rgb(245,244,244);fill-rule:nonzero;"/><path d="M82.556,22.601C82.556,22.876 82.517,23.123 82.44,23.343C82.363,23.562 82.26,23.755 82.132,23.921C82.004,24.087 81.857,24.229 81.688,24.346C81.519,24.462 81.343,24.558 81.158,24.632C80.974,24.705 80.786,24.76 80.597,24.794C80.409,24.83 80.23,24.847 80.061,24.847L75.248,24.847L75.248,23.247L80.047,23.247C80.288,23.247 80.471,23.192 80.594,23.081C80.717,22.971 80.779,22.811 80.779,22.601C80.756,22.175 80.517,21.961 80.061,21.961L77.306,21.961C76.914,21.961 76.581,21.9 76.308,21.777C76.035,21.654 75.812,21.5 75.642,21.316C75.47,21.131 75.347,20.932 75.273,20.719C75.197,20.505 75.16,20.307 75.16,20.122C75.16,19.765 75.23,19.465 75.371,19.221C75.513,18.977 75.691,18.779 75.905,18.627C76.118,18.475 76.351,18.366 76.602,18.298C76.853,18.23 77.087,18.197 77.306,18.197L81.674,18.197L81.674,19.796L77.32,19.796C77.229,19.796 77.157,19.805 77.105,19.824C77.052,19.842 77.013,19.867 76.988,19.898C76.963,19.928 76.949,19.961 76.944,19.996C76.939,20.031 76.937,20.065 76.937,20.097C76.942,20.163 76.955,20.214 76.978,20.251C77,20.288 77.029,20.315 77.064,20.331C77.097,20.348 77.136,20.357 77.179,20.359C77.223,20.361 77.265,20.362 77.306,20.362L80.061,20.362C80.517,20.362 80.904,20.436 81.223,20.583C81.542,20.731 81.799,20.916 81.995,21.14C82.192,21.364 82.333,21.607 82.423,21.87C82.511,22.132 82.556,22.376 82.556,22.601" style="fill:rgb(245,244,244);fill-rule:nonzero;"/><path d="M91.796,24.847L90.019,24.847L90.019,20.436C90.019,20.227 89.957,20.068 89.834,19.959C89.711,19.85 89.528,19.796 89.287,19.796L86.977,19.796L86.977,24.847L85.199,24.847L85.199,18.99C85.199,18.879 85.222,18.776 85.268,18.679C85.314,18.583 85.377,18.498 85.459,18.427C85.541,18.356 85.637,18.299 85.746,18.258C85.856,18.217 85.972,18.197 86.095,18.197L89.301,18.197C89.547,18.197 89.812,18.236 90.094,18.313C90.376,18.391 90.646,18.516 90.9,18.689L90.9,18.197L93.307,18.197C93.476,18.197 93.653,18.214 93.84,18.248C94.026,18.284 94.212,18.338 94.398,18.411C94.581,18.486 94.758,18.58 94.927,18.698C95.096,18.815 95.243,18.956 95.371,19.122C95.499,19.288 95.602,19.48 95.679,19.698C95.756,19.915 95.795,20.161 95.795,20.436L95.795,24.847L94.018,24.847L94.018,20.436C94.018,20.227 93.96,20.068 93.843,19.959C93.728,19.85 93.548,19.796 93.307,19.796L91.707,19.796C91.767,19.993 91.796,20.206 91.796,20.436L91.796,24.847Z" style="fill:rgb(245,244,244);fill-rule:nonzero;"/><path d="M64.398,8.308C64.507,8.308 64.616,8.426 64.722,8.663C64.829,8.901 64.882,9.079 64.882,9.199C64.882,9.36 64.781,9.441 64.578,9.441C64.473,9.441 64.39,9.358 64.328,9.191C64.187,8.831 64.117,8.618 64.117,8.55C64.117,8.389 64.21,8.308 64.398,8.308M65.343,9.597L65.359,9.535L65.664,8.464C65.706,8.303 65.799,8.222 65.945,8.222C66.137,8.222 66.234,8.297 66.234,8.449C66.234,8.569 66.098,8.952 65.828,9.597L66.234,9.597C66.442,9.597 66.546,9.686 66.546,9.863C66.546,10.035 66.442,10.121 66.234,10.121L64.07,10.121C63.893,10.121 63.804,10.032 63.804,9.855C63.804,9.683 63.898,9.597 64.085,9.597L65.343,9.597ZM64.82,11.496L64.82,12.456C64.82,12.649 64.921,12.75 65.125,12.761L65.695,12.769L66.093,12.753C66.292,12.753 66.39,12.842 66.39,13.019C66.39,13.202 66.262,13.297 66.007,13.308L65.336,13.316C64.893,13.316 64.605,13.274 64.472,13.191C64.339,13.108 64.27,12.964 64.265,12.761L64.265,11.496L64.07,11.496C63.887,11.496 63.796,11.407 63.796,11.23C63.796,11.058 63.887,10.972 64.07,10.972L64.914,10.972L64.914,10.55C64.914,10.373 65.007,10.285 65.195,10.285C65.377,10.285 65.468,10.373 65.468,10.55L65.468,10.972L66.257,10.972C66.45,10.972 66.546,11.061 66.546,11.238C66.546,11.41 66.45,11.496 66.257,11.496L64.82,11.496ZM63.656,8.339L63.656,14.144C63.656,14.352 63.565,14.456 63.382,14.456C63.2,14.456 63.109,14.352 63.109,14.144L63.109,8.214C63.073,7.699 63.315,7.459 63.835,7.495L66.539,7.495C67.054,7.459 67.294,7.699 67.257,8.214L67.257,13.699C67.278,14.183 67.049,14.425 66.57,14.425L66.078,14.425C65.833,14.425 65.711,14.324 65.711,14.121C65.711,13.922 65.828,13.824 66.062,13.824L66.421,13.824C66.598,13.819 66.69,13.727 66.695,13.55L66.695,8.347C66.69,8.16 66.593,8.063 66.406,8.058L63.937,8.058C63.754,8.063 63.661,8.157 63.656,8.339M62.39,11.527C62.468,11.527 62.528,11.555 62.57,11.613C62.606,11.67 62.671,11.941 62.765,12.425L62.875,13.261C62.875,13.438 62.789,13.527 62.617,13.527C62.518,13.527 62.448,13.488 62.406,13.41L62.39,13.355L62.195,11.902L62.171,11.722C62.171,11.592 62.245,11.527 62.39,11.527M61.359,10.558L62.25,10.503L62.171,10.285C62.135,10.196 62.117,10.131 62.117,10.089C62.117,9.959 62.19,9.894 62.335,9.894C62.445,9.894 62.526,9.956 62.578,10.081C62.812,10.586 62.929,10.922 62.929,11.089C62.929,11.241 62.846,11.316 62.679,11.316C62.57,11.316 62.473,11.188 62.39,10.933L62.359,10.941L61.945,10.988L61.921,10.996L61.921,14.152C61.921,14.375 61.825,14.488 61.632,14.488C61.44,14.488 61.343,14.375 61.343,14.152L61.343,11.058L61.132,11.081L60.625,11.128L60.468,11.144C60.286,11.144 60.195,11.047 60.195,10.855C60.195,10.714 60.273,10.625 60.429,10.589L60.812,10.566L60.828,10.542L61.335,9.777L61.218,9.667C60.926,9.381 60.676,9.162 60.468,9.011C60.323,8.907 60.25,8.808 60.25,8.714C60.25,8.532 60.331,8.441 60.492,8.441C60.554,8.441 60.653,8.488 60.789,8.581C61.012,8.17 61.175,7.825 61.277,7.546C61.378,7.268 61.502,7.128 61.648,7.128C61.867,7.128 61.976,7.219 61.976,7.402C61.976,7.589 61.706,8.084 61.164,8.886L61.523,9.206L61.625,9.3L62.171,8.316C62.25,8.18 62.343,8.113 62.453,8.113C62.661,8.113 62.765,8.202 62.765,8.378C62.765,8.488 62.424,9.039 61.742,10.035L61.429,10.472L61.359,10.558ZM60.734,11.503C60.895,11.503 60.976,11.613 60.976,11.831C60.976,12.102 60.914,12.558 60.789,13.199C60.721,13.547 60.606,13.722 60.445,13.722C60.273,13.722 60.187,13.639 60.187,13.472C60.187,13.405 60.21,13.311 60.257,13.191C60.393,12.842 60.468,12.381 60.484,11.808C60.495,11.605 60.578,11.503 60.734,11.503" style="fill:white;fill-rule:nonzero;"/><path d="M73.582,8.464C73.723,8.975 73.983,9.428 74.363,9.823C74.577,9.631 74.798,9.389 75.027,9.097C75.257,8.805 75.371,8.623 75.371,8.55C75.371,8.492 75.335,8.464 75.262,8.464L73.582,8.464ZM73.551,13.636L75.254,13.636C75.426,13.641 75.509,13.558 75.504,13.386L75.504,12.362C75.509,12.191 75.426,12.108 75.254,12.112L73.551,12.112C73.379,12.108 73.296,12.191 73.301,12.362L73.301,13.386C73.296,13.558 73.379,13.641 73.551,13.636M73.418,11.519L75.41,11.519C75.936,11.483 76.181,11.73 76.145,12.261L76.145,13.487C76.181,14.019 75.936,14.266 75.41,14.23L73.418,14.23C72.887,14.266 72.64,14.019 72.676,13.487L72.676,12.261C72.64,11.73 72.887,11.483 73.418,11.519M74.832,10.222C75.29,10.555 75.78,10.789 76.301,10.925C76.598,11.003 76.746,11.136 76.746,11.323C76.746,11.553 76.64,11.667 76.426,11.667C76.233,11.667 75.917,11.549 75.477,11.312C75.036,11.074 74.679,10.836 74.402,10.597C74.043,10.883 73.656,11.144 73.242,11.378C72.828,11.612 72.556,11.73 72.426,11.73C72.249,11.73 72.16,11.623 72.16,11.409C72.16,11.258 72.272,11.141 72.496,11.058C72.996,10.875 73.483,10.581 73.957,10.175C73.649,9.836 73.394,9.417 73.191,8.917C72.811,9.547 72.53,9.862 72.348,9.862C72.144,9.862 72.043,9.764 72.043,9.566C72.043,9.492 72.116,9.367 72.262,9.191C72.663,8.675 72.985,8.092 73.23,7.441C73.309,7.233 73.426,7.128 73.582,7.128C73.796,7.128 73.902,7.227 73.902,7.425C73.902,7.487 73.848,7.636 73.738,7.87L75.473,7.87C75.936,7.87 76.168,8.019 76.168,8.316C76.168,8.483 76.019,8.773 75.719,9.187C75.419,9.601 75.124,9.945 74.832,10.222M71.699,11.487C71.84,11.487 71.949,11.686 72.027,12.081C72.163,12.758 72.23,13.149 72.23,13.253C72.23,13.425 72.142,13.511 71.965,13.511C71.793,13.511 71.691,13.373 71.66,13.097C71.603,12.586 71.543,12.178 71.48,11.87L71.457,11.698C71.457,11.558 71.538,11.487 71.699,11.487M70.637,10.573L70.66,10.566L70.84,10.558L71.199,10.534L71.559,10.519L71.465,10.237C71.429,10.154 71.41,10.092 71.41,10.05C71.41,9.904 71.491,9.831 71.652,9.831C71.751,9.831 71.832,9.889 71.894,10.003L72.238,10.886L72.254,11.003C72.254,11.159 72.165,11.237 71.988,11.237C71.858,11.237 71.762,11.139 71.699,10.941L71.551,10.956L71.137,11.011L71.137,14.152C71.137,14.375 71.04,14.487 70.848,14.487C70.655,14.487 70.559,14.375 70.559,14.152L70.559,11.081L69.949,11.144L69.691,11.167C69.493,11.167 69.394,11.068 69.394,10.87C69.394,10.714 69.488,10.628 69.676,10.612L70.051,10.597L70.613,9.753L70.605,9.745C70.298,9.464 69.993,9.217 69.691,9.003C69.551,8.904 69.48,8.808 69.48,8.714C69.48,8.527 69.574,8.433 69.762,8.433C69.824,8.433 69.921,8.483 70.051,8.581C70.28,8.186 70.46,7.816 70.59,7.472C70.673,7.253 70.79,7.144 70.941,7.144C71.144,7.144 71.246,7.24 71.246,7.433C71.246,7.631 70.978,8.11 70.441,8.87L70.91,9.277L71.457,8.316C71.53,8.211 71.618,8.159 71.723,8.159C71.921,8.159 72.019,8.253 72.019,8.441C72.019,8.664 71.559,9.375 70.637,10.573M69.957,11.511C70.124,11.511 70.207,11.605 70.207,11.792C70.207,12.073 70.16,12.457 70.066,12.944C69.973,13.432 69.837,13.675 69.66,13.675C69.478,13.675 69.387,13.592 69.387,13.425C69.387,13.362 69.41,13.272 69.457,13.152C69.598,12.792 69.676,12.36 69.691,11.855C69.696,11.625 69.785,11.511 69.957,11.511" style="fill:white;fill-rule:nonzero;"/><path d="M82.087,8.19C81.832,8.19 81.704,8.076 81.704,7.846C81.704,7.617 81.832,7.502 82.087,7.502L85.235,7.502C85.49,7.502 85.618,7.617 85.618,7.846C85.618,8.076 85.49,8.19 85.235,8.19L82.087,8.19ZM84.79,10.393L84.79,13.51C84.826,14.162 84.529,14.466 83.9,14.424L83.228,14.424C82.936,14.424 82.79,14.299 82.79,14.049C82.79,13.804 82.936,13.682 83.228,13.682L83.712,13.682C83.967,13.687 84.092,13.562 84.087,13.307L84.087,10.393L81.728,10.393C81.457,10.393 81.321,10.279 81.321,10.049C81.321,9.82 81.457,9.706 81.728,9.706L85.532,9.706C85.814,9.706 85.954,9.82 85.954,10.049C85.954,10.279 85.814,10.393 85.532,10.393L84.79,10.393ZM80.634,7.174C80.873,7.174 80.993,7.289 80.993,7.518C80.993,7.669 80.701,7.959 80.118,8.385C79.535,8.812 79.145,9.026 78.946,9.026C78.743,9.026 78.642,8.898 78.642,8.643C78.642,8.503 78.77,8.37 79.024,8.245C79.431,8.026 79.85,7.732 80.282,7.362C80.428,7.237 80.545,7.174 80.634,7.174M80.399,10.346L80.399,14.073C80.399,14.349 80.287,14.487 80.064,14.487C79.84,14.487 79.728,14.349 79.728,14.073L79.728,11.073C79.321,11.49 79.045,11.698 78.899,11.698C78.686,11.698 78.579,11.576 78.579,11.331C78.579,11.19 78.684,11.039 78.892,10.878C79.47,10.429 79.993,9.859 80.462,9.167C80.571,9.015 80.691,8.94 80.821,8.94C81.066,8.94 81.189,9.046 81.189,9.26C81.189,9.427 80.926,9.789 80.399,10.346" style="fill:white;fill-rule:nonzero;"/><path d="M93.341,9.597C93.305,10.545 93.221,11.336 93.091,11.972C92.961,12.608 92.759,13.16 92.486,13.632C92.212,14.104 91.977,14.339 91.778,14.339C91.565,14.339 91.458,14.23 91.458,14.011C91.458,13.922 91.521,13.813 91.646,13.683C92.328,12.933 92.688,11.571 92.724,9.597L92.2,9.597C91.955,9.597 91.833,9.488 91.833,9.269C91.833,9.045 91.955,8.933 92.2,8.933L92.739,8.933L92.747,8.589L92.763,8.097L92.755,7.472C92.755,7.243 92.862,7.128 93.075,7.128C93.283,7.128 93.388,7.245 93.388,7.48L93.372,8.933L94.154,8.933C94.649,8.933 94.896,9.147 94.896,9.574L94.833,11.214C94.776,12.381 94.703,13.178 94.614,13.605C94.505,14.136 94.086,14.402 93.357,14.402C93.107,14.402 92.982,14.282 92.982,14.042C92.982,13.907 93.033,13.808 93.138,13.745C93.185,13.714 93.33,13.696 93.575,13.691C93.888,13.664 94.055,13.422 94.075,12.964C94.143,12.203 94.193,11.483 94.224,10.8L94.247,10.269L94.263,9.878C94.263,9.691 94.166,9.597 93.974,9.597L93.341,9.597ZM90.185,11.394L90.966,11.394C91.112,11.389 91.185,11.316 91.185,11.175L91.185,10.878L90.185,10.878L90.185,11.394ZM90.185,10.441L91.185,10.441L91.185,10.167C91.185,10.022 91.112,9.946 90.966,9.941L90.185,9.941L90.185,10.441ZM88.7,10.878L88.7,11.175C88.7,11.316 88.771,11.389 88.911,11.394L89.661,11.394L89.661,10.878L88.7,10.878ZM88.7,10.441L89.661,10.441L89.661,9.941L88.911,9.941C88.771,9.946 88.7,10.022 88.7,10.167L88.7,10.441ZM89.661,9.042L88.075,9.042C87.888,9.042 87.794,8.953 87.794,8.777C87.794,8.605 87.888,8.519 88.075,8.519L89.661,8.519L89.661,8.027L89.427,8.05L89.185,8.066L88.294,8.128C88.086,8.128 87.982,8.034 87.982,7.847C87.982,7.706 88.044,7.62 88.169,7.589L88.56,7.558C89.752,7.511 90.625,7.405 91.177,7.238L91.333,7.214C91.541,7.214 91.646,7.319 91.646,7.527C91.646,7.678 91.505,7.778 91.224,7.827C90.943,7.877 90.596,7.928 90.185,7.98L90.185,8.519L91.599,8.519C91.791,8.519 91.888,8.608 91.888,8.784C91.888,8.956 91.791,9.042 91.599,9.042L90.185,9.042L90.185,9.488L91.146,9.488C91.541,9.488 91.739,9.675 91.739,10.05L91.739,11.269C91.739,11.655 91.536,11.847 91.13,11.847L90.185,11.847L90.185,12.316L91.513,12.316C91.705,12.316 91.802,12.402 91.802,12.574C91.802,12.745 91.705,12.831 91.513,12.831L90.185,12.831L90.185,13.402L91.138,13.316L91.419,13.285C91.575,13.285 91.653,13.368 91.653,13.535C91.653,13.675 91.58,13.758 91.435,13.785L90.568,13.91L88.349,14.136L88.099,14.16C87.891,14.16 87.786,14.055 87.786,13.847C87.786,13.649 87.932,13.547 88.224,13.542L89.661,13.441L89.661,12.831L88.318,12.831C88.13,12.831 88.036,12.745 88.036,12.574C88.036,12.402 88.13,12.316 88.318,12.316L89.661,12.316L89.661,11.847L88.755,11.847C88.349,11.847 88.146,11.66 88.146,11.285L88.146,10.066C88.141,9.68 88.338,9.488 88.739,9.488L89.661,9.488L89.661,9.042Z" style="fill:white;fill-rule:nonzero;"/><path d="M23.315,24.025C23.315,24.197 23.279,24.357 23.208,24.504C23.135,24.653 23.04,24.78 22.92,24.888C22.8,24.996 22.659,25.08 22.495,25.142C22.331,25.203 22.157,25.234 21.971,25.234C21.807,25.234 21.642,25.207 21.474,25.151C21.307,25.095 21.158,25.006 21.028,24.883L11.288,15.728L11.288,25.049L8.622,25.049L8.622,12.84C8.622,12.594 8.698,12.371 8.852,12.171C9.005,11.971 9.202,11.822 9.442,11.723C9.694,11.631 9.954,11.608 10.221,11.654C10.487,11.701 10.716,11.813 10.908,11.991L20.649,21.136L20.649,11.816L23.315,11.816L23.315,24.025Z" style="fill:rgb(238,183,24);fill-rule:nonzero;"/><path d="M38.313,19.642L29.894,19.642L29.894,17.224L38.313,17.224L38.313,19.642ZM39.513,25.05L29.894,25.05C29.524,25.05 29.121,24.991 28.685,24.874C28.246,24.758 27.842,24.565 27.469,24.298C27.097,24.03 26.785,23.683 26.536,23.255C26.286,22.827 26.161,22.303 26.161,21.682L26.161,13.025C26.161,12.859 26.195,12.702 26.265,12.555C26.332,12.406 26.427,12.277 26.546,12.167C26.666,12.056 26.808,11.97 26.972,11.908C27.136,11.847 27.313,11.816 27.505,11.816L39.513,11.816L39.513,14.216L28.827,14.216L28.827,21.682C28.827,21.995 28.92,22.235 29.104,22.401C29.289,22.567 29.559,22.65 29.915,22.65L39.513,22.65L39.513,25.05Z" style="fill:rgb(238,183,24);fill-rule:nonzero;"/><path d="M55.187,14.216L49.311,14.216L49.311,25.05L46.645,25.05L46.645,14.216L40.759,14.216L40.759,11.817L55.187,11.817L55.187,14.216Z" style="fill:rgb(238,183,24);fill-rule:nonzero;"/></g></g></svg>