<svg clip-rule="evenodd" fill-rule="evenodd" stroke-linejoin="round" stroke-miterlimit="2" viewBox="0 0 595 391" xmlns="http://www.w3.org/2000/svg" xmlns:xlink="http://www.w3.org/1999/xlink"><linearGradient id="a" gradientUnits="userSpaceOnUse" x1="78.6242" x2="227.7662" y1="173.048" y2="173.048"><stop offset="0" stop-color="#de7403"/><stop offset="1" stop-color="#ffda2a"/></linearGradient><g fill-rule="nonzero"><path d="m261.781 194.415h-14.327c-1.08 0-1.277-.43-1.277-1.278v-17.577c0-1.09.468-1.304 1.277-1.304h14.327c.955 0 1.277.329 1.277 1.304v17.577c0 1.074-.449 1.278-1.277 1.278m1.11-21.543h-16.547c-2.151 0-3.11.894-3.11 2.899v17.155c0 1.349.353 2.899 3.11 2.899h16.547c2.122 0 3.111-.921 3.111-2.899v-17.155c0-1.244-.323-2.899-3.111-2.899" fill="#3e3a39"/><path d="m249.904 185.031v-2.286c0-.643.105-.748.749-.748h.766c.644 0 .749.105.749.748v2.286c0 .598-.074.749-.749.749h-.766c-.675 0-.749-.151-.749-.749m2.546 2.133c.998 0 1.921-.197 1.921-1.631v-3.289c0-1.158-.556-1.63-1.921-1.63h-2.828c-1.012 0-1.948.197-1.948 1.63v3.289c0 1.159.564 1.631 1.948 1.631z" fill="#3e3a39"/><path d="m261.067 181.594c-.964 0-1.161.527-1.319.95l-.015.042c-.608 1.774-.718 2.083-1.222 3.122-.642-2.943-.735-5.106-.779-6.324h3.969c.533 0 .838-.257.838-.706 0-.52-.433-.705-.838-.705h-.437c.14-.179.24-.388.24-.62 0-.499-.322-.738-.859-1.096-.623-.413-1.297-.836-1.583-.836-.337 0-.621.284-.621.621 0 .111.043.288.086.33.115.159.237.32.352.474.182.243.354.472.451.625.133.213.238.371.334.502h-1.963v-1.673c0-.906-.52-1.446-1.392-1.446-.535 0-1.198.362-1.337.949-.054.244-.031 1.653-.008 2.17h-7.377c-.406 0-.838.185-.838.705s.432.706.838.706h7.441c.1 1.71.339 5.523 1.569 9.372-1.13 1.407-2.716 2.814-4.254 3.772-.218.146-.413.303-.413.635 0 .34.27.705.705.705.529 0 2.886-1.494 4.72-3.106.899 2.122 2.02 2.578 2.817 2.578h.024c1.332-.016 2.073-.928 2.245-1.538.1-.354.033-.648-.181-.783-.307-.194-.573.015-.831.216-.313.243-.606.472-1.045.215-.323-.192-.852-1.684-1.037-2.727 1.951-2.391 3.245-5.08 3.245-5.816 0-.631-.583-1.313-1.525-1.313" fill="#3e3a39"/><path d="m254.627 189.477c.179-.059.597-.196.597-.718 0-.414-.403-.679-.679-.679-.052 0-.171.011-.257.019-.044.003-.077.007-.1.008-2.198.315-3.766.484-5.715.563l-.034.002c-.348.027-1.167.087-1.167 1.1 0 .546.442 1.154 1.077 1.154.119 0 4.153-.837 6.252-1.441z" fill="#3e3a39"/><path d="m511.1 189.867v.947h-10.847v-.947c0-.943.153-1.121.956-1.121h8.935c.821 0 .956.158.956 1.121m0 2.416v1.005c0 .942-.152 1.12-.956 1.12h-8.935c-.821 0-.956-.157-.956-1.12v-1.005zm.481-5.036h-11.835c-1.686 0-2.406.714-2.406 2.388v3.885c0 1.239.291 2.387 2.406 2.387h11.835c1.706 0 2.432-.714 2.432-2.387v-3.885c0-1.674-.726-2.388-2.432-2.388" fill="#3e3a39"/><path d="m508.847 182.659c-.039.098-.161.338-.29.593-.327.643-.436.872-.436.958 0 .209.122.418.31.544h-1.4v-3.938h2.888c-.403.193-.63.718-1.072 1.843m3.01-.683c0-.553-.431-.98-.938-1.16h1.073c.821 0 .956.134.956.955v2.028c0 .873-.169.955-.956.955h-2.902c.819-.427 2.767-1.949 2.767-2.778m-12.078.078c0 .805 1.906 2.281 2.714 2.7h-3.105c-.787 0-.957-.082-.957-.955v-2.028c0-.821.135-.955.957-.955h1.364c-.543.172-.973.681-.973 1.238m3.659 2.182c0-.131-.035-.249-.117-.386-.363-.573-.714-1.309-1.045-2.189l-.001-.002c-.192-.47-.421-.732-.742-.843h2.789v3.938h-1.173c.163-.107.289-.281.289-.518m10.016-4.77h-15.478c-2.054 0-2.33 1.048-2.33 2.074v2.49c0 1.025.276 2.074 2.33 2.074h15.478c2.05 0 2.331-.997 2.331-2.074v-2.49c0-1.026-.277-2.074-2.331-2.074" fill="#3e3a39"/><path d="m510.847 176.761h-10.371c2.725-1.039 3.906-1.874 4.977-2.632l.078-.058c.155-.115.203-.148.299-.148.119 0 .17.027.377.205 1.446 1.086 3.164 1.972 4.8 2.662-.056-.008-.096-.029-.16-.029m6.1.451c-2.02-.562-5.846-1.943-8.786-4.875-.858-.887-1.088-1.029-2.356-1.029-1.226 0-1.509.206-1.94.601-1.723 1.628-3.866 3.654-9.327 5.277-.094.023-.56.162-.56.667 0 .384.335.67.634.67.387 0 1.889-.442 2.752-.705.93-.285 1.742-.556 2.459-.814-.135.16-.157.357-.157.445 0 .248.103.662.788.662h10.393c.512 0 .816-.247.816-.662 0-.144-.067-.338-.23-.485 2.641 1.068 4.978 1.609 5.462 1.609.277 0 .662-.233.662-.67 0-.345-.205-.578-.61-.691" fill="#3e3a39"/><path d="m306.539 194.76v-10c.542.751 2.184 2.945 2.863 2.945.383 0 .706-.321.706-.701 0-.255-.204-.478-.259-.535-2.2-2.686-3.086-5.61-3.31-6.47v-.101h2.653c.532 0 .837-.256.837-.7 0-.439-.312-.702-.837-.702h-2.653v-3.56c2.494-.254 3.173-.461 3.173-1.375 0-.642-.584-1.359-1.366-1.359-.256 0-1.631.5-1.643.504-2.075.713-3.878.918-6.159 1.179l-.452.052c-.226.018-.909.074-.909.727 0 .517.436.702.811.702.369 0 2.247-.077 3.603-.178v3.308h-3.629c-.406 0-.838.184-.838.702 0 .438.313.7.838.7h3.45c-.906 4.731-3.141 8.452-4.396 9.965-.196.223-.315.375-.315.615 0 .387.328.702.731.702.469 0 2.457-1.918 4.159-4.688v8.268c0 .508 0 1.857 1.471 1.857s1.471-1.349 1.471-1.857" fill="#3e3a39"/><path d="m313.254 184.345c.237.521.563 1.003 1.33 1.003.904 0 1.604-.872 1.604-1.622 0-.935-1.54-2.002-2.371-2.577-.048-.031-.118-.076-.203-.132-.974-.635-1.92-1.223-2.228-1.223-.339 0-.704.268-.704.702 0 .218.124.4.236.538 1.033 1.129 1.746 2.033 2.336 3.311" fill="#3e3a39"/><path d="m313.18 177.186.001.001c.955 1.436 1.102 1.619 1.721 1.619.812 0 1.498-.705 1.498-1.541 0-.515-.159-.982-2.212-2.314-.186-.123-1.822-1.199-2.274-1.199-.395 0-.704.308-.704.702 0 .185.115.365.207.457.698.809 1.265 1.505 1.763 2.275" fill="#3e3a39"/><path d="m323.973 187.363c-.018-.377-.337-.665-.721-.654l-2.808.433v-13.187c0-.494 0-1.804-1.498-1.804-1.445 0-1.445 1.358-1.445 1.804v13.64l-7.312 1.128c-.185.008-.355.088-.479.224s-.186.311-.178.493c.017.366.321.653.695.653.013 0 .023 0 .036-.001l7.238-1.115v5.81c0 .5 0 1.83 1.471 1.83 1.472 0 1.472-1.378 1.472-1.83v-6.263l2.873-.444c.184-.008.354-.087.477-.223.124-.135.188-.31.179-.494" fill="#3e3a39"/><path d="m474.677 191.42c-.543 0-.765.164-1.367.609-.574.426-2.177 1.508-4.671 2.349-1.173.39-1.451.483-1.451.938 0 .333.275.688.788.688.301 0 2.472-.321 5.083-1.03 2.544-.696 3.28-1.16 3.28-2.071 0-.749-.823-1.483-1.662-1.483" fill="#3e3a39"/><path d="m472.131 188.643v-1.269h13.538v1.269c0 .687-.129.901-.931.901h-11.677c-.808 0-.93-.203-.93-.901m0-4.603h13.538v1.966h-13.538zm0-1.376v-.95c0-.732.115-.93.93-.93h11.677c.796 0 .931.232.931.93v.95zm-.252 8.257h14.168c1.823 0 2.636-.736 2.636-2.385v-6.725c0-1.685-.788-2.404-2.636-2.404h-14.168c-1.849 0-2.637.719-2.637 2.404v6.725c0 1.672.788 2.385 2.637 2.385" fill="#3e3a39"/><path d="m472.87 175.803v-1.172c0-.778.091-.959.979-.959h9.579c.888 0 .979.181.979.959v1.172c0 .766-.115.959-.979.959h-9.579c-.888 0-.979-.181-.979-.959m-.455 2.336h12.555c1.705 0 2.431-.635 2.431-2.123v-1.599c0-1.507-.704-2.122-2.431-2.122h-12.555c-1.705 0-2.432.635-2.432 2.122v1.599c0 1.05.288 2.123 2.432 2.123" fill="#3e3a39"/><path d="m487.281 192.796c-2.132-.595-4.556-1.031-5.006-1.031-.527 0-.842.258-.842.688 0 .34.235.592.659.709 1.86.578 3.165 1.079 4.725 2.068 1.453.934 1.693 1.068 2.158 1.068.843 0 1.612-.683 1.612-1.432 0-.866-.742-1.33-3.306-2.07" fill="#3e3a39"/><path d="m413.226 194.212c0 1.103.455 1.663 1.354 1.663s1.355-.56 1.355-1.663v-12.444c.504-.707 1.514-2.132 1.514-2.805 0-.934-.912-1.355-1.56-1.355-.873 0-1.158.729-1.387 1.313l-.013.033c-1.03 2.668-2.024 4.16-3.861 6.493-.124.149-.252.302-.252.551 0 .372.315.687.687.687.403 0 1.272-.815 2.163-1.71z" fill="#3e3a39"/><path d="m411.371 179.189c.731 0 5.539-4.495 5.539-5.873 0-.805-.797-1.304-1.534-1.304-.539 0-.965.158-1.296.931-.969 2.21-1.515 3.275-3.035 4.925-.175.175-.336.373-.336.634 0 .385.29.687.662.687" fill="#3e3a39"/><path d="m419.329 181.247c-.771 0-1.078.437-1.13 1.232-.102 2.234-.257 4.493-.796 6.649-.077.359-.616 2.131-.616 2.26 0 .282.231.59.59.59.36 0 .54-.205 1.053-1.284 1.412-3.054 2.182-7.188 2.182-8.291 0-.822-.744-1.156-1.283-1.156" fill="#3e3a39"/><path d="m418.533 178.701h2.598v15.536c0 .399 0 1.611 1.355 1.611.618 0 1.354-.274 1.354-1.585v-15.562h2.803c.512 0 .817-.257.817-.687 0-.508-.422-.688-.817-.688h-2.803v-3.703c0-1.037-.477-1.586-1.379-1.586-.608 0-1.33.275-1.33 1.586v3.703h-2.598c-.511 0-.815.257-.815.688 0 .43.304.687.815.687" fill="#3e3a39"/><path d="m425.264 175.527c.433 1.107.507 1.249.994 1.249.477 0 1.01-.432 1.01-1.008 0-.862-1.902-2.408-2.198-2.466-.464-.091-.594.15-.594.387 0 .186.34.887.542 1.306.116.24.207.429.246.532" fill="#3e3a39"/><path d="m433.833 179.38h-5.802c-.511 0-.815.257-.815.687 0 .42.297.662.815.662h1.855v12.688c0 .774-.091.954-.982.954h-.925c-.575 0-.867.232-.867.688s.292.687.867.687h2.259c2.094 0 2.382-1.058 2.382-2.202v-12.815h1.213c.519 0 .815-.251.815-.688 0-.247-.105-.661-.815-.661" fill="#3e3a39"/><path d="m428.697 174.953h4.827c.495 0 .79-.258.79-.688s-.295-.687-.79-.687h-4.827c-.51 0-.814.257-.814.687 0 .507.42.688.814.688" fill="#3e3a39"/><path d="m429.173 190.458c.277-.162.274-.587.017-.767-.311-.217-.823-.135-1.176-.24-.443-.132-.945-.375-1.063-.866-.301-2.076-.043-3.619-.059-6.106-.006-.798-.407-1.218-1.177-1.188-.539.02-1.27.383-1.238 1.204.069 1.788.136 3.582.395 5.355.163 1.113.48 2.19 1.57 2.707.851.404 1.921.375 2.731-.099" fill="#3e3a39"/><path d="m369.99 176.775c-.682 1.245-1.326 2.42-1.326 2.829 0 .563.273 1.505 2.105 1.505h1.811c.798 0 1.029.017 1.029.386-.019.239-1.166 4.036-3.901 7.318-3.368-3.876-4.279-8.847-4.76-13.639l-.028-.997h5.494c.137 0 .456 0 .594.147.054.057.077.134.069.234-.022.273-.564 1.261-1.087 2.217m-1.677 13.549c-1.995 1.969-3.375 2.979-6.584 4.073-.322.104-.513.349-.513.655 0 .412.333.689.642.689.086 0 .163-.016.293-.041.055-.01.119-.024.206-.04 3.99-.998 6.227-2.811 7.302-3.682.109-.088.205-.166.288-.231 3.351 2.586 7.508 3.965 7.974 3.965.282 0 .672-.236.672-.68 0-.415-.327-.608-.613-.729l-.033-.015c-1.84-.843-4.608-2.11-6.55-3.812 3.9-3.749 5.653-8.369 5.653-9.134s-.528-1.582-2.007-1.582h-2.523c-.456 0-.634-.117-.634-.418 0-.322.583-1.294 1.144-2.234.685-1.142 1.329-2.221 1.329-2.698 0-1.051-.762-1.583-2.265-1.583h-14.924c-.686 0-.829.36-.829.661 0 .639.612.689.8.689h4.78c.024 7.303-.815 14.713-6.946 19.524-.141.1-.405.288-.405.642 0 .362.314.679.671.679.433 0 6.886-3.411 8.597-12.233 2.119 4.526 3.115 6.202 4.475 7.535" fill="#3e3a39"/><path d="m272.879 179.46c1.472 0 1.472-1.346 1.472-1.789v-1.031c0-.807.099-1.013 1.013-1.013h15.145c.89 0 .988.206.988 1.013v1.031c0 .49 0 1.789 1.523 1.789 1.029 0 1.55-.602 1.55-1.789v-1.242c0-1.531-.748-2.185-2.502-2.185h-7.621v-1.278c0-1.494-1.047-1.656-1.497-1.656-1.326 0-1.525 1.038-1.525 1.656v1.278h-7.542c-1.754 0-2.502.654-2.502 2.185v1.242c0 1.187.504 1.789 1.498 1.789" fill="#3e3a39"/><path d="m286.642 187.015c1.221 1.822 2.713 3.359 4.439 4.568 1.822 1.259 3.753 1.968 4.211 1.869.365-.083.594-.467.51-.854-.064-.294-.269-.439-.48-.552l-.002-.001c-2.178-1.086-4.313-2.497-6.52-6.41 1.921-1.38 3.093-2.699 2.992-3.372-.063-.425-.294-.803-.65-1.065-.336-.246-.748-.353-1.123-.294-.479.075-.731.325-.96.676-.498.728-2.304 2.966-3.529 3.855-.693-1.725-1.757-3.188-3.168-4.354.702-.584 1.018-.926 1.448-1.394l.027-.028h5.791c.524 0 .836-.27.836-.721 0-.458-.304-.721-.836-.721h-13.502c-.525 0-.838.27-.838.721 0 .532.433.721.838.721h3.799c-.913 1.169-2.982 3.228-7.114 4.943-.213.098-.611.28-.611.74 0 .445.352.721.678.721.384 0 2.279-.718 3.369-1.203 1.301-.571 3.257-1.604 4.887-2.803l.029.037c.168.215.329.419.557.796-2.591 2.963-6.494 5.095-9.058 6.023-.416.143-.594.357-.594.716 0 .391.323.721.705.721.459 0 6.258-1.737 10.082-5.007.114.308.188.577.303.989l.027.097c-2.735 3.006-6.667 5.459-11.078 6.906-.378.13-.726.313-.726.771 0 .452.379.694.652.694.329 0 6.625-1.507 11.509-5.405.044 2.557-.225 4.091-.821 4.686-.374.373-.833.363-1.32.351-.084-.003-.171-.009-.242-.004l-1.936-.129c-.533 0-.838.263-.838.722 0 .665 1.974 1.409 4.617 1.409 3.052 0 3.507-3.411 3.507-5.444 0-1.305-.131-2.539-.388-3.668.136-.076.266-.153.396-.23z" fill="#3e3a39"/><path d="m340.245 181.214c.265.291.316.37.817 1.055.048.062.1.121.158.175h-3.77c.848-.306 2.064-.837 2.795-1.23m-10.968 6.624c.963 0 1.278-.582 1.278-1.683v-1.429c0-.766.127-.891.909-.891h16.469c.763 0 .907.141.907.891v1.404c0 1.101.291 1.708 1.24 1.708.962 0 1.47-.591 1.47-1.708v-1.717c0-1.894-1.505-1.966-2.399-1.969l.444-7.72c.036-.532-.121-1.001-.452-1.355-.374-.4-.932-.62-1.574-.62h-3.304c-.525 0-.836.259-.836.694 0 .442.303.695.836.695h1.849c.2 0 .371.065.482.181.098.105.146.25.136.419l-.075 1.364h-2.445c-.578 0-.783.359-.783.695 0 .442.303.696.836.696h2.302l-.095 1.806h-2.339c-.396 0-.704.306-.704.695 0 .426.303.67.836.67h2.118l-.096 1.78h-3.729c.281-.225.483-.557.483-.913 0-.502-.343-.765-1.082-1.292.686-.476 1.108-.765 1.108-1.319 0-.607-.553-1.16-1.239-1.16-.237 0-.448.079-.659.263-.133.159-.819.897-.977 1.055-.395-.237-1.292-.791-1.609-.791-.368 0-.606.343-.606.633 0 .184.106.343.184.421.106.106.739.581.871.686-.713.528-.924.634-2.69 1.53-.211.105-.343.264-.343.527 0 .14.056.259.133.36h-2.956l-.071-1.78h2.2c.388 0 .704-.301.704-.67 0-.442-.306-.695-.837-.695h-2.128l-.096-1.703h2.276c.62 0 .785-.437.785-.695 0-.513-.433-.695-.837-.695h-2.287l-.075-1.26c-.019-.358-.02-.365 1.48-.465l.066-.005c1.425-.075 2.366-.126 2.366-1.162 0-.55-.463-1.163-1.127-1.163-.215 0-.777.192-1.434.424-.231.082-.432.153-.52.177-.872.22-1.572.277-2.19.327l-.092.008c-.927.056-1.468.742-1.412 1.791l.391 7.566c-1.047.002-2.531.063-2.531 1.969v1.742c0 1.085.522 1.683 1.47 1.683" fill="#3e3a39"/><path d="m341.023 194.632s0-.001 0-.002c.041-.118.067-.251.091-.386.009-.049.019-.097.026-.147.003-.034.013-.065.017-.099h-.012c.014-.132.027-.262.027-.409v-2.469h9.144c.264 0 .74-.078.74-.597 0-.547-.476-.599-.74-.599h-9.144v-.546c0-.13-.027-.208-.053-.311 4.651-2.028 4.651-2.288 4.651-2.783 0-.026-.026-.857-1.082-.857h-11.023c-.265 0-.739.078-.739.598 0 .572.553.598.739.598h7.348c.159 0 .264.103.264.234 0 .285-.925 1.066-.951 1.091-.131-.051-.291-.103-.556-.103-.949 0-1.426.598-1.426 1.533v.546h-9.509c-.289 0-.738.078-.738.599 0 .519.476.597.738.597h9.509v2.469c0 .158-.084 1.012-.809 1.105-1.164.149-3.118-.029-3.118-.029-.238 0-.741.052-.741.598 0 .52 1.817 1.257 4.52 1.257 1.461 0 2.475-.797 2.827-1.888" fill="#3e3a39"/><path d="m446.95 189.636c0-.077.041-.155.128-.242.256-.279 1.374-1.543 1.668-1.894h6.058c-.218.616-.803 1.928-2.156 3.213-1.891-.345-3.667-.619-5.421-.839-.183-.03-.277-.111-.277-.238m5.852-7.573v-2.684c3.305 3.38 9.377 5.245 9.838 5.245.331 0 .686-.262.686-.686 0-.359-.208-.594-.679-.76-4.099-1.553-6.833-3.957-7.726-4.945h7c.518 0 .816-.251.816-.688 0-.414-.305-.661-.816-.661h-9.119v-2.095c2.904-.131 5.133-.382 5.981-.563.533-.106 1.078-.311 1.078-1.019 0-.64-.579-1.355-1.354-1.355-.222 0-.921.178-1.679.376-.198.052-.361.095-.447.115-5.101 1.096-12.21 1.152-13.584 1.152-.806 0-.893.481-.893.687 0 .364.269.594.534.659.35.093 2.571.106 4.697.106 1.185 0 2.266-.022 2.727-.045v1.982h-9.016c-.519 0-.816.251-.816.688 0 .247.106.661.816.661h6.814c-1.424 1.52-4.279 3.577-7.65 4.897-.316.132-.673.282-.673.756 0 .451.332.688.661.688.47 0 6.221-1.782 9.864-5.136v2.625c0 .476.084.853.242 1.14-.221-.112-.475-.184-.761-.184-.516 0-.917.234-1.263.737-.371.565-1.07 1.618-1.636 2.395h-6.266c-.518 0-.815.25-.815.688 0 .42.297.661.815.661h5.149l-1.319 1.48c-.063.07-.121.138-.164.197l-.265.265c-.219.218-.339.508-.339.817 0 .308.12.598.339.816l.059.06c.217.218.508.338.816.338h.001c.308 0 .599-.12.816-.338l.055-.054c2.026.306 3.648.552 5.516 1.007-3.096 1.854-9.071 2.2-10.253 2.252-.29 0-.97 0-.97.688 0 .455.3.686.893.686 1.795 0 4.292-.19 6.072-.463 4.441-.645 6.348-1.936 7.01-2.401 1.713.59 3.564 1.277 5.682 2.567.367.226.632.349.976.349.762 0 1.51-.71 1.51-1.432 0-.461-.261-.858-.697-1.063-1.554-.738-3.89-1.436-5.576-1.911.844-.812 1.857-1.979 2.523-3.86h4.422c.519 0 .817-.251.817-.687 0-.421-.298-.662-.817-.662h-4.274c-.14-.644-.712-1.127-1.397-1.127h-.211c-.686 0-1.258.483-1.398 1.127h-5.216c.798-.936 1.016-1.202 1.016-1.675 0-.248-.085-.501-.232-.727.18.069.386.106.623.106.966 0 1.457-.603 1.457-1.792" fill="#3e3a39"/><path d="m392.575 177.139h5.025v4.193h-4.474c-.525 0-.826.254-.826.696 0 .513.427.696.826.696h8.261c.24 0 .525.064.525.369 0 .137-.032.325-.059.476l-.017.105c-.531 3.051-1.99 4.918-2.575 5.626-1.048-1.41-1.741-2.938-2.118-4.675-.107-.478-.306-1.37-1.549-1.37-.883 0-1.657.665-1.657 1.424 0 .737 1.084 3.687 3.644 6.331-2.438 2.079-4.667 2.76-6.836 3.424-.164.056-.549.186-.549.687 0 .371.313.696.67.696.301 0 4.669-.818 8.258-3.405 3.295 2.596 7.142 3.462 7.17 3.462.322 0 .669-.266.669-.696 0-.429-.278-.564-.444-.646l-.055-.025c-2.17-.905-3.826-1.669-5.688-3.437 2.173-2.065 3.504-4.314 4.188-7.073l.043-.194c.078-.345.166-.735.166-1.046 0-.866-.681-1.425-1.735-1.425h-2.863v-4.193h5.176c.399 0 .825-.183.825-.696 0-.442-.3-.696-.825-.696h-5.176v-2.369c0-1.117-.52-1.709-1.501-1.709-.951 0-1.474.607-1.474 1.709v2.369h-5.025c-.524 0-.824.254-.824.696 0 .436.307.696.824.696" fill="#3e3a39"/><path d="m388.845 185.799c.816-.356 1.62-.716 2.391-1.078.449-.211.493-.52.34-.852-.152-.332-.433-.502-.878-.298-.602.277-1.224.554-1.853.829v-5.774h2.026c.381 0 .691-.31.691-.691 0-.382-.31-.691-.691-.691h-2.026v-4.139c0-.807-.654-1.462-1.461-1.462-.808 0-1.462.655-1.462 1.462v4.139h-2.75c-.382 0-.691.309-.691.691 0 .381.309.691.691.691h2.75v7.007c-1.199.49-2.399.964-3.553 1.396-.459.172-.537.493-.414.833s.376.534.842.365c1.017-.37 2.069-.781 3.125-1.205v6.225c0 .008-.015.74-.583.813-.918.118-1.992-.022-2.015-.024-.428 0-.673.203-.673.559 0 .516 1.59 1.092 3.718 1.092 1.134 0 2.034-.6 2.349-1.566l.007-.022c.034-.1.054-.209.072-.311l.007-.038c.005-.028.011-.056.015-.085.001-.01.003-.02.005-.03.003-.017.006-.034.008-.052l-.002-.076c.008-.082.015-.167.015-.26z" fill="#3e3a39"/><path d="m338.742 174.977c-.475.527-.659.659-2.189 1.899-.052.052-.237.211-.237.5 0 .344.263.581.579.581.369 0 1.9-1.002 2.954-1.793.106.105.501.632.607.738.132.185.369.474.844.474.632 0 1.213-.632 1.213-1.266 0-.552-.37-.79-1.029-1.265 1.029-.923 1.292-1.186 1.292-1.688 0-.659-.659-1.186-1.265-1.186-.396 0-.739.183-.923.448-.105.184-.659 1.107-.818 1.318-.448-.263-1.529-.896-1.846-.896-.369 0-.607.342-.607.607 0 .105.054.289.212.448.131.105 1.187 1.055 1.213 1.081" fill="#3e3a39"/><path d="m182.825 161.86c-.94-13.907-43.096-20.655-104.201 34.757h12.925c39.862-45.806 96.824-50.557 88.051-26.29 0 0 18.238-26.434 47.69-16.555.208.066.382.012.444-.114.146-.298-.263-.449-.263-.449-4.768-2.555-8.732-3.73-13.995-3.73-19.227 0-30.651 12.381-30.651 12.381z" fill="url(#a)"/><path d="m145.172 173.076c-3.01 0-3.252 3.185-3.252 3.185l-2.063 10.836-1.609-2.631-5.864-9.553c-.959-1.562-2.664-2.512-4.497-2.507-2.517.008-4.676 1.799-5.149 4.272l-3.76 19.682h5.04c3.011 0 3.253-3.185 3.253-3.185l2.064-10.836 1.608 2.631 5.865 9.554c.959 1.561 2.662 2.51 4.495 2.506 2.518-.007 4.678-1.798 5.15-4.272l3.76-19.682z" fill="#004098"/><path d="m183.415 178.887-2.648 13.89s-1.15 3.601 2.562 3.601h4.42l3.332-17.494-.006.003 6.013-.003c1.334 0 2.204-.533 2.755-1.101.505-.521.819-1.197.953-1.909l.536-2.852h-40.663c-.26 0-6.661.468-8.092 7.398-1.583 7.667 6.075 7.422 6.085 7.42h7.89c1.211 0 2.161.193 1.946 1.316-.212 1.121-1.218 1.357-2.455 1.357l-12.423.016c-1.334 0-2.205.525-2.757 1.094-.504.52-.819 1.195-.953 1.908l-.535 2.852 18.484-.005c5.587 0 7.334-4.527 7.836-6.861 1.648-7.657-5.019-7.562-5.293-7.557h-8.539c-1.193 0-2.063-.507-1.852-1.604.208-1.098 1.266-1.487 2.568-1.487z" fill="#004098"/><path d="m224.327 173.297c-1.475-.783-3.717-1.174-6.727-1.174-1.141 0-2.259.045-3.352.134-3.768.247-6.634 1.034-8.602 2.365-1.968 1.33-3.306 3.36-4.013 6.087l-1.081 4.294-.091.402-.654 3.723c-.164.918-.189 1.745-.071 2.482.567 3.556 4.016 5.333 10.347 5.333.693 0 1.33-.012 1.915-.033.585-.023 1.149-.068 1.692-.135 3.479-.312 6.146-1.112 8-2.397 1.854-1.287 3.14-3.26 3.858-5.92.101-.449.446-1.968.501-2.35h-6.289c-.884 0-1.689.535-2.007 1.359-.186.482-.359.678-.588 1.09 0 0-1.305 2.652-5.387 2.525-1.195-.036-2.724-.258-3.443-1.35-.522-.793-.366-2.008-.223-2.899.112-.705.055-.565.578-2.935.36-1.637.901-3.371 2.19-4.546 1.237-1.128 2.911-1.56 4.556-1.518.886.023 1.835.145 2.608.609.438.264.796.649.97 1.135.066.187.116.396.118.597.038.761.666 1.357 1.427 1.358l6.114.001.133-.825c.251-1.453.298-2.683.138-3.689-.271-1.699-1.143-2.941-2.617-3.723" fill="#004098"/><g fill="#3e3a39"><path d="m154.571 202.533h-1.568c-.165 0-.299.134-.299.299v.757c0 .165.134.298.299.298h1.568c.165 0 .299-.133.299-.298v-.757c0-.165-.134-.299-.299-.299"/><path d="m233.149 202.533h-1.567c-.166 0-.3.134-.3.299v.757c0 .165.134.298.3.298h1.567c.165 0 .299-.133.299-.298v-.757c0-.165-.134-.299-.299-.299"/><path d="m508.253 202.533h-1.568c-.165 0-.299.134-.299.299v.757c0 .165.134.298.299.298h1.568c.165 0 .299-.133.299-.298v-.757c0-.165-.134-.299-.299-.299"/><path d="m194.581 202.533h-1.535c-.164 0-.297.133-.297.297v10.498c0 .164.133.298.297.298h1.535c.164 0 .297-.134.297-.298v-10.498c0-.164-.133-.297-.297-.297"/><path d="m129.185 202.992h-1.436c-.185 0-.335.151-.335.336v7.56l-5.138-7.343c-.302-.419-.788-.667-1.304-.667-.89 0-1.61.376-1.61 1.265v9.146c0 .186.15.337.336.337h1.435c.186 0 .336-.151.336-.337v-7.327l5.137 7.097c.303.418.788.666 1.304.666h.002c.888 0 1.609-.721 1.609-1.61v-8.787c0-.185-.15-.336-.336-.336"/><path d="m138.662 210.716c0 .543-.156.958-.463 1.232-.307.273-.784.406-1.459.406-1.331 0-1.611-.659-1.611-1.21 0-.536.286-1.176 1.65-1.176h1.883zm1.136-4.742c-.657-.49-1.621-.738-2.865-.738-1.103 0-1.989.227-2.634.675-.572.398-.881.91-.939 1.56-.005.052.014.158.16.158h1.621c.103 0 .177-.11.189-.162.055-.251.198-.461.428-.628.288-.209.677-.315 1.157-.315 1.443 0 1.747.819 1.747 1.506v.814h-2.271c-1.05 0-1.877.215-2.458.64-.575.421-.854.981-.854 1.71 0 .798.262 1.405.803 1.855.541.448 1.32.676 2.316.676.523 0 .96-.063 1.298-.189.338-.125.672-.333.994-.616l.23-.204v.655s-.029.255.317.255h1.484c.137 0 .248-.111.248-.248v-5.249c0-.962-.317-1.667-.971-2.155"/><path d="m186.834 210.716c0 .543-.156.958-.463 1.232-.306.273-.784.406-1.458.406-1.332 0-1.612-.659-1.612-1.21 0-.536.286-1.176 1.65-1.176h1.883zm1.136-4.742c-.657-.49-1.621-.738-2.864-.738-1.103 0-1.99.227-2.634.675-.573.398-.882.91-.94 1.56-.005.052.014.158.16.158h1.621c.103 0 .178-.11.189-.162.056-.251.199-.461.428-.628.288-.209.677-.315 1.157-.315 1.444 0 1.747.819 1.747 1.506v.814h-2.27c-1.05 0-1.878.215-2.459.64-.575.421-.854.981-.854 1.71 0 .798.263 1.405.803 1.855.541.448 1.32.676 2.316.676.524 0 .961-.063 1.299-.189.338-.125.671-.333.993-.616l.23-.204v.655s-.029.255.317.255h1.484c.138 0 .249-.111.249-.248v-5.249c0-.962-.318-1.667-.972-2.155"/><path d="m295.65 210.716c0 .543-.156.958-.463 1.232-.307.273-.784.406-1.459.406-1.331 0-1.611-.659-1.611-1.21 0-.536.286-1.176 1.65-1.176h1.883zm1.136-4.742c-.657-.49-1.621-.738-2.865-.738-1.103 0-1.989.227-2.634.675-.573.398-.881.91-.939 1.56-.005.052.014.158.16.158h1.621c.103 0 .177-.11.189-.162.055-.251.198-.461.428-.628.288-.209.677-.315 1.157-.315 1.443 0 1.747.819 1.747 1.506v.814h-2.271c-1.05 0-1.877.215-2.458.64-.575.421-.854.981-.854 1.71 0 .798.262 1.405.803 1.855.541.448 1.32.676 2.316.676.523 0 .96-.063 1.298-.189.338-.125.672-.333.994-.616l.23-.204v.655s-.029.255.317.255h1.484c.137 0 .248-.111.248-.248v-5.249c0-.962-.317-1.667-.971-2.155"/><path d="m164.337 210.254c0 1.265-.625 1.934-1.805 1.934-1.206 0-1.844-.669-1.844-1.934v-1.548c0-1.266.638-1.935 1.844-1.935 1.18 0 1.805.669 1.805 1.935zm-1.805-5.019c-1.229 0-2.207.283-2.909.843-.692.552-1.043 1.426-1.043 2.594v1.599c0 1.18.351 2.059 1.043 2.61.701.56 1.68.844 2.909.844 1.215 0 2.184-.284 2.88-.844.685-.551 1.033-1.43 1.033-2.61v-1.599c0-1.168-.348-2.042-1.033-2.594-.696-.56-1.665-.843-2.88-.843"/><path d="m174.671 205.235c-.434 0-.859.072-1.262.215-.4.141-.745.349-1.027.62l-.233.225v-.723c0-.262-.216-.238-.216-.238h-1.653c-.11 0-.2.089-.2.199v7.892c0 .111.09.201.2.201h1.726c.111 0 .201-.09.201-.201v-5c0-.522.169-.934.503-1.224.329-.286.748-.43 1.244-.43.512 0 .928.146 1.237.432.313.291.47.702.47 1.222v5c0 .111.09.201.2.201h1.73c.11 0 .2-.09.2-.201v-5.247c0-.911-.274-1.637-.812-2.158-.539-.52-1.316-.785-2.308-.785"/><path d="m305.983 205.235c-.435 0-.859.072-1.263.215-.399.141-.745.349-1.026.62l-.233.225v-.723c0-.262-.216-.238-.216-.238h-1.654c-.11 0-.2.089-.2.199v7.892c0 .111.09.201.2.201h1.727c.11 0 .2-.09.2-.201v-5c0-.522.169-.934.503-1.224.33-.286.748-.43 1.245-.43.512 0 .928.146 1.237.432.312.291.47.702.47 1.222v5c0 .111.089.201.2.201h1.729c.111 0 .2-.09.2-.201v-5.247c0-.911-.273-1.637-.811-2.158-.539-.52-1.317-.785-2.308-.785"/><path d="m382.544 205.235c-.434 0-.858.072-1.262.215-.399.141-.745.349-1.026.62l-.233.225v-.723c0-.262-.217-.238-.217-.238h-1.653c-.11 0-.2.089-.2.199v7.892c0 .111.09.201.2.201h1.727c.11 0 .2-.09.2-.201v-5c0-.522.169-.934.503-1.224.33-.286.748-.43 1.245-.43.512 0 .928.146 1.237.432.312.291.47.702.47 1.222v5c0 .111.089.201.199.201h1.73c.11 0 .2-.09.2-.201v-5.247c0-.911-.273-1.637-.811-2.158-.54-.52-1.317-.785-2.309-.785"/><path d="m488.148 205.235c-.435 0-.859.072-1.263.215-.399.141-.745.349-1.026.62l-.233.225v-.723c0-.262-.216-.238-.216-.238h-1.654c-.11 0-.199.089-.199.199v7.892c0 .111.089.201.199.201h1.727c.11 0 .2-.09.2-.201v-5c0-.522.169-.934.503-1.224.33-.286.749-.43 1.245-.43.512 0 .928.146 1.237.432.312.291.47.702.47 1.222v5c0 .111.09.201.2.201h1.73c.11 0 .199-.09.199-.201v-5.247c0-.911-.273-1.637-.811-2.158-.539-.52-1.317-.785-2.308-.785"/><path d="m253.078 205.235c-.434 0-.859.072-1.262.215-.4.141-.745.349-1.027.62l-.233.225v-.723c0-.262-.216-.238-.216-.238h-1.653c-.11 0-.2.089-.2.199v7.892c0 .111.09.201.2.201h1.727c.11 0 .2-.09.2-.201v-5c0-.522.169-.934.503-1.224.329-.286.748-.43 1.244-.43.512 0 .928.146 1.237.432.313.291.47.702.47 1.222v5c0 .111.09.201.2.201h1.73c.11 0 .2-.09.2-.201v-5.247c0-.911-.274-1.637-.812-2.158-.539-.52-1.316-.785-2.308-.785"/><path d="m217.397 208.574c-.177-.237-.377-.44-.605-.609-.226-.169-.465-.308-.716-.42-.252-.111-.505-.193-.759-.246-.253-.052-.494-.081-.721-.086h-2.197c-.399 0-.712-.11-.936-.329-.224-.22-.336-.518-.336-.896 0-.374.112-.673.336-.9s.537-.341.936-.341h4.33c.196 0 .176-.216.176-.216v-1.561s-.001-.189-.181-.189h-4.325c-.34 0-.707.057-1.102.17-.394.114-.761.298-1.097.552-.339.255-.619.585-.843.991-.225.406-.337.904-.337 1.494 0 .589.112 1.088.337 1.497.224.408.504.738.843.991.336.252.703.434 1.097.548.395.113.762.17 1.102.17h2.181c.194 0 .372.03.531.09.159.061.294.147.405.258.11.111.196.242.256.393.059.151.089.318.089.499 0 .373-.112.671-.337.892-.224.222-.539.333-.944.333h-5.163c-.301 0-.3.333-.3.333v1.317s.032.316.288.316h5.175c.227 0 .468-.025.726-.075.256-.051.508-.129.757-.235s.489-.241.721-.408c.233-.167.435-.368.608-.605s.312-.511.418-.82c.105-.311.158-.66.158-1.048s-.052-.736-.154-1.044c-.103-.307-.242-.579-.417-.816"/><path d="m224.631 206.771c.533 0 .962.127 1.278.375.253.202.408.464.464.784 0 .258.235.241.235.241h1.622s.177.014.177-.151c-.028-.857-.355-1.515-.993-2.007-.669-.516-1.618-.778-2.822-.778-1.228 0-2.207.283-2.909.843-.692.553-1.044 1.425-1.044 2.594v1.599c0 1.179.352 2.058 1.044 2.61.702.559 1.68.844 2.909.844 1.203 0 2.152-.265 2.822-.787.609-.474.934-1.092.988-1.884.004-.071.006-.217-.195-.217h-1.618c-.179 0-.198.104-.204.154-.042.348-.202.631-.479.84-.314.237-.742.357-1.275.357-.589 0-1.055-.15-1.382-.447-.332-.302-.501-.802-.501-1.487v-1.548c0-1.266.65-1.935 1.883-1.935"/><path d="m263.823 206.771c.533 0 .963.127 1.278.375.253.202.409.464.464.784 0 .258.235.241.235.241h1.622s.177.014.177-.151c-.028-.857-.355-1.515-.993-2.007-.669-.516-1.618-.778-2.822-.778-1.227 0-2.206.283-2.909.843-.692.553-1.044 1.425-1.044 2.594v1.599c0 1.179.352 2.058 1.044 2.61.703.559 1.68.844 2.909.844 1.203 0 2.152-.265 2.822-.787.61-.474.934-1.092.988-1.884.004-.071.006-.217-.194-.217h-1.619c-.179 0-.198.104-.204.154-.042.348-.202.631-.478.84-.315.237-.743.357-1.276.357-.589 0-1.055-.15-1.382-.447-.332-.302-.5-.802-.5-1.487v-1.548c0-1.266.65-1.935 1.882-1.935"/><path d="m359.025 206.771c.532 0 .963.127 1.278.375.253.202.408.464.464.784 0 .258.235.241.235.241h1.622s.177.014.177-.151c-.029-.857-.355-1.515-.993-2.007-.669-.516-1.618-.778-2.822-.778-1.228 0-2.207.283-2.909.843-.692.553-1.044 1.425-1.044 2.594v1.599c0 1.179.352 2.058 1.044 2.61.702.559 1.68.844 2.909.844 1.202 0 2.151-.265 2.822-.787.609-.474.934-1.092.988-1.884.004-.071.006-.217-.195-.217h-1.619c-.179 0-.197.104-.203.154-.042.348-.202.631-.479.84-.314.237-.743.357-1.275.357-.59 0-1.055-.15-1.383-.447-.331-.302-.5-.802-.5-1.487v-1.548c0-1.266.651-1.935 1.883-1.935"/><path d="m498.894 206.771c.532 0 .963.127 1.278.375.253.202.409.464.464.784 0 .258.235.241.235.241h1.622s.177.014.177-.151c-.029-.857-.355-1.515-.993-2.007-.669-.516-1.618-.778-2.822-.778-1.228 0-2.206.283-2.909.843-.692.553-1.044 1.425-1.044 2.594v1.599c0 1.179.352 2.058 1.044 2.61.703.559 1.68.844 2.909.844 1.202 0 2.152-.265 2.822-.787.609-.474.934-1.092.988-1.884.004-.071.006-.217-.195-.217h-1.619c-.179 0-.197.104-.203.154-.042.348-.202.631-.479.84-.314.237-.743.357-1.275.357-.59 0-1.055-.15-1.383-.447-.331-.302-.5-.802-.5-1.487v-1.548c0-1.266.651-1.935 1.883-1.935"/><path d="m242.726 208.827h-3.765v-.187c0-.686.169-1.187.5-1.487.329-.297.8-.448 1.402-.448 1.218 0 1.863.612 1.863 1.77zm-1.863-3.592c-1.252 0-2.245.313-2.953.929-.702.613-1.058 1.551-1.058 2.788v1.039c0 1.269.368 2.217 1.094 2.817.734.609 1.741.917 2.995.917 1.193 0 2.144-.242 2.829-.717.616-.429.945-.969.998-1.646.003-.048-.01-.145-.155-.145h-1.714c-.173 0-.177.077-.186.114-.067.261-.228.473-.478.63-.292.184-.694.277-1.197.277-.65 0-1.163-.149-1.522-.443-.369-.301-.555-.798-.555-1.474v-.37h5.513s.38.021.38-.287v-.712c0-1.225-.36-2.161-1.068-2.779-.713-.622-1.696-.938-2.923-.938"/><path d="m276.756 208.827h-3.765v-.187c0-.686.169-1.187.5-1.487.329-.297.8-.448 1.401-.448 1.219 0 1.864.612 1.864 1.77zm-1.864-3.592c-1.251 0-2.245.313-2.953.929-.701.613-1.057 1.551-1.057 2.788v1.039c0 1.269.368 2.217 1.094 2.817.733.609 1.74.917 2.995.917 1.193 0 2.144-.242 2.829-.717.616-.429.944-.969.998-1.646.003-.048-.01-.145-.155-.145h-1.714c-.173 0-.177.077-.187.114-.066.261-.227.473-.477.63-.292.184-.694.277-1.197.277-.65 0-1.163-.149-1.523-.443-.368-.301-.554-.798-.554-1.474v-.37h5.512s.381.021.381-.287v-.712c0-1.225-.36-2.161-1.068-2.779-.713-.622-1.696-.938-2.924-.938"/><path d="m349.445 208.827h-3.765v-.187c0-.686.169-1.187.5-1.487.329-.297.8-.448 1.402-.448 1.218 0 1.863.612 1.863 1.77zm-1.863-3.592c-1.251 0-2.245.313-2.953.929-.702.613-1.058 1.551-1.058 2.788v1.039c0 1.269.368 2.217 1.094 2.817.733.609 1.741.917 2.995.917 1.193 0 2.144-.242 2.829-.717.616-.429.945-.969.998-1.646.003-.048-.01-.145-.155-.145h-1.713c-.174 0-.178.077-.187.114-.067.261-.227.473-.477.63-.293.184-.695.277-1.197.277-.651 0-1.164-.149-1.523-.443-.368-.301-.555-.798-.555-1.474v-.37h5.513s.38.021.38-.287v-.712c0-1.225-.359-2.161-1.067-2.779-.714-.622-1.697-.938-2.924-.938"/><path d="m318.395 210.254c0 .617-.161 1.098-.482 1.43-.323.335-.782.504-1.361.504-.77 0-1.688-.336-1.688-1.934v-1.548c0-1.266.603-1.935 1.746-1.935.555 0 .995.17 1.312.504.315.332.473.813.473 1.431zm1.837-7.721h-1.565c-.149 0-.272.121-.272.272v3.638l-.242-.284c-.525-.613-1.279-.924-2.24-.924-.941 0-1.714.281-2.299.835-.582.552-.877 1.411-.877 2.553v1.697c0 1.142.302 2.003.896 2.56.597.561 1.37.845 2.299.845.976 0 1.737-.285 2.264-.846l.238-.255v.747s-.008.255.26.255h1.521c.159 0 .289-.13.289-.29v-10.531c0-.151-.121-.272-.272-.272"/><path d="m402.676 202.533h-1.627c-.139 0-.251.112-.251.251v10.591c0 .138.112.251.251.251h1.627c.139 0 .251-.113.251-.251v-10.591c0-.139-.112-.251-.251-.251"/><path d="m514.146 202.533h-1.626c-.139 0-.252.112-.252.251v10.591c0 .138.113.251.252.251h1.626c.139 0 .251-.113.251-.251v-10.591c0-.139-.112-.251-.251-.251"/><path d="m371.027 205.235c-.435 0-.85.07-1.234.207-.38.134-.715.341-.996.611l-.234.226v-3.556c0-.105-.086-.19-.19-.19h-1.749c-.105 0-.191.085-.191.19v10.712c0 .105.086.191.191.191h1.749c.104 0 .19-.086.19-.191v-5.01c0-.523.168-.935.503-1.225.327-.285.747-.429 1.243-.429.511 0 .928.142 1.237.423.313.284.47.698.47 1.231v5.01c0 .105.085.191.191.191h1.748c.105 0 .19-.086.19-.191v-5.257c0-.923-.273-1.651-.811-2.165-.538-.516-1.315-.778-2.307-.778"/><path d="m395.055 210.254c0 1.265-.623 1.934-1.805 1.934-1.207 0-1.843-.669-1.843-1.934v-1.548c0-1.266.636-1.935 1.843-1.935 1.182 0 1.805.669 1.805 1.935zm-1.805-5.019c-1.227 0-2.206.283-2.908.843-.692.553-1.044 1.426-1.044 2.594v1.599c0 1.179.352 2.058 1.044 2.61.702.56 1.68.844 2.908.844 1.217 0 2.185-.284 2.879-.843.687-.552 1.034-1.43 1.034-2.611v-1.599c0-1.169-.347-2.043-1.034-2.594-.694-.56-1.664-.843-2.879-.843"/><path d="m412.467 210.254c0 1.265-.623 1.934-1.805 1.934-1.206 0-1.842-.669-1.842-1.934v-1.548c0-1.266.636-1.935 1.842-1.935 1.182 0 1.805.669 1.805 1.935zm-1.805-5.019c-1.226 0-2.206.283-2.908.843-.691.553-1.044 1.426-1.044 2.594v1.599c0 1.179.353 2.058 1.044 2.61.702.56 1.68.844 2.908.844 1.217 0 2.185-.284 2.879-.843.687-.552 1.035-1.43 1.035-2.611v-1.599c0-1.169-.348-2.043-1.035-2.594-.694-.56-1.663-.843-2.879-.843"/><path d="m423.695 209.496c0 .616-.161 1.098-.482 1.43-.324.335-.783.504-1.361.504-.77 0-1.688-.336-1.688-1.934v-.791c0-1.265.604-1.934 1.746-1.934.555 0 .995.17 1.312.504.314.332.473.813.473 1.43zm1.866-4.163h-1.599c-.267 0-.267.237-.267.237v.873l-.242-.284c-.525-.613-1.279-.924-2.24-.924-.942 0-1.714.281-2.299.835-.583.552-.878 1.411-.878 2.553v.938c0 1.143.302 2.004.896 2.561.598.56 1.371.844 2.3.844.978 0 1.739-.284 2.264-.845l.238-.255v1.403c0 1.125-.617 1.72-1.785 1.72-.475 0-.865-.086-1.164-.257-.205-.118-.36-.264-.462-.436-.034-.057-.071-.18-.301-.18h-1.607c-.221 0-.202.154-.186.228.129.56.445 1.004.957 1.348.627.422 1.524.636 2.666.636 1.24 0 2.222-.291 2.918-.867.687-.568 1.034-1.35 1.034-2.324v-7.5s.017-.304-.243-.304"/><path d="m436.881 205.334h-1.696c-.246 0-.351.286-.351.286l-2.006 5.361-1.984-5.405s-.036-.242-.316-.242h-1.674c-.324 0-.209.309-.209.309l3.225 7.885-.053.164c-.131.356-.3.593-.514.725-.213.13-.518.194-.937.194h-.348c-.301 0-.27.304-.27.304v1.004c0 .244.203.244.203.244h.494c.774 0 1.399-.138 1.858-.409.456-.269.812-.707 1.057-1.301l3.603-8.785s.187-.334-.082-.334"/><path d="m456.028 203.328c-.836-.637-1.982-.96-3.405-.96-3.206 0-4.767 1.437-4.767 4.393v2.603c0 2.957 1.547 4.393 4.728 4.393 1.447 0 2.6-.32 3.425-.952.765-.587 1.175-1.427 1.22-2.499.003-.059.017-.177-.179-.177h-1.864c-.162 0-.179.1-.182.149-.033.538-.239.975-.615 1.3-.405.35-.993.527-1.747.527-.851 0-1.489-.225-1.896-.671-.404-.442-.607-1.149-.607-2.103v-2.455c0-1.006.197-1.747.585-2.199.396-.458 1.027-.691 1.879-.691.754 0 1.349.184 1.768.545.376.325.588.755.63 1.282.005.055.006.167.224.167h1.854c.15 0 .191-.135.188-.201-.05-1.052-.456-1.854-1.239-2.451"/><path d="m466.296 210.254c0 1.265-.623 1.934-1.805 1.934-1.207 0-1.842-.669-1.842-1.934v-1.548c0-1.266.635-1.935 1.842-1.935 1.182 0 1.805.669 1.805 1.935zm-1.805-5.019c-1.226 0-2.206.283-2.908.843-.692.553-1.044 1.426-1.044 2.594v1.599c0 1.179.352 2.058 1.044 2.61.702.56 1.68.844 2.908.844 1.217 0 2.185-.284 2.879-.843.687-.552 1.035-1.43 1.035-2.611v-1.599c0-1.169-.348-2.043-1.035-2.594-.694-.56-1.662-.843-2.879-.843"/><path d="m479.478 205.334h-1.587c-.149 0-.271.121-.271.271v4.601c0 .672-.112 1.156-.345 1.48-.239.333-.704.502-1.381.502-.68 0-1.145-.178-1.385-.53-.228-.334-.343-.823-.343-1.452v-4.601c0-.15-.121-.271-.271-.271h-1.587c-.149 0-.27.121-.27.271v4.699c0 2.302 1.261 3.421 3.856 3.421 1.303 0 2.281-.287 2.912-.854.625-.565.943-1.428.943-2.567v-4.699c0-.15-.122-.271-.271-.271"/><path d="m154.57 205.334h-1.546c-.155 0-.281.125-.281.281v7.73c0 .156.126.281.281.281h1.546c.155 0 .281-.125.281-.281v-7.73c0-.156-.126-.281-.281-.281"/><path d="m233.139 205.334h-1.547c-.155 0-.28.125-.28.281v7.73c0 .156.125.281.28.281h1.547c.155 0 .28-.125.28-.281v-7.73c0-.156-.125-.281-.28-.281"/><path d="m508.252 205.334h-1.547c-.155 0-.28.125-.28.281v7.73c0 .156.125.281.28.281h1.547c.154 0 .28-.125.28-.281v-7.73c0-.156-.126-.281-.28-.281"/><path d="m149.176 205.334h-1.753v-2.142c0-.11-.09-.2-.2-.2h-1.708c-.11 0-.2.09-.2.2v2.142h-1.21c-.103 0-.185.083-.185.185v.788c0 .102.082.185.185.185h1.21v4.8c0 .722.247 1.277.755 1.698.507.422 1.211.636 2.092.636h.761s.245.027.245-.255v-.947c0-.247-.245-.252-.245-.252h-.373c-.932 0-1.127-.55-1.127-1.011v-4.669h1.753c.103 0 .185-.083.185-.185v-.788c0-.102-.082-.185-.185-.185"/><path d="m341.9 202.533h-8.572c-.149 0-.268.12-.268.268v1.066c0 .148.119.268.268.268h3.143v9.26c0 .127.104.231.231.231h1.806c.127 0 .231-.104.231-.231v-9.26h3.161c.147 0 .268-.12.268-.268v-1.066c0-.148-.121-.268-.268-.268"/></g></g></svg>