<svg enable-background="new 0 0 1744 744" viewBox="0 0 1744 744" xmlns="http://www.w3.org/2000/svg"><g fill="#6450dc"><path d="m249.07 343.55c-11.38 0-21.78-2.1-31.21-6.3s-17.58-10.11-24.45-17.75c-6.87-7.63-12.16-16.59-15.86-26.85-3.7-10.27-5.55-21.47-5.55-33.61v-2.63c0-12.06 1.85-23.21 5.55-33.44s8.97-19.16 15.8-26.8c6.83-7.63 14.96-13.57 24.39-17.81s19.83-6.36 31.21-6.36c11.3 0 21.68 2.12 31.15 6.36s17.71 10.17 24.74 17.81c7.02 7.64 12.44 16.57 16.26 26.8s5.73 21.38 5.73 33.44v2.63c0 12.14-1.91 23.34-5.73 33.61s-9.22 19.22-16.2 26.85c-6.99 7.64-15.21 13.55-24.68 17.75s-19.85 6.3-31.15 6.3zm0-28.06c8.93 0 16.47-2.37 22.62-7.1 6.14-4.73 10.78-11.32 13.91-19.75 3.13-8.44 4.7-18.3 4.7-29.6v-2.86c0-11.07-1.59-20.8-4.75-29.2-3.17-8.4-7.83-14.96-13.97-19.7-6.15-4.73-13.69-7.1-22.62-7.1-9.16 0-16.72 2.35-22.67 7.04-5.96 4.7-10.38 11.22-13.28 19.58s-4.35 18.15-4.35 29.37v2.86c0 11.3 1.47 21.19 4.41 29.66s7.4 15.06 13.4 19.75c5.98 4.71 13.51 7.05 22.6 7.05z"/><path d="m340.23 381.88v-16.3c0-1.45 1.06-2.68 2.5-2.9l10.81-1.62c1.44-.21 2.5-1.45 2.5-2.9v-114.22c0-1.47-1.08-2.71-2.54-2.91l-12.56-1.7c-1.45-.2-2.54-1.44-2.54-2.91v-16.27c0-1.62 1.31-2.93 2.93-2.93h46.48c1.54 0 2.82 1.19 2.92 2.73l.65 9.31c.05.73.97.97 1.4.38 3.25-4.41 7.07-7.88 11.46-10.41 4.96-2.86 10.99-4.29 18.09-4.29 9.85 0 18.3 2.71 25.37 8.13 7.06 5.42 12.48 13 16.26 22.73s5.67 21.09 5.67 34.07v2.4c0 12.22-1.89 22.94-5.67 32.18s-9.24 16.4-16.38 21.47c-7.14 5.08-15.71 7.62-25.71 7.62-6.41 0-12.04-1.17-16.89-3.49-4.23-2.03-7.95-4.92-11.16-8.67-.48-.56-1.38-.25-1.38.48v26.31c0 1.44 1.05 2.67 2.48 2.9l10.16 1.59c1.43.22 2.48 1.45 2.48 2.9v16.32c0 1.62-1.31 2.93-2.93 2.93h-61.47c-1.62 0-2.93-1.31-2.93-2.93zm70.77-66.27c7.94 0 13.59-2.98 16.95-8.93s5.04-14.09 5.04-24.39v-2.4c0-7.33-.76-13.74-2.29-19.24s-3.91-9.77-7.16-12.83c-3.25-3.05-7.5-4.58-12.77-4.58-4.05 0-7.63.9-10.76 2.69-2.55 1.46-4.69 3.49-6.43 6.08-.8 1.19-1.13 2.63-1.13 4.07v47.67c0 1.9.67 3.75 1.92 5.18 1.59 1.81 3.49 3.25 5.69 4.34 3.17 1.56 6.82 2.34 10.94 2.34z"/><path d="m544.65 343.55c-11.99 0-22.45-2.61-31.38-7.84s-15.86-12.41-20.79-21.53c-4.92-9.12-7.39-19.49-7.39-31.09v-4.47c0-12.37 2.25-23.36 6.76-32.98 4.5-9.62 10.99-17.16 19.47-22.62 8.47-5.46 18.63-8.15 30.46-8.07 11.22 0 20.69 2.18 28.4 6.53s13.57 10.71 17.58 19.07 6.01 18.53 6.01 30.52v16.54c0 1.62-1.31 2.93-2.93 2.93h-65.27c-1.42 0-2.56 1.26-2.34 2.66.65 4.02 1.93 7.59 3.72 10.57 2.18 3.63 5.19 6.51 9.05 8.65 3.85 2.14 8.57 3.21 14.14 3.21 5.73 0 11.17-.69 16.32-2.06 4.35-1.16 8.74-2.86 13.17-5.11 1.33-.67 2.95-.12 3.52 1.26l7.11 17.32c.59 1.43.14 3.11-1.14 3.98-4.94 3.37-10.85 6.22-17.73 8.54-7.91 2.65-16.82 3.99-26.74 3.99zm12.47-76.5c1.54 0 2.76-1.27 2.74-2.81-.07-4.86-.39-8.54-1.64-12.25-1.12-3.32-2.94-5.86-5.5-7.62s-5.94-2.63-10.14-2.63c-4.28 0-7.79 1.07-10.54 3.21s-4.83 5.08-6.24 8.82c-1.15 3.04-2.06 6.79-2.65 10.63-.21 1.4.91 2.66 2.33 2.66z"/><path d="m1522.87 343.55c-11.99 0-22.45-2.61-31.38-7.84s-15.86-12.41-20.79-21.53c-4.92-9.12-7.39-19.49-7.39-31.09v-4.47c0-12.37 2.25-23.36 6.76-32.98 4.5-9.62 10.99-17.16 19.47-22.62 8.47-5.46 18.63-8.15 30.46-8.07 11.22 0 20.69 2.18 28.4 6.53s13.57 10.71 17.58 19.07 6.01 18.53 6.01 30.52v16.54c0 1.62-1.31 2.93-2.93 2.93h-65.27c-1.42 0-2.56 1.26-2.34 2.66.65 4.02 1.93 7.59 3.72 10.57 2.18 3.63 5.19 6.51 9.05 8.65 3.85 2.14 8.57 3.21 14.14 3.21 5.73 0 11.17-.69 16.32-2.06 4.35-1.16 8.74-2.86 13.17-5.11 1.33-.67 2.95-.12 3.52 1.26l7.11 17.32c.59 1.43.14 3.11-1.14 3.98-4.94 3.37-10.85 6.22-17.73 8.54-7.9 2.65-16.82 3.99-26.74 3.99zm12.48-76.5c1.54 0 2.76-1.27 2.74-2.81-.07-4.86-.39-8.54-1.64-12.25-1.12-3.32-2.94-5.86-5.5-7.62s-5.94-2.63-10.14-2.63c-4.28 0-7.79 1.07-10.54 3.21s-4.83 5.08-6.24 8.82c-1.15 3.04-2.06 6.79-2.65 10.63-.21 1.4.91 2.66 2.33 2.66z"/><path d="m606.94 338.21v-16.2c0-1.45 1.06-2.68 2.48-2.9l10.38-1.6c1.43-.22 2.48-1.45 2.48-2.9v-70.68c0-1.47-1.08-2.71-2.54-2.9l-12.45-1.7c-1.45-.2-2.54-1.44-2.54-2.9v-16.27c0-1.62 1.31-2.93 2.93-2.93h46.67c1.55 0 2.84 1.21 2.93 2.77l.71 12.53c.04.74.97.98 1.4.38 3.88-5.38 8.53-9.63 13.96-12.76 6.03-3.47 12.9-5.21 20.61-5.21 11.91 0 21.3 3.93 28.17 11.8 6.87 7.86 10.31 20.27 10.31 37.22v50.66c0 1.45 1.05 2.68 2.48 2.9l10.27 1.6c1.43.22 2.48 1.45 2.48 2.9v16.2c0 1.62-1.31 2.93-2.93 2.93h-59.3c-1.62 0-2.93-1.31-2.93-2.93v-16.26c0-1.42 1.02-2.63 2.41-2.89l8.34-1.5c1.4-.25 2.41-1.47 2.41-2.89v-50.72c0-7.48-1.51-12.81-4.52-15.98-3.02-3.17-7.39-4.75-13.11-4.75-4.28 0-8 .86-11.17 2.58-2.27 1.23-4.27 2.84-6.01 4.83-1.26 1.44-1.95 3.3-1.95 5.21v58.89c0 1.4.99 2.6 2.36 2.88l7.19 1.43c1.37.27 2.36 1.48 2.36 2.88v16.31c0 1.62-1.31 2.93-2.93 2.93h-58.04c-1.59-.02-2.91-1.34-2.91-2.96z"/><path d="m836.44 343.55c-16.03 0-30.16-3.3-42.37-9.91-12.22-6.6-21.72-16.05-28.52-28.34s-10.19-27.03-10.19-44.2v-6.53c0-16.11 3.21-30.37 9.62-42.77 6.41-12.41 15.56-22.14 27.43-29.2s25.98-10.59 42.31-10.59c11.45 0 22.27 1.57 32.47 4.7 9.45 2.9 18.1 7.48 25.95 13.73 1.16.93 1.82 2.36 1.82 3.85v27.96c0 1.62-1.31 2.93-2.93 2.93h-22.55c-1.5 0-2.77-1.14-2.92-2.64l-1.17-11.6c-.12-1.18-.75-2.25-1.75-2.88-2.35-1.49-5.14-3.05-7.5-4.11-2.9-1.3-6.03-2.29-9.39-2.98s-6.99-1.03-10.88-1.03c-9.01 0-16.8 2.18-23.36 6.53-6.57 4.35-11.64 10.57-15.23 18.67-3.59 8.09-5.38 17.83-5.38 29.2v6.76c0 10.99 1.85 20.6 5.55 28.8 3.7 8.21 8.95 14.56 15.75 19.07 6.79 4.51 14.7 6.76 23.71 6.76 4.73 0 9.47-.52 14.2-1.55 3.89-.85 8.13-2.15 11.8-3.52 1.4-.52 2.39-1.76 2.56-3.25l1.15-10.35c.17-1.48 1.42-2.61 2.91-2.61h22.62c1.62 0 2.93 1.31 2.93 2.93v27.32c0 1.68-.82 3.26-2.25 4.14-6.17 3.81-13.69 7.13-22.55 9.95-9.96 3.17-21.24 4.76-33.84 4.76z"/><path d="m1054.37 338.21v-16.2c0-1.45 1.06-2.68 2.49-2.9l10.48-1.6c1.43-.22 2.49-1.45 2.49-2.9v-111.95c0-1.47-1.09-2.71-2.54-2.91l-12.66-1.69c-1.46-.19-2.54-1.44-2.54-2.91v-16.25c0-1.62 1.31-2.93 2.93-2.93h48.53c1.62 0 2.93 1.31 2.93 2.93v135.72c0 1.45 1.06 2.68 2.48 2.9l10.38 1.6c1.43.22 2.48 1.45 2.48 2.9v16.2c0 1.62-1.31 2.93-2.93 2.93h-61.59c-1.62 0-2.93-1.32-2.93-2.94z"/><path d="m1267.38 343.55c-12.9 0-23.06-4.1-30.46-12.31-7.41-8.21-11.11-20.9-11.11-38.08v-49.33c0-1.42-1.02-2.64-2.42-2.89l-8.56-1.52c-1.4-.25-2.42-1.47-2.42-2.89v-16.37c0-1.62 1.31-2.93 2.93-2.93h10.47 33.71c1.62 0 2.93 1.31 2.93 2.93v73.22c0 7.48 1.41 13 4.24 16.55 2.82 3.55 7.14 5.33 12.94 5.33 3.97 0 7.65-.76 11.05-2.29 2.31-1.04 4.39-2.42 6.23-4.13 1.57-1.46 2.42-3.55 2.42-5.69v-59.3c0-1.43-1.03-2.65-2.44-2.89l-9.2-1.56c-1.41-.24-2.44-1.46-2.44-2.89v-16.35c0-1.62 1.31-2.93 2.93-2.93h11.15 33.71c1.62 0 2.93 1.31 2.93 2.93v94.46c0 1.45 1.05 2.68 2.48 2.9l10.27 1.6c1.43.22 2.48 1.45 2.48 2.9v16.2c0 1.62-1.31 2.93-2.93 2.93h-42.42c-1.5 0-2.75-1.13-2.91-2.62l-1.11-10.33c-.08-.7-.95-.92-1.38-.37-3.74 4.81-8.22 8.56-13.43 11.25-5.77 2.98-12.31 4.47-19.64 4.47z"/><path d="m961.38 343.55c-12.9 0-23.06-4.1-30.46-12.31-7.41-8.21-11.11-20.9-11.11-38.08v-49.33c0-1.42-1.02-2.64-2.42-2.89l-8.56-1.52c-1.4-.25-2.42-1.47-2.42-2.89v-16.37c0-1.62 1.31-2.93 2.93-2.93h44.18c1.62 0 2.93 1.31 2.93 2.93v73.22c0 7.48 1.41 13 4.24 16.55 2.82 3.55 7.14 5.33 12.94 5.33 3.97 0 7.65-.76 11.05-2.29 2.31-1.04 4.39-2.42 6.23-4.13 1.57-1.46 2.42-3.55 2.42-5.69v-59.3c0-1.43-1.03-2.65-2.44-2.89l-9.2-1.56c-1.41-.24-2.44-1.46-2.44-2.89v-16.35c0-1.62 1.31-2.93 2.93-2.93h44.87c1.62 0 2.93 1.31 2.93 2.93v94.46c0 1.45 1.05 2.68 2.48 2.9l10.27 1.6c1.43.22 2.48 1.45 2.48 2.9v16.2c0 1.62-1.31 2.93-2.93 2.93h-42.42c-1.5 0-2.75-1.13-2.91-2.62l-1.11-10.33c-.08-.7-.95-.92-1.38-.37-3.74 4.81-8.22 8.56-13.43 11.25-5.77 2.98-12.32 4.47-19.65 4.47z"/><path d="m1365.75 338.21v-16.2c0-1.45 1.05-2.68 2.48-2.9l10.27-1.6c1.43-.22 2.48-1.45 2.48-2.9v-70.69c0-1.47-1.08-2.71-2.53-2.9l-12.34-1.69c-1.45-.2-2.53-1.44-2.53-2.9v-16.27c0-1.62 1.31-2.93 2.93-2.93h46.47c1.57 0 2.87 1.23 2.95 2.8l.62 12.18c.04.8 1.13 1.04 1.47.32 2.65-5.49 5.8-9.67 9.46-12.54 4.28-3.36 9.54-5.04 15.8-5.04 1.83 0 3.91.15 6.24.46 1.42.19 2.79.43 4.12.73 1.43.32 2.35 1.73 2.18 3.19l-3.19 28.39c-.17 1.54-1.51 2.67-3.05 2.6l-14.09-.67c-4.43-.23-7.94.38-10.54 1.83-1.75.98-3.43 2.31-5.05 3.98-1.44 1.49-2.28 3.48-2.28 5.56v53.61c0 1.45 1.06 2.68 2.48 2.9l10.38 1.6c1.43.22 2.48 1.45 2.48 2.9v16.2c0 1.62-1.31 2.93-2.93 2.93h-61.36c-1.61-.01-2.92-1.33-2.92-2.95z"/><path d="m173.95 569.6v-14.43l18.67-1.6v-134.57l-18.67-1.6v-14.54h125.4v40.08h-18.09l-1.26-22.56h-64.82v57.72h61.04v17.75h-61.04v57.72l18.67 1.6v14.43z"/><path d="m362.67 572c-11.45 0-21.32-2.69-29.6-8.07-8.29-5.38-14.68-12.83-19.18-22.33-4.51-9.51-6.76-20.36-6.76-32.58v-2.52c0-12.21 2.25-23.08 6.76-32.58 4.5-9.51 10.9-16.97 19.18-22.39s18.07-8.13 29.37-8.13c11.45 0 21.32 2.71 29.6 8.13s14.68 12.87 19.18 22.33c4.5 9.47 6.76 20.35 6.76 32.64v2.52c0 12.29-2.25 23.19-6.76 32.7s-10.88 16.93-19.12 22.27-18.05 8.01-29.43 8.01zm0-17.64c7.17 0 13.19-1.97 18.04-5.9s8.51-9.31 10.99-16.15c2.48-6.83 3.72-14.6 3.72-23.3v-2.52c0-8.7-1.24-16.47-3.72-23.3s-6.17-12.21-11.05-16.15c-4.89-3.93-10.96-5.9-18.21-5.9-7.18 0-13.21 1.97-18.09 5.9-4.89 3.93-8.55 9.32-10.99 16.15-2.45 6.83-3.66 14.6-3.66 23.3v2.52c0 8.7 1.22 16.47 3.66 23.3s6.13 12.22 11.05 16.15c4.92 3.94 11.01 5.9 18.26 5.9z"/><path d="m489.91 572c-13.44 0-23.93-4.31-31.49-12.94s-11.34-22.06-11.34-40.31v-56.92l-14.2-1.6v-14.54h14.2 22.56v73.29c0 13.21 1.95 22.29 5.84 27.26 3.89 4.96 9.96 7.44 18.21 7.44 8.02 0 14.64-1.62 19.87-4.87 5.23-3.24 9.18-7.84 11.85-13.8v-73.18l-16.61-1.6v-14.54h16.61 22.56v107.88l14.2 1.6v14.43h-35.21l-.74-18.32c-3.89 6.64-8.92 11.76-15.06 15.35-6.16 3.58-13.24 5.37-21.25 5.37z"/><path d="m577.97 569.6v-14.43l18.67-1.6v-91.73l-18.67-1.6v-14.54h39.62l.8 18.44c4.12-6.56 9.29-11.66 15.52-15.29 6.22-3.63 13.3-5.44 21.24-5.44 13.36 0 23.71 3.91 31.03 11.74 7.33 7.83 10.99 19.91 10.99 36.25v62.18l18.67 1.6v14.43h-59.89v-14.43l18.67-1.6v-61.73c0-10.92-2.16-18.67-6.47-23.25s-10.9-6.87-19.75-6.87c-6.49 0-12.24 1.57-17.24 4.7s-8.99 7.41-11.97 12.83v74.32l18.67 1.6v14.43h-59.89z"/><path d="m1286.73 569.6v-14.43l18.67-1.6v-91.73l-18.67-1.6v-14.54h39.62l.8 18.44c4.12-6.56 9.29-11.66 15.52-15.29 6.22-3.63 13.3-5.44 21.24-5.44 13.36 0 23.71 3.91 31.03 11.74 7.33 7.83 10.99 19.91 10.99 36.25v62.18l18.67 1.6v14.43h-59.89v-14.43l18.67-1.6v-61.73c0-10.92-2.16-18.67-6.47-23.25s-10.9-6.87-19.75-6.87c-6.49 0-12.24 1.57-17.24 4.7s-8.99 7.41-11.97 12.83v74.32l18.67 1.6v14.43h-59.89z"/><path d="m779.3 572c-10.08 0-18.72-2.5-25.94-7.5s-12.73-11.97-16.55-20.9-5.73-19.35-5.73-31.26v-2.4c0-13.28 1.91-24.93 5.73-34.93s9.35-17.77 16.61-23.3c7.25-5.53 15.96-8.3 26.11-8.3 7.33 0 13.8 1.36 19.41 4.07s10.4 6.62 14.37 11.74v-40.22l-18.67-1.6v-14.54h18.67 22.56v150.71l18.67 1.6v14.43h-39.17l-.92-14.77c-4.05 5.65-8.99 9.93-14.83 12.83-5.84 2.89-12.61 4.34-20.32 4.34zm5.72-18.32c6.72 0 12.37-1.53 16.95-4.58s8.36-7.37 11.34-12.94v-57.49c-2.9-5.19-6.68-9.31-11.34-12.37-4.66-3.05-10.23-4.58-16.72-4.58-7.18 0-13.1 2.04-17.75 6.13-4.66 4.09-8.13 9.73-10.42 16.95-2.29 7.21-3.44 15.59-3.44 25.14v2.4c0 12.45 2.56 22.45 7.67 30 5.12 7.56 13.02 11.34 23.71 11.34z"/><path d="m910.19 572c-12.9 0-22.71-3.15-29.43-9.45s-10.08-15.17-10.08-26.63c0-7.86 2.16-14.72 6.47-20.56s10.55-10.38 18.72-13.63c8.17-3.24 17.94-4.87 29.32-4.87h22.1v-12.14c0-7.48-2.27-13.28-6.81-17.41-4.54-4.12-10.94-6.18-19.18-6.18-5.19 0-9.7.63-13.51 1.89-3.82 1.26-8.4 3.48-11.62 6.07l-1.2 16.43h-17.41v-28.4c5.57-4.5 12.06-7.92 19.47-10.25 7.4-2.33 15.61-3.49 24.62-3.49 15.04 0 26.84 3.59 35.39 10.76 8.55 7.18 12.83 17.45 12.83 30.81v59.66c0 1.6.02 3.17.06 4.7s.18 3.51.33 5.04l11.98.8v14.43h-33.61s-1-8.96-1.2-17.06c-4.35 5.57-9.79 10.21-16.32 13.91-6.55 3.72-13.51 5.57-20.92 5.57zm3.32-18.9c7.48 0 14.31-1.79 20.5-5.38 6.18-3.59 10.61-7.9 13.28-12.94v-22.45h-22.9c-10.38 0-18.17 2.48-23.36 7.44s-7.79 10.5-7.79 16.61c0 5.42 1.68 9.56 5.04 12.43 3.36 2.86 8.44 4.29 15.23 4.29z"/><path d="m1043.49 571.54c-9.16 0-16.43-2.69-21.82-8.07-5.38-5.38-8.07-13.99-8.07-25.82v-75.25h-19.58v-16.72h19.58v-30.92h22.56v30.92h26.91v16.72h-26.91v75.24c0 5.96 1.18 10.35 3.55 13.17 2.36 2.82 5.54 4.24 9.51 4.24 2.67 0 5.45-.13 8.93-.36 3.31-.21 5.6-.49 7.67-.83l2.83 15.15c-3.37.82-7 1.47-11.81 1.89-5.56.48-9.22.64-13.35.64z"/><path d="m1082.54 569.6v-14.43l18.67-1.6v-91.73l-18.67-1.6v-14.54h41.23v107.88l18.67 1.6v14.43h-59.9zm17.53-142.58v-24.16h23.71v24.16z"/><path d="m1214.01 572c-11.45 0-21.32-2.69-29.6-8.07-8.29-5.38-14.68-12.83-19.18-22.33-4.51-9.51-6.76-20.36-6.76-32.58v-2.52c0-12.21 2.25-23.08 6.76-32.58 4.5-9.51 10.9-16.97 19.18-22.39s18.07-8.13 29.37-8.13c11.45 0 21.32 2.71 29.6 8.13s14.68 12.87 19.18 22.33c4.5 9.47 6.76 20.35 6.76 32.64v2.52c0 12.29-2.25 23.19-6.76 32.7s-10.88 16.93-19.12 22.27-18.05 8.01-29.43 8.01zm0-17.64c7.17 0 13.19-1.97 18.04-5.9s8.51-9.31 10.99-16.15c2.48-6.83 3.72-14.6 3.72-23.3v-2.52c0-8.7-1.24-16.47-3.72-23.3s-6.17-12.21-11.05-16.15c-4.89-3.93-10.96-5.9-18.21-5.9-7.18 0-13.21 1.97-18.09 5.9-4.89 3.93-8.55 9.32-10.99 16.15s-3.66 14.6-3.66 23.3v2.52c0 8.7 1.22 16.47 3.66 23.3s6.13 12.22 11.05 16.15c4.92 3.94 11.01 5.9 18.26 5.9z"/><path d="m1447.23 553.56v16.03h122.25v-16.03z"/><path d="m1181.37 343.66c-12.22 0-21.57-3.3-28.06-9.91-6.49-6.6-9.73-17.08-9.73-31.44v-56.61c0-1.62-1.31-2.93-2.93-2.93h-10.4c-1.62 0-2.93-1.31-2.93-2.93v-19.67c0-1.62 1.31-2.93 2.93-2.93h10.4c1.62 0 2.93-1.31 2.93-2.93v-24.6c0-1.62 1.31-2.93 2.93-2.93h30.55c1.62 0 2.93 1.31 2.93 2.93v24.6c0 1.62 1.31 2.93 2.93 2.93h15.78c1.62 0 2.93 1.31 2.93 2.93v19.67c0 1.62-1.31 2.93-2.93 2.93h-15.78c-1.62 0-2.93 1.31-2.93 2.93v56.5c0 4.43.97 7.58 2.92 9.45s4.6 2.81 7.96 2.81c2.05 0 4.64-.2 7.22-.5 1.51-.18 2.88.92 3.03 2.44l2.16 21.14c.18 1.72-.91 3.33-2.58 3.76-2.55.66-5.2 1.22-7.94 1.6-3.79.53-7.57.76-11.39.76z"/></g><path d="m0 0h1744v744h-1744z" fill="none"/></svg>